<svg width="862" height="710" viewBox="0 0 862 710" fill="none" xmlns="http://www.w3.org/2000/svg">
<ellipse cx="433.157" cy="662.89" rx="304.195" ry="46.7993" fill="#111111"/>
<path d="M665.865 534.304L678.181 593.419" stroke="#111111" stroke-width="4.92624" stroke-linecap="round"/>
<path d="M690.498 556.473L702.814 615.588" stroke="#111111" stroke-width="4.92624" stroke-linecap="round"/>
<path d="M225.021 524.955L212.706 584.07" stroke="#111111" stroke-width="4.92624" stroke-linecap="round"/>
<path d="M200.389 547.124L188.073 606.239" stroke="#111111" stroke-width="4.92624" stroke-linecap="round"/>
<path d="M588.316 24.9814L661.167 144.964" stroke="#111111" stroke-width="7.38935" stroke-linecap="round"/>
<path d="M644.614 53.5671L717.464 173.55" stroke="#111111" stroke-width="7.38935" stroke-linecap="round"/>
<path d="M349.409 351.305C319.567 371.364 273.444 326.131 301.363 432.526" stroke="#111111" stroke-width="24.6312" stroke-linecap="round"/>
<path d="M272.339 406.429C274.063 380.636 260.907 363.325 260.907 363.325C235.045 330.064 211.071 338.855 196.866 338.693C242.434 353.472 235.045 403.965 235.045 403.965C228.716 428.592 287.831 453.219 309.999 506.177C314.926 498.788 311.401 480.323 311.401 480.323C328.643 477.86 326.18 456.923 326.18 456.923C311.401 406.429 272.339 406.429 272.339 406.429Z" fill="white"/>
<path d="M179.624 341.867C179.624 341.867 205.317 338.217 223.79 417.809C223.79 417.809 242.264 463.073 309.999 506.177C287.831 453.219 228.716 428.592 235.045 403.965C235.045 403.965 242.434 353.472 196.866 338.693C183.472 338.54 179.624 341.867 179.624 341.867Z" fill="white"/>
<path d="M223.79 417.809C205.317 338.217 179.624 341.867 179.624 341.867C144.494 341.114 148.836 368.248 148.836 368.248C148.836 368.248 155.316 419.42 187.014 461.846C220.476 506.635 279.614 542.663 294.16 536.971C322.485 525.888 309.999 506.177 309.999 506.177C242.264 463.073 223.79 417.809 223.79 417.809Z" fill="#111111"/>
<path d="M179.624 341.867C179.624 341.867 205.317 338.217 223.79 417.809C223.79 417.809 242.264 463.073 309.999 506.177M179.624 341.867C144.494 341.114 148.836 368.248 148.836 368.248C148.836 368.248 155.316 419.42 187.014 461.846C220.476 506.634 279.614 542.663 294.16 536.971C322.485 525.888 309.999 506.177 309.999 506.177M179.624 341.867C181.916 341.916 176.985 341.565 179.624 341.867ZM179.624 341.867C179.624 341.867 183.472 338.54 196.866 338.693M309.999 506.177C314.926 498.788 311.401 480.323 311.401 480.323M309.999 506.177C287.831 453.219 228.716 428.592 235.045 403.965C235.045 403.965 242.434 353.472 196.866 338.693M264.602 434.752C266.859 430.098 268.55 425.573 269.776 421.208M269.776 421.208C269.776 421.208 280.612 423.671 285.538 434.752M269.776 421.208C271.228 416.039 272.027 411.095 272.339 406.429M272.339 406.429C274.063 380.636 260.907 363.325 260.907 363.325C235.045 330.064 211.071 338.855 196.866 338.693M272.339 406.429C272.339 406.429 311.401 406.429 326.18 456.923C326.18 456.923 328.643 477.86 311.401 480.323M311.401 480.323C311.401 480.323 307.707 477.86 301.549 456.923" stroke="#111111" stroke-width="4.92624" stroke-linecap="round"/>
<path d="M159.389 220.615L153.088 210.033L131.925 222.636L138.226 233.217L159.389 220.615ZM272.92 305.534C279.506 303.833 283.467 297.116 281.766 290.53C280.066 283.945 273.349 279.984 266.763 281.685L272.92 305.534ZM138.226 233.217C147.428 248.671 165.581 270.114 188.64 286.059C211.637 301.963 241.45 313.659 272.92 305.534L266.763 281.685C245.05 287.29 222.697 279.664 202.649 265.8C182.662 251.978 166.889 233.21 159.389 220.615L138.226 233.217Z" fill="#111111"/>
<path d="M167.976 207.16C161.341 212.354 134.801 233.131 106.309 220.657C106.309 220.657 89.4286 199.093 92.3859 199.453C92.3859 199.453 136.024 210.771 162.924 187.038C162.924 187.038 174.611 201.966 167.976 207.16Z" fill="white"/>
<path d="M162.924 187.038C136.024 210.771 92.3859 199.453 92.3859 199.453C92.3859 199.453 68.5107 186.04 62.3071 164.448C62.3071 164.448 56.2459 163.539 44.9194 145.653C33.593 127.767 60.1329 106.99 60.1329 106.99C69.8671 88.6689 87.611 90.83 87.611 90.83C95.8292 60.319 122.838 71.2789 135.79 77.1915C148.741 83.1041 157.865 105.39 157.865 105.39C162.916 125.513 157.735 132.244 157.735 132.244C175.576 150.056 179.451 151.416 179.294 163.522C179.137 175.628 162.924 187.038 162.924 187.038Z" fill="white"/>
<path d="M92.3859 199.453C89.4286 199.093 106.309 220.657 106.309 220.657C134.801 233.131 161.341 212.354 167.976 207.16C174.611 201.966 162.924 187.038 162.924 187.038M92.3859 199.453C92.3859 199.453 136.024 210.771 162.924 187.038M92.3859 199.453C92.3859 199.453 68.5107 186.04 62.3071 164.448M162.924 187.038C162.924 187.038 179.137 175.628 179.294 163.522C179.451 151.416 175.576 150.056 157.735 132.244M128.301 163.312C129.239 167.928 124.983 165.909 124.983 165.909C97.2115 147.521 100.671 131.436 100.671 131.436C105.572 103.522 128.87 109.361 128.87 109.361C129.362 109.679 129.851 109.996 130.334 110.313M157.735 132.244C157.735 132.244 162.916 125.513 157.865 105.39C157.865 105.39 148.741 83.1041 135.79 77.1915C122.838 71.2789 95.8292 60.319 87.611 90.83M157.735 132.244C150.882 125.403 141.945 117.92 130.334 110.313M87.611 90.83C87.611 90.83 81.1939 106.555 99.7334 126.82M87.611 90.83C87.611 90.83 69.8671 88.6689 60.1329 106.99M130.334 110.313C130.334 110.313 132.548 103.807 118.664 95.4047M60.1329 106.99C60.1329 106.99 52.4927 145.075 92.2357 151.416C92.2357 151.416 101.107 152.497 104.785 146.942M60.1329 106.99C60.1329 106.99 33.593 127.767 44.9194 145.653C56.2459 163.539 62.3071 164.448 62.3071 164.448M81.7051 151.634C87.0443 166.611 69.6424 165.52 62.3071 164.448" stroke="#111111" stroke-width="7.38935" stroke-linecap="round" stroke-linejoin="round"/>
<path d="M493.503 359.927L553.849 467.072" stroke="#111111" stroke-width="24.6312" stroke-linecap="round"/>
<path d="M638.823 556.976C638.823 568.268 631.846 576.768 618.883 582.648C605.832 588.567 587.341 591.459 566.161 591.459C545.311 591.459 526.611 586.22 513.243 577.945C499.818 569.634 492.268 558.636 492.268 547.123C492.268 535.611 499.818 524.613 513.243 516.302C526.611 508.026 545.311 502.787 566.161 502.787C587.13 502.787 605.392 507.318 618.3 516.289C631.043 525.146 638.823 538.486 638.823 556.976Z" fill="white" stroke="#111111" stroke-width="7.38935"/>
<path d="M610.498 491.387C610.498 498.887 605.797 504.709 596.426 508.855C586.99 513.03 573.526 515.103 557.995 515.103C542.784 515.103 529.192 511.372 519.525 505.535C509.788 499.655 504.584 492.04 504.584 484.314C504.584 476.587 509.788 468.973 519.525 463.093C529.192 457.255 542.784 453.525 557.995 453.525C573.322 453.525 586.559 456.759 595.847 463.056C604.965 469.238 610.498 478.495 610.498 491.387Z" fill="white" stroke="#111111" stroke-width="7.38935"/>
<path d="M636.363 534.808C636.363 546.1 629.385 554.6 616.422 560.48C603.371 566.399 584.881 569.291 563.701 569.291C542.85 569.291 524.15 564.052 510.782 555.777C497.357 547.466 489.807 536.468 489.807 524.955C489.807 513.443 497.357 502.445 510.782 494.134C524.15 485.858 542.85 480.619 563.701 480.619C584.669 480.619 602.931 485.15 615.839 494.121C628.582 502.978 636.363 516.318 636.363 534.808Z" fill="white" stroke="#111111" stroke-width="7.38935" stroke-linecap="round"/>
<path d="M714.336 318.787L716.655 331.829L742.739 327.192L740.42 314.149L714.336 318.787ZM593.7 207.305C586.399 207.784 580.869 214.09 581.347 221.39C581.826 228.69 588.131 234.221 595.432 233.742L593.7 207.305ZM740.42 314.149C731.156 262.045 706.756 233.37 676.854 219.05C648.032 205.246 616.122 205.836 593.7 207.305L595.432 233.742C617.367 232.305 643.232 232.322 665.41 242.944C686.51 253.049 706.337 273.8 714.336 318.787L740.42 314.149Z" fill="#111111"/>
<path d="M703.977 312.817C703.977 312.817 734.569 297.829 760.691 312.429L769.85 331.124C769.85 331.124 723.437 313.821 698.742 332.243L703.977 312.817Z" fill="white"/>
<path fill-rule="evenodd" clip-rule="evenodd" d="M769.85 331.124C769.85 331.124 723.437 313.821 698.742 332.243L687.609 348.235C687.609 348.235 673.455 365.708 692.401 383.824L704.229 386.458L691.871 386.191C690.382 394.432 701.636 443.674 722.378 445.008C722.378 445.008 739.269 449.378 754.633 433.42C754.633 433.42 761.363 438.552 775.028 423.427C775.028 423.427 789.457 418.465 793.723 414.267C797.989 410.07 801.393 409.19 799.828 392.308C798.263 375.427 796.466 342.686 769.85 331.124Z" fill="white"/>
<path d="M769.85 331.124L760.691 312.429C734.569 297.829 703.977 312.817 703.977 312.817L698.742 332.243M769.85 331.124C769.85 331.124 723.437 313.821 698.742 332.243M769.85 331.124C796.466 342.686 798.263 375.427 799.828 392.308C801.393 409.19 797.989 410.07 793.723 414.267C789.457 418.465 775.028 423.427 775.028 423.427M698.742 332.243L687.609 348.235C687.609 348.235 673.455 365.708 692.401 383.824M692.401 383.824L704.229 386.458L691.871 386.191M692.401 383.824C692.401 383.824 692.146 384.667 691.871 386.191M754.633 433.42C739.269 449.378 722.378 445.008 722.378 445.008C701.636 443.674 690.382 394.432 691.871 386.191M754.633 433.42C754.633 433.42 759.8 422.458 755.637 413.96M754.633 433.42C754.633 433.42 761.363 438.552 775.028 423.427M775.028 423.427C775.028 423.427 784.427 412.5 780.298 399.77M723.025 364.604C723.025 364.604 738.047 390.965 732.949 393.463M741.72 355.444C741.72 355.444 758.442 380.972 755.043 382.638" stroke="#111111" stroke-width="7.38935" stroke-linecap="round" stroke-linejoin="round"/>
<mask id="mask0_23_1509" style="mask-type:alpha" maskUnits="userSpaceOnUse" x="237" y="0" width="383" height="383">
<circle cx="428.23" cy="191.203" r="184.734" fill="url(#paint0_linear_23_1509)" stroke="#111111" stroke-width="12.3156"/>
</mask>
<g mask="url(#mask0_23_1509)">
<circle cx="428.23" cy="191.203" r="184.734" fill="#FEA804" stroke="#111111" stroke-width="12.3156"/>
<g opacity="0.46">
<path d="M289.382 240.225L234.517 236.37L230.957 281.563L258.321 339.703L308.929 374.95L346.248 333.085L289.382 240.225Z" fill="#111111"/>
<path d="M321.984 60.2202L337.319 147.347L451.253 150.253L492.622 63.1072L414.25 8.52366L321.984 60.2202Z" fill="#111111"/>
<path d="M587.158 67.9646L634.455 155.449L653.17 158.176L632.376 94.3038L588.971 37.4462L587.158 67.9646Z" fill="#111111"/>
<path d="M593.711 250.33L507.85 251.515L460.569 340.985L516.672 380.059L559.025 355.014L598.904 321.804L593.711 250.33Z" fill="#111111"/>
<path d="M346.248 333.085L308.929 374.95L338.303 391.973L346.248 333.085Z" fill="#111111"/>
<path d="M234.517 236.37L217.736 148.237L249.891 71.853L321.984 60.2202M234.517 236.37L289.382 240.225M234.517 236.37L230.957 281.563L258.321 339.703L308.929 374.95M321.984 60.2202L337.319 147.347M321.984 60.2202L414.25 8.52366M337.319 147.347L289.382 240.225M337.319 147.347L451.253 150.253M289.382 240.225L346.248 333.085M346.248 333.085L308.929 374.95M346.248 333.085C390.029 339.924 415.092 341.556 460.569 340.985M346.248 333.085L338.303 391.973L308.929 374.95M451.253 150.253L492.622 63.1072M451.253 150.253C479.891 189.953 492.179 212.122 507.85 251.515M492.622 63.1072L414.25 8.52366M492.622 63.1072L587.158 67.9646M414.25 8.52366L425.365 -28.4005M587.158 67.9646L634.455 155.449M587.158 67.9646L588.971 37.4462L632.376 94.3037L653.17 158.176L634.455 155.449M634.455 155.449C625.827 193.511 617.281 214.337 593.711 250.33M507.85 251.515L593.711 250.33M507.85 251.515L460.569 340.985M593.711 250.33L598.904 321.804L559.025 355.014L516.672 380.059M516.672 380.059L460.569 340.985M516.672 380.059C493.437 396.253 477.86 404.67 445.306 418.397" stroke="black" stroke-width="12.6871"/>
</g>
<path fill-rule="evenodd" clip-rule="evenodd" d="M343.983 201.055C339.755 214.456 332.729 223.223 324.778 223.223C311.854 223.223 301.378 200.065 301.378 171.498V140.709L348.177 171.498C348.177 176.185 347.895 180.727 347.366 185.045L334.63 191.203L343.983 201.055Z" fill="#111111"/>
<path fill-rule="evenodd" clip-rule="evenodd" d="M375.271 172.84C375.271 209.508 388.504 239.233 404.828 239.233C417.71 239.233 428.667 220.723 432.715 194.897L420.839 186.276L434.265 178.887C434.345 176.895 434.386 174.878 434.386 172.84V133.319L375.271 172.84Z" fill="#111111"/>
<path d="M298.916 125.931C298.916 125.931 302.611 116.078 308.768 116.079C314.926 116.08 351.873 150.563 351.873 150.563C351.873 150.563 350.642 159.185 346.947 156.72C343.252 154.256 298.916 125.931 298.916 125.931Z" fill="#111111" stroke="#111111" stroke-width="2.46312"/>
<path d="M436.851 118.629C436.851 118.629 429.805 100.067 422.072 100.067C414.339 100.068 370.346 149.64 370.346 149.64C370.346 149.64 371.893 160.496 376.533 157.393C381.173 154.29 436.851 118.629 436.851 118.629Z" fill="#111111" stroke="#111111" stroke-width="2.46312"/>
</g>
<defs>
<linearGradient id="paint0_linear_23_1509" x1="212.707" y1="36.0263" x2="605.574" y2="335.295" gradientUnits="userSpaceOnUse">
<stop stop-color="#179B3C"/>
<stop offset="0.286458" stop-color="#74C722"/>
<stop offset="0.536458" stop-color="#B5B911"/>
<stop offset="0.791667" stop-color="#F6AA00"/>
<stop offset="1" stop-color="#FF6B00"/>
</linearGradient>
</defs>
</svg>
