<svg width="210" height="208" viewBox="0 0 210 208" fill="none" xmlns="http://www.w3.org/2000/svg">
<ellipse cx="165.025" cy="167.481" rx="106.275" ry="16.35" fill="#111111"/>
<path d="M121.766 122.625C111.34 129.633 95.2262 113.83 104.98 151.001" stroke="#111111" stroke-width="8.60526" stroke-linecap="round"/>
<path d="M94.84 141.883C95.4425 132.872 90.8462 126.824 90.8462 126.824C81.8107 115.204 73.4353 118.275 68.4726 118.219C84.3923 123.382 81.8107 141.023 81.8107 141.023C79.5999 149.626 100.253 158.23 107.997 176.732C109.718 174.15 108.487 167.699 108.487 167.699C114.511 166.839 113.65 159.524 113.65 159.524C108.487 141.883 94.84 141.883 94.84 141.883Z" fill="white"/>
<path d="M62.4489 119.327C62.4489 119.327 71.4249 118.053 77.8788 145.859C77.8788 145.859 84.3328 161.672 107.997 176.732C100.253 158.23 79.5999 149.626 81.8107 141.023C81.8107 141.023 84.3923 123.382 68.4726 118.219C63.793 118.165 62.4489 119.327 62.4489 119.327Z" fill="white"/>
<path d="M77.8788 145.859C71.4249 118.053 62.4489 119.327 62.4489 119.327C50.1756 119.064 51.6924 128.544 51.6924 128.544C51.6924 128.544 53.9565 146.422 65.0305 161.244C76.7209 176.891 97.3816 189.479 102.463 187.49C112.359 183.618 107.997 176.732 107.997 176.732C84.3328 161.672 77.8788 145.859 77.8788 145.859Z" fill="#111111"/>
<path d="M62.4489 119.327C62.4489 119.327 71.4249 118.053 77.8788 145.859C77.8788 145.859 84.3328 161.672 107.997 176.732M62.4489 119.327C50.1756 119.064 51.6924 128.544 51.6924 128.544C51.6924 128.544 53.9565 146.422 65.0305 161.244C76.7209 176.891 97.3816 189.479 102.463 187.49C112.359 183.618 107.997 176.732 107.997 176.732M62.4489 119.327C63.2494 119.345 61.5269 119.222 62.4489 119.327ZM62.4489 119.327C62.4489 119.327 63.793 118.165 68.4726 118.219M107.997 176.732C109.718 174.15 108.487 167.699 108.487 167.699M107.997 176.732C100.253 158.23 79.5999 149.626 81.8107 141.023C81.8107 141.023 84.3923 123.382 68.4726 118.219M92.137 151.778C92.9255 150.152 93.5164 148.571 93.9447 147.046M93.9447 147.046C93.9447 147.046 97.7304 147.907 99.4515 151.778M93.9447 147.046C94.4519 145.241 94.731 143.513 94.84 141.883M94.84 141.883C95.4425 132.872 90.8462 126.824 90.8462 126.824C81.8107 115.204 73.4353 118.275 68.4726 118.219M94.84 141.883C94.84 141.883 108.487 141.883 113.65 159.524C113.65 159.524 114.511 166.839 108.487 167.699M108.487 167.699C108.487 167.699 107.196 166.839 105.045 159.524" stroke="#111111" stroke-width="1.72105" stroke-linecap="round"/>
<path d="M55.3804 76.9665L53.179 73.2696L45.7854 77.6724L47.9868 81.3692L55.3804 76.9665ZM95.0442 106.634C97.345 106.04 98.7286 103.693 98.1346 101.392C97.5405 99.0916 95.1938 97.708 92.893 98.3021L95.0442 106.634ZM47.9868 81.3692C51.2017 86.7682 57.5437 94.2596 65.5995 99.8304C73.6341 105.387 84.0496 109.473 95.0442 106.634L92.893 98.3021C85.3074 100.261 77.498 97.5961 70.4939 92.7526C63.511 87.9238 58.0006 81.3666 55.3804 76.9665L47.9868 81.3692Z" fill="#111111"/>
<path d="M58.3795 72.2659C56.0615 74.0805 46.7894 81.339 36.8353 76.981C36.8353 76.981 30.9378 69.4475 31.9709 69.5733C31.9709 69.5733 47.2167 73.5274 56.6146 65.2357C56.6146 65.2357 60.6975 70.4512 58.3795 72.2659Z" fill="white"/>
<path d="M56.6146 65.2357C47.2167 73.5274 31.9709 69.5733 31.9709 69.5733C31.9709 69.5733 23.6298 64.8873 21.4625 57.3437C21.4625 57.3437 19.3449 57.0259 15.3878 50.7772C11.4308 44.5285 20.7029 37.27 20.7029 37.27C24.1037 30.8692 30.3028 31.6242 30.3028 31.6242C33.1739 20.9648 42.6098 24.7937 47.1347 26.8594C51.6595 28.925 54.8468 36.711 54.8468 36.711C56.6117 43.7411 54.8015 46.0929 54.8015 46.0929C61.0346 52.3156 62.3884 52.7908 62.3335 57.0201C62.2787 61.2494 56.6146 65.2357 56.6146 65.2357Z" fill="white"/>
<path d="M31.9709 69.5733C30.9378 69.4475 36.8353 76.981 36.8353 76.981C46.7894 81.339 56.0615 74.0805 58.3795 72.2659C60.6975 70.4512 56.6146 65.2357 56.6146 65.2357M31.9709 69.5733C31.9709 69.5733 47.2167 73.5274 56.6146 65.2357M31.9709 69.5733C31.9709 69.5733 23.6298 64.8873 21.4625 57.3437M56.6146 65.2357C56.6146 65.2357 62.2787 61.2494 62.3335 57.0201C62.3884 52.7908 61.0346 52.3156 54.8015 46.0929M44.5182 56.9469C44.846 58.5596 43.3592 57.8542 43.3592 57.8542C33.6568 51.4299 34.8656 45.8105 34.8656 45.8105C36.5777 36.0584 44.717 38.0984 44.717 38.0984C44.8892 38.2093 45.0598 38.32 45.2287 38.4307M54.8015 46.0929C54.8015 46.0929 56.6117 43.7411 54.8468 36.711C54.8468 36.711 51.6595 28.925 47.1347 26.8594C42.6098 24.7937 33.1739 20.9647 30.3028 31.6242M54.8015 46.0929C52.4073 43.7026 49.285 41.0884 45.2287 38.4307M30.3028 31.6242C30.3028 31.6242 28.0608 37.1178 34.5379 44.1977M30.3028 31.6242C30.3028 31.6242 24.1037 30.8692 20.7029 37.27M45.2287 38.4307C45.2287 38.4307 46.0021 36.1577 41.1515 33.2224M20.7029 37.27C20.7029 37.27 18.0337 50.5753 31.9184 52.7908C31.9184 52.7908 35.0179 53.1684 36.3028 51.2279M20.7029 37.27C20.7029 37.27 11.4308 44.5285 15.3878 50.7772C19.3449 57.0259 21.4625 57.3437 21.4625 57.3437M28.2394 52.8669C30.1048 58.0995 24.0252 57.7181 21.4625 57.3437" stroke="#111111" stroke-width="2.58158" stroke-linecap="round" stroke-linejoin="round"/>
<path d="M172.105 125.637L193.188 163.07" stroke="#111111" stroke-width="8.60526" stroke-linecap="round"/>
<path d="M222.875 194.479C222.875 198.424 220.437 201.394 215.908 203.448C211.349 205.516 204.889 206.526 197.489 206.526C190.205 206.526 183.672 204.696 179.002 201.805C174.311 198.901 171.674 195.059 171.674 191.037C171.674 187.015 174.311 183.172 179.002 180.269C183.672 177.378 190.205 175.547 197.489 175.547C204.815 175.547 211.195 177.13 215.705 180.264C220.157 183.359 222.875 188.019 222.875 194.479Z" fill="white" stroke="#111111" stroke-width="2.58158"/>
<path d="M212.979 171.565C212.979 174.185 211.336 176.219 208.062 177.667C204.766 179.126 200.062 179.85 194.636 179.85C189.322 179.85 184.573 178.547 181.196 176.507C177.794 174.453 175.976 171.793 175.976 169.093C175.976 166.394 177.794 163.734 181.196 161.68C184.573 159.64 189.322 158.337 194.636 158.337C199.991 158.337 204.615 159.467 207.86 161.667C211.046 163.827 212.979 167.06 212.979 171.565Z" fill="white" stroke="#111111" stroke-width="2.58158"/>
<path d="M222.016 186.734C222.016 190.679 219.578 193.649 215.049 195.703C210.49 197.771 204.03 198.781 196.63 198.781C189.346 198.781 182.813 196.951 178.142 194.06C173.452 191.156 170.814 187.314 170.814 183.292C170.814 179.27 173.452 175.428 178.142 172.524C182.813 169.633 189.346 167.803 196.63 167.803C203.955 167.803 210.336 169.385 214.845 172.52C219.297 175.614 222.016 180.274 222.016 186.734Z" fill="white" stroke="#111111" stroke-width="2.58158" stroke-linecap="round"/>
<path d="M249.258 111.264L250.068 115.821L259.181 114.2L258.371 109.644L249.258 111.264ZM207.112 72.3166C204.562 72.4837 202.629 74.6867 202.797 77.2372C202.964 79.7876 205.167 81.7197 207.717 81.5527L207.112 72.3166ZM258.371 109.644C255.134 91.4405 246.61 81.4227 236.163 76.4196C226.094 71.597 214.946 71.8034 207.112 72.3166L207.717 81.5527C215.381 81.0506 224.417 81.0565 232.165 84.7675C239.536 88.2978 246.463 95.5475 249.258 111.264L258.371 109.644Z" fill="#111111"/>
<mask id="mask0_2031_332" style="mask-type:alpha" maskUnits="userSpaceOnUse" x="82" y="0" width="134" height="134">
<circle cx="149.302" cy="66.6908" r="64.5394" fill="url(#paint0_linear_2031_332)" stroke="#111111" stroke-width="4.30263"/>
</mask>
<g mask="url(#mask0_2031_332)">
<circle cx="149.302" cy="66.6908" r="64.5394" fill="#FEA804" stroke="#111111" stroke-width="4.30263"/>
<g opacity="0.46">
<path d="M100.793 83.8173L81.6252 82.4707L80.3816 98.2593L89.9414 118.571L107.622 130.886L120.66 116.259L100.793 83.8173Z" fill="#111111"/>
<path d="M112.183 20.9301L117.541 51.3691L157.345 52.3843L171.798 21.9388L144.418 2.86923L112.183 20.9301Z" fill="#111111"/>
<path d="M204.826 23.6358L221.349 54.1996L227.888 55.1524L220.623 32.8377L205.459 12.9737L204.826 23.6358Z" fill="#111111"/>
<path d="M207.115 87.3478L177.118 87.7619L160.6 119.019L180.2 132.671L194.997 123.921L208.929 112.318L207.115 87.3478Z" fill="#111111"/>
<path d="M120.66 116.259L107.622 130.886L117.884 136.833L120.66 116.259Z" fill="#111111"/>
<path d="M81.6252 82.4707L75.7625 51.6799L86.9963 24.9942L112.183 20.9301M81.6252 82.4707L100.793 83.8173M81.6252 82.4707L80.3816 98.2593L89.9414 118.571L107.622 130.886M112.183 20.9301L117.541 51.3691M112.183 20.9301L144.418 2.86923M117.541 51.3691L100.793 83.8173M117.541 51.3691L157.345 52.3843M100.793 83.8173L120.66 116.259M120.66 116.259L107.622 130.886M120.66 116.259C135.956 118.649 144.712 119.219 160.6 119.019M120.66 116.259L117.884 136.833L107.622 130.886M157.345 52.3843L171.798 21.9388M157.345 52.3843C167.35 66.2541 171.643 73.9991 177.118 87.7619M171.798 21.9388L144.418 2.86923M171.798 21.9388L204.826 23.6358M144.418 2.86923L148.301 -10.0307M204.826 23.6358L221.349 54.1996M204.826 23.6358L205.459 12.9737L220.623 32.8377L227.888 55.1524L221.349 54.1996M221.349 54.1996C218.335 67.4972 215.349 74.773 207.115 87.3478M177.118 87.7619L207.115 87.3478M177.118 87.7619L160.6 119.019M207.115 87.3478L208.929 112.318L194.997 123.921L180.2 132.671M180.2 132.671L160.6 119.019M180.2 132.671C172.083 138.328 166.641 141.269 155.267 146.064" stroke="black" stroke-width="4.43243"/>
</g>
<path fill-rule="evenodd" clip-rule="evenodd" d="M119.869 70.1328C118.392 74.8145 115.937 77.8776 113.159 77.8776C108.644 77.8776 104.984 69.7869 104.984 59.8065V49.0499L121.334 59.8065C121.334 61.4442 121.236 63.0309 121.051 64.5394L116.601 66.6907L119.869 70.1328Z" fill="#111111"/>
<path fill-rule="evenodd" clip-rule="evenodd" d="M130.801 60.2754C130.801 73.086 135.424 83.471 141.127 83.471C145.627 83.471 149.455 77.0041 150.87 67.9816L146.72 64.9697L151.411 62.3882C151.439 61.6923 151.453 60.9876 151.453 60.2754V46.4684L130.801 60.2754Z" fill="#111111"/>
<path d="M104.125 43.8873C104.125 43.8873 105.416 40.445 107.567 40.4452C109.718 40.4455 122.626 52.4926 122.626 52.4926C122.626 52.4926 122.196 55.5049 120.905 54.6439C119.614 53.783 104.125 43.8873 104.125 43.8873Z" fill="#111111" stroke="#111111" stroke-width="0.860526"/>
<path d="M152.314 41.3363C152.314 41.3363 149.853 34.8511 147.151 34.8513C144.45 34.8516 129.08 52.1704 129.08 52.1704C129.08 52.1704 129.621 55.9628 131.242 54.8789C132.863 53.7949 152.314 41.3363 152.314 41.3363Z" fill="#111111" stroke="#111111" stroke-width="0.860526"/>
</g>
<defs>
<linearGradient id="paint0_linear_2031_332" x1="74.0061" y1="12.4777" x2="211.26" y2="117.032" gradientUnits="userSpaceOnUse">
<stop stop-color="#179B3C"/>
<stop offset="0.286458" stop-color="#74C722"/>
<stop offset="0.536458" stop-color="#B5B911"/>
<stop offset="0.791667" stop-color="#F6AA00"/>
<stop offset="1" stop-color="#FF6B00"/>
</linearGradient>
</defs>
</svg>
