<svg width="17" height="17" viewBox="0 0 17 17" fill="none" xmlns="http://www.w3.org/2000/svg">
<path d="M7.25 11.9091C7.25 12.3233 7.58579 12.6591 8 12.6591C8.41421 12.6591 8.75 12.3233 8.75 11.9091H7.25ZM8 1L8.55287 0.493207C8.41081 0.338235 8.21023 0.25 8 0.25C7.78977 0.25 7.58919 0.338235 7.44713 0.493207L8 1ZM3.44713 4.85684C3.16724 5.16218 3.18787 5.63661 3.49321 5.9165C3.79855 6.1964 4.27297 6.17577 4.55287 5.87043L3.44713 4.85684ZM11.4471 5.87043C11.727 6.17577 12.2015 6.1964 12.5068 5.9165C12.8121 5.63661 12.8328 5.16218 12.5529 4.85684L11.4471 5.87043ZM2.13333 8.56818H13.8667V7.06818H2.13333V8.56818ZM15.25 10.5455V13.2727H16.75V10.5455H15.25ZM13.8667 15.25H2.13333V16.75H13.8667V15.25ZM0.75 13.2727V10.5455H-0.75V13.2727H0.75ZM2.13333 15.25C1.53043 15.25 0.75 14.5467 0.75 13.2727H-0.75C-0.75 15.0112 0.37982 16.75 2.13333 16.75V15.25ZM15.25 13.2727C15.25 14.5467 14.4696 15.25 13.8667 15.25V16.75C15.6202 16.75 16.75 15.0112 16.75 13.2727H15.25ZM13.8667 8.56818C14.4696 8.56818 15.25 9.27146 15.25 10.5455H16.75C16.75 8.80698 15.6202 7.06818 13.8667 7.06818V8.56818ZM2.13333 7.06818C0.379821 7.06818 -0.75 8.80698 -0.75 10.5455H0.75C0.75 9.27146 1.53043 8.56818 2.13333 8.56818V7.06818ZM8.75 11.9091V1H7.25V11.9091H8.75ZM4.55287 5.87043L8.55287 1.50679L7.44713 0.493207L3.44713 4.85684L4.55287 5.87043ZM7.44713 1.50679L11.4471 5.87043L12.5529 4.85684L8.55287 0.493207L7.44713 1.50679Z" fill="currentColor"/>
</svg>
