<svg width="17" height="18" viewBox="0 0 17 18" fill="none" xmlns="http://www.w3.org/2000/svg">
<path d="M6 17H0V8.63122C0 8.10807 0 7.84636 0.0649714 7.60293C0.122548 7.3872 0.217792 7.18305 0.345703 6.99857C0.490041 6.7904 0.69064 6.61777 1.09277 6.27328L5.89436 2.15991C6.63985 1.52127 7.01261 1.20193 7.43242 1.08039C7.80261 0.973204 8.19719 0.973204 8.56738 1.08039C8.98751 1.20203 9.36081 1.52166 10.1074 2.16126L14.9074 6.27328C15.3095 6.61776 15.5102 6.7904 15.6546 6.99857C15.7825 7.18305 15.877 7.3872 15.9346 7.60293C15.9995 7.84636 16 8.10807 16 8.63122V17H10M6 17H10M6 17V11.6667C6 10.5852 6.89543 9.70857 8 9.70857C9.10457 9.70857 10 10.5852 10 11.6667V17" stroke="currentColor" stroke-width="1.5" stroke-miterlimit="16" stroke-linecap="square"/>
</svg>
