<svg width="87" height="97" viewBox="0 0 87 97" fill="none" xmlns="http://www.w3.org/2000/svg">
<g filter="url(#filter0_f_0_648)">
<path d="M21.4265 21.1884L14.9271 46.3999L47.933 91.5738L80.9549 67.4467L47.949 22.2727L21.4265 21.1884Z" fill="#111111" fill-opacity="0.75"/>
<path d="M37.5521 30.7808C39.9506 34.0636 39.2338 38.6691 35.951 41.0676C32.6683 43.4661 28.0627 42.7493 25.6642 39.4666C23.2657 36.1838 23.9825 31.5783 27.2652 29.1797C30.548 26.7812 35.1536 27.4981 37.5521 30.7808Z" fill="#111111" fill-opacity="0.75"/>
<path d="M14.9271 46.3999L13.8259 46.116C13.7409 46.4456 13.808 46.7959 14.0088 47.0707L14.9271 46.3999ZM21.4265 21.1884L21.4729 20.0522C20.9373 20.0303 20.4591 20.3855 20.3253 20.9046L21.4265 21.1884ZM47.949 22.2727L48.8672 21.6018C48.6627 21.322 48.3418 21.1506 47.9954 21.1365L47.949 22.2727ZM80.9549 67.4467L81.6258 68.3649C81.8693 68.187 82.0322 67.9196 82.0786 67.6216C82.1249 67.3236 82.051 67.0193 81.8731 66.7758L80.9549 67.4467ZM47.933 91.5738L47.0148 92.2447C47.3853 92.7518 48.0967 92.8626 48.6039 92.4921L47.933 91.5738ZM36.2703 49.5462L35.5659 48.6534C35.0857 49.0323 34.9913 49.7231 35.3521 50.217L36.2703 49.5462ZM41.7002 64.742C41.1931 65.1125 41.0824 65.824 41.4529 66.3311C41.8234 66.8382 42.5349 66.949 43.042 66.5784L41.7002 64.742ZM52.8202 74.1249C53.1907 74.632 53.9021 74.7428 54.4093 74.3722C54.9164 74.0017 55.0271 73.2903 54.6566 72.7831L52.8202 74.1249ZM55.8145 63.2462C56.3342 62.8937 56.4698 62.1865 56.1173 61.6668C55.7647 61.147 55.0575 61.0114 54.5378 61.364L55.8145 63.2462ZM44.3988 68.4355C43.8917 68.8061 43.781 69.5175 44.1515 70.0246C44.522 70.5317 45.2335 70.6425 45.7406 70.272L44.3988 68.4355ZM10.198 32.8035L11.0366 32.0354L10.198 32.8035ZM7.13719 22C7.13719 13.7915 13.7915 7.13719 22 7.13719V4.86281C12.5354 4.86281 4.86281 12.5354 4.86281 22H7.13719ZM22 7.13719C30.2085 7.13719 36.8628 13.7915 36.8628 22H39.1372C39.1372 12.5354 31.4646 4.86281 22 4.86281V7.13719ZM16.0282 46.6837L22.5277 21.4723L20.3253 20.9046L13.8259 46.116L16.0282 46.6837ZM21.38 22.3247L47.9025 23.409L47.9954 21.1365L21.4729 20.0522L21.38 22.3247ZM47.0308 22.9436L80.0367 68.1176L81.8731 66.7758L48.8672 21.6018L47.0308 22.9436ZM80.284 66.5285L47.2621 90.6556L48.6039 92.4921L81.6258 68.3649L80.284 66.5285ZM48.8512 90.903L15.8453 45.729L14.0088 47.0707L47.0148 92.2447L48.8512 90.903ZM36.2703 49.5462C36.9747 50.4389 36.9745 50.4391 36.9743 50.4393C36.9743 50.4393 36.9741 50.4394 36.9741 50.4394C36.974 50.4395 36.9741 50.4394 36.9743 50.4392C36.9748 50.4388 36.9759 50.438 36.9777 50.4366C36.9811 50.4339 36.987 50.4293 36.9953 50.4229C37.0119 50.4101 37.038 50.3901 37.0733 50.3635C37.1437 50.3104 37.2504 50.2312 37.3896 50.1316C37.668 49.9322 38.0749 49.6522 38.5799 49.3362C39.5951 48.701 40.9821 47.9361 42.503 47.3833C44.0338 46.8269 45.6212 46.5145 47.0686 46.6976C48.4711 46.8751 49.7928 47.5208 50.8766 49.0042L52.7131 47.6625C51.2394 45.6455 49.3418 44.6927 47.354 44.4412C45.4109 44.1954 43.4369 44.6239 41.726 45.2457C40.0051 45.8712 38.47 46.7221 37.3736 47.4082C36.8227 47.7528 36.3764 48.0597 36.0657 48.2822C35.9101 48.3936 35.7882 48.484 35.7037 48.5477C35.6614 48.5796 35.6285 48.6048 35.6054 48.6227C35.5938 48.6316 35.5847 48.6387 35.5781 48.6438C35.5748 48.6464 35.5722 48.6485 35.5701 48.6501C35.5691 48.6509 35.5682 48.6516 35.5675 48.6521C35.5672 48.6524 35.5668 48.6527 35.5666 48.6529C35.5662 48.6531 35.5659 48.6534 36.2703 49.5462ZM46.0696 62.958C46.7238 63.8882 46.7241 63.8879 46.7245 63.8877C46.7247 63.8875 46.7251 63.8872 46.7254 63.887C46.7262 63.8865 46.7271 63.8858 46.7281 63.8851C46.7302 63.8836 46.733 63.8816 46.7364 63.8792C46.7432 63.8744 46.7526 63.8677 46.7645 63.8591C46.7882 63.8421 46.8218 63.8177 46.8644 63.7864C46.9496 63.7236 47.0711 63.6326 47.2223 63.5153C47.5244 63.281 47.9464 62.9409 48.4348 62.511C49.4071 61.6552 50.6641 60.4252 51.7624 58.95C52.8547 57.4831 53.8392 55.7084 54.1784 53.7676C54.5249 51.7848 54.1861 49.6786 52.7131 47.6625L50.8766 49.0042C51.9611 50.4884 52.1854 51.9604 51.9379 53.3761C51.6832 54.8337 50.9166 56.2777 49.9382 57.5918C48.9659 58.8977 47.8325 60.0113 46.9321 60.8037C46.4841 61.198 46.0992 61.5082 45.8284 61.7181C45.6932 61.823 45.5868 61.9026 45.5157 61.955C45.4802 61.9811 45.4535 62.0005 45.4365 62.0127C45.428 62.0188 45.4219 62.0231 45.4184 62.0257C45.4166 62.0269 45.4154 62.0278 45.4149 62.0281C45.4147 62.0283 45.4146 62.0284 45.4147 62.0283C45.4147 62.0283 45.4149 62.0282 45.4149 62.0281C45.4151 62.028 45.4154 62.0278 46.0696 62.958ZM43.042 66.5784L46.7404 63.8762L45.3987 62.0398L41.7002 64.742L43.042 66.5784ZM35.3521 50.217L45.1513 63.6289L46.9878 62.2871L37.1885 48.8753L35.3521 50.217ZM45.1513 63.6289L47.85 67.3224L49.6864 65.9806L46.9878 62.2871L45.1513 63.6289ZM47.85 67.3224L52.8202 74.1249L54.6566 72.7831L49.6864 65.9806L47.85 67.3224ZM49.4065 67.5926L55.8145 63.2462L54.5378 61.364L48.1298 65.7104L49.4065 67.5926ZM48.0973 65.7333L44.3988 68.4355L45.7406 70.272L49.4391 67.5697L48.0973 65.7333ZM36.6339 31.4517C38.6618 34.2273 38.0558 38.1214 35.2801 40.1494L36.6219 41.9858C40.4118 39.2168 41.2393 33.8998 38.4703 30.1099L36.6339 31.4517ZM35.2801 40.1494C32.5045 42.1774 28.6104 41.5713 26.5824 38.7957L24.746 40.1375C27.515 43.9273 32.832 44.7549 36.6219 41.9858L35.2801 40.1494ZM26.5824 38.7957C24.5544 36.0201 25.1605 32.1259 27.9361 30.098L26.5944 28.2615C22.8045 31.0306 21.9769 36.3476 24.746 40.1375L26.5824 38.7957ZM27.9361 30.098C30.7118 28.07 34.6059 28.6761 36.6339 31.4517L38.4703 30.1099C35.7013 26.3201 30.3842 25.4925 26.5944 28.2615L27.9361 30.098ZM11.0366 32.0354C8.61397 29.3903 7.13719 25.8689 7.13719 22H4.86281C4.86281 26.4596 6.56774 30.5236 9.35937 33.5716L11.0366 32.0354ZM36.8628 22C36.8628 29.0359 31.9728 34.9324 25.4048 36.4713L25.9236 38.6857C33.4969 36.9113 39.1372 30.1157 39.1372 22H36.8628ZM11.5 34C12.2532 33.148 12.2532 33.148 12.2532 33.148C12.2532 33.148 12.2532 33.148 12.2532 33.148C12.2532 33.148 12.2531 33.1479 12.2531 33.1479C12.253 33.1478 12.2528 33.1477 12.2526 33.1475C12.2521 33.147 12.2514 33.1464 12.2504 33.1455C12.2485 33.1438 12.2455 33.1412 12.2416 33.1378C12.2339 33.1309 12.2224 33.1207 12.2076 33.1076C12.1781 33.0815 12.1356 33.0437 12.0838 32.9975C11.98 32.9051 11.8398 32.7798 11.6932 32.6474C11.5461 32.5145 11.3952 32.377 11.2692 32.2595C11.2062 32.2007 11.1518 32.1492 11.1086 32.1073C11.087 32.0864 11.0698 32.0693 11.0565 32.0559C11.0499 32.0493 11.0449 32.0441 11.0413 32.0403C11.0375 32.0365 11.0361 32.0349 11.0366 32.0354L9.35937 33.5716C9.51461 33.7411 9.89131 34.0846 10.1689 34.3353C10.3204 34.4722 10.4647 34.6012 10.5709 34.6958C10.6241 34.7431 10.6679 34.782 10.6984 34.8091C10.7137 34.8227 10.7257 34.8333 10.7339 34.8406C10.738 34.8442 10.7412 34.847 10.7434 34.849C10.7445 34.8499 10.7453 34.8507 10.7459 34.8512C10.7461 34.8514 10.7464 34.8516 10.7465 34.8518C10.7466 34.8518 10.7467 34.8519 10.7467 34.8519C10.7467 34.8519 10.7468 34.852 10.7468 34.852C10.7468 34.852 10.7468 34.852 11.5 34Z" fill="#9CFFB8"/>
</g>
<path d="M21.4265 21.1884L14.9271 46.3999L47.933 91.5738L80.9549 67.4467L47.949 22.2727L21.4265 21.1884Z" fill="#111111" fill-opacity="0.75"/>
<path d="M37.5521 30.7808C39.9506 34.0636 39.2338 38.6691 35.951 41.0676C32.6683 43.4661 28.0627 42.7493 25.6642 39.4666C23.2657 36.1838 23.9825 31.5783 27.2652 29.1797C30.548 26.7812 35.1536 27.4981 37.5521 30.7808Z" fill="#111111" fill-opacity="0.75"/>
<path d="M14.9271 46.3999L13.8259 46.116C13.7409 46.4456 13.808 46.7959 14.0088 47.0707L14.9271 46.3999ZM21.4265 21.1884L21.4729 20.0522C20.9373 20.0303 20.4591 20.3855 20.3253 20.9046L21.4265 21.1884ZM47.949 22.2727L48.8672 21.6018C48.6627 21.322 48.3418 21.1506 47.9954 21.1365L47.949 22.2727ZM80.9549 67.4467L81.6258 68.3649C81.8693 68.187 82.0322 67.9196 82.0786 67.6216C82.1249 67.3236 82.051 67.0193 81.8731 66.7758L80.9549 67.4467ZM47.933 91.5738L47.0148 92.2447C47.3853 92.7518 48.0967 92.8626 48.6039 92.4921L47.933 91.5738ZM36.2703 49.5462L35.5659 48.6534C35.0857 49.0323 34.9913 49.7231 35.3521 50.217L36.2703 49.5462ZM41.7002 64.742C41.1931 65.1125 41.0824 65.824 41.4529 66.3311C41.8234 66.8382 42.5349 66.949 43.042 66.5784L41.7002 64.742ZM52.8202 74.1249C53.1907 74.632 53.9021 74.7428 54.4093 74.3722C54.9164 74.0017 55.0271 73.2903 54.6566 72.7831L52.8202 74.1249ZM55.8145 63.2462C56.3342 62.8937 56.4698 62.1865 56.1173 61.6668C55.7647 61.147 55.0575 61.0114 54.5378 61.364L55.8145 63.2462ZM44.3988 68.4355C43.8917 68.8061 43.781 69.5175 44.1515 70.0246C44.522 70.5317 45.2335 70.6425 45.7406 70.272L44.3988 68.4355ZM10.198 32.8035L11.0366 32.0354L10.198 32.8035ZM7.13719 22C7.13719 13.7915 13.7915 7.13719 22 7.13719V4.86281C12.5354 4.86281 4.86281 12.5354 4.86281 22H7.13719ZM22 7.13719C30.2085 7.13719 36.8628 13.7915 36.8628 22H39.1372C39.1372 12.5354 31.4646 4.86281 22 4.86281V7.13719ZM16.0282 46.6837L22.5277 21.4723L20.3253 20.9046L13.8259 46.116L16.0282 46.6837ZM21.38 22.3247L47.9025 23.409L47.9954 21.1365L21.4729 20.0522L21.38 22.3247ZM47.0308 22.9436L80.0367 68.1176L81.8731 66.7758L48.8672 21.6018L47.0308 22.9436ZM80.284 66.5285L47.2621 90.6556L48.6039 92.4921L81.6258 68.3649L80.284 66.5285ZM48.8512 90.903L15.8453 45.729L14.0088 47.0707L47.0148 92.2447L48.8512 90.903ZM36.2703 49.5462C36.9747 50.4389 36.9745 50.4391 36.9743 50.4393C36.9743 50.4393 36.9741 50.4394 36.9741 50.4394C36.974 50.4395 36.9741 50.4394 36.9743 50.4392C36.9748 50.4388 36.9759 50.438 36.9777 50.4366C36.9811 50.4339 36.987 50.4293 36.9953 50.4229C37.0119 50.4101 37.038 50.3901 37.0733 50.3635C37.1437 50.3104 37.2504 50.2312 37.3896 50.1316C37.668 49.9322 38.0749 49.6522 38.5799 49.3362C39.5951 48.701 40.9821 47.9361 42.503 47.3833C44.0338 46.8269 45.6212 46.5145 47.0686 46.6976C48.4711 46.8751 49.7928 47.5208 50.8766 49.0042L52.7131 47.6625C51.2394 45.6455 49.3418 44.6927 47.354 44.4412C45.4109 44.1954 43.4369 44.6239 41.726 45.2457C40.0051 45.8712 38.47 46.7221 37.3736 47.4082C36.8227 47.7528 36.3764 48.0597 36.0657 48.2822C35.9101 48.3936 35.7882 48.484 35.7037 48.5477C35.6614 48.5796 35.6285 48.6048 35.6054 48.6227C35.5938 48.6316 35.5847 48.6387 35.5781 48.6438C35.5748 48.6464 35.5722 48.6485 35.5701 48.6501C35.5691 48.6509 35.5682 48.6516 35.5675 48.6521C35.5672 48.6524 35.5668 48.6527 35.5666 48.6529C35.5662 48.6531 35.5659 48.6534 36.2703 49.5462ZM46.0696 62.958C46.7238 63.8882 46.7241 63.8879 46.7245 63.8877C46.7247 63.8875 46.7251 63.8872 46.7254 63.887C46.7262 63.8865 46.7271 63.8858 46.7281 63.8851C46.7302 63.8836 46.733 63.8816 46.7364 63.8792C46.7432 63.8744 46.7526 63.8677 46.7645 63.8591C46.7882 63.8421 46.8218 63.8177 46.8644 63.7864C46.9496 63.7236 47.0711 63.6326 47.2223 63.5153C47.5244 63.281 47.9464 62.9409 48.4348 62.511C49.4071 61.6552 50.6641 60.4252 51.7624 58.95C52.8547 57.4831 53.8392 55.7084 54.1784 53.7676C54.5249 51.7848 54.1861 49.6786 52.7131 47.6625L50.8766 49.0042C51.9611 50.4884 52.1854 51.9604 51.9379 53.3761C51.6832 54.8337 50.9166 56.2777 49.9382 57.5918C48.9659 58.8977 47.8325 60.0113 46.9321 60.8037C46.4841 61.198 46.0992 61.5082 45.8284 61.7181C45.6932 61.823 45.5868 61.9026 45.5157 61.955C45.4802 61.9811 45.4535 62.0005 45.4365 62.0127C45.428 62.0188 45.4219 62.0231 45.4184 62.0257C45.4166 62.0269 45.4154 62.0278 45.4149 62.0281C45.4147 62.0283 45.4146 62.0284 45.4147 62.0283C45.4147 62.0283 45.4149 62.0282 45.4149 62.0281C45.4151 62.028 45.4154 62.0278 46.0696 62.958ZM43.042 66.5784L46.7404 63.8762L45.3987 62.0398L41.7002 64.742L43.042 66.5784ZM35.3521 50.217L45.1513 63.6289L46.9878 62.2871L37.1885 48.8753L35.3521 50.217ZM45.1513 63.6289L47.85 67.3224L49.6864 65.9806L46.9878 62.2871L45.1513 63.6289ZM47.85 67.3224L52.8202 74.1249L54.6566 72.7831L49.6864 65.9806L47.85 67.3224ZM49.4065 67.5926L55.8145 63.2462L54.5378 61.364L48.1298 65.7104L49.4065 67.5926ZM48.0973 65.7333L44.3988 68.4355L45.7406 70.272L49.4391 67.5697L48.0973 65.7333ZM36.6339 31.4517C38.6618 34.2273 38.0558 38.1214 35.2801 40.1494L36.6219 41.9858C40.4118 39.2168 41.2393 33.8998 38.4703 30.1099L36.6339 31.4517ZM35.2801 40.1494C32.5045 42.1774 28.6104 41.5713 26.5824 38.7957L24.746 40.1375C27.515 43.9273 32.832 44.7549 36.6219 41.9858L35.2801 40.1494ZM26.5824 38.7957C24.5544 36.0201 25.1605 32.1259 27.9361 30.098L26.5944 28.2615C22.8045 31.0306 21.9769 36.3476 24.746 40.1375L26.5824 38.7957ZM27.9361 30.098C30.7118 28.07 34.6059 28.6761 36.6339 31.4517L38.4703 30.1099C35.7013 26.3201 30.3842 25.4925 26.5944 28.2615L27.9361 30.098ZM11.0366 32.0354C8.61397 29.3903 7.13719 25.8689 7.13719 22H4.86281C4.86281 26.4596 6.56774 30.5236 9.35937 33.5716L11.0366 32.0354ZM36.8628 22C36.8628 29.0359 31.9728 34.9324 25.4048 36.4713L25.9236 38.6857C33.4969 36.9113 39.1372 30.1157 39.1372 22H36.8628ZM11.5 34C12.2532 33.148 12.2532 33.148 12.2532 33.148C12.2532 33.148 12.2532 33.148 12.2532 33.148C12.2532 33.148 12.2531 33.1479 12.2531 33.1479C12.253 33.1478 12.2528 33.1477 12.2526 33.1475C12.2521 33.147 12.2514 33.1464 12.2504 33.1455C12.2485 33.1438 12.2455 33.1412 12.2416 33.1378C12.2339 33.1309 12.2224 33.1207 12.2076 33.1076C12.1781 33.0815 12.1356 33.0437 12.0838 32.9975C11.98 32.9051 11.8398 32.7798 11.6932 32.6474C11.5461 32.5145 11.3952 32.377 11.2692 32.2595C11.2062 32.2007 11.1518 32.1492 11.1086 32.1073C11.087 32.0864 11.0698 32.0693 11.0565 32.0559C11.0499 32.0493 11.0449 32.0441 11.0413 32.0403C11.0375 32.0365 11.0361 32.0349 11.0366 32.0354L9.35937 33.5716C9.51461 33.7411 9.89131 34.0846 10.1689 34.3353C10.3204 34.4722 10.4647 34.6012 10.5709 34.6958C10.6241 34.7431 10.6679 34.782 10.6984 34.8091C10.7137 34.8227 10.7257 34.8333 10.7339 34.8406C10.738 34.8442 10.7412 34.847 10.7434 34.849C10.7445 34.8499 10.7453 34.8507 10.7459 34.8512C10.7461 34.8514 10.7464 34.8516 10.7465 34.8518C10.7466 34.8518 10.7467 34.8519 10.7467 34.8519C10.7467 34.8519 10.7468 34.852 10.7468 34.852C10.7468 34.852 10.7468 34.852 11.5 34Z" fill="#9CFFB8"/>
<defs>
<filter id="filter0_f_0_648" x="0.863281" y="0.862793" width="85.2285" height="95.8484" filterUnits="userSpaceOnUse" color-interpolation-filters="sRGB">
<feFlood flood-opacity="0" result="BackgroundImageFix"/>
<feBlend mode="normal" in="SourceGraphic" in2="BackgroundImageFix" result="shape"/>
<feGaussianBlur stdDeviation="2" result="effect1_foregroundBlur_0_648"/>
</filter>
</defs>
</svg>
