<svg width="584" height="153" viewBox="0 0 584 153" fill="none" xmlns="http://www.w3.org/2000/svg">
<g filter="url(#filter0_f_0_513)">
<path d="M21.688 57.7231H10.5552L19.8203 14.3271H4L5.94092 4.87891H48.7144L46.7734 14.3271H30.9531L21.688 57.7231Z" fill="white"/>
<path d="M69.5518 57.7231H44.1001L55.3428 4.87891H76.9492C86.4341 4.87891 92.0737 9.63965 92.0737 16.3047C92.0737 23.2261 87.0566 28.4629 80.0986 30.001L80.062 30.2573C85.7749 31.356 89.5103 35.5308 89.5103 40.9141C89.5103 50.6919 81.3071 57.7231 69.5518 57.7231ZM64.6445 12.7891L61.7148 26.3389H70.4307C76.6929 26.3389 80.9043 23.043 80.9043 18.4653C80.9043 14.8398 78.1577 12.7891 72.9941 12.7891H64.6445ZM56.8076 49.2271H67.4644C73.9829 49.2271 78.2676 45.6748 78.2676 40.6211C78.2676 36.5195 75.3379 34.1758 69.5884 34.1758H60.0669L56.8076 49.2271Z" fill="white"/>
<path d="M125.655 13.5215C115.951 13.5215 108.7 23.2627 108.7 35.2378C108.7 43.6606 113.424 49.0806 120.711 49.0806C130.416 49.0806 137.667 39.3394 137.667 27.3276C137.667 18.9048 132.943 13.5215 125.655 13.5215ZM120.492 58.6021C106.319 58.6021 97.457 49.1904 97.457 35.8604C97.457 17.4399 109.725 4 125.838 4C140.194 4 148.946 13.4482 148.946 26.7417C148.946 45.1987 136.568 58.6021 120.492 58.6021Z" fill="white"/>
<path d="M186.08 57.7231L193.697 22.6035H193.038L161.617 57.7231H150.887L162.13 4.87891H173.043L165.426 40.0718H166.085L197.506 4.87891H208.236L196.993 57.7231H186.08Z" fill="white"/>
<path d="M268.404 57.7231H257.345L266.61 14.3638H243.429L234.164 57.7231H223.031L234.273 4.87891H279.647L268.404 57.7231Z" fill="white"/>
<path d="M289.132 4.87891H308.431C318.905 4.87891 325.753 10.9946 325.753 20.333C325.753 33.2969 316.378 41.3169 302.755 41.3169H292.611L289.059 57.7231H277.926L289.132 4.87891ZM298.397 13.9609L294.405 32.3447H302.608C309.859 32.3447 314.547 28.0234 314.547 21.395C314.547 16.5244 311.288 13.9609 305.831 13.9609H298.397Z" fill="white"/>
<path d="M351.241 15.6089L339.999 36.5928H353.695L351.498 15.6089H351.241ZM355.672 57.7231L354.354 45.1255H335.75L328.866 57.7231H317.037L346.92 4.87891H359.957L366.769 57.7231H355.672Z" fill="white"/>
<path d="M397.823 57.7231H372.372L383.614 4.87891H405.221C414.706 4.87891 420.345 9.63965 420.345 16.3047C420.345 23.2261 415.328 28.4629 408.37 30.001L408.333 30.2573C414.046 31.356 417.782 35.5308 417.782 40.9141C417.782 50.6919 409.579 57.7231 397.823 57.7231ZM392.916 12.7891L389.986 26.3389H398.702C404.964 26.3389 409.176 23.043 409.176 18.4653C409.176 14.8398 406.429 12.7891 401.266 12.7891H392.916ZM385.079 49.2271H395.736C402.254 49.2271 406.539 45.6748 406.539 40.6211C406.539 36.5195 403.609 34.1758 397.86 34.1758H388.338L385.079 49.2271Z" fill="white"/>
<path d="M457.149 57.7231L464.767 22.6035H464.107L432.687 57.7231H421.957L433.199 4.87891H444.112L436.495 40.0718H437.154L468.575 4.87891H479.305L468.062 57.7231H457.149Z" fill="white"/>
<path d="M520.833 57.7231H509.701L518.966 14.3271H503.512L497.396 36.7393C493.844 50.2524 488.937 58.1992 477.145 58.1992C475.35 58.1992 473.922 57.9429 473.263 57.7231L475.313 47.7622C475.826 47.8721 476.778 48.0552 477.73 48.0552C482.748 48.0552 485.421 43.0747 487.325 35.9702L495.528 4.87891H532.076L520.833 57.7231Z" fill="white"/>
<path d="M560.567 15.6089L549.325 36.5928H563.021L560.824 15.6089H560.567ZM564.999 57.7231L563.68 45.1255H545.077L538.192 57.7231H526.363L556.246 4.87891H569.283L576.095 57.7231H564.999Z" fill="white"/>
<path d="M12.9722 131.207L14.9131 121.686H89.9131L87.9722 131.207H12.9722Z" fill="white"/>
<path d="M113.241 147.723H102.108L111.373 104.327H95.5527L97.4937 94.8789H140.267L138.326 104.327H122.506L113.241 147.723Z" fill="white"/>
<path d="M161.104 147.723H135.653L146.896 94.8789H168.502C177.987 94.8789 183.626 99.6396 183.626 106.305C183.626 113.226 178.609 118.463 171.651 120.001L171.615 120.257C177.328 121.356 181.063 125.531 181.063 130.914C181.063 140.692 172.86 147.723 161.104 147.723ZM156.197 102.789L153.268 116.339H161.983C168.246 116.339 172.457 113.043 172.457 108.465C172.457 104.84 169.71 102.789 164.547 102.789H156.197ZM148.36 139.227H159.017C165.536 139.227 169.82 135.675 169.82 130.621C169.82 126.52 166.891 124.176 161.141 124.176H151.62L148.36 139.227Z" fill="white"/>
<path d="M217.208 103.521C207.503 103.521 200.252 113.263 200.252 125.238C200.252 133.661 204.977 139.081 212.264 139.081C221.969 139.081 229.22 129.339 229.22 117.328C229.22 108.905 224.496 103.521 217.208 103.521ZM212.044 148.602C197.872 148.602 189.01 139.19 189.01 125.86C189.01 107.44 201.278 94 217.391 94C231.747 94 240.499 103.448 240.499 116.742C240.499 135.199 228.121 148.602 212.044 148.602Z" fill="white"/>
<path d="M277.633 147.723L285.25 112.604H284.591L253.17 147.723H242.44L253.683 94.8789H264.596L256.979 130.072H257.638L289.059 94.8789H299.789L288.546 147.723H277.633ZM266.463 79.6079H273.531C272.835 83.1968 274.959 85.2842 278.548 85.2842C282.284 85.2842 285.213 83.1968 286.019 79.6079H293.087C291.585 86.6025 286.349 90.9604 278.182 90.9604C270.016 90.9604 265.182 86.7856 266.463 79.6079Z" fill="white"/>
<path d="M357.577 114.251C357.577 114.032 357.577 113.775 357.54 113.043C357.174 107.403 352.56 103.595 346.48 103.595C336.593 103.595 329.745 112.713 329.745 125.458C329.745 133.807 334.212 138.934 341.5 138.934C347.579 138.934 352.523 135.418 354.537 129.669H365.414C363.033 141.095 353.292 148.602 340.914 148.602C327.181 148.602 318.355 139.776 318.355 126.08C318.355 107.11 330.038 94 347.323 94C359.444 94 368.16 101.471 368.49 112.494C368.526 113.263 368.49 113.775 368.417 114.251H357.577Z" fill="white"/>
<path d="M414.229 147.723H403.17L412.435 104.364H389.254L379.989 147.723H368.856L380.099 94.8789H425.472L414.229 147.723Z" fill="white"/>
<path d="M455.685 103.521C445.98 103.521 438.729 113.263 438.729 125.238C438.729 133.661 443.453 139.081 450.741 139.081C460.445 139.081 467.696 129.339 467.696 117.328C467.696 108.905 462.972 103.521 455.685 103.521ZM450.521 148.602C436.349 148.602 427.486 139.19 427.486 125.86C427.486 107.44 439.754 94 455.868 94C470.223 94 478.976 103.448 478.976 116.742C478.976 135.199 466.598 148.602 450.521 148.602Z" fill="white"/>
<path d="M492.159 94.8789H511.458C521.932 94.8789 528.78 100.995 528.78 110.333C528.78 123.297 519.405 131.317 505.782 131.317H495.638L492.086 147.723H480.953L492.159 94.8789ZM501.424 103.961L497.433 122.345H505.636C512.887 122.345 517.574 118.023 517.574 111.395C517.574 106.524 514.315 103.961 508.858 103.961H501.424Z" fill="white"/>
<path d="M552.694 147.723H541.561L550.826 104.327H535.006L536.947 94.8789H579.72L577.779 104.327H561.959L552.694 147.723Z" fill="white"/>
</g>
<path d="M21.688 57.7231H10.5552L19.8203 14.3271H4L5.94092 4.87891H48.7144L46.7734 14.3271H30.9531L21.688 57.7231Z" fill="white"/>
<path d="M69.5518 57.7231H44.1001L55.3428 4.87891H76.9492C86.4341 4.87891 92.0737 9.63965 92.0737 16.3047C92.0737 23.2261 87.0566 28.4629 80.0986 30.001L80.062 30.2573C85.7749 31.356 89.5103 35.5308 89.5103 40.9141C89.5103 50.6919 81.3071 57.7231 69.5518 57.7231ZM64.6445 12.7891L61.7148 26.3389H70.4307C76.6929 26.3389 80.9043 23.043 80.9043 18.4653C80.9043 14.8398 78.1577 12.7891 72.9941 12.7891H64.6445ZM56.8076 49.2271H67.4644C73.9829 49.2271 78.2676 45.6748 78.2676 40.6211C78.2676 36.5195 75.3379 34.1758 69.5884 34.1758H60.0669L56.8076 49.2271Z" fill="white"/>
<path d="M125.655 13.5215C115.951 13.5215 108.7 23.2627 108.7 35.2378C108.7 43.6606 113.424 49.0806 120.711 49.0806C130.416 49.0806 137.667 39.3394 137.667 27.3276C137.667 18.9048 132.943 13.5215 125.655 13.5215ZM120.492 58.6021C106.319 58.6021 97.457 49.1904 97.457 35.8604C97.457 17.4399 109.725 4 125.838 4C140.194 4 148.946 13.4482 148.946 26.7417C148.946 45.1987 136.568 58.6021 120.492 58.6021Z" fill="white"/>
<path d="M186.08 57.7231L193.697 22.6035H193.038L161.617 57.7231H150.887L162.13 4.87891H173.043L165.426 40.0718H166.085L197.506 4.87891H208.236L196.993 57.7231H186.08Z" fill="white"/>
<path d="M268.404 57.7231H257.345L266.61 14.3638H243.429L234.164 57.7231H223.031L234.273 4.87891H279.647L268.404 57.7231Z" fill="white"/>
<path d="M289.132 4.87891H308.431C318.905 4.87891 325.753 10.9946 325.753 20.333C325.753 33.2969 316.378 41.3169 302.755 41.3169H292.611L289.059 57.7231H277.926L289.132 4.87891ZM298.397 13.9609L294.405 32.3447H302.608C309.859 32.3447 314.547 28.0234 314.547 21.395C314.547 16.5244 311.288 13.9609 305.831 13.9609H298.397Z" fill="white"/>
<path d="M351.241 15.6089L339.999 36.5928H353.695L351.498 15.6089H351.241ZM355.672 57.7231L354.354 45.1255H335.75L328.866 57.7231H317.037L346.92 4.87891H359.957L366.769 57.7231H355.672Z" fill="white"/>
<path d="M397.823 57.7231H372.372L383.614 4.87891H405.221C414.706 4.87891 420.345 9.63965 420.345 16.3047C420.345 23.2261 415.328 28.4629 408.37 30.001L408.333 30.2573C414.046 31.356 417.782 35.5308 417.782 40.9141C417.782 50.6919 409.579 57.7231 397.823 57.7231ZM392.916 12.7891L389.986 26.3389H398.702C404.964 26.3389 409.176 23.043 409.176 18.4653C409.176 14.8398 406.429 12.7891 401.266 12.7891H392.916ZM385.079 49.2271H395.736C402.254 49.2271 406.539 45.6748 406.539 40.6211C406.539 36.5195 403.609 34.1758 397.86 34.1758H388.338L385.079 49.2271Z" fill="white"/>
<path d="M457.149 57.7231L464.767 22.6035H464.107L432.687 57.7231H421.957L433.199 4.87891H444.112L436.495 40.0718H437.154L468.575 4.87891H479.305L468.062 57.7231H457.149Z" fill="white"/>
<path d="M520.833 57.7231H509.701L518.966 14.3271H503.512L497.396 36.7393C493.844 50.2524 488.937 58.1992 477.145 58.1992C475.35 58.1992 473.922 57.9429 473.263 57.7231L475.313 47.7622C475.826 47.8721 476.778 48.0552 477.73 48.0552C482.748 48.0552 485.421 43.0747 487.325 35.9702L495.528 4.87891H532.076L520.833 57.7231Z" fill="white"/>
<path d="M560.567 15.6089L549.325 36.5928H563.021L560.824 15.6089H560.567ZM564.999 57.7231L563.68 45.1255H545.077L538.192 57.7231H526.363L556.246 4.87891H569.283L576.095 57.7231H564.999Z" fill="white"/>
<path d="M12.9722 131.207L14.9131 121.686H89.9131L87.9722 131.207H12.9722Z" fill="white"/>
<path d="M113.241 147.723H102.108L111.373 104.327H95.5527L97.4937 94.8789H140.267L138.326 104.327H122.506L113.241 147.723Z" fill="white"/>
<path d="M161.104 147.723H135.653L146.896 94.8789H168.502C177.987 94.8789 183.626 99.6396 183.626 106.305C183.626 113.226 178.609 118.463 171.651 120.001L171.615 120.257C177.328 121.356 181.063 125.531 181.063 130.914C181.063 140.692 172.86 147.723 161.104 147.723ZM156.197 102.789L153.268 116.339H161.983C168.246 116.339 172.457 113.043 172.457 108.465C172.457 104.84 169.71 102.789 164.547 102.789H156.197ZM148.36 139.227H159.017C165.536 139.227 169.82 135.675 169.82 130.621C169.82 126.52 166.891 124.176 161.141 124.176H151.62L148.36 139.227Z" fill="white"/>
<path d="M217.208 103.521C207.503 103.521 200.252 113.263 200.252 125.238C200.252 133.661 204.977 139.081 212.264 139.081C221.969 139.081 229.22 129.339 229.22 117.328C229.22 108.905 224.496 103.521 217.208 103.521ZM212.044 148.602C197.872 148.602 189.01 139.19 189.01 125.86C189.01 107.44 201.278 94 217.391 94C231.747 94 240.499 103.448 240.499 116.742C240.499 135.199 228.121 148.602 212.044 148.602Z" fill="white"/>
<path d="M277.633 147.723L285.25 112.604H284.591L253.17 147.723H242.44L253.683 94.8789H264.596L256.979 130.072H257.638L289.059 94.8789H299.789L288.546 147.723H277.633ZM266.463 79.6079H273.531C272.835 83.1968 274.959 85.2842 278.548 85.2842C282.284 85.2842 285.213 83.1968 286.019 79.6079H293.087C291.585 86.6025 286.349 90.9604 278.182 90.9604C270.016 90.9604 265.182 86.7856 266.463 79.6079Z" fill="white"/>
<path d="M357.577 114.251C357.577 114.032 357.577 113.775 357.54 113.043C357.174 107.403 352.56 103.595 346.48 103.595C336.593 103.595 329.745 112.713 329.745 125.458C329.745 133.807 334.212 138.934 341.5 138.934C347.579 138.934 352.523 135.418 354.537 129.669H365.414C363.033 141.095 353.292 148.602 340.914 148.602C327.181 148.602 318.355 139.776 318.355 126.08C318.355 107.11 330.038 94 347.323 94C359.444 94 368.16 101.471 368.49 112.494C368.526 113.263 368.49 113.775 368.417 114.251H357.577Z" fill="white"/>
<path d="M414.229 147.723H403.17L412.435 104.364H389.254L379.989 147.723H368.856L380.099 94.8789H425.472L414.229 147.723Z" fill="white"/>
<path d="M455.685 103.521C445.98 103.521 438.729 113.263 438.729 125.238C438.729 133.661 443.453 139.081 450.741 139.081C460.445 139.081 467.696 129.339 467.696 117.328C467.696 108.905 462.972 103.521 455.685 103.521ZM450.521 148.602C436.349 148.602 427.486 139.19 427.486 125.86C427.486 107.44 439.754 94 455.868 94C470.223 94 478.976 103.448 478.976 116.742C478.976 135.199 466.598 148.602 450.521 148.602Z" fill="white"/>
<path d="M492.159 94.8789H511.458C521.932 94.8789 528.78 100.995 528.78 110.333C528.78 123.297 519.405 131.317 505.782 131.317H495.638L492.086 147.723H480.953L492.159 94.8789ZM501.424 103.961L497.433 122.345H505.636C512.887 122.345 517.574 118.023 517.574 111.395C517.574 106.524 514.315 103.961 508.858 103.961H501.424Z" fill="white"/>
<path d="M552.694 147.723H541.561L550.826 104.327H535.006L536.947 94.8789H579.72L577.779 104.327H561.959L552.694 147.723Z" fill="white"/>
<defs>
<filter id="filter0_f_0_513" x="0" y="0" width="583.721" height="152.602" filterUnits="userSpaceOnUse" color-interpolation-filters="sRGB">
<feFlood flood-opacity="0" result="BackgroundImageFix"/>
<feBlend mode="normal" in="SourceGraphic" in2="BackgroundImageFix" result="shape"/>
<feGaussianBlur stdDeviation="2" result="effect1_foregroundBlur_0_513"/>
</filter>
</defs>
</svg>
