<svg width="10" height="16" viewBox="0 0 10 16" fill="none" xmlns="http://www.w3.org/2000/svg">
<path d="M10 5.33333V4.712C9.99905 3.81619 9.61736 2.95733 8.93868 2.3239C8.26 1.69046 7.33979 1.33422 6.38 1.33333H5.71429V0H4.28571V1.33333H3.62C2.76094 1.33419 1.93021 1.62016 1.27628 2.14012C0.622356 2.66008 0.187864 3.38015 0.0504664 4.17162C-0.0869311 4.96308 0.081722 5.77436 0.52628 6.46044C0.970838 7.14652 1.66233 7.66268 2.47714 7.91667L4.28571 8.48V13.3333H3.62C3.03897 13.3328 2.4819 13.1171 2.07105 12.7337C1.6602 12.3502 1.42914 11.8303 1.42857 11.288V10.6667H0V11.288C0.000945517 12.1838 0.382641 13.0427 1.06132 13.6761C1.73999 14.3095 2.66021 14.6658 3.62 14.6667H4.28571V16H5.71429V14.6667H6.38C7.23906 14.6658 8.06979 14.3798 8.72372 13.8599C9.37764 13.3399 9.81214 12.6199 9.94953 11.8284C10.0869 11.0369 9.91828 10.2256 9.47372 9.53956C9.02916 8.85348 8.33768 8.33732 7.52286 8.08333L5.71429 7.52V2.66667H6.38C6.96103 2.6672 7.5181 2.88286 7.92895 3.26632C8.3398 3.64978 8.57086 4.16971 8.57143 4.712V5.33333H10ZM7.07143 9.34733C7.56519 9.50072 7.98435 9.81309 8.2539 10.2285C8.52346 10.644 8.62581 11.1354 8.54264 11.6149C8.45947 12.0943 8.19621 12.5305 7.79998 12.8454C7.40374 13.1602 6.90039 13.3332 6.38 13.3333H5.71429V8.92467L7.07143 9.34733ZM4.28571 7.07533L2.92857 6.65267C2.43481 6.49929 2.01565 6.18691 1.7461 5.77146C1.47654 5.356 1.37419 4.86457 1.45736 4.38512C1.54053 3.90566 1.80379 3.46948 2.20002 3.15463C2.59626 2.83978 3.09961 2.6668 3.62 2.66667H4.28571V7.07533Z" fill="currentColor"/>
</svg>
