<svg width="25" height="18" viewBox="0 0 25 18" fill="none" xmlns="http://www.w3.org/2000/svg">
<path d="M9.48552 1H9.70505C10.627 1.04322 11.464 1.33249 12.2162 1.86782C12.226 1.87481 12.237 1.87472 12.249 1.86755C13.2972 1.24447 14.5838 1.03582 15.7628 1.38175C16.4136 1.57283 17.0051 1.88266 17.6145 2.17371C17.8379 2.28039 18.0348 2.35698 18.2051 2.40346C18.3299 2.4376 18.4434 2.45463 18.5455 2.45454C19.1271 2.45426 19.7504 2.31753 20.3055 2.11623C20.368 2.09353 20.4175 2.08128 20.4539 2.07946C20.5519 2.07438 20.6362 2.10329 20.7067 2.16622C20.7385 2.19463 20.7773 2.24866 20.8233 2.32828C21.8708 4.142 22.9182 5.95577 23.9658 7.76958C23.9784 7.79137 23.9898 7.82315 24 7.86492V8.01377C23.9758 8.10929 23.9272 8.18274 23.8541 8.23413C22.6008 9.11539 21.3448 9.9986 20.0862 10.8838C20.0847 10.8848 20.0835 10.8862 20.0826 10.8878C20.0817 10.8894 20.0811 10.8911 20.081 10.893C20.0808 10.8948 20.0811 10.8966 20.0817 10.8983C20.0823 10.9 20.0833 10.9016 20.0846 10.9028C20.26 11.0791 20.4356 11.2567 20.6113 11.4353C20.6966 11.522 20.7574 11.5887 20.7935 11.6354C21.3313 12.3284 21.1679 13.3457 20.4443 13.836C20.0656 14.0926 19.6124 14.1541 19.1684 14.0298C19.165 14.0289 19.1632 14.0302 19.163 14.0336C19.1042 14.6451 18.684 15.174 18.0939 15.346C17.6946 15.4625 17.3064 15.4192 16.9292 15.2162C16.9253 15.214 16.9229 15.2151 16.922 15.2196C16.7358 16.1609 15.7616 16.6862 14.8816 16.3366C14.8786 16.3354 14.8753 16.3351 14.8722 16.3356C14.869 16.3362 14.866 16.3376 14.8636 16.3398C14.2384 16.8912 13.315 17.0067 12.5453 16.7595C12.5372 16.7569 12.5284 16.7572 12.5204 16.7603C11.9418 16.9883 11.296 17.0614 10.6828 16.946C10.0044 16.8182 9.4163 16.4487 8.98734 15.9059C8.98551 15.9035 8.98307 15.9017 8.98029 15.9007C8.97751 15.8997 8.9745 15.8994 8.97158 15.9C8.07569 16.07 7.24714 15.4286 7.18249 14.5078C7.18239 14.5065 7.18201 14.5053 7.18138 14.5041C7.18075 14.503 7.17987 14.502 7.17882 14.5012C7.17777 14.5005 7.17656 14.4999 7.17529 14.4997C7.17402 14.4994 7.1727 14.4995 7.17145 14.4998C6.22613 14.7379 5.31178 14.0303 5.29926 13.0431C5.29923 13.0419 5.29895 13.0407 5.29843 13.0395C5.29791 13.0384 5.29717 13.0375 5.29625 13.0367C5.29533 13.0359 5.29426 13.0353 5.2931 13.035C5.29195 13.0347 5.29074 13.0346 5.28956 13.0348C4.62397 13.1455 3.97239 12.8135 3.67582 12.195C3.39367 11.6069 3.52296 10.9203 3.96916 10.4571C3.97029 10.4559 3.97117 10.4545 3.97174 10.453C3.97231 10.4514 3.97256 10.4498 3.97248 10.4481C3.97239 10.4465 3.97196 10.4449 3.97123 10.4434C3.9705 10.442 3.96947 10.4407 3.96822 10.4396C2.70644 9.38205 1.44413 8.3242 0.181279 7.26608C0.0734007 7.17551 0.0156229 7.1081 0 6.97476V6.90966C0.00835017 6.84411 0.031156 6.78455 0.0684175 6.73098C1.26402 5.01205 2.45953 3.29298 3.65495 1.57378C3.74896 1.43854 3.85737 1.35492 4.02909 1.3778C4.06501 1.38261 4.11358 1.39913 4.17481 1.42737C4.64606 1.64501 5.15623 1.80857 5.66936 1.88593C5.89172 1.91957 6.07448 1.93128 6.2963 1.88185C6.45235 1.84707 6.61531 1.79854 6.78518 1.73626C7.3464 1.53074 7.89428 1.29717 8.47461 1.14859C8.80664 1.06351 9.14361 1.01398 9.48552 1ZM9.35488 1.73694C9.32777 1.72949 9.31506 1.73081 9.31677 1.74089C9.18918 1.74933 9.0602 1.76654 8.92983 1.7925C8.9231 1.78606 8.91529 1.7851 8.9064 1.78964C8.90442 1.79073 8.90442 1.79182 8.9064 1.79291C8.90765 1.79355 8.90869 1.79432 8.9095 1.79523L8.87515 1.80272C8.86168 1.79981 8.84961 1.79995 8.83892 1.80313C8.83686 1.80376 8.83708 1.80462 8.8396 1.80571C8.84049 1.80608 8.84139 1.80671 8.84229 1.80762C8.8308 1.81361 8.8193 1.81643 8.80781 1.81607C8.79623 1.81289 8.78518 1.81302 8.77468 1.81647C8.77154 1.81747 8.77163 1.81824 8.77495 1.81879C8.77782 1.81924 8.7802 1.82001 8.78209 1.8211C8.76979 1.82791 8.75838 1.8305 8.74788 1.82887C8.71538 1.82596 8.70747 1.82832 8.72418 1.83595L8.47852 1.89969C8.46299 1.89415 8.45167 1.89746 8.44458 1.90963C8.24426 1.96992 8.1138 2.0125 8.0532 2.03738C8.01701 2.05236 7.98923 2.06275 7.96983 2.06857C7.95838 2.07197 7.953 2.08123 7.93791 2.07933C7.93351 2.07871 7.92903 2.07983 7.92539 2.08246C7.91345 2.09081 7.9002 2.09481 7.88566 2.09444C7.86545 2.09535 7.84898 2.10225 7.83623 2.11514C7.82366 2.12395 7.8088 2.12963 7.79165 2.13217C7.78581 2.1289 7.77966 2.13003 7.7732 2.13557C7.76988 2.13848 7.76602 2.14002 7.76162 2.1402C7.74788 2.14057 7.74191 2.14429 7.7437 2.15137L7.527 2.23527C7.50976 2.23182 7.49625 2.23663 7.48646 2.2497C7.49006 2.25052 7.48844 2.25129 7.48162 2.25202C7.47246 2.24784 7.46442 2.24839 7.45751 2.25365C7.45643 2.25447 7.45594 2.25551 7.45603 2.25678C7.45612 2.25815 7.45666 2.25933 7.45764 2.26032C7.45252 2.26405 7.44696 2.26618 7.44094 2.26673C7.43322 2.26255 7.42595 2.26364 7.41912 2.26999C7.41589 2.27299 7.41212 2.27463 7.40781 2.2749C7.39919 2.27544 7.39493 2.27862 7.39502 2.28443L7.34007 2.30581C7.33971 2.30418 7.33912 2.30282 7.33832 2.30173C7.33625 2.29891 7.33369 2.29841 7.33064 2.30023L7.29764 2.32039L7.24687 2.34027C7.22397 2.34036 7.20786 2.34653 7.19852 2.35879L7.05778 2.41055C7.04314 2.40528 7.03407 2.40837 7.03057 2.41981C7.02887 2.42235 7.02559 2.42353 7.02074 2.42335C7.00602 2.41863 6.9969 2.42203 6.9934 2.43356L6.72108 2.52222C6.71129 2.51741 6.70114 2.5185 6.69064 2.52549C6.68947 2.52622 6.68956 2.52681 6.69091 2.52726C6.69226 2.52763 6.69324 2.52853 6.69387 2.52999L6.54694 2.56853C6.53401 2.56172 6.52189 2.56435 6.51057 2.57643C6.50653 2.58069 6.50155 2.58188 6.49562 2.57997C6.46168 2.57616 6.45553 2.5777 6.47717 2.5846L6.43434 2.59318C6.42312 2.59027 6.41311 2.59005 6.40431 2.5925C6.40045 2.59368 6.40049 2.59454 6.40444 2.59509C6.40696 2.59545 6.40907 2.59618 6.41077 2.59726C6.39695 2.60335 6.38334 2.60616 6.36997 2.60571C6.36009 2.60153 6.34824 2.60167 6.33441 2.60612C6.33127 2.60712 6.33118 2.60839 6.33414 2.60993C6.33504 2.61038 6.33621 2.61079 6.33764 2.61116C6.32373 2.61642 6.31039 2.61874 6.29764 2.6181C6.28058 2.61356 6.26438 2.6157 6.24902 2.6245L6.16795 2.63336C6.14873 2.63 6.1358 2.63145 6.12916 2.63771C6.11318 2.64198 6.10043 2.64402 6.09091 2.64384C6.01127 2.64175 5.93158 2.63998 5.85185 2.63853C5.84664 2.63844 5.84224 2.63771 5.83865 2.63635C5.82824 2.6309 5.81486 2.62991 5.79852 2.63336L5.6101 2.61088C5.59933 2.60044 5.5846 2.59904 5.56593 2.60666L5.51448 2.59781C5.51591 2.59745 5.51704 2.59704 5.51785 2.59658C5.5209 2.59513 5.5209 2.59368 5.51785 2.59223C5.50465 2.58623 5.4936 2.58696 5.48471 2.5944L5.15663 2.53026C5.15313 2.52272 5.14366 2.51832 5.12822 2.51705C5.12651 2.51696 5.12539 2.51732 5.12485 2.51814C5.12422 2.51905 5.12386 2.52032 5.12377 2.52195C5.11488 2.5215 5.10703 2.51932 5.1002 2.51541C5.10155 2.51451 5.1024 2.51373 5.10276 2.5131C5.10321 2.51237 5.10272 2.51169 5.10128 2.51106C5.08988 2.50579 5.0809 2.50552 5.07434 2.51024L4.91003 2.46802C4.90384 2.45594 4.89185 2.45272 4.87407 2.45835C4.8774 2.46016 4.87573 2.45998 4.86909 2.4578C4.86792 2.45199 4.8633 2.44809 4.85522 2.44609C4.83376 2.44073 4.81235 2.43506 4.79098 2.42907C4.79008 2.42879 4.78958 2.42911 4.78949 2.43002C4.7894 2.43102 4.789 2.43211 4.78828 2.43329C4.78469 2.43356 4.7811 2.43284 4.77751 2.43111C4.77903 2.43102 4.78011 2.43047 4.78074 2.42948C4.78173 2.42793 4.7815 2.42662 4.78007 2.42553C4.77271 2.41999 4.76413 2.41899 4.75434 2.42253C4.7503 2.4238 4.74604 2.42262 4.74155 2.41899C4.73167 2.40691 4.72238 2.40414 4.71367 2.41068C4.54622 2.35902 4.38137 2.30136 4.21912 2.23772C4.22119 2.22846 4.21051 2.22396 4.18707 2.22423L4.13293 2.20176C4.11488 2.18551 4.10299 2.18592 4.09724 2.20299L3.9666 2.3923C3.94945 2.40283 3.93787 2.41935 3.93185 2.44187L3.32687 3.31228C3.31268 3.31745 3.30622 3.3268 3.30747 3.34033L1.87313 5.40201C1.86595 5.39266 1.86079 5.40001 1.85764 5.42408L0.854815 6.86513C0.849607 6.87266 0.850505 6.87938 0.857508 6.88528L1.24337 7.20969C1.24453 7.2106 1.24485 7.21119 1.24431 7.21146C1.24332 7.2121 1.24233 7.21269 1.24135 7.21324C1.24655 7.2235 1.25526 7.22953 1.26747 7.23135L1.31003 7.26662C1.32 7.28778 1.33374 7.29858 1.35125 7.29904L2.01926 7.85879C2.01773 7.87141 2.02761 7.8804 2.04889 7.88575L2.08983 7.92062C2.10052 7.94114 2.11385 7.95172 2.12983 7.95235L3.20741 8.85408C3.21253 8.87333 3.22792 8.88636 3.2536 8.89317L3.62343 9.20178C3.629 9.22112 3.63843 9.22947 3.65172 9.22684L3.8967 9.43235C3.9046 9.45169 3.91708 9.46273 3.93414 9.46545C3.95021 9.47507 3.964 9.48665 3.97549 9.50018C3.98635 9.52143 4.00018 9.53241 4.01697 9.53314C4.1547 9.64836 4.2927 9.76403 4.43098 9.88016C4.43951 9.88733 4.45742 9.90503 4.48471 9.93327C4.54451 9.88215 4.59789 9.82799 4.64485 9.77079C4.86429 9.54889 5.12633 9.40743 5.43098 9.34642C5.43726 9.34515 5.4426 9.34478 5.447 9.34533C5.4681 9.34896 5.48355 9.3461 5.49333 9.33675C5.62712 9.32031 5.76238 9.31818 5.89912 9.33035C5.938 9.33389 5.9758 9.33974 6.01253 9.34792C6.02339 9.36017 6.03551 9.3624 6.04889 9.35459C6.5969 9.47839 7.04364 9.91448 7.17805 10.4695C7.17853 10.4714 7.17952 10.4732 7.18092 10.4747C7.18233 10.4762 7.18409 10.4772 7.18602 10.4777C7.18795 10.4783 7.18998 10.4783 7.1919 10.4777C7.19381 10.4772 7.19554 10.4761 7.1969 10.4746C7.27798 10.3883 7.36458 10.3024 7.45832 10.2351C7.81576 9.9784 8.21517 9.89314 8.65657 9.9793C8.79699 10.0066 8.93463 10.0592 9.06949 10.1372C9.08072 10.1527 9.0936 10.1603 9.10815 10.16C9.11892 10.1633 9.12848 10.1687 9.13683 10.1764C9.14967 10.193 9.1622 10.2008 9.17441 10.1999C9.49306 10.4203 9.702 10.7162 9.80121 11.0875C9.82357 11.1711 9.83394 11.2646 9.84512 11.3542C9.84545 11.3568 9.84632 11.3593 9.84767 11.3616C9.84902 11.3638 9.85083 11.3658 9.85297 11.3673C9.85512 11.3688 9.85755 11.3699 9.86012 11.3704C9.86269 11.3709 9.86533 11.3708 9.86788 11.3702C10.4189 11.2402 10.9811 11.4152 11.356 11.8502C11.3542 11.8628 11.3616 11.8717 11.3783 11.8767L11.4046 11.9112C11.4071 11.9284 11.4159 11.9396 11.4311 11.9447C11.4369 11.9478 11.4407 11.9528 11.4423 11.9597C11.4503 11.9849 11.464 12.0045 11.4834 12.0184C11.7129 12.3699 11.7756 12.7939 11.6871 13.2053C11.6862 13.2098 11.6865 13.2145 11.688 13.2188C11.6896 13.2231 11.6923 13.227 11.6959 13.2298C11.7947 13.3087 11.9112 13.3956 11.9957 13.4917C12.0242 13.5321 12.0573 13.5677 12.0952 13.5983C12.131 13.6315 12.1613 13.6685 12.1864 13.7093C12.1877 13.7254 12.1947 13.7345 12.2073 13.7366C12.3444 13.9119 12.4252 14.1097 12.4498 14.33C12.4502 14.3331 12.4494 14.3356 12.4475 14.3375L12.4478 14.4604L12.4446 14.5334C12.4315 14.5551 12.4282 14.5777 12.4347 14.6011C12.4158 14.7128 12.3828 14.8193 12.3358 14.9205C12.3182 14.9392 12.3085 14.961 12.3064 14.986L12.1666 15.255C12.1516 15.2676 12.1438 15.2822 12.1433 15.2987C12.107 15.3591 12.0799 15.4243 12.0618 15.4943C12.0474 15.5504 12.0754 15.585 12.1088 15.6333C12.1129 15.6518 12.1215 15.6621 12.1347 15.6642C12.2016 15.7325 12.2747 15.7929 12.3541 15.8454C12.3529 15.8572 12.3641 15.8647 12.3876 15.8679C12.488 15.9354 12.5713 15.9852 12.6376 16.0173C12.75 16.0716 12.8787 16.1092 13.0236 16.13C13.0319 16.1424 13.0478 16.1448 13.0712 16.1374C13.2164 16.1582 13.3371 16.1526 13.4703 16.1503C13.5121 16.1496 13.5527 16.1398 13.5949 16.1378C13.6142 16.1429 13.6284 16.1405 13.6374 16.1307C13.8579 16.0963 14.0636 16.0194 14.2529 15.9001C14.2545 15.8991 14.2559 15.8977 14.2569 15.8961C14.2579 15.8945 14.2586 15.8927 14.2588 15.8907C14.259 15.8888 14.2588 15.8869 14.2582 15.8851C14.2576 15.8833 14.2566 15.8816 14.2552 15.8802C13.8539 15.4744 13.4536 15.0697 13.0544 14.6662C13.0251 14.6365 13.0003 14.5884 12.9802 14.5219C12.9847 14.509 12.9824 14.4929 12.9733 14.4735L12.9732 14.384C12.9838 14.368 12.9857 14.3516 12.979 14.335C13.0373 14.1438 13.2133 14.0271 13.4065 14.0696C13.4758 14.0848 13.5359 14.12 13.5869 14.175C14.0266 14.6204 14.4664 15.0649 14.9061 15.5083C14.9245 15.5269 14.9416 15.5395 14.9573 15.5462C15.2703 15.7961 15.7147 15.7723 15.9982 15.4883C16.144 15.3423 16.2209 15.1584 16.229 14.9367C16.2358 14.9047 16.2365 14.8728 16.2311 14.841C16.2309 14.8396 16.2302 14.8388 16.2288 14.8386C16.227 14.8384 16.2257 14.8378 16.2248 14.8369C16.2242 14.8363 16.224 14.8365 16.2241 14.8373C16.2242 14.8401 16.2234 14.842 16.2217 14.8429C16.2119 14.6898 16.1573 14.5529 16.0579 14.4321C16.0547 14.4178 16.0466 14.4041 16.0337 14.3911C15.3486 13.6982 14.6635 13.0052 13.9783 12.3123C13.9385 12.272 13.909 12.2436 13.8896 12.2272C13.8213 12.1603 13.7786 12.0805 13.7725 11.9819C13.7507 11.6282 14.1696 11.4613 14.4057 11.7189L15.1623 12.4885C15.1631 12.4894 15.1641 12.4898 15.1654 12.4897C15.1667 12.4896 15.1678 12.4891 15.1685 12.4881L15.1751 12.494C15.1736 12.4941 15.1726 12.4949 15.1723 12.4963C15.172 12.4975 15.1723 12.4985 15.1731 12.4993C15.2052 12.532 15.2374 12.5646 15.2698 12.5972C15.2708 12.5983 15.2719 12.5988 15.273 12.5987C15.2744 12.5986 15.2756 12.5979 15.2765 12.5967L15.2805 12.6003C15.2798 12.604 15.2802 12.6067 15.2816 12.6082C15.3493 12.6773 15.4171 12.7462 15.4851 12.815C15.4863 12.8161 15.4874 12.8167 15.4885 12.8166C15.4899 12.8165 15.4911 12.8158 15.4921 12.8144C15.4929 12.8158 15.4942 12.8171 15.4959 12.8184C15.4952 12.8227 15.4954 12.8255 15.4966 12.8267C15.5289 12.8593 15.5611 12.8919 15.5933 12.9245C15.5943 12.9254 15.5954 12.9257 15.5968 12.9256C15.5979 12.9253 15.5989 12.9246 15.5997 12.9235L15.6038 12.9272C15.603 12.931 15.6033 12.9337 15.6047 12.9352C15.6725 13.0042 15.7404 13.0731 15.8083 13.1418C15.8095 13.143 15.8107 13.1436 15.8119 13.1435C15.8132 13.1434 15.8144 13.1426 15.8154 13.1413C15.8161 13.1429 15.8174 13.1442 15.8193 13.1451C15.8191 13.1466 15.8189 13.1481 15.8187 13.1496C15.8185 13.1513 15.819 13.1528 15.8202 13.1539L17.115 14.4633C17.1161 14.4643 17.1173 14.4647 17.1188 14.4645C17.1201 14.4643 17.1212 14.4636 17.1219 14.4623C17.17 14.5066 17.2211 14.545 17.2753 14.5776C17.2986 14.6013 17.3272 14.6159 17.3609 14.6216C17.4231 14.6475 17.4877 14.6653 17.5549 14.6749C17.5763 14.6854 17.6048 14.6879 17.6403 14.6826L17.804 14.6696C17.8189 14.6759 17.8308 14.6742 17.8396 14.6645C18.1938 14.5723 18.4563 14.2658 18.4475 13.8864C18.4521 13.8925 18.4538 13.899 18.4527 13.906C18.4529 13.906 18.4528 13.906 18.4524 13.906C18.452 13.906 18.4519 13.9059 18.452 13.9056C18.4559 13.8715 18.4557 13.8381 18.4513 13.8056C18.4513 13.8054 18.4512 13.8051 18.451 13.805C18.4509 13.8048 18.4506 13.8047 18.4504 13.8047C18.4501 13.8047 18.4499 13.8048 18.4497 13.805C18.4495 13.8051 18.4494 13.8054 18.4494 13.8056L18.4463 13.8469C18.4426 13.7546 18.4243 13.6664 18.3912 13.582C18.3847 13.5508 18.371 13.5228 18.35 13.498C18.3486 13.5014 18.3467 13.4994 18.3444 13.4918C18.3464 13.4913 18.3477 13.4908 18.3484 13.4902C18.3489 13.4899 18.3487 13.489 18.348 13.4873C18.3417 13.4719 18.3344 13.4629 18.3261 13.4604C18.2826 13.3977 18.2426 13.348 18.2062 13.3111C17.132 12.225 16.0578 11.139 14.9836 10.053C14.9807 10.0501 14.9798 10.0479 14.981 10.0463L14.929 9.98693C14.8998 9.94398 14.8816 9.89641 14.8745 9.8442L14.8729 9.73484C14.8905 9.62915 14.9531 9.54308 15.0225 9.49037C15.0372 9.47921 15.0677 9.4635 15.1141 9.44325C15.1279 9.44525 15.1424 9.44216 15.1574 9.43399C15.1666 9.43281 15.1731 9.4309 15.1768 9.42827L15.2913 9.428C15.3423 9.4368 15.3889 9.45533 15.431 9.48356C15.4356 9.49718 15.4442 9.50372 15.4568 9.50317L16.384 10.4381C16.3841 10.4381 16.3841 10.4382 16.3841 10.4383C16.3843 10.4395 16.3845 10.4406 16.3848 10.4417C16.3836 10.4424 16.3824 10.4429 16.3813 10.443C16.3803 10.4433 16.3801 10.4439 16.3807 10.4447C16.3877 10.4546 16.3956 10.4601 16.4047 10.4612L16.4936 10.5497C16.4841 10.5495 16.4862 10.5549 16.4999 10.5659C16.5042 10.5692 16.5087 10.5702 16.5135 10.5692L16.9372 10.9998C16.9363 11.0005 16.9352 11.0011 16.9341 11.0014C16.9328 11.0018 16.9325 11.0025 16.9333 11.0036C16.9403 11.0138 16.9485 11.0189 16.9578 11.0189L17.2615 11.3258C17.2683 11.3475 17.2788 11.3584 17.2931 11.3585L17.3803 11.4468C17.3741 11.4561 17.3815 11.4635 17.4024 11.4688L17.4905 11.5574C17.4784 11.5613 17.485 11.5684 17.5104 11.5786L17.5993 11.6674C17.598 11.6681 17.5966 11.6686 17.5953 11.6689C17.5933 11.6693 17.5929 11.6703 17.5941 11.6719C17.6006 11.681 17.6083 11.6859 17.6171 11.6867L17.7072 11.7765C17.7059 11.7772 17.7045 11.7777 17.703 11.7779C17.7011 11.7782 17.7007 11.7792 17.7018 11.7809C17.7084 11.7899 17.716 11.7949 17.7248 11.7957L17.8145 11.8849C17.811 11.8958 17.8168 11.9025 17.8322 11.9051L18.2597 12.3343C18.2583 12.3353 18.2569 12.3359 18.2554 12.3363C18.2457 12.3385 18.2453 12.3397 18.2541 12.3398H18.2591C18.2614 12.3398 18.2626 12.3409 18.2628 12.3432C18.2636 12.3522 18.2686 12.3556 18.2777 12.3534L18.4746 12.5517C18.4753 12.5637 18.4804 12.5707 18.4898 12.5727C18.4907 12.5729 18.4915 12.5734 18.4921 12.5741C18.4927 12.5748 18.493 12.5757 18.4931 12.5766L18.4933 12.5814C18.4933 12.582 18.4935 12.5826 18.4939 12.5831C18.4942 12.5836 18.4947 12.584 18.4952 12.5843C18.4994 12.586 18.5029 12.5855 18.5055 12.5829L18.703 12.7828C18.6903 12.7869 18.6963 12.7937 18.7212 12.8031L18.8105 12.8922C18.7983 12.8962 18.8044 12.9028 18.8288 12.9119L18.9182 13.0011C18.9059 13.0051 18.9125 13.0121 18.9383 13.022C18.9926 13.0747 19.0447 13.1311 19.1022 13.1775C19.1319 13.2014 19.1609 13.224 19.1892 13.2455C19.2025 13.2639 19.2142 13.2695 19.2242 13.2622C19.5184 13.4326 19.8783 13.3859 20.1302 13.1632C20.1626 13.145 20.186 13.1205 20.2005 13.0899C20.4345 12.8023 20.4567 12.4199 20.2462 12.1115C20.2475 12.0969 20.2394 12.0857 20.222 12.0778C20.2105 12.0701 20.2021 12.0598 20.1968 12.0467C20.1991 12.0478 20.2006 12.0474 20.2012 12.0456C20.2013 12.0453 20.2014 12.0449 20.2013 12.0446C20.2012 12.0443 20.2011 12.044 20.2008 12.0437L19.513 11.3525C19.5005 11.3449 19.4889 11.3343 19.4781 11.3207C19.4796 11.3208 19.4807 11.3206 19.4815 11.32C19.4832 11.3185 19.4833 11.317 19.4818 11.3154C18.9988 10.8269 18.5158 10.3384 18.0329 9.84992C17.9591 9.77529 17.8819 9.70229 17.8108 9.62548C17.7809 9.59334 17.7465 9.56337 17.7157 9.53041C17.6407 9.45033 17.5587 9.37584 17.4844 9.29589C17.4451 9.25353 17.3978 9.21268 17.3585 9.16637C17.3367 9.14063 17.2986 9.11108 17.2704 9.07921C17.2439 9.04906 17.2159 9.02024 17.1867 8.99273C17.1704 8.97747 17.1545 8.96181 17.139 8.94574C17.0557 8.85894 16.9698 8.77504 16.8813 8.69406L16.8484 8.66028C16.7802 8.58165 16.7239 8.52164 16.6796 8.48023C16.6307 8.43461 16.5891 8.38885 16.5441 8.34595C16.4718 8.27676 16.4059 8.19927 16.3323 8.13158C16.3045 8.10607 16.2778 8.07946 16.252 8.05177C16.2302 8.02835 16.2083 8.00497 16.1863 7.98163C16.1552 7.94858 16.1236 7.91599 16.0916 7.88385C15.9062 7.69826 15.721 7.5124 15.5362 7.32628C15.3109 7.09938 15.1682 6.95724 15.1081 6.89986C15.0991 6.89405 15.0909 6.88633 15.0835 6.8767C15.0827 6.86862 15.0805 6.8629 15.0769 6.85954C15.0183 6.80343 14.9611 6.74587 14.9053 6.68685C14.9015 6.68277 14.8971 6.68149 14.8919 6.68304L14.869 6.65839C14.8441 6.62479 14.8162 6.59388 14.7853 6.56564C14.7296 6.51457 14.6774 6.45873 14.6232 6.40058C14.6024 6.37824 14.5798 6.35845 14.5554 6.3412C14.5464 6.33575 14.5386 6.32803 14.532 6.31804C14.5098 6.28517 14.4832 6.25562 14.4521 6.22938C14.4209 6.2031 14.3974 6.17055 14.3663 6.14222C14.3235 6.10327 14.285 6.05832 14.2446 6.01978C14.2105 5.98737 14.178 5.95336 14.1471 5.91777C14.1432 5.91341 14.1385 5.90983 14.1329 5.90701C14.1292 5.9052 14.1258 5.90279 14.1228 5.8998L13.861 5.63858L13.8539 5.63681C13.8527 5.63654 13.8516 5.63667 13.8506 5.63722L13.8473 5.63912C13.8261 5.63885 13.8056 5.64466 13.7859 5.65656C13.7892 5.65919 13.7877 5.66032 13.7815 5.65996C13.7714 5.65597 13.761 5.65964 13.7503 5.67099L13.7011 5.69592C13.6862 5.69088 13.6804 5.6985 13.6694 5.70272C13.6536 5.70863 13.6489 5.71358 13.6551 5.71757L13.6182 5.73568C13.604 5.73405 13.5921 5.74104 13.5825 5.75666C13.4263 5.8539 13.3234 5.93929 13.1794 6.07004C13.1532 6.08474 13.1308 6.10545 13.1123 6.13214L12.995 6.24995L12.8636 6.38941L12.8399 6.421C12.8076 6.44443 12.7824 6.47285 12.764 6.50626L12.4657 6.86254C12.447 6.8718 12.4365 6.88488 12.4343 6.90176L12.0484 7.37353C12.036 7.37417 12.0291 7.38225 12.0277 7.39778L11.93 7.51449C11.9085 7.52702 11.8919 7.54482 11.88 7.56788C11.8784 7.57487 11.8736 7.58086 11.8657 7.58586L11.7883 7.66716C11.7877 7.6678 11.7877 7.66825 11.7884 7.66853C11.7893 7.6688 11.79 7.66925 11.7904 7.66989L11.7729 7.6925L11.6653 7.80731L11.6035 7.87649L11.4339 8.04891L11.3807 8.0959L11.2885 8.18279L11.1324 8.31299C11.1141 8.31453 11.1022 8.32325 11.0968 8.33914C11.0872 8.34894 11.0721 8.3612 11.0516 8.37591C10.9147 8.47388 10.7752 8.55705 10.6333 8.62542C10.6225 8.6197 10.6138 8.62101 10.6073 8.62936C10.6065 8.63038 10.6055 8.6312 10.6043 8.63177C10.6032 8.63234 10.6019 8.63263 10.6007 8.63263C10.5971 8.63254 10.5936 8.63318 10.5902 8.63454C10.5862 8.63608 10.5859 8.63813 10.5894 8.64067L10.5926 8.64312C10.5829 8.64648 10.5765 8.64784 10.5733 8.64721C10.5456 8.65329 10.5189 8.6621 10.4932 8.67363C10.4919 8.67417 10.491 8.67494 10.4905 8.67594C10.4897 8.67749 10.4898 8.67885 10.4908 8.68003L10.4858 8.68112C10.4687 8.67803 10.4584 8.6818 10.4548 8.69242L10.4102 8.70672L10.381 8.70659C10.3783 8.70659 10.3778 8.70772 10.3794 8.70999C10.3802 8.71117 10.3819 8.71208 10.3844 8.71271C10.375 8.71834 10.3659 8.72107 10.3569 8.72089C10.3492 8.71517 10.3398 8.71535 10.3289 8.72143C10.3268 8.72261 10.327 8.72343 10.3293 8.72388C10.3311 8.72415 10.3327 8.72493 10.3341 8.7262C10.327 8.73037 10.3189 8.73305 10.31 8.73423C10.2876 8.72688 10.2753 8.72919 10.2733 8.74118L10.1341 8.76174C10.1197 8.75693 10.1063 8.7582 10.094 8.76556C10.0818 8.77064 10.07 8.77196 10.0586 8.76951L9.88566 8.77005C9.78851 8.76451 9.69329 8.75026 9.6 8.72729C9.61553 8.71902 9.60709 8.71635 9.57468 8.71925C9.55241 8.71744 9.53208 8.71117 9.51367 8.70046C9.48853 8.6912 9.46429 8.68175 9.44094 8.67213C9.4369 8.67049 9.43178 8.67077 9.42815 8.67254C9.4127 8.66972 9.39928 8.665 9.38788 8.65837C9.37037 8.64121 9.35232 8.63372 9.33374 8.6359C9.12498 8.54029 8.96907 8.38631 8.86599 8.17394C8.81095 8.06035 8.77791 7.9593 8.76687 7.87077C8.76112 7.82392 8.75506 7.77707 8.74869 7.73022C8.74168 7.67874 8.74397 7.62413 8.73953 7.5702C8.73643 7.53043 8.74303 7.49229 8.7433 7.45225C8.74438 7.32859 8.76404 7.20329 8.78397 7.08208C8.79466 7.07327 8.79695 7.06038 8.79084 7.0434C8.80709 6.94879 8.82738 6.85464 8.85172 6.76094C8.92911 6.46304 9.02644 6.17245 9.1437 5.88917C9.15564 5.88836 9.15978 5.87769 9.15609 5.85717L9.25172 5.63436C9.26923 5.61375 9.28027 5.58937 9.28485 5.56122L9.30168 5.51873C9.30545 5.52654 9.30851 5.52313 9.31084 5.50851C9.31147 5.50407 9.31336 5.5003 9.3165 5.49721C9.32368 5.48995 9.32575 5.47991 9.32269 5.46711L9.38545 5.33705C9.40197 5.31962 9.41293 5.29819 9.41832 5.27277C9.41912 5.26886 9.4215 5.26573 9.42546 5.26337C9.4273 5.26227 9.42879 5.26066 9.42975 5.25873C9.4307 5.25679 9.43108 5.25462 9.43084 5.25247C9.43021 5.24721 9.43138 5.24267 9.43434 5.23885C9.43946 5.23223 9.44224 5.22855 9.44269 5.22782C9.47044 5.17407 9.49755 5.12 9.52404 5.06562C9.52566 5.06235 9.52637 5.05885 9.5262 5.05513C9.52602 5.05123 9.52781 5.04859 9.53158 5.04723C9.53526 5.04596 9.53733 5.04337 9.53778 5.03947C9.5402 5.01441 9.56687 4.99112 9.57401 4.95843L9.72 4.68155C9.73895 4.66321 9.75129 4.63992 9.75704 4.61169C10.0716 4.03587 10.4263 3.4994 10.864 3.01143C10.8809 3.00507 10.893 2.9924 10.9001 2.97343C10.8995 2.97134 10.9012 2.96825 10.9052 2.96417C11.0127 2.85421 11.1208 2.74472 11.2292 2.63567C11.2505 2.61424 11.2756 2.59127 11.3045 2.56676C11.3305 2.54479 11.3562 2.52231 11.3814 2.49934C11.4465 2.43996 11.5124 2.38303 11.5791 2.32856C11.5801 2.32771 11.5809 2.32662 11.5815 2.32539C11.582 2.32416 11.5822 2.32283 11.5821 2.32151C11.582 2.32018 11.5816 2.31891 11.5809 2.31779C11.5803 2.31667 11.5793 2.31574 11.5782 2.31507L11.4881 2.26087C11.4849 2.24843 11.476 2.24298 11.4613 2.24453C11.4557 2.24362 11.451 2.24071 11.447 2.23581C11.447 2.23472 11.447 2.23359 11.4471 2.23241C11.4471 2.23222 11.447 2.23209 11.4469 2.232L11.3374 2.17698L11.2438 2.1274L11.1239 2.0702L11.0019 2.01872C10.9915 2.00601 10.9759 1.99947 10.9552 1.99911C10.9418 1.99775 10.9379 1.99584 10.9434 1.99339C10.9289 1.98168 10.91 1.97455 10.8867 1.97201C10.8839 1.97555 10.8823 1.97487 10.8822 1.96996C10.8782 1.96188 10.8704 1.95825 10.8589 1.95907C10.8573 1.95925 10.8568 1.95998 10.8572 1.96125C10.8575 1.96179 10.8578 1.96238 10.8582 1.96302L10.7378 1.9208C10.7378 1.91081 10.7275 1.90786 10.7071 1.91194L10.5867 1.87463C10.5764 1.86183 10.5669 1.85901 10.5581 1.86618L10.3807 1.82219C10.3979 1.81511 10.39 1.81311 10.3572 1.8162L10.3267 1.80857C10.3447 1.80058 10.3376 1.79927 10.3056 1.80462L10.2148 1.78692C10.2057 1.77793 10.1917 1.77548 10.1731 1.77957C10.1651 1.78075 10.1566 1.77961 10.1476 1.77616C10.1471 1.7748 10.1467 1.77357 10.1465 1.77248C10.1462 1.7704 10.145 1.76921 10.1429 1.76894C10.1286 1.76676 10.1145 1.76695 10.1005 1.76949L9.83784 1.7398C9.84341 1.73689 9.84961 1.73603 9.85643 1.73721C9.85679 1.73721 9.85697 1.73707 9.85697 1.7368C9.85697 1.73662 9.85697 1.73644 9.85697 1.73626C9.85697 1.73553 9.85661 1.73508 9.85589 1.73489C9.83407 1.7299 9.81266 1.72995 9.79165 1.73503C9.69818 1.73394 9.60269 1.72768 9.51286 1.73067C9.45971 1.73249 9.40705 1.73458 9.35488 1.73694ZM14.4924 1.94409L14.2958 1.95525C14.2973 1.95171 14.3014 1.95058 14.308 1.95185C14.3081 1.95185 14.3081 1.9518 14.3081 1.95171C14.3081 1.95144 14.3081 1.95144 14.3081 1.95171C14.3081 1.9518 14.308 1.95185 14.308 1.95185C14.2691 1.94994 14.2607 1.95217 14.2828 1.95852C14.1739 1.9657 14.0664 1.97922 13.9603 1.99911C13.9442 1.99321 13.9288 1.9952 13.9141 2.0051L13.8291 2.02199C13.7952 2.01745 13.7891 2.01886 13.8106 2.02621L13.7776 2.0337C13.7384 2.03216 13.7291 2.03425 13.7496 2.03997L13.4206 2.1319C13.4086 2.12454 13.3994 2.12754 13.3931 2.14088L13.2832 2.18024C13.2634 2.17797 13.2449 2.18456 13.2279 2.19999C13.2252 2.20181 13.2207 2.20317 13.2144 2.20408C13.1753 2.21198 13.139 2.22714 13.1056 2.24957L12.9607 2.31249L12.7486 2.4149C12.7468 2.41581 12.7463 2.41717 12.7472 2.41899C12.7478 2.42008 12.749 2.4208 12.7506 2.42117C12.748 2.42126 12.746 2.42199 12.7448 2.42335C12.7449 2.42171 12.7443 2.42044 12.7432 2.41953C12.7416 2.41835 12.7401 2.41826 12.7385 2.41926L12.6816 2.4544C12.6692 2.46675 12.6556 2.47624 12.6408 2.48286C12.638 2.4815 12.6352 2.48073 12.6325 2.48055C12.6282 2.48018 12.6246 2.48141 12.6214 2.48423L12.6019 2.50179L12.3228 2.6813C12.3129 2.67957 12.3037 2.68574 12.2955 2.69982C12.2908 2.70636 12.2845 2.7108 12.2766 2.71316C12.2498 2.71997 12.2402 2.72724 12.2478 2.73496L11.9068 3.00434C11.8776 3.01896 11.8551 3.0388 11.8393 3.06386C11.8307 3.07448 11.8214 3.0812 11.8114 3.08402L11.6966 3.1946L11.4774 3.41687C11.4779 3.41796 11.4769 3.41841 11.4743 3.41823C11.4725 3.41805 11.4709 3.41869 11.4696 3.42014L11.3578 3.54353C11.3552 3.55088 11.3495 3.55842 11.3406 3.56614L11.283 3.63178C11.2782 3.64213 11.273 3.65058 11.2675 3.65711C11.0508 3.91125 10.8555 4.18091 10.6816 4.4661C10.6708 4.46337 10.6649 4.47191 10.6638 4.4917C10.6631 4.4957 10.66 4.50096 10.6544 4.5075C10.6537 4.5065 10.653 4.50555 10.6524 4.50464C10.6523 4.50456 10.6522 4.50449 10.6522 4.50444C10.6521 4.50439 10.652 4.50437 10.6519 4.50437C10.6517 4.50437 10.6516 4.50439 10.6516 4.50444C10.6515 4.50449 10.6514 4.50456 10.6513 4.50464L10.6225 4.55857L10.5455 4.68632C10.5309 4.69894 10.5218 4.7156 10.5181 4.7363C10.5079 4.76472 10.4923 4.7901 10.4715 4.81243C10.4536 4.83341 10.4412 4.85588 10.4342 4.87985C10.4302 4.89392 10.4236 4.90632 10.4145 4.91703C10.3971 4.93319 10.3904 4.94686 10.3945 4.95802C10.3701 4.99602 10.3525 5.03702 10.3301 5.0761C10.2929 5.14134 10.256 5.21842 10.2117 5.29674C10.1773 5.35748 10.1143 5.4874 10.0226 5.68652C10.0031 5.70268 9.99169 5.72597 9.98828 5.75638L9.95825 5.82148L9.92485 5.89353C9.92395 5.90379 9.91951 5.91446 9.91152 5.92554C9.89724 5.94687 9.88655 5.97075 9.87946 5.99717C9.88009 6.00144 9.87852 6.00752 9.87475 6.01542C9.85984 6.02877 9.85324 6.04498 9.85495 6.06404L9.69656 6.47262C9.67744 6.49777 9.66725 6.52555 9.66599 6.55597C9.58734 6.789 9.51569 7.03659 9.48175 7.28188C9.48013 7.29368 9.47749 7.30235 9.4738 7.30789C9.4668 7.31806 9.46586 7.33022 9.47098 7.34439C9.47376 7.364 9.47228 7.38171 9.46653 7.3975C9.4527 7.48812 9.45302 7.57996 9.46747 7.67302C9.4831 7.77816 9.5064 7.89365 9.60296 7.95467C9.63286 7.9736 9.67731 7.98517 9.71354 7.99961C9.72206 8.0115 9.7345 8.01523 9.75084 8.01078L9.90586 8.03788C9.92866 8.04524 9.95443 8.04632 9.98316 8.04115C10.3712 8.01813 10.7006 7.75324 10.9689 7.48712C11.002 7.46596 11.0297 7.43827 11.0519 7.40404C11.5335 6.88951 11.9743 6.28944 12.36 5.86997C12.3917 5.84518 12.4183 5.81622 12.4399 5.78308C12.8139 5.37232 13.301 4.96797 13.8636 4.88966C13.8906 4.89601 13.9179 4.8942 13.9456 4.88421C14.0086 4.87776 14.067 4.8853 14.1207 4.90682C14.1276 4.91807 14.1385 4.92434 14.1533 4.92561C14.154 4.9257 14.1542 4.92538 14.1539 4.92466C14.1538 4.92439 14.1538 4.92407 14.1537 4.9237C14.1871 4.94032 14.2133 4.96102 14.2323 4.98581C15.9895 6.7643 17.7478 8.54161 19.5071 10.3177C19.5077 10.3184 19.5136 10.3254 19.5248 10.3387C19.5336 10.3492 19.5431 10.355 19.5534 10.3563C19.5591 10.3649 19.5691 10.3642 19.5832 10.3542C20.7713 9.51548 21.9623 8.67667 23.1561 7.83781C23.1591 7.83569 23.1612 7.83251 23.1619 7.8289C23.1627 7.82529 23.1621 7.82152 23.1603 7.81834L22.9011 7.37122C22.8971 7.34798 22.8865 7.32941 22.8692 7.31552L22.7123 7.04368C22.714 7.02869 22.7074 7.01712 22.6925 7.00895L22.6039 6.85369C22.6023 6.83462 22.5958 6.82377 22.5845 6.82114L22.5285 6.72444C22.5306 6.70855 22.5255 6.70015 22.5133 6.69924L22.3942 6.49264C22.3966 6.48293 22.3943 6.47471 22.3873 6.46799C22.3862 6.4669 22.3852 6.46708 22.3845 6.46853C22.3841 6.46944 22.3836 6.47049 22.383 6.47167L22.2762 6.28876C22.2748 6.26906 22.2651 6.25203 22.2471 6.23769L22.0711 5.93398C22.0733 5.92445 22.0708 5.91628 22.0638 5.90947C22.063 5.90865 22.0625 5.90883 22.0622 5.91001C22.0619 5.9111 22.0612 5.91219 22.0602 5.91328L22.0124 5.83129C22.0139 5.82267 22.0116 5.81531 22.0055 5.80923C22.0024 5.80614 22 5.80251 21.9985 5.79833C21.9935 5.78462 21.9851 5.77309 21.9732 5.76374L21.9379 5.70245C21.9374 5.68112 21.9328 5.67381 21.9243 5.68053L21.6191 5.15128C21.6143 5.12649 21.6031 5.1062 21.5855 5.0904L21.5374 5.00855C21.5367 4.99348 21.5303 4.98222 21.5184 4.97478C21.505 4.95816 21.4945 4.93955 21.4867 4.91894L21.4237 4.81257L21.0483 4.16321C21.0457 4.13978 21.0414 4.13288 21.0356 4.1425L20.742 3.63342C20.739 3.61099 20.7293 3.59292 20.7129 3.57921C20.7034 3.56923 20.6963 3.55769 20.6913 3.54462C20.6917 3.52846 20.6853 3.51752 20.6721 3.5118L20.6086 3.40135C20.605 3.37937 20.5949 3.36167 20.5782 3.34823L20.5224 3.25249C20.5217 3.22779 20.5173 3.22044 20.5094 3.23042L20.3271 2.91037C20.3209 2.88077 20.3057 2.87483 20.2815 2.89253L19.8277 3.01783C19.8276 3.01474 19.8255 3.01329 19.8215 3.01347C19.8189 3.01356 19.8167 3.01361 19.8149 3.01361C19.8087 3.01342 19.8051 3.01647 19.8043 3.02273C19.7952 3.02772 19.7864 3.02968 19.778 3.02859C19.7423 3.02595 19.7352 3.02759 19.7568 3.03349C19.7422 3.03994 19.7292 3.04266 19.7177 3.04166C19.6808 3.03894 19.674 3.04075 19.6972 3.04711C19.6861 3.05201 19.6749 3.0546 19.6637 3.05487C19.6483 3.0497 19.6364 3.05138 19.6281 3.05991C19.6189 3.06563 19.6037 3.07035 19.5826 3.07407C19.4435 3.09913 19.3042 3.12124 19.165 3.1404C19.1584 3.13441 19.1497 3.13314 19.1389 3.13659C19.1354 3.13759 19.1319 3.13763 19.1283 3.13672C19.125 3.13591 19.1216 3.13591 19.118 3.13672C19.1107 3.13827 19.1108 3.13927 19.1181 3.13972C19.1223 3.14008 19.1258 3.1409 19.1286 3.14217C19.1074 3.14943 19.087 3.15257 19.0673 3.15157C19.0477 3.14612 19.0274 3.14676 19.0065 3.15347C19.0045 3.15411 19.0026 3.15379 19.0009 3.15252C19 3.1517 18.999 3.15107 18.9981 3.15061C18.9972 3.15252 19.0016 3.15434 19.0113 3.15606L18.8883 3.16464L18.8412 3.16383C18.8405 3.16383 18.8398 3.1641 18.8392 3.16464C18.8389 3.16492 18.8387 3.16519 18.8384 3.16546C18.8373 3.16646 18.8375 3.16696 18.8391 3.16696C18.8415 3.16696 18.8435 3.16782 18.8453 3.16955C18.8216 3.17354 18.798 3.17599 18.7744 3.1769C18.6458 3.1818 18.5174 3.1808 18.389 3.1739C18.3792 3.17336 18.3696 3.17182 18.3603 3.16927L18.3653 3.16791C18.3757 3.16482 18.3754 3.16342 18.3646 3.16369L18.3308 3.16423C18.3007 3.16478 18.2786 3.16151 18.2644 3.15443C18.2521 3.14762 18.2382 3.14662 18.2226 3.15143L18.1324 3.13291C18.1269 3.12211 18.1163 3.11979 18.1005 3.12596L18.0427 3.1103C18.0221 3.09932 18.0002 3.09192 17.977 3.0881C17.9755 3.08783 17.9748 3.08847 17.9747 3.09001C17.9747 3.09173 17.9752 3.0926 17.9763 3.0926C17.9689 3.09242 17.9633 3.09055 17.9593 3.08701C17.9609 3.08674 17.9622 3.08638 17.963 3.08592C17.965 3.08492 17.965 3.08393 17.963 3.08293C17.9494 3.07639 17.9368 3.07453 17.9251 3.07734L17.8038 3.03689C17.8052 3.02727 17.7961 3.02441 17.7766 3.02831C17.7736 3.02895 17.7719 3.02827 17.7713 3.02627C17.7683 3.01855 17.7624 3.01433 17.7538 3.01361C17.7493 3.01324 17.7452 3.01174 17.7414 3.00911C17.7344 3.0043 17.7281 3.00298 17.7224 3.00516C17.7196 3.00571 17.7157 3.00471 17.7107 3.00217C17.7107 2.99853 17.7094 2.99617 17.7069 2.99508C17.682 2.98373 17.6558 2.97506 17.6284 2.96907L17.525 2.92753C17.5261 2.92644 17.5268 2.92517 17.5271 2.92372C17.5273 2.92307 17.5273 2.92241 17.5272 2.92176C17.527 2.92111 17.5268 2.9205 17.5264 2.91995C17.5261 2.9194 17.5256 2.91894 17.525 2.91858C17.5245 2.91822 17.5239 2.91798 17.5232 2.91786C17.5164 2.91677 17.51 2.91736 17.504 2.91963L17.4501 2.89294C17.4269 2.87551 17.4009 2.86375 17.372 2.85766L17.2606 2.8085C17.2431 2.7917 17.2219 2.78085 17.1969 2.77595L17.1543 2.75811C17.1342 2.73777 17.1124 2.7276 17.0889 2.7276L16.9045 2.63649C16.866 2.60979 16.8246 2.59005 16.7802 2.57724L16.711 2.54224C16.7009 2.52717 16.6881 2.52086 16.6726 2.52331L16.628 2.5022C16.605 2.48368 16.58 2.47274 16.5529 2.46938L16.4737 2.43016C16.4553 2.41454 16.4325 2.40378 16.4054 2.39788C16.3934 2.39634 16.3784 2.39043 16.3601 2.38017C16.3661 2.37491 16.3635 2.37277 16.3525 2.37377C16.3504 2.37394 16.3483 2.3736 16.3464 2.37277C16.3445 2.37194 16.3428 2.37064 16.3415 2.36901C16.3335 2.35893 16.3248 2.35716 16.3156 2.36369L16.2583 2.334C16.2458 2.3193 16.2292 2.31249 16.2083 2.31358L16.0513 2.2497C16.0498 2.23962 16.0391 2.23504 16.0193 2.23595C16.0123 2.23722 16.006 2.23508 16.0003 2.22955C15.9909 2.21565 15.9797 2.21084 15.9665 2.21511C15.9628 2.21584 15.9591 2.21529 15.9556 2.21347C15.9572 2.20948 15.9564 2.20667 15.9531 2.20503C15.9318 2.19486 15.9068 2.18719 15.8782 2.18201L15.555 2.08041C15.5486 2.0667 15.5402 2.06384 15.5301 2.07183C15.523 2.07256 15.5156 2.07056 15.5079 2.06584C15.5095 2.06548 15.5108 2.06507 15.5116 2.06462C15.5142 2.06335 15.5141 2.06239 15.5114 2.06176C15.5017 2.05949 15.4916 2.05899 15.4812 2.06026L15.2493 2.00633C15.2498 1.99643 15.2394 1.99407 15.2179 1.99924C15.2053 1.99943 15.1946 1.99743 15.1859 1.99325C15.1809 1.98417 15.1666 1.9824 15.1429 1.98794L14.9087 1.95798C14.9164 1.95462 14.9248 1.95366 14.9337 1.95512C14.9342 1.95521 14.9344 1.95498 14.9344 1.95444C14.9344 1.95426 14.9344 1.95403 14.9344 1.95376C14.9344 1.95276 14.9339 1.95217 14.9328 1.95199C14.9015 1.94663 14.871 1.94695 14.8413 1.95294L14.6828 1.94395L14.7483 1.94204C14.7485 1.94206 14.7486 1.94205 14.7488 1.942C14.7489 1.94195 14.7491 1.94187 14.7492 1.94176C14.7493 1.94165 14.7494 1.94152 14.7495 1.94137C14.7495 1.94122 14.7496 1.94106 14.7496 1.94089C14.7496 1.94072 14.7495 1.94054 14.7495 1.94038C14.7494 1.94022 14.7493 1.94006 14.7492 1.93993C14.7491 1.9398 14.7489 1.93969 14.7488 1.93961C14.7486 1.93952 14.7485 1.93947 14.7483 1.93946C14.6619 1.93355 14.5741 1.93346 14.4847 1.93918C14.483 1.93927 14.4809 1.93896 14.4785 1.93823C14.476 1.93741 14.4738 1.93723 14.4718 1.93768C14.4618 1.94023 14.4622 1.94132 14.473 1.94095C14.4798 1.94077 14.4863 1.94182 14.4924 1.94409ZM5.69549 10.0435C5.69172 10.0404 5.68831 10.0408 5.68525 10.0448C5.69639 10.045 5.70752 10.045 5.71865 10.0448C5.72189 10.0448 5.72211 10.044 5.71933 10.0424C5.71789 10.0415 5.71627 10.041 5.71448 10.0409C5.71322 10.0409 5.71062 10.0417 5.70667 10.0435C5.70451 10.0444 5.70227 10.0449 5.69993 10.0449C5.69823 10.045 5.69675 10.0445 5.69549 10.0435ZM5.16512 10.2797C5.1635 10.2793 5.16198 10.2792 5.16054 10.2793C5.15928 10.2794 5.15798 10.2802 5.15663 10.2815C4.93154 10.5083 4.70667 10.7353 4.48202 10.9623C4.4435 11.0013 4.41293 11.0373 4.3903 11.0703L4.29683 11.2577C4.28094 11.2785 4.27394 11.3013 4.27583 11.3261C4.18842 11.6793 4.32768 12.0376 4.63919 12.221C4.65517 12.2416 4.67591 12.2528 4.70141 12.2545C4.95542 12.3713 5.25091 12.3484 5.47892 12.1897C5.52121 12.1603 5.58783 12.0997 5.67879 12.008C5.86967 11.8157 6.06034 11.6233 6.25077 11.4307C6.46074 11.2184 6.55421 10.9248 6.4738 10.6319C6.3996 10.362 6.19071 10.1504 5.92175 10.0808C5.89616 10.0741 5.8725 10.0674 5.85077 10.0605C5.84117 10.0512 5.82788 10.05 5.81091 10.0568C5.55915 10.0306 5.34388 10.105 5.16512 10.2797ZM8.27798 10.6802L8.22343 10.686C8.20781 10.6803 8.19353 10.6827 8.18061 10.6932L8.01522 10.7477C7.99214 10.7495 7.9727 10.7594 7.9569 10.7773C7.8132 10.869 7.71677 10.9798 7.60444 11.092C7.59385 11.0919 7.5868 11.0957 7.5833 11.1034C7.58208 11.1061 7.58003 11.1082 7.57751 11.1094C7.56988 11.1131 7.56561 11.1204 7.56471 11.1314L7.48242 11.2136C7.46536 11.2196 7.45226 11.233 7.4431 11.2539L7.37455 11.3224C7.35776 11.3285 7.34469 11.342 7.33535 11.3627L7.2668 11.4314C7.25001 11.4375 7.23695 11.4509 7.22761 11.4717L7.15919 11.5406C7.1442 11.5429 7.13567 11.5517 7.1336 11.567L7.04512 11.6561C7.03273 11.657 7.02164 11.6683 7.01185 11.69L6.9367 11.7663C6.93356 11.763 6.92979 11.7629 6.92539 11.766C6.92132 11.7688 6.91696 11.7733 6.91273 11.7792C6.90689 11.7874 6.90433 11.7938 6.90505 11.7986L6.82276 11.8812C6.80669 11.8837 6.79825 11.8926 6.79744 11.9079L6.4998 12.2086C6.48337 12.2124 6.47003 12.2255 6.4598 12.2481L6.39138 12.3166C6.3745 12.3228 6.36139 12.3363 6.35205 12.357L6.27717 12.4323C6.26514 12.4334 6.2541 12.4447 6.24404 12.4659L6.21589 12.4989C6.19973 12.5108 6.18626 12.5249 6.17549 12.5409C6.17477 12.542 6.1745 12.543 6.17468 12.5439C6.17486 12.5457 6.17571 12.5465 6.17724 12.5465L6.16983 12.5578C6.15026 12.5687 6.14209 12.5814 6.14532 12.596C6.07466 12.7048 6.03434 12.824 6.02438 12.9536C6.01926 12.9507 6.01742 12.9447 6.01886 12.9356C6.01886 12.9355 6.0189 12.9355 6.01899 12.9355C6.02025 12.9355 6.01998 12.9355 6.01818 12.9355C6.01773 12.9355 6.01746 12.9357 6.01737 12.936C6.01531 12.9912 6.01535 13.0462 6.01751 13.1011C6.01751 13.1026 6.01823 13.1033 6.01966 13.1033H6.0198C6.02123 13.1032 6.02195 13.1025 6.02195 13.1011L6.02141 13.0571C6.03744 13.4517 6.34007 13.7915 6.74155 13.8143C6.73329 13.8129 6.72691 13.8133 6.72242 13.8156C6.7182 13.8178 6.71847 13.8192 6.72323 13.8198C6.77253 13.826 6.82738 13.8248 6.88781 13.8163C6.8985 13.8135 6.91295 13.811 6.93118 13.8086C7.0365 13.7949 7.14572 13.748 7.233 13.6905C7.27843 13.6605 7.3455 13.6005 7.43421 13.5106C7.92382 13.0144 8.41401 12.5189 8.90478 12.024C9.00274 11.9253 9.07012 11.8009 9.10694 11.6509C9.11421 11.6212 9.11609 11.5894 9.12081 11.5576L9.12283 11.5767C9.12292 11.577 9.12292 11.5771 9.12283 11.577C9.12274 11.577 9.1226 11.577 9.12242 11.577C9.12224 11.577 9.12216 11.5768 9.12216 11.5766C9.13455 11.5042 9.13347 11.4323 9.11892 11.3607C9.10896 11.2975 9.09288 11.2366 9.07071 11.1781C9.06469 11.1367 9.04655 11.099 9.0163 11.065C8.90586 10.8807 8.74554 10.7596 8.53535 10.7015C8.55349 10.6955 8.54577 10.6936 8.51219 10.6958C8.50465 10.6975 8.50043 10.6966 8.49953 10.6931C8.4857 10.683 8.47156 10.6806 8.4571 10.686C8.44615 10.687 8.43578 10.6855 8.42599 10.6814C8.37652 10.669 8.32718 10.6686 8.27798 10.6802ZM10.1623 12.0629L10.0857 12.0711C10.0733 12.0655 10.0608 12.0672 10.0484 12.076L9.95286 12.1049C9.9305 12.1048 9.91214 12.112 9.89778 12.1266L9.77737 12.1946C9.74146 12.2146 9.7134 12.2348 9.6932 12.2552C9.18096 12.7726 8.66905 13.2901 8.15744 13.8079C8.11093 13.855 8.07879 13.8927 8.06101 13.9211C8.02222 13.9737 7.99053 14.0291 7.96593 14.0873C7.90653 14.228 7.88013 14.3793 7.9068 14.5314C7.94873 14.7716 8.07322 14.9575 8.28027 15.0891C8.30433 15.1119 8.33248 15.1262 8.36471 15.132C8.64296 15.2535 8.93966 15.2096 9.17926 15.0233C9.19416 15.0162 9.20826 15.0058 9.22155 14.9924C9.74186 14.4668 10.2622 13.9411 10.7825 13.4153C10.8026 13.3949 10.8196 13.3731 10.8334 13.3499L10.925 13.2004C10.9386 13.1939 10.9434 13.1841 10.9394 13.1708C10.9764 13.0871 10.9979 12.9991 11.004 12.9068C11.0133 12.8717 11.0127 12.8354 11.0024 12.7977C11.0003 12.7377 10.9897 12.6787 10.9708 12.6205C10.8887 12.3677 10.7248 12.1951 10.4789 12.1025C10.47 12.0908 10.4608 12.0875 10.4513 12.0925L10.3907 12.0752C10.3813 12.0693 10.3711 12.0662 10.3603 12.066C10.3573 12.066 10.3585 12.0677 10.3638 12.0714L10.2754 12.0633L10.3119 12.0606C10.3133 12.0605 10.314 12.0598 10.3141 12.0586C10.3142 12.0566 10.3138 12.0556 10.3131 12.0556L10.1255 12.0572C10.1248 12.0572 10.1244 12.0568 10.1243 12.0561C10.124 12.0519 10.1237 12.0533 10.1236 12.0603C10.1236 12.0608 10.1239 12.061 10.1244 12.061C10.1374 12.0596 10.15 12.0602 10.1623 12.0629ZM11.3116 13.8985L9.66505 15.5599C9.66056 15.563 9.65796 15.5662 9.65724 15.5695C9.65661 15.5721 9.658 15.5754 9.66141 15.5793C9.81576 15.7513 9.99255 15.894 10.1918 16.0073C10.2055 16.0276 10.2156 16.0337 10.222 16.0258C10.6535 16.2575 11.1387 16.3208 11.6194 16.2491C11.6378 16.2463 11.6553 16.2428 11.6719 16.2386C11.6727 16.2383 11.6735 16.2379 11.6741 16.2373C11.6747 16.2367 11.6751 16.2359 11.6753 16.2351C11.6755 16.2342 11.6754 16.2333 11.6752 16.2325C11.6749 16.2317 11.6744 16.231 11.6738 16.2304C11.4838 16.0568 11.3448 15.8194 11.3363 15.5553C11.3409 15.5419 11.3406 15.5282 11.3354 15.5144C11.3352 15.2369 11.4787 14.9822 11.6202 14.7471C11.6492 14.7058 11.6699 14.6622 11.6823 14.6164C11.7367 14.4798 11.7418 14.3729 11.6753 14.2413C11.6692 14.2116 11.6549 14.1872 11.6323 14.1679C11.5565 14.0648 11.467 13.9739 11.3636 13.8951C11.3597 13.8832 11.353 13.8767 11.3436 13.8755C11.3377 13.8749 11.3318 13.8774 11.3258 13.8833C11.3209 13.8882 11.3161 13.8932 11.3116 13.8985Z" fill="white"/>
<path d="M14.308 1.95185C14.3014 1.95058 14.2973 1.95171 14.2958 1.95525L14.4924 1.94409C14.4863 1.94182 14.4798 1.94077 14.473 1.94095C14.4622 1.94132 14.4618 1.94023 14.4718 1.93768C14.4738 1.93723 14.476 1.93741 14.4785 1.93823C14.4809 1.93896 14.483 1.93927 14.4847 1.93918C14.5741 1.93346 14.6619 1.93355 14.7483 1.93946C14.7485 1.93947 14.7486 1.93952 14.7488 1.93961C14.7489 1.93969 14.7491 1.9398 14.7492 1.93993C14.7493 1.94006 14.7494 1.94022 14.7495 1.94038C14.7495 1.94054 14.7496 1.94072 14.7496 1.94089C14.7496 1.94106 14.7495 1.94122 14.7495 1.94137C14.7494 1.94152 14.7493 1.94165 14.7492 1.94176C14.7491 1.94187 14.7489 1.94195 14.7488 1.942C14.7486 1.94205 14.7485 1.94206 14.7483 1.94204L14.6828 1.94395L14.8413 1.95294C14.871 1.94695 14.9015 1.94663 14.9328 1.95199C14.9339 1.95217 14.9344 1.95276 14.9344 1.95376C14.9344 1.95403 14.9344 1.95426 14.9344 1.95444C14.9344 1.95498 14.9342 1.95521 14.9337 1.95512C14.9248 1.95366 14.9164 1.95462 14.9087 1.95798L15.1429 1.98794C15.1666 1.9824 15.1809 1.98417 15.1859 1.99325C15.1946 1.99743 15.2053 1.99943 15.2179 1.99924C15.2394 1.99407 15.2498 1.99643 15.2493 2.00633L15.4812 2.06026C15.4916 2.05899 15.5017 2.05949 15.5114 2.06176C15.5141 2.06239 15.5142 2.06335 15.5116 2.06462C15.5108 2.06507 15.5095 2.06548 15.5079 2.06584C15.5156 2.07056 15.523 2.07256 15.5301 2.07183C15.5402 2.06384 15.5486 2.0667 15.555 2.08041L15.8782 2.18201C15.9068 2.18719 15.9318 2.19486 15.9531 2.20503C15.9564 2.20667 15.9572 2.20948 15.9556 2.21347C15.9591 2.21529 15.9628 2.21584 15.9665 2.21511C15.9797 2.21084 15.9909 2.21565 16.0003 2.22955C16.006 2.23508 16.0123 2.23722 16.0193 2.23595C16.0391 2.23504 16.0498 2.23962 16.0513 2.2497L16.2083 2.31358C16.2292 2.31249 16.2458 2.3193 16.2583 2.334L16.3156 2.36369C16.3248 2.35716 16.3335 2.35893 16.3415 2.36901C16.3428 2.37064 16.3445 2.37194 16.3464 2.37277C16.3483 2.3736 16.3504 2.37394 16.3525 2.37377C16.3635 2.37277 16.3661 2.37491 16.3601 2.38017C16.3784 2.39043 16.3934 2.39634 16.4054 2.39788C16.4325 2.40378 16.4553 2.41454 16.4737 2.43016L16.5529 2.46938C16.58 2.47274 16.605 2.48368 16.628 2.5022L16.6726 2.52331C16.6881 2.52086 16.7009 2.52717 16.711 2.54224L16.7802 2.57724C16.8246 2.59005 16.866 2.60979 16.9045 2.63649L17.0889 2.7276C17.1124 2.7276 17.1342 2.73777 17.1543 2.75811L17.1969 2.77595C17.2219 2.78085 17.2431 2.7917 17.2606 2.8085L17.372 2.85766C17.4009 2.86375 17.4269 2.87551 17.4501 2.89294L17.504 2.91963C17.51 2.91736 17.5164 2.91677 17.5232 2.91786C17.5239 2.91798 17.5245 2.91822 17.525 2.91858C17.5256 2.91894 17.5261 2.9194 17.5264 2.91995C17.5268 2.9205 17.527 2.92111 17.5272 2.92176C17.5273 2.92241 17.5273 2.92307 17.5271 2.92372C17.5268 2.92517 17.5261 2.92644 17.525 2.92753L17.6284 2.96907C17.6558 2.97506 17.682 2.98373 17.7069 2.99508C17.7094 2.99617 17.7107 2.99853 17.7107 3.00217C17.7157 3.00471 17.7196 3.00571 17.7224 3.00516C17.7281 3.00298 17.7344 3.0043 17.7414 3.00911C17.7452 3.01174 17.7493 3.01324 17.7538 3.01361C17.7624 3.01433 17.7683 3.01855 17.7713 3.02627C17.7719 3.02827 17.7736 3.02895 17.7766 3.02831C17.7961 3.02441 17.8052 3.02727 17.8038 3.03689L17.9251 3.07734C17.9368 3.07453 17.9494 3.07639 17.963 3.08293C17.965 3.08393 17.965 3.08492 17.963 3.08592C17.9622 3.08638 17.9609 3.08674 17.9593 3.08701C17.9633 3.09055 17.9689 3.09242 17.9763 3.0926C17.9752 3.0926 17.9747 3.09173 17.9747 3.09001C17.9748 3.08847 17.9755 3.08783 17.977 3.0881C18.0002 3.09192 18.0221 3.09932 18.0427 3.1103L18.1005 3.12596C18.1163 3.11979 18.1269 3.12211 18.1324 3.13291L18.2226 3.15143C18.2382 3.14662 18.2521 3.14762 18.2644 3.15443C18.2786 3.16151 18.3007 3.16478 18.3308 3.16423L18.3646 3.16369C18.3754 3.16342 18.3757 3.16482 18.3653 3.16791L18.3603 3.16927C18.3696 3.17182 18.3792 3.17336 18.389 3.1739C18.5174 3.1808 18.6458 3.1818 18.7744 3.1769C18.798 3.17599 18.8216 3.17354 18.8453 3.16955C18.8435 3.16782 18.8415 3.16696 18.8391 3.16696C18.8375 3.16696 18.8373 3.16646 18.8384 3.16546C18.8387 3.16519 18.8389 3.16492 18.8392 3.16464C18.8398 3.1641 18.8405 3.16383 18.8412 3.16383L18.8883 3.16464L19.0113 3.15606C19.0016 3.15434 18.9972 3.15252 18.9981 3.15061C18.999 3.15107 19 3.1517 19.0009 3.15252C19.0026 3.15379 19.0045 3.15411 19.0065 3.15347C19.0274 3.14676 19.0477 3.14612 19.0673 3.15157C19.087 3.15257 19.1074 3.14943 19.1286 3.14217C19.1258 3.1409 19.1223 3.14008 19.1181 3.13972C19.1108 3.13927 19.1107 3.13827 19.118 3.13672C19.1216 3.13591 19.125 3.13591 19.1284 3.13672C19.1319 3.13763 19.1354 3.13759 19.1389 3.13659C19.1497 3.13314 19.1584 3.13441 19.165 3.1404C19.3042 3.12124 19.4435 3.09913 19.5826 3.07407C19.6037 3.07035 19.6189 3.06563 19.6281 3.05991C19.6364 3.05138 19.6483 3.0497 19.6637 3.05487C19.6749 3.0546 19.6861 3.05201 19.6972 3.04711C19.674 3.04075 19.6808 3.03894 19.7177 3.04166C19.7292 3.04266 19.7422 3.03994 19.7568 3.03349C19.7352 3.02759 19.7423 3.02595 19.778 3.02859C19.7864 3.02968 19.7952 3.02772 19.8043 3.02273C19.8051 3.01647 19.8087 3.01342 19.8149 3.01361C19.8167 3.01361 19.8189 3.01356 19.8215 3.01347C19.8255 3.01329 19.8276 3.01474 19.8277 3.01783L20.2815 2.89253C20.3057 2.87483 20.3209 2.88077 20.3271 2.91037L20.5094 3.23042C20.5174 3.22044 20.5217 3.22779 20.5224 3.25249L20.5782 3.34823C20.5949 3.36167 20.605 3.37937 20.6086 3.40135L20.6721 3.5118C20.6853 3.51752 20.6917 3.52846 20.6913 3.54462C20.6963 3.55769 20.7034 3.56923 20.7129 3.57921C20.7293 3.59292 20.739 3.61099 20.742 3.63342L21.0356 4.1425C21.0414 4.13288 21.0457 4.13978 21.0483 4.16321L21.4237 4.81257L21.4867 4.91894C21.4945 4.93955 21.505 4.95816 21.5184 4.97478C21.5303 4.98222 21.5367 4.99348 21.5374 5.00855L21.5855 5.0904C21.6031 5.1062 21.6143 5.12649 21.6191 5.15128L21.9243 5.68053C21.9328 5.67381 21.9374 5.68112 21.9379 5.70245L21.9732 5.76374C21.9851 5.77309 21.9935 5.78462 21.9985 5.79833C22 5.80251 22.0024 5.80614 22.0055 5.80923C22.0116 5.81531 22.0139 5.82266 22.0124 5.83129L22.0602 5.91328C22.0612 5.91219 22.0619 5.9111 22.0622 5.91001C22.0625 5.90883 22.063 5.90865 22.0638 5.90947C22.0708 5.91627 22.0733 5.92445 22.0711 5.93398L22.2471 6.23769C22.2651 6.25203 22.2748 6.26906 22.2762 6.28876L22.383 6.47167C22.3836 6.47049 22.3841 6.46944 22.3845 6.46854C22.3852 6.46708 22.3862 6.4669 22.3873 6.46799C22.3943 6.47471 22.3966 6.48293 22.3942 6.49264L22.5133 6.69925C22.5255 6.70015 22.5305 6.70855 22.5285 6.72444L22.5845 6.82114C22.5958 6.82377 22.6023 6.83462 22.6039 6.85369L22.6925 7.00895C22.7074 7.01712 22.714 7.02869 22.7123 7.04368L22.8692 7.31552C22.8865 7.32941 22.8971 7.34798 22.9011 7.37122L23.1603 7.81834C23.1621 7.82152 23.1627 7.82529 23.1619 7.8289C23.1612 7.83251 23.1591 7.83569 23.1561 7.83781C21.9623 8.67667 20.7713 9.51548 19.5832 10.3542C19.5691 10.3642 19.5591 10.3649 19.5534 10.3563C19.5431 10.355 19.5336 10.3492 19.5248 10.3387C19.5136 10.3254 19.5077 10.3184 19.5071 10.3177C17.7478 8.54161 15.9895 6.7643 14.2323 4.98581C14.2133 4.96102 14.1871 4.94032 14.1537 4.9237C14.1538 4.92407 14.1538 4.92439 14.1539 4.92466C14.1542 4.92538 14.154 4.9257 14.1533 4.92561C14.1385 4.92434 14.1276 4.91807 14.1207 4.90682C14.067 4.8853 14.0086 4.87776 13.9456 4.88421C13.9179 4.8942 13.8906 4.89601 13.8636 4.88966C13.301 4.96797 12.8139 5.37232 12.4399 5.78308C12.4183 5.81622 12.3917 5.84518 12.36 5.86997C11.9743 6.28944 11.5335 6.88951 11.0519 7.40404C11.0297 7.43827 11.002 7.46596 10.9689 7.48712C10.7006 7.75324 10.3712 8.01813 9.98316 8.04115C9.95443 8.04632 9.92866 8.04524 9.90586 8.03788L9.75084 8.01078C9.7345 8.01523 9.72206 8.0115 9.71353 7.99961C9.67731 7.98517 9.63286 7.9736 9.60296 7.95467C9.5064 7.89365 9.4831 7.77816 9.46747 7.67302C9.45302 7.57996 9.4527 7.48812 9.46653 7.3975C9.47228 7.38171 9.47376 7.364 9.47098 7.34439C9.46586 7.33022 9.4668 7.31806 9.4738 7.30789C9.47749 7.30235 9.48013 7.29368 9.48175 7.28188C9.51569 7.03659 9.58734 6.789 9.66599 6.55597C9.66725 6.52555 9.67744 6.49777 9.69657 6.47262L9.85495 6.06404C9.85324 6.04498 9.85984 6.02877 9.87475 6.01542C9.87852 6.00752 9.88009 6.00144 9.87946 5.99717C9.88655 5.97075 9.89724 5.94687 9.91151 5.92554C9.91951 5.91446 9.92395 5.90379 9.92485 5.89353L9.95825 5.82148L9.98828 5.75638C9.99169 5.72597 10.0031 5.70268 10.0226 5.68652C10.1143 5.4874 10.1773 5.35748 10.2117 5.29674C10.256 5.21842 10.2929 5.14134 10.3301 5.0761C10.3525 5.03702 10.3701 4.99602 10.3945 4.95802C10.3904 4.94686 10.3971 4.93319 10.4145 4.91703C10.4236 4.90632 10.4302 4.89392 10.4342 4.87985C10.4412 4.85588 10.4536 4.83341 10.4715 4.81243C10.4923 4.7901 10.5079 4.76472 10.5181 4.7363C10.5218 4.7156 10.5309 4.69894 10.5455 4.68632L10.6225 4.55857L10.6513 4.50464C10.6514 4.50456 10.6515 4.50449 10.6516 4.50444C10.6516 4.50439 10.6517 4.50437 10.6519 4.50437C10.652 4.50437 10.6521 4.50439 10.6522 4.50444C10.6522 4.50449 10.6523 4.50456 10.6524 4.50464C10.653 4.50555 10.6537 4.5065 10.6544 4.5075C10.66 4.50096 10.6631 4.4957 10.6638 4.4917C10.6649 4.47191 10.6708 4.46337 10.6816 4.4661C10.8555 4.18091 11.0508 3.91125 11.2675 3.65711C11.273 3.65058 11.2782 3.64213 11.283 3.63178L11.3406 3.56614C11.3495 3.55842 11.3552 3.55088 11.3578 3.54353L11.4696 3.42014C11.4709 3.41869 11.4725 3.41805 11.4743 3.41823C11.4769 3.41841 11.4779 3.41796 11.4774 3.41687L11.6966 3.1946L11.8114 3.08402C11.8214 3.0812 11.8307 3.07448 11.8393 3.06386C11.8551 3.0388 11.8776 3.01896 11.9068 3.00434L12.2478 2.73496C12.2402 2.72724 12.2498 2.71997 12.2766 2.71316C12.2845 2.7108 12.2908 2.70636 12.2955 2.69982C12.3037 2.68574 12.3129 2.67957 12.3228 2.6813L12.6019 2.50179L12.6214 2.48423C12.6246 2.48141 12.6282 2.48018 12.6325 2.48055C12.6352 2.48073 12.638 2.4815 12.6408 2.48286C12.6556 2.47624 12.6692 2.46675 12.6816 2.4544L12.7385 2.41926C12.7401 2.41826 12.7416 2.41835 12.7432 2.41953C12.7443 2.42044 12.7449 2.42171 12.7448 2.42335C12.746 2.42199 12.748 2.42126 12.7506 2.42117C12.749 2.4208 12.7478 2.42008 12.7472 2.41899C12.7463 2.41717 12.7468 2.41581 12.7486 2.4149L12.9607 2.31249L13.1056 2.24957C13.139 2.22714 13.1753 2.21198 13.2144 2.20408C13.2207 2.20317 13.2252 2.20181 13.2279 2.19999C13.2449 2.18456 13.2634 2.17797 13.2832 2.18024L13.3931 2.14088C13.3994 2.12754 13.4086 2.12454 13.4206 2.1319L13.7496 2.03997C13.7291 2.03425 13.7384 2.03216 13.7776 2.0337L13.8106 2.02621C13.7891 2.01886 13.7952 2.01745 13.8291 2.02199L13.9141 2.0051C13.9288 1.9952 13.9442 1.99321 13.9603 1.99911C14.0664 1.97922 14.1739 1.9657 14.2828 1.95852C14.2607 1.95217 14.2691 1.94994 14.308 1.95185ZM14.308 1.95185C14.3081 1.95185 14.3081 1.9518 14.3081 1.95171M14.308 1.95185C14.308 1.95185 14.3081 1.9518 14.3081 1.95171M14.3081 1.95171C14.3081 1.95144 14.3081 1.95144 14.3081 1.95171ZM9.48552 1H9.70505C10.627 1.04322 11.464 1.33249 12.2162 1.86782C12.226 1.87481 12.237 1.87472 12.249 1.86755C13.2972 1.24447 14.5838 1.03582 15.7628 1.38175C16.4136 1.57283 17.0051 1.88266 17.6145 2.17371C17.8379 2.28039 18.0348 2.35698 18.2051 2.40346C18.3299 2.4376 18.4434 2.45463 18.5455 2.45454C19.1271 2.45426 19.7504 2.31753 20.3055 2.11623C20.368 2.09353 20.4175 2.08128 20.4539 2.07946C20.5519 2.07438 20.6362 2.10329 20.7067 2.16622C20.7385 2.19463 20.7773 2.24866 20.8233 2.32828C21.8708 4.14201 22.9182 5.95577 23.9658 7.76958C23.9784 7.79137 23.9898 7.82315 24 7.86492V8.01377C23.9758 8.10929 23.9272 8.18274 23.8541 8.23413C22.6008 9.11539 21.3448 9.9986 20.0862 10.8838C20.0847 10.8848 20.0835 10.8862 20.0826 10.8878C20.0817 10.8894 20.0811 10.8911 20.081 10.893C20.0808 10.8948 20.0811 10.8966 20.0817 10.8983C20.0823 10.9 20.0833 10.9016 20.0846 10.9028C20.26 11.0791 20.4356 11.2567 20.6113 11.4353C20.6966 11.522 20.7574 11.5887 20.7935 11.6354C21.3313 12.3284 21.1679 13.3457 20.4443 13.836C20.0656 14.0926 19.6124 14.1541 19.1683 14.0298C19.165 14.0289 19.1632 14.0302 19.163 14.0336C19.1042 14.6451 18.684 15.174 18.0939 15.346C17.6946 15.4625 17.3064 15.4192 16.9292 15.2162C16.9253 15.214 16.9229 15.2151 16.922 15.2196C16.7358 16.1609 15.7616 16.6862 14.8816 16.3366C14.8786 16.3354 14.8753 16.3351 14.8722 16.3356C14.869 16.3362 14.866 16.3376 14.8636 16.3398C14.2384 16.8912 13.315 17.0067 12.5453 16.7595C12.5372 16.7569 12.5284 16.7572 12.5204 16.7603C11.9418 16.9883 11.296 17.0614 10.6828 16.946C10.0044 16.8182 9.4163 16.4487 8.98734 15.9059C8.98551 15.9035 8.98307 15.9017 8.98029 15.9007C8.97751 15.8997 8.9745 15.8994 8.97158 15.9C8.07569 16.07 7.24714 15.4286 7.18249 14.5078C7.18239 14.5065 7.18201 14.5053 7.18138 14.5041C7.18075 14.503 7.17987 14.502 7.17882 14.5012C7.17777 14.5005 7.17656 14.4999 7.17529 14.4997C7.17402 14.4994 7.1727 14.4995 7.17145 14.4998C6.22613 14.7379 5.31178 14.0303 5.29926 13.0431C5.29923 13.0419 5.29895 13.0407 5.29843 13.0395C5.29791 13.0384 5.29717 13.0375 5.29625 13.0367C5.29533 13.0359 5.29426 13.0353 5.2931 13.035C5.29195 13.0347 5.29074 13.0346 5.28956 13.0348C4.62397 13.1455 3.97239 12.8135 3.67582 12.195C3.39367 11.6069 3.52296 10.9203 3.96916 10.4571C3.97029 10.4559 3.97117 10.4545 3.97174 10.453C3.97231 10.4514 3.97256 10.4498 3.97248 10.4481C3.97239 10.4465 3.97196 10.4449 3.97123 10.4434C3.9705 10.442 3.96947 10.4407 3.96822 10.4396C2.70644 9.38205 1.44413 8.3242 0.181279 7.26608C0.0734007 7.17551 0.0156229 7.10809 0 6.97476V6.90966C0.00835017 6.84411 0.031156 6.78455 0.0684175 6.73098C1.26402 5.01205 2.45953 3.29298 3.65495 1.57378C3.74896 1.43854 3.85737 1.35492 4.02909 1.3778C4.06501 1.38261 4.11358 1.39913 4.17481 1.42737C4.64606 1.64501 5.15623 1.80857 5.66936 1.88593C5.89172 1.91957 6.07448 1.93128 6.2963 1.88185C6.45235 1.84707 6.61531 1.79854 6.78518 1.73626C7.3464 1.53074 7.89428 1.29717 8.47461 1.14859C8.80664 1.06351 9.14361 1.01398 9.48552 1ZM9.35488 1.73694C9.32777 1.72949 9.31506 1.73081 9.31677 1.74089C9.18918 1.74933 9.0602 1.76654 8.92983 1.7925C8.9231 1.78606 8.91529 1.7851 8.9064 1.78964C8.90442 1.79073 8.90442 1.79182 8.9064 1.79291C8.90765 1.79355 8.90869 1.79432 8.9095 1.79523L8.87515 1.80272C8.86168 1.79981 8.84961 1.79995 8.83892 1.80313C8.83686 1.80376 8.83708 1.80462 8.8396 1.80571C8.84049 1.80608 8.84139 1.80671 8.84229 1.80762C8.8308 1.81361 8.8193 1.81643 8.80781 1.81607C8.79623 1.81289 8.78519 1.81302 8.77468 1.81647C8.77154 1.81747 8.77163 1.81824 8.77495 1.81879C8.77782 1.81924 8.7802 1.82001 8.78209 1.8211C8.76979 1.82791 8.75838 1.8305 8.74788 1.82887C8.71538 1.82596 8.70747 1.82832 8.72418 1.83595L8.47852 1.89969C8.46299 1.89415 8.45167 1.89746 8.44458 1.90963C8.24426 1.96992 8.1138 2.0125 8.0532 2.03738C8.01701 2.05236 7.98923 2.06276 7.96983 2.06857C7.95838 2.07197 7.953 2.08123 7.93791 2.07933C7.93351 2.07871 7.92903 2.07983 7.92539 2.08246C7.91345 2.09081 7.9002 2.09481 7.88566 2.09444C7.86545 2.09535 7.84898 2.10225 7.83623 2.11514C7.82366 2.12395 7.8088 2.12963 7.79165 2.13217C7.78581 2.1289 7.77966 2.13003 7.7732 2.13557C7.76988 2.13848 7.76602 2.14002 7.76162 2.1402C7.74788 2.14057 7.74191 2.14429 7.7437 2.15137L7.527 2.23527C7.50976 2.23182 7.49625 2.23663 7.48646 2.2497C7.49006 2.25052 7.48844 2.25129 7.48162 2.25202C7.47246 2.24784 7.46442 2.24839 7.45751 2.25365C7.45643 2.25447 7.45594 2.25551 7.45603 2.25678C7.45612 2.25815 7.45666 2.25933 7.45764 2.26032C7.45252 2.26405 7.44696 2.26618 7.44094 2.26673C7.43322 2.26255 7.42595 2.26364 7.41912 2.26999C7.41589 2.27299 7.41212 2.27463 7.40781 2.2749C7.39919 2.27544 7.39493 2.27862 7.39502 2.28443L7.34007 2.30581C7.33971 2.30418 7.33912 2.30282 7.33832 2.30173C7.33625 2.29891 7.33369 2.29841 7.33064 2.30023L7.29764 2.32039L7.24687 2.34027C7.22397 2.34036 7.20786 2.34653 7.19852 2.35879L7.05778 2.41055C7.04314 2.40528 7.03407 2.40837 7.03057 2.41981C7.02887 2.42235 7.02559 2.42353 7.02074 2.42335C7.00602 2.41863 6.9969 2.42203 6.9934 2.43356L6.72108 2.52222C6.71129 2.51741 6.70114 2.5185 6.69064 2.52549C6.68947 2.52622 6.68956 2.52681 6.69091 2.52726C6.69226 2.52763 6.69324 2.52853 6.69387 2.52999L6.54694 2.56853C6.53401 2.56172 6.52189 2.56435 6.51057 2.57643C6.50653 2.58069 6.50155 2.58188 6.49562 2.57997C6.46168 2.57616 6.45553 2.5777 6.47717 2.5846L6.43434 2.59318C6.42312 2.59027 6.41311 2.59005 6.40431 2.5925C6.40045 2.59368 6.40049 2.59454 6.40444 2.59509C6.40696 2.59545 6.40907 2.59618 6.41077 2.59726C6.39695 2.60335 6.38334 2.60616 6.36997 2.60571C6.36009 2.60153 6.34824 2.60167 6.33441 2.60612C6.33127 2.60712 6.33118 2.60839 6.33414 2.60993C6.33504 2.61038 6.33621 2.61079 6.33764 2.61116C6.32373 2.61642 6.31039 2.61874 6.29764 2.6181C6.28058 2.61356 6.26438 2.6157 6.24902 2.6245L6.16795 2.63336C6.14873 2.63 6.1358 2.63145 6.12916 2.63771C6.11318 2.64198 6.10043 2.64402 6.09091 2.64384C6.01127 2.64175 5.93158 2.63998 5.85185 2.63853C5.84664 2.63844 5.84224 2.63771 5.83865 2.63635C5.82824 2.6309 5.81486 2.62991 5.79852 2.63336L5.6101 2.61088C5.59933 2.60044 5.5846 2.59904 5.56593 2.60666L5.51448 2.59781C5.51591 2.59745 5.51704 2.59704 5.51785 2.59658C5.5209 2.59513 5.5209 2.59368 5.51785 2.59223C5.50465 2.58623 5.4936 2.58696 5.48471 2.5944L5.15663 2.53026C5.15313 2.52272 5.14366 2.51832 5.12822 2.51705C5.12651 2.51696 5.12539 2.51732 5.12485 2.51814C5.12422 2.51905 5.12386 2.52032 5.12377 2.52195C5.11488 2.5215 5.10703 2.51932 5.1002 2.51541C5.10155 2.51451 5.1024 2.51373 5.10276 2.5131C5.10321 2.51237 5.10272 2.51169 5.10128 2.51106C5.08988 2.50579 5.0809 2.50552 5.07434 2.51024L4.91003 2.46802C4.90384 2.45594 4.89185 2.45272 4.87407 2.45835C4.8774 2.46016 4.87573 2.45998 4.86909 2.4578C4.86792 2.45199 4.8633 2.44809 4.85522 2.44609C4.83376 2.44073 4.81235 2.43506 4.79098 2.42907C4.79008 2.42879 4.78958 2.42911 4.78949 2.43002C4.7894 2.43102 4.789 2.43211 4.78828 2.43329C4.78469 2.43356 4.7811 2.43284 4.77751 2.43111C4.77903 2.43102 4.78011 2.43047 4.78074 2.42948C4.78173 2.42793 4.7815 2.42662 4.78007 2.42553C4.7727 2.41999 4.76413 2.41899 4.75434 2.42253C4.7503 2.4238 4.74604 2.42262 4.74155 2.41899C4.73167 2.40691 4.72238 2.40414 4.71367 2.41068C4.54622 2.35902 4.38137 2.30136 4.21912 2.23772C4.22119 2.22846 4.21051 2.22396 4.18707 2.22423L4.13293 2.20176C4.11488 2.18551 4.10299 2.18592 4.09724 2.20299L3.9666 2.3923C3.94945 2.40283 3.93787 2.41935 3.93185 2.44187L3.32687 3.31228C3.31268 3.31745 3.30622 3.3268 3.30747 3.34033L1.87313 5.40201C1.86595 5.39266 1.86079 5.40001 1.85764 5.42408L0.854815 6.86513C0.849607 6.87266 0.850505 6.87938 0.857508 6.88528L1.24337 7.20969C1.24453 7.2106 1.24485 7.21119 1.24431 7.21146C1.24332 7.2121 1.24233 7.21269 1.24135 7.21324C1.24655 7.2235 1.25526 7.22953 1.26747 7.23135L1.31003 7.26662C1.32 7.28778 1.33374 7.29858 1.35125 7.29904L2.01926 7.85879C2.01773 7.87141 2.02761 7.8804 2.04889 7.88575L2.08983 7.92062C2.10052 7.94114 2.11385 7.95172 2.12983 7.95235L3.20741 8.85408C3.21253 8.87333 3.22792 8.88636 3.2536 8.89317L3.62343 9.20178C3.629 9.22112 3.63843 9.22947 3.65172 9.22684L3.8967 9.43236C3.9046 9.45169 3.91708 9.46273 3.93414 9.46545C3.95021 9.47507 3.964 9.48665 3.97549 9.50018C3.98635 9.52142 4.00018 9.53241 4.01697 9.53314C4.1547 9.64836 4.2927 9.76403 4.43098 9.88016C4.43951 9.88733 4.45742 9.90503 4.48471 9.93327C4.54451 9.88215 4.59789 9.82799 4.64485 9.77079C4.86429 9.54889 5.12633 9.40743 5.43098 9.34642C5.43726 9.34515 5.4426 9.34478 5.447 9.34533C5.4681 9.34896 5.48355 9.3461 5.49333 9.33675C5.62712 9.32031 5.76238 9.31818 5.89912 9.33035C5.938 9.33389 5.9758 9.33974 6.01253 9.34792C6.02339 9.36017 6.03551 9.3624 6.04889 9.35459C6.5969 9.47839 7.04364 9.91448 7.17805 10.4695C7.17853 10.4714 7.17952 10.4732 7.18092 10.4747C7.18233 10.4762 7.18409 10.4772 7.18602 10.4777C7.18795 10.4783 7.18998 10.4783 7.1919 10.4777C7.19381 10.4772 7.19554 10.4761 7.1969 10.4746C7.27798 10.3883 7.36458 10.3024 7.45832 10.2351C7.81576 9.9784 8.21517 9.89314 8.65657 9.9793C8.79699 10.0066 8.93463 10.0592 9.06949 10.1372C9.08072 10.1527 9.0936 10.1603 9.10815 10.16C9.11892 10.1633 9.12848 10.1687 9.13683 10.1764C9.14967 10.193 9.1622 10.2008 9.17441 10.1999C9.49306 10.4203 9.702 10.7162 9.80121 11.0875C9.82357 11.1711 9.83394 11.2646 9.84512 11.3542C9.84545 11.3568 9.84632 11.3593 9.84767 11.3616C9.84902 11.3638 9.85083 11.3658 9.85297 11.3673C9.85512 11.3688 9.85755 11.3699 9.86012 11.3704C9.86269 11.3709 9.86533 11.3708 9.86788 11.3702C10.4189 11.2402 10.9811 11.4152 11.356 11.8502C11.3542 11.8628 11.3616 11.8717 11.3783 11.8767L11.4046 11.9112C11.4071 11.9284 11.4159 11.9396 11.4311 11.9447C11.4369 11.9478 11.4407 11.9528 11.4423 11.9597C11.4503 11.9849 11.464 12.0045 11.4834 12.0184C11.7129 12.3699 11.7756 12.7939 11.6871 13.2053C11.6862 13.2098 11.6865 13.2145 11.688 13.2188C11.6896 13.2231 11.6923 13.227 11.6959 13.2298C11.7947 13.3087 11.9112 13.3956 11.9957 13.4917C12.0242 13.5321 12.0573 13.5677 12.0952 13.5983C12.131 13.6315 12.1613 13.6685 12.1864 13.7093C12.1877 13.7254 12.1947 13.7345 12.2073 13.7366C12.3444 13.9119 12.4252 14.1097 12.4498 14.33C12.4502 14.3331 12.4494 14.3356 12.4475 14.3375L12.4478 14.4604L12.4446 14.5334C12.4315 14.5551 12.4282 14.5777 12.4347 14.6011C12.4158 14.7128 12.3828 14.8193 12.3358 14.9205C12.3182 14.9392 12.3085 14.961 12.3064 14.986L12.1666 15.255C12.1516 15.2676 12.1438 15.2822 12.1433 15.2987C12.107 15.3591 12.0799 15.4243 12.0618 15.4943C12.0474 15.5504 12.0754 15.585 12.1088 15.6333C12.1129 15.6518 12.1215 15.6621 12.1347 15.6642C12.2016 15.7325 12.2747 15.7929 12.3541 15.8454C12.3529 15.8572 12.3641 15.8647 12.3876 15.8679C12.488 15.9354 12.5713 15.9852 12.6376 16.0173C12.75 16.0716 12.8787 16.1092 13.0236 16.13C13.0319 16.1424 13.0478 16.1448 13.0712 16.1374C13.2164 16.1582 13.3371 16.1526 13.4703 16.1503C13.5121 16.1496 13.5527 16.1398 13.5949 16.1378C13.6142 16.1429 13.6284 16.1405 13.6374 16.1307C13.8579 16.0963 14.0636 16.0194 14.2529 15.9001C14.2545 15.8991 14.2559 15.8977 14.2569 15.8961C14.2579 15.8945 14.2586 15.8927 14.2588 15.8907C14.259 15.8888 14.2588 15.8869 14.2582 15.8851C14.2576 15.8833 14.2566 15.8816 14.2552 15.8802C13.8539 15.4744 13.4536 15.0697 13.0544 14.6662C13.025 14.6365 13.0003 14.5884 12.9802 14.5219C12.9847 14.509 12.9824 14.4929 12.9733 14.4735L12.9732 14.384C12.9838 14.368 12.9857 14.3516 12.979 14.335C13.0373 14.1438 13.2133 14.0271 13.4065 14.0696C13.4758 14.0848 13.5359 14.12 13.5869 14.175C14.0266 14.6204 14.4664 15.0649 14.9061 15.5083C14.9245 15.5269 14.9416 15.5395 14.9573 15.5462C15.2703 15.7961 15.7147 15.7723 15.9982 15.4883C16.144 15.3423 16.2209 15.1584 16.229 14.9367C16.2358 14.9047 16.2365 14.8728 16.2311 14.841C16.2309 14.8396 16.2302 14.8388 16.2288 14.8386C16.227 14.8384 16.2257 14.8378 16.2248 14.8369C16.2242 14.8363 16.224 14.8365 16.2241 14.8373C16.2242 14.8401 16.2234 14.842 16.2217 14.8429C16.2119 14.6898 16.1573 14.5529 16.0579 14.4321C16.0547 14.4178 16.0466 14.4041 16.0337 14.3911C15.3486 13.6982 14.6635 13.0052 13.9783 12.3123C13.9385 12.272 13.909 12.2436 13.8896 12.2272C13.8213 12.1603 13.7786 12.0805 13.7725 11.9819C13.7507 11.6282 14.1696 11.4613 14.4057 11.7189L15.1623 12.4885C15.1631 12.4894 15.1641 12.4898 15.1654 12.4897C15.1667 12.4896 15.1678 12.4891 15.1685 12.4881L15.1751 12.494C15.1736 12.4941 15.1726 12.4949 15.1723 12.4963C15.172 12.4975 15.1723 12.4985 15.1731 12.4993C15.2052 12.532 15.2374 12.5646 15.2698 12.5972C15.2708 12.5983 15.2719 12.5988 15.273 12.5987C15.2744 12.5986 15.2756 12.5979 15.2765 12.5967L15.2805 12.6003C15.2798 12.6041 15.2802 12.6067 15.2816 12.6082C15.3493 12.6773 15.4171 12.7462 15.4851 12.815C15.4863 12.8161 15.4874 12.8167 15.4885 12.8166C15.4899 12.8165 15.4911 12.8158 15.4921 12.8144C15.4929 12.8158 15.4942 12.8171 15.4959 12.8184C15.4952 12.8227 15.4954 12.8255 15.4966 12.8267C15.5289 12.8593 15.5611 12.8919 15.5933 12.9245C15.5943 12.9254 15.5954 12.9257 15.5968 12.9256C15.5979 12.9253 15.5989 12.9246 15.5997 12.9235L15.6038 12.9272C15.603 12.931 15.6033 12.9337 15.6047 12.9352C15.6725 13.0042 15.7404 13.0731 15.8084 13.1418C15.8095 13.143 15.8107 13.1436 15.8119 13.1435C15.8132 13.1434 15.8144 13.1426 15.8154 13.1413C15.8161 13.1429 15.8174 13.1442 15.8193 13.1451C15.8191 13.1466 15.8189 13.1481 15.8187 13.1496C15.8185 13.1513 15.819 13.1528 15.8202 13.1539L17.115 14.4633C17.1161 14.4643 17.1174 14.4647 17.1188 14.4645C17.1201 14.4643 17.1212 14.4636 17.1219 14.4624C17.17 14.5066 17.2211 14.545 17.2753 14.5776C17.2986 14.6013 17.3272 14.6159 17.3609 14.6216C17.4231 14.6475 17.4877 14.6653 17.5549 14.6749C17.5763 14.6854 17.6048 14.6879 17.6403 14.6826L17.804 14.6696C17.8189 14.6759 17.8308 14.6742 17.8396 14.6645C18.1938 14.5723 18.4563 14.2658 18.4475 13.8864C18.4521 13.8925 18.4538 13.899 18.4527 13.906C18.4529 13.906 18.4528 13.906 18.4524 13.906C18.452 13.906 18.4519 13.9059 18.452 13.9056C18.4559 13.8715 18.4557 13.8381 18.4513 13.8056C18.4513 13.8054 18.4512 13.8051 18.451 13.805C18.4509 13.8048 18.4506 13.8047 18.4504 13.8047C18.4501 13.8047 18.4499 13.8048 18.4497 13.805C18.4495 13.8051 18.4494 13.8054 18.4494 13.8056L18.4463 13.8469C18.4426 13.7546 18.4243 13.6664 18.3912 13.582C18.3847 13.5508 18.371 13.5228 18.35 13.498C18.3486 13.5014 18.3467 13.4994 18.3444 13.4918C18.3464 13.4913 18.3477 13.4908 18.3484 13.4902C18.3489 13.4899 18.3487 13.489 18.348 13.4873C18.3417 13.4719 18.3344 13.4629 18.3261 13.4604C18.2826 13.3977 18.2426 13.348 18.2062 13.3111C17.132 12.225 16.0578 11.139 14.9836 10.053C14.9807 10.0501 14.9798 10.0479 14.981 10.0463L14.929 9.98693C14.8998 9.94398 14.8816 9.89641 14.8745 9.8442L14.8729 9.73484C14.8905 9.62915 14.9531 9.54308 15.0225 9.49037C15.0372 9.4792 15.0677 9.4635 15.1141 9.44325C15.1279 9.44525 15.1424 9.44216 15.1574 9.43399C15.1666 9.43281 15.1731 9.4309 15.1768 9.42827L15.2913 9.428C15.3423 9.4368 15.3889 9.45533 15.431 9.48356C15.4356 9.49718 15.4442 9.50372 15.4568 9.50317L16.384 10.4381C16.3841 10.4381 16.3841 10.4382 16.3841 10.4383C16.3843 10.4395 16.3845 10.4406 16.3848 10.4417C16.3836 10.4424 16.3824 10.4429 16.3813 10.443C16.3803 10.4433 16.3801 10.4439 16.3807 10.4447C16.3877 10.4546 16.3956 10.4601 16.4047 10.4612L16.4936 10.5497C16.4841 10.5495 16.4862 10.5549 16.4999 10.5659C16.5042 10.5692 16.5087 10.5702 16.5135 10.5692L16.9372 10.9998C16.9363 11.0005 16.9352 11.0011 16.9341 11.0014C16.9328 11.0018 16.9325 11.0025 16.9333 11.0036C16.9403 11.0138 16.9485 11.0189 16.9578 11.0189L17.2615 11.3258C17.2683 11.3475 17.2788 11.3584 17.2931 11.3585L17.3803 11.4468C17.3741 11.4561 17.3815 11.4635 17.4024 11.4688L17.4905 11.5574C17.4784 11.5613 17.485 11.5684 17.5104 11.5786L17.5993 11.6674C17.598 11.6681 17.5966 11.6686 17.5953 11.6689C17.5933 11.6693 17.5929 11.6703 17.5941 11.6719C17.6006 11.681 17.6083 11.6859 17.6171 11.6867L17.7072 11.7765C17.7059 11.7772 17.7045 11.7777 17.703 11.7779C17.7011 11.7782 17.7007 11.7792 17.7018 11.7809C17.7084 11.7899 17.716 11.7949 17.7248 11.7957L17.8145 11.8849C17.811 11.8958 17.8168 11.9025 17.8322 11.9051L18.2597 12.3343C18.2583 12.3353 18.2569 12.3359 18.2554 12.3363C18.2457 12.3385 18.2453 12.3397 18.2541 12.3398H18.2591C18.2614 12.3398 18.2626 12.3409 18.2628 12.3432C18.2636 12.3522 18.2686 12.3556 18.2777 12.3534L18.4746 12.5517C18.4753 12.5637 18.4804 12.5707 18.4898 12.5727C18.4907 12.5729 18.4915 12.5734 18.4921 12.5741C18.4927 12.5748 18.493 12.5757 18.4931 12.5766L18.4933 12.5814C18.4933 12.582 18.4935 12.5826 18.4939 12.5831C18.4942 12.5836 18.4947 12.584 18.4952 12.5843C18.4994 12.586 18.5029 12.5855 18.5055 12.5829L18.703 12.7828C18.6903 12.7869 18.6963 12.7937 18.7212 12.8031L18.8105 12.8922C18.7983 12.8962 18.8044 12.9028 18.8288 12.9119L18.9182 13.0011C18.9059 13.0051 18.9125 13.0121 18.9383 13.022C18.9926 13.0747 19.0447 13.1311 19.1022 13.1775C19.1319 13.2014 19.1609 13.224 19.1892 13.2455C19.2025 13.2639 19.2142 13.2695 19.2242 13.2622C19.5184 13.4326 19.8782 13.3859 20.1302 13.1632C20.1626 13.145 20.186 13.1205 20.2005 13.0899C20.4345 12.8023 20.4567 12.4199 20.2462 12.1115C20.2475 12.0969 20.2394 12.0857 20.222 12.0778C20.2105 12.0701 20.2021 12.0598 20.1968 12.0467C20.1991 12.0478 20.2006 12.0474 20.2012 12.0456C20.2013 12.0453 20.2014 12.0449 20.2013 12.0446C20.2012 12.0443 20.2011 12.044 20.2008 12.0437L19.513 11.3525C19.5005 11.3449 19.4889 11.3343 19.4781 11.3207C19.4796 11.3208 19.4807 11.3206 19.4815 11.32C19.4832 11.3185 19.4833 11.317 19.4818 11.3154C18.9988 10.8269 18.5158 10.3384 18.0329 9.84992C17.9591 9.77529 17.8819 9.70229 17.8108 9.62548C17.7809 9.59333 17.7465 9.56337 17.7157 9.53041C17.6407 9.45033 17.5587 9.37584 17.4844 9.29589C17.4451 9.25353 17.3978 9.21268 17.3585 9.16637C17.3367 9.14063 17.2986 9.11108 17.2704 9.07921C17.2439 9.04906 17.2159 9.02024 17.1867 8.99273C17.1704 8.97747 17.1545 8.96181 17.139 8.94574C17.0557 8.85894 16.9698 8.77504 16.8813 8.69406L16.8483 8.66028C16.7802 8.58165 16.7239 8.52164 16.6796 8.48023C16.6307 8.43461 16.5891 8.38885 16.5441 8.34595C16.4718 8.27676 16.4059 8.19927 16.3323 8.13158C16.3045 8.10607 16.2778 8.07947 16.252 8.05177C16.2302 8.02835 16.2083 8.00497 16.1863 7.98163C16.1552 7.94858 16.1236 7.91599 16.0916 7.88385C15.9062 7.69826 15.721 7.5124 15.5362 7.32628C15.3109 7.09938 15.1682 6.95724 15.1081 6.89986C15.0991 6.89405 15.0909 6.88633 15.0835 6.8767C15.0827 6.86862 15.0805 6.8629 15.0769 6.85954C15.0183 6.80343 14.9611 6.74587 14.9053 6.68685C14.9015 6.68277 14.8971 6.68149 14.8919 6.68304L14.869 6.65839C14.8441 6.62479 14.8162 6.59388 14.7853 6.56564C14.7296 6.51457 14.6774 6.45873 14.6232 6.40058C14.6024 6.37824 14.5798 6.35845 14.5554 6.3412C14.5464 6.33575 14.5386 6.32803 14.532 6.31804C14.5098 6.28517 14.4832 6.25562 14.4521 6.22938C14.4209 6.2031 14.3974 6.17055 14.3663 6.14222C14.3235 6.10327 14.285 6.05832 14.2446 6.01978C14.2105 5.98737 14.178 5.95336 14.1471 5.91777C14.1432 5.91341 14.1385 5.90983 14.1329 5.90701C14.1292 5.9052 14.1258 5.90279 14.1228 5.8998L13.861 5.63858L13.8539 5.63681C13.8527 5.63654 13.8516 5.63667 13.8506 5.63722L13.8473 5.63912C13.8261 5.63885 13.8056 5.64466 13.7859 5.65656C13.7892 5.65919 13.7877 5.66032 13.7815 5.65996C13.7714 5.65597 13.761 5.65964 13.7503 5.67099L13.7011 5.69592C13.6862 5.69088 13.6804 5.6985 13.6694 5.70272C13.6536 5.70863 13.6489 5.71358 13.6551 5.71757L13.6182 5.73568C13.604 5.73405 13.5921 5.74104 13.5825 5.75666C13.4263 5.8539 13.3234 5.93929 13.1794 6.07004C13.1532 6.08474 13.1308 6.10545 13.1123 6.13214L12.995 6.24995L12.8636 6.38941L12.8399 6.421C12.8076 6.44443 12.7824 6.47285 12.764 6.50626L12.4657 6.86254C12.447 6.8718 12.4365 6.88488 12.4343 6.90176L12.0484 7.37353C12.036 7.37417 12.0291 7.38225 12.0277 7.39778L11.93 7.51449C11.9085 7.52702 11.8919 7.54482 11.88 7.56788C11.8784 7.57487 11.8736 7.58086 11.8657 7.58586L11.7883 7.66716C11.7877 7.6678 11.7877 7.66825 11.7884 7.66853C11.7893 7.6688 11.79 7.66925 11.7904 7.66989L11.7729 7.6925L11.6653 7.80731L11.6035 7.87649L11.4339 8.04891L11.3807 8.0959L11.2885 8.18279L11.1324 8.31299C11.1141 8.31453 11.1022 8.32325 11.0968 8.33914C11.0872 8.34894 11.0721 8.3612 11.0516 8.37591C10.9147 8.47388 10.7752 8.55705 10.6333 8.62542C10.6225 8.6197 10.6138 8.62101 10.6073 8.62936C10.6065 8.63038 10.6055 8.6312 10.6043 8.63177C10.6032 8.63234 10.6019 8.63263 10.6007 8.63263C10.5971 8.63254 10.5936 8.63318 10.5902 8.63454C10.5862 8.63608 10.5859 8.63813 10.5894 8.64067L10.5926 8.64312C10.5829 8.64648 10.5765 8.64784 10.5733 8.64721C10.5456 8.65329 10.5189 8.6621 10.4932 8.67363C10.4919 8.67417 10.491 8.67494 10.4905 8.67594C10.4897 8.67749 10.4898 8.67885 10.4908 8.68003L10.4858 8.68112C10.4687 8.67803 10.4584 8.6818 10.4548 8.69242L10.4102 8.70672L10.381 8.70659C10.3783 8.70659 10.3778 8.70772 10.3794 8.70999C10.3802 8.71117 10.3819 8.71208 10.3844 8.71271C10.375 8.71834 10.3659 8.72107 10.3569 8.72089C10.3492 8.71517 10.3398 8.71535 10.3289 8.72143C10.3268 8.72261 10.327 8.72343 10.3293 8.72388C10.3311 8.72415 10.3327 8.72493 10.3341 8.7262C10.327 8.73037 10.3189 8.73305 10.31 8.73423C10.2876 8.72688 10.2753 8.72919 10.2733 8.74118L10.1341 8.76174C10.1197 8.75693 10.1063 8.7582 10.094 8.76556C10.0818 8.77064 10.07 8.77196 10.0586 8.76951L9.88566 8.77005C9.78851 8.76451 9.69329 8.75026 9.6 8.72729C9.61553 8.71902 9.60709 8.71635 9.57468 8.71925C9.55241 8.71744 9.53208 8.71117 9.51367 8.70046C9.48853 8.6912 9.46429 8.68175 9.44094 8.67213C9.4369 8.67049 9.43178 8.67077 9.42815 8.67254C9.4127 8.66972 9.39928 8.665 9.38788 8.65837C9.37037 8.64121 9.35232 8.63372 9.33374 8.6359C9.12498 8.54029 8.96907 8.38631 8.86599 8.17394C8.81095 8.06035 8.77791 7.9593 8.76687 7.87077C8.76112 7.82392 8.75506 7.77707 8.74869 7.73022C8.74168 7.67874 8.74397 7.62413 8.73953 7.5702C8.73643 7.53043 8.74303 7.49229 8.7433 7.45225C8.74438 7.32859 8.76404 7.20329 8.78397 7.08208C8.79466 7.07327 8.79695 7.06038 8.79084 7.0434C8.80709 6.94879 8.82738 6.85464 8.85172 6.76094C8.92911 6.46304 9.02644 6.17245 9.1437 5.88917C9.15564 5.88836 9.15978 5.87769 9.15609 5.85717L9.25172 5.63436C9.26923 5.61375 9.28027 5.58937 9.28485 5.56122L9.30168 5.51873C9.30545 5.52654 9.30851 5.52313 9.31084 5.50851C9.31147 5.50407 9.31336 5.5003 9.3165 5.49721C9.32368 5.48995 9.32575 5.47991 9.32269 5.46711L9.38545 5.33705C9.40198 5.31962 9.41293 5.29819 9.41832 5.27277C9.41912 5.26886 9.4215 5.26573 9.42545 5.26337C9.4273 5.26227 9.42879 5.26066 9.42975 5.25873C9.4307 5.25679 9.43108 5.25462 9.43084 5.25247C9.43021 5.24721 9.43138 5.24267 9.43434 5.23885C9.43946 5.23223 9.44224 5.22855 9.44269 5.22782C9.47044 5.17407 9.49755 5.12 9.52404 5.06562C9.52566 5.06235 9.52637 5.05885 9.5262 5.05513C9.52602 5.05123 9.52781 5.04859 9.53158 5.04723C9.53526 5.04596 9.53733 5.04337 9.53778 5.03947C9.5402 5.01441 9.56687 4.99112 9.57401 4.95843L9.72 4.68155C9.73895 4.66321 9.75129 4.63992 9.75704 4.61169C10.0716 4.03587 10.4263 3.4994 10.864 3.01143C10.8809 3.00507 10.893 2.9924 10.9001 2.97343C10.8995 2.97134 10.9012 2.96825 10.9052 2.96417C11.0127 2.85421 11.1208 2.74472 11.2292 2.63567C11.2505 2.61424 11.2756 2.59127 11.3045 2.56676C11.3305 2.54479 11.3562 2.52231 11.3814 2.49934C11.4465 2.43996 11.5124 2.38303 11.5791 2.32856C11.5801 2.32771 11.5809 2.32662 11.5815 2.32539C11.582 2.32417 11.5822 2.32283 11.5821 2.32151C11.582 2.32018 11.5816 2.31891 11.5809 2.31779C11.5803 2.31667 11.5793 2.31574 11.5782 2.31507L11.4881 2.26087C11.4849 2.24843 11.476 2.24298 11.4613 2.24453C11.4557 2.24362 11.451 2.24071 11.447 2.23581C11.447 2.23472 11.447 2.23359 11.4471 2.23241C11.4471 2.23222 11.447 2.23209 11.4469 2.232L11.3374 2.17698L11.2438 2.1274L11.1239 2.0702L11.0019 2.01872C10.9915 2.00601 10.9759 1.99947 10.9552 1.99911C10.9418 1.99775 10.9379 1.99584 10.9434 1.99339C10.9289 1.98168 10.91 1.97455 10.8867 1.97201C10.8839 1.97555 10.8823 1.97487 10.8822 1.96996C10.8782 1.96188 10.8704 1.95825 10.8589 1.95907C10.8573 1.95925 10.8568 1.95998 10.8572 1.96125C10.8575 1.96179 10.8578 1.96238 10.8582 1.96302L10.7378 1.9208C10.7378 1.91081 10.7275 1.90786 10.7071 1.91194L10.5867 1.87463C10.5764 1.86183 10.5669 1.85901 10.5581 1.86618L10.3807 1.82219C10.3979 1.81511 10.39 1.81311 10.3572 1.8162L10.3267 1.80857C10.3447 1.80058 10.3376 1.79927 10.3056 1.80462L10.2148 1.78692C10.2057 1.77793 10.1917 1.77548 10.1731 1.77957C10.1651 1.78075 10.1566 1.77961 10.1476 1.77616C10.1471 1.7748 10.1467 1.77357 10.1465 1.77248C10.1462 1.7704 10.145 1.76921 10.1429 1.76894C10.1286 1.76676 10.1145 1.76695 10.1005 1.76949L9.83785 1.7398C9.84341 1.73689 9.84961 1.73603 9.85643 1.73721C9.85679 1.73721 9.85697 1.73707 9.85697 1.7368C9.85697 1.73662 9.85697 1.73644 9.85697 1.73626C9.85697 1.73553 9.85661 1.73508 9.85589 1.73489C9.83407 1.7299 9.81266 1.72995 9.79165 1.73503C9.69818 1.73394 9.60269 1.72768 9.51286 1.73067C9.45971 1.73249 9.40705 1.73458 9.35488 1.73694ZM5.69549 10.0435C5.69172 10.0404 5.68831 10.0408 5.68525 10.0448C5.69639 10.045 5.70752 10.045 5.71865 10.0448C5.72189 10.0448 5.72211 10.044 5.71933 10.0424C5.71789 10.0415 5.71627 10.041 5.71448 10.0409C5.71322 10.0409 5.71062 10.0417 5.70667 10.0435C5.70451 10.0444 5.70227 10.0449 5.69993 10.0449C5.69823 10.045 5.69675 10.0445 5.69549 10.0435ZM5.16512 10.2797C5.1635 10.2793 5.16198 10.2792 5.16054 10.2793C5.15928 10.2794 5.15798 10.2802 5.15663 10.2815C4.93154 10.5083 4.70667 10.7353 4.48202 10.9623C4.4435 11.0013 4.41293 11.0373 4.3903 11.0703L4.29684 11.2577C4.28094 11.2785 4.27394 11.3013 4.27582 11.3261C4.18842 11.6793 4.32768 12.0376 4.63919 12.221C4.65517 12.2416 4.67591 12.2528 4.70141 12.2545C4.95542 12.3713 5.25091 12.3484 5.47892 12.1897C5.52121 12.1603 5.58783 12.0997 5.67879 12.008C5.86967 11.8157 6.06034 11.6233 6.25077 11.4307C6.46074 11.2184 6.55421 10.9248 6.4738 10.6319C6.3996 10.362 6.19071 10.1504 5.92175 10.0808C5.89616 10.0741 5.8725 10.0674 5.85077 10.0605C5.84117 10.0512 5.82788 10.05 5.81091 10.0568C5.55915 10.0306 5.34388 10.105 5.16512 10.2797ZM8.27798 10.6802L8.22343 10.686C8.20781 10.6803 8.19353 10.6827 8.18061 10.6932L8.01522 10.7477C7.99214 10.7495 7.9727 10.7594 7.9569 10.7773C7.8132 10.869 7.71677 10.9798 7.60444 11.092C7.59385 11.0919 7.5868 11.0957 7.5833 11.1034C7.58208 11.1061 7.58003 11.1082 7.57751 11.1094C7.56988 11.1131 7.56561 11.1204 7.56471 11.1314L7.48242 11.2136C7.46536 11.2196 7.45226 11.233 7.4431 11.2539L7.37455 11.3224C7.35776 11.3285 7.34469 11.342 7.33535 11.3627L7.2668 11.4314C7.25001 11.4375 7.23695 11.4509 7.22761 11.4717L7.15919 11.5406C7.1442 11.5429 7.13567 11.5517 7.1336 11.567L7.04512 11.6561C7.03273 11.657 7.02164 11.6683 7.01185 11.69L6.9367 11.7663C6.93356 11.763 6.92979 11.7629 6.92539 11.766C6.92132 11.7688 6.91696 11.7733 6.91273 11.7792C6.90689 11.7874 6.90433 11.7938 6.90505 11.7986L6.82276 11.8812C6.80669 11.8837 6.79825 11.8926 6.79744 11.9079L6.4998 12.2086C6.48337 12.2124 6.47003 12.2255 6.4598 12.2481L6.39138 12.3166C6.3745 12.3228 6.36139 12.3363 6.35205 12.357L6.27717 12.4323C6.26514 12.4334 6.2541 12.4447 6.24404 12.4659L6.21589 12.4989C6.19973 12.5108 6.18626 12.5249 6.17549 12.5409C6.17477 12.542 6.1745 12.543 6.17468 12.5439C6.17486 12.5457 6.17571 12.5465 6.17724 12.5465L6.16983 12.5578C6.15026 12.5687 6.14209 12.5814 6.14532 12.596C6.07466 12.7048 6.03434 12.824 6.02438 12.9536C6.01926 12.9507 6.01742 12.9447 6.01885 12.9356C6.01885 12.9355 6.0189 12.9355 6.01899 12.9355C6.02025 12.9355 6.01998 12.9355 6.01818 12.9355C6.01773 12.9355 6.01746 12.9357 6.01737 12.936C6.01531 12.9912 6.01535 13.0462 6.01751 13.1011C6.01751 13.1026 6.01823 13.1033 6.01966 13.1033H6.0198C6.02123 13.1032 6.02195 13.1025 6.02195 13.1011L6.02141 13.0571C6.03744 13.4517 6.34007 13.7915 6.74155 13.8143C6.73329 13.8129 6.72691 13.8133 6.72242 13.8156C6.7182 13.8178 6.71847 13.8192 6.72323 13.8198C6.77253 13.826 6.82738 13.8248 6.88781 13.8163C6.8985 13.8135 6.91295 13.811 6.93118 13.8086C7.0365 13.7949 7.14572 13.748 7.233 13.6905C7.27843 13.6605 7.3455 13.6005 7.43421 13.5106C7.92382 13.0144 8.41401 12.5189 8.90478 12.024C9.00274 11.9253 9.07012 11.8009 9.10694 11.6509C9.11421 11.6212 9.11609 11.5894 9.12081 11.5576L9.12283 11.5767C9.12292 11.577 9.12292 11.5771 9.12283 11.577C9.12274 11.577 9.1226 11.577 9.12242 11.577C9.12224 11.577 9.12215 11.5768 9.12215 11.5766C9.13455 11.5042 9.13347 11.4323 9.11892 11.3607C9.10896 11.2975 9.09288 11.2366 9.07071 11.1781C9.06469 11.1367 9.04655 11.099 9.0163 11.065C8.90586 10.8807 8.74554 10.7596 8.53535 10.7015C8.55349 10.6955 8.54577 10.6936 8.51219 10.6958C8.50465 10.6975 8.50043 10.6966 8.49953 10.6931C8.4857 10.683 8.47156 10.6806 8.4571 10.686C8.44615 10.687 8.43578 10.6855 8.42599 10.6814C8.37652 10.669 8.32718 10.6686 8.27798 10.6802ZM10.1623 12.0629L10.0857 12.0711C10.0733 12.0655 10.0608 12.0672 10.0484 12.076L9.95286 12.1049C9.9305 12.1048 9.91214 12.112 9.89778 12.1266L9.77737 12.1946C9.74146 12.2146 9.7134 12.2348 9.6932 12.2552C9.18096 12.7726 8.66905 13.2901 8.15744 13.8079C8.11093 13.855 8.07879 13.8927 8.06101 13.9211C8.02222 13.9737 7.99053 14.0291 7.96593 14.0873C7.90653 14.228 7.88013 14.3793 7.9068 14.5314C7.94873 14.7716 8.07322 14.9575 8.28027 15.0891C8.30433 15.1119 8.33248 15.1262 8.36471 15.132C8.64296 15.2535 8.93966 15.2096 9.17926 15.0233C9.19416 15.0162 9.20826 15.0058 9.22155 14.9924C9.74186 14.4668 10.2622 13.9411 10.7825 13.4153C10.8026 13.3949 10.8196 13.3731 10.8334 13.3499L10.925 13.2004C10.9386 13.1939 10.9434 13.1841 10.9394 13.1708C10.9764 13.0871 10.9979 12.9991 11.004 12.9068C11.0133 12.8717 11.0127 12.8354 11.0024 12.7977C11.0003 12.7377 10.9897 12.6787 10.9708 12.6205C10.8887 12.3677 10.7248 12.1951 10.4789 12.1025C10.47 12.0908 10.4608 12.0875 10.4513 12.0925L10.3907 12.0752C10.3813 12.0693 10.3711 12.0662 10.3603 12.066C10.3573 12.066 10.3585 12.0677 10.3638 12.0714L10.2754 12.0633L10.3119 12.0606C10.3133 12.0605 10.314 12.0598 10.3141 12.0586C10.3142 12.0566 10.3138 12.0556 10.3131 12.0556L10.1255 12.0572C10.1248 12.0572 10.1244 12.0568 10.1243 12.0561C10.124 12.0519 10.1237 12.0533 10.1236 12.0603C10.1236 12.0608 10.1239 12.061 10.1244 12.061C10.1374 12.0596 10.15 12.0602 10.1623 12.0629ZM11.3116 13.8985L9.66505 15.5599C9.66056 15.563 9.65796 15.5662 9.65724 15.5695C9.65661 15.5721 9.658 15.5754 9.66141 15.5793C9.81576 15.7513 9.99255 15.894 10.1918 16.0073C10.2055 16.0276 10.2156 16.0337 10.222 16.0258C10.6535 16.2575 11.1387 16.3208 11.6194 16.2491C11.6378 16.2463 11.6553 16.2428 11.6719 16.2386C11.6727 16.2383 11.6735 16.2379 11.6741 16.2373C11.6747 16.2367 11.6751 16.2359 11.6753 16.2351C11.6755 16.2342 11.6754 16.2333 11.6752 16.2325C11.6749 16.2317 11.6744 16.231 11.6738 16.2304C11.4838 16.0568 11.3448 15.8194 11.3363 15.5553C11.3409 15.5419 11.3406 15.5282 11.3354 15.5144C11.3352 15.2369 11.4787 14.9822 11.6202 14.7471C11.6492 14.7058 11.6699 14.6622 11.6823 14.6164C11.7367 14.4798 11.7418 14.3729 11.6753 14.2413C11.6692 14.2116 11.6549 14.1872 11.6323 14.1679C11.5565 14.0648 11.467 13.9739 11.3636 13.8951C11.3597 13.8832 11.353 13.8767 11.3436 13.8755C11.3377 13.8749 11.3318 13.8774 11.3258 13.8833C11.3209 13.8882 11.3161 13.8932 11.3116 13.8985Z" stroke="white" stroke-width="0.25"/>
</svg>
