<svg width="26" height="17" viewBox="0 0 26 17" fill="none" xmlns="http://www.w3.org/2000/svg">
<path d="M10.4855 0.5H10.705C11.627 0.543218 12.464 0.832491 13.2162 1.36782C13.226 1.37481 13.237 1.37472 13.249 1.36755C14.2972 0.744465 15.5838 0.535819 16.7628 0.881747C17.4136 1.07283 18.0051 1.38266 18.6145 1.67371C18.8379 1.78039 19.0348 1.85698 19.2051 1.90346C19.3299 1.9376 19.4434 1.95463 19.5455 1.95454C20.1271 1.95426 20.7504 1.81753 21.3055 1.61623C21.368 1.59353 21.4175 1.58128 21.4539 1.57946C21.5519 1.57438 21.6362 1.60329 21.7067 1.66622C21.7385 1.69463 21.7773 1.74866 21.8233 1.82828C22.8708 3.642 23.9182 5.45577 24.9658 7.26958C24.9784 7.29137 24.9898 7.32315 25 7.36492V7.51377C24.9758 7.60929 24.9272 7.68274 24.8541 7.73413C23.6008 8.61539 22.3448 9.4986 21.0862 10.3838C21.0847 10.3848 21.0835 10.3862 21.0826 10.3878C21.0817 10.3894 21.0811 10.3911 21.081 10.393C21.0808 10.3948 21.0811 10.3966 21.0817 10.3983C21.0823 10.4 21.0833 10.4016 21.0846 10.4028C21.26 10.5791 21.4356 10.7567 21.6113 10.9353C21.6966 11.022 21.7574 11.0887 21.7935 11.1354C22.3313 11.8284 22.1679 12.8457 21.4443 13.336C21.0656 13.5926 20.6124 13.6541 20.1684 13.5298C20.165 13.5289 20.1632 13.5302 20.163 13.5336C20.1042 14.1451 19.684 14.674 19.0939 14.846C18.6946 14.9625 18.3064 14.9192 17.9292 14.7162C17.9253 14.714 17.9229 14.7151 17.922 14.7196C17.7358 15.6609 16.7616 16.1862 15.8816 15.8366C15.8786 15.8354 15.8753 15.8351 15.8722 15.8356C15.869 15.8362 15.866 15.8376 15.8636 15.8398C15.2384 16.3912 14.315 16.5067 13.5453 16.2595C13.5372 16.2569 13.5284 16.2572 13.5204 16.2603C12.9418 16.4883 12.296 16.5614 11.6828 16.446C11.0044 16.3182 10.4163 15.9487 9.98734 15.4059C9.98551 15.4035 9.98307 15.4017 9.98029 15.4007C9.97751 15.3997 9.9745 15.3994 9.97158 15.4C9.07569 15.57 8.24714 14.9286 8.18249 14.0078C8.18239 14.0065 8.18201 14.0053 8.18138 14.0041C8.18075 14.003 8.17987 14.002 8.17882 14.0012C8.17777 14.0005 8.17656 13.9999 8.17529 13.9997C8.17402 13.9994 8.1727 13.9995 8.17145 13.9998C7.22613 14.2379 6.31178 13.5303 6.29926 12.5431C6.29923 12.5419 6.29895 12.5407 6.29843 12.5395C6.29791 12.5384 6.29717 12.5375 6.29625 12.5367C6.29533 12.5359 6.29426 12.5353 6.2931 12.535C6.29195 12.5347 6.29074 12.5346 6.28956 12.5348C5.62397 12.6455 4.97239 12.3135 4.67582 11.695C4.39367 11.1069 4.52296 10.4203 4.96916 9.95707C4.97029 9.95589 4.97117 9.95449 4.97174 9.95296C4.97231 9.95142 4.97256 9.94978 4.97248 9.94814C4.97239 9.9465 4.97196 9.9449 4.97123 9.94344C4.9705 9.94197 4.96947 9.94068 4.96822 9.93963C3.70644 8.88205 2.44413 7.8242 1.18128 6.76608C1.0734 6.67551 1.01562 6.6081 1 6.47476V6.40966C1.00835 6.34411 1.03116 6.28455 1.06842 6.23098C2.26402 4.51205 3.45953 2.79298 4.65495 1.07378C4.74896 0.93854 4.85737 0.854917 5.02909 0.877798C5.06501 0.88261 5.11358 0.899135 5.17481 0.927372C5.64606 1.14501 6.15623 1.30857 6.66936 1.38593C6.89172 1.41957 7.07448 1.43128 7.2963 1.38185C7.45235 1.34707 7.61531 1.29854 7.78518 1.23626C8.3464 1.03074 8.89428 0.797172 9.47461 0.648586C9.80664 0.563511 10.1436 0.513982 10.4855 0.5ZM10.3549 1.23694C10.3278 1.22949 10.3151 1.23081 10.3168 1.24089C10.1892 1.24933 10.0602 1.26654 9.92983 1.2925C9.9231 1.28606 9.91529 1.2851 9.9064 1.28964C9.90442 1.29073 9.90442 1.29182 9.9064 1.29291C9.90765 1.29355 9.90869 1.29432 9.9095 1.29523L9.87515 1.30272C9.86168 1.29981 9.84961 1.29995 9.83892 1.30313C9.83686 1.30376 9.83708 1.30462 9.8396 1.30571C9.84049 1.30608 9.84139 1.30671 9.84229 1.30762C9.8308 1.31361 9.8193 1.31643 9.80781 1.31607C9.79623 1.31289 9.78518 1.31302 9.77468 1.31647C9.77154 1.31747 9.77163 1.31824 9.77495 1.31879C9.77782 1.31924 9.7802 1.32001 9.78209 1.3211C9.76979 1.32791 9.75838 1.3305 9.74788 1.32887C9.71538 1.32596 9.70747 1.32832 9.72418 1.33595L9.47852 1.39969C9.46299 1.39415 9.45167 1.39746 9.44458 1.40963C9.24426 1.46992 9.1138 1.5125 9.0532 1.53738C9.01701 1.55236 8.98923 1.56275 8.96983 1.56857C8.95838 1.57197 8.953 1.58123 8.93791 1.57933C8.93351 1.57871 8.92903 1.57983 8.92539 1.58246C8.91345 1.59081 8.9002 1.59481 8.88566 1.59444C8.86545 1.59535 8.84898 1.60225 8.83623 1.61514C8.82366 1.62395 8.8088 1.62963 8.79165 1.63217C8.78581 1.6289 8.77966 1.63003 8.7732 1.63557C8.76988 1.63848 8.76602 1.64002 8.76162 1.6402C8.74788 1.64057 8.74191 1.64429 8.7437 1.65137L8.527 1.73527C8.50976 1.73182 8.49625 1.73663 8.48646 1.7497C8.49006 1.75052 8.48844 1.75129 8.48162 1.75202C8.47246 1.74784 8.46442 1.74839 8.45751 1.75365C8.45643 1.75447 8.45594 1.75551 8.45603 1.75678C8.45612 1.75815 8.45666 1.75933 8.45764 1.76032C8.45252 1.76405 8.44696 1.76618 8.44094 1.76673C8.43322 1.76255 8.42595 1.76364 8.41912 1.76999C8.41589 1.77299 8.41212 1.77463 8.40781 1.7749C8.39919 1.77544 8.39493 1.77862 8.39502 1.78443L8.34007 1.80581C8.33971 1.80418 8.33912 1.80282 8.33832 1.80173C8.33625 1.79891 8.33369 1.79841 8.33064 1.80023L8.29764 1.82039L8.24687 1.84027C8.22397 1.84036 8.20786 1.84653 8.19852 1.85879L8.05778 1.91055C8.04314 1.90528 8.03407 1.90837 8.03057 1.91981C8.02887 1.92235 8.02559 1.92353 8.02074 1.92335C8.00602 1.91863 7.9969 1.92203 7.9934 1.93356L7.72108 2.02222C7.71129 2.01741 7.70114 2.0185 7.69064 2.02549C7.68947 2.02622 7.68956 2.02681 7.69091 2.02726C7.69226 2.02763 7.69324 2.02853 7.69387 2.02999L7.54694 2.06853C7.53401 2.06172 7.52189 2.06435 7.51057 2.07643C7.50653 2.08069 7.50155 2.08188 7.49562 2.07997C7.46168 2.07616 7.45553 2.0777 7.47717 2.0846L7.43434 2.09318C7.42312 2.09027 7.41311 2.09005 7.40431 2.0925C7.40045 2.09368 7.40049 2.09454 7.40444 2.09509C7.40696 2.09545 7.40907 2.09618 7.41077 2.09726C7.39695 2.10335 7.38334 2.10616 7.36997 2.10571C7.36009 2.10153 7.34824 2.10167 7.33441 2.10612C7.33127 2.10712 7.33118 2.10839 7.33414 2.10993C7.33504 2.11038 7.33621 2.11079 7.33764 2.11116C7.32373 2.11642 7.31039 2.11874 7.29764 2.1181C7.28058 2.11356 7.26438 2.1157 7.24902 2.1245L7.16795 2.13336C7.14873 2.13 7.1358 2.13145 7.12916 2.13771C7.11318 2.14198 7.10043 2.14402 7.09091 2.14384C7.01127 2.14175 6.93158 2.13998 6.85185 2.13853C6.84664 2.13844 6.84224 2.13771 6.83865 2.13635C6.82824 2.1309 6.81486 2.12991 6.79852 2.13336L6.6101 2.11088C6.59933 2.10044 6.5846 2.09904 6.56593 2.10666L6.51448 2.09781C6.51591 2.09745 6.51704 2.09704 6.51785 2.09658C6.5209 2.09513 6.5209 2.09368 6.51785 2.09223C6.50465 2.08623 6.4936 2.08696 6.48471 2.0944L6.15663 2.03026C6.15313 2.02272 6.14366 2.01832 6.12822 2.01705C6.12651 2.01696 6.12539 2.01732 6.12485 2.01814C6.12422 2.01905 6.12386 2.02032 6.12377 2.02195C6.11488 2.0215 6.10703 2.01932 6.1002 2.01541C6.10155 2.01451 6.1024 2.01373 6.10276 2.0131C6.10321 2.01237 6.10272 2.01169 6.10128 2.01106C6.08988 2.00579 6.0809 2.00552 6.07434 2.01024L5.91003 1.96802C5.90384 1.95594 5.89185 1.95272 5.87407 1.95835C5.8774 1.96016 5.87573 1.95998 5.86909 1.9578C5.86792 1.95199 5.8633 1.94809 5.85522 1.94609C5.83376 1.94073 5.81235 1.93506 5.79098 1.92907C5.79008 1.92879 5.78958 1.92911 5.78949 1.93002C5.7894 1.93102 5.789 1.93211 5.78828 1.93329C5.78469 1.93356 5.7811 1.93284 5.77751 1.93111C5.77903 1.93102 5.78011 1.93047 5.78074 1.92948C5.78173 1.92793 5.7815 1.92662 5.78007 1.92553C5.77271 1.91999 5.76413 1.91899 5.75434 1.92253C5.7503 1.9238 5.74604 1.92262 5.74155 1.91899C5.73167 1.90691 5.72238 1.90414 5.71367 1.91068C5.54622 1.85902 5.38137 1.80136 5.21912 1.73772C5.22119 1.72846 5.21051 1.72396 5.18707 1.72423L5.13293 1.70176C5.11488 1.68551 5.10299 1.68592 5.09724 1.70299L4.9666 1.8923C4.94945 1.90283 4.93787 1.91935 4.93185 1.94187L4.32687 2.81228C4.31268 2.81745 4.30622 2.8268 4.30747 2.84033L2.87313 4.90201C2.86595 4.89266 2.86079 4.90001 2.85764 4.92408L1.85481 6.36513C1.84961 6.37266 1.8505 6.37938 1.85751 6.38528L2.24337 6.70969C2.24453 6.7106 2.24485 6.71119 2.24431 6.71146C2.24332 6.7121 2.24233 6.71269 2.24135 6.71324C2.24655 6.7235 2.25526 6.72953 2.26747 6.73135L2.31003 6.76662C2.32 6.78778 2.33374 6.79858 2.35125 6.79904L3.01926 7.35879C3.01773 7.37141 3.02761 7.3804 3.04889 7.38575L3.08983 7.42062C3.10052 7.44114 3.11385 7.45172 3.12983 7.45235L4.20741 8.35408C4.21253 8.37333 4.22792 8.38636 4.2536 8.39317L4.62343 8.70178C4.629 8.72112 4.63843 8.72947 4.65172 8.72684L4.8967 8.93235C4.9046 8.95169 4.91708 8.96273 4.93414 8.96545C4.95021 8.97507 4.964 8.98665 4.97549 9.00018C4.98635 9.02143 5.00018 9.03241 5.01697 9.03314C5.1547 9.14836 5.2927 9.26403 5.43098 9.38016C5.43951 9.38733 5.45742 9.40503 5.48471 9.43327C5.54451 9.38215 5.59789 9.32799 5.64485 9.27079C5.86429 9.04889 6.12633 8.90743 6.43098 8.84642C6.43726 8.84515 6.4426 8.84478 6.447 8.84533C6.4681 8.84896 6.48355 8.8461 6.49333 8.83675C6.62712 8.82031 6.76238 8.81818 6.89912 8.83035C6.938 8.83389 6.9758 8.83974 7.01253 8.84792C7.02339 8.86017 7.03551 8.8624 7.04889 8.85459C7.5969 8.97839 8.04364 9.41448 8.17805 9.96946C8.17853 9.97144 8.17952 9.97325 8.18092 9.97471C8.18233 9.97616 8.18409 9.97721 8.18602 9.97774C8.18795 9.97827 8.18998 9.97826 8.1919 9.97772C8.19381 9.97717 8.19554 9.97611 8.1969 9.97464C8.27798 9.88829 8.36458 9.80235 8.45832 9.73507C8.81576 9.4784 9.21517 9.39314 9.65657 9.4793C9.79699 9.50663 9.93463 9.55925 10.0695 9.63715C10.0807 9.65268 10.0936 9.6603 10.1081 9.66003C10.1189 9.6633 10.1285 9.66875 10.1368 9.67637C10.1497 9.69299 10.1622 9.70084 10.1744 9.69994C10.4931 9.92029 10.702 10.2162 10.8012 10.5875C10.8236 10.6711 10.8339 10.7646 10.8451 10.8542C10.8454 10.8568 10.8463 10.8593 10.8477 10.8616C10.849 10.8638 10.8508 10.8658 10.853 10.8673C10.8551 10.8688 10.8576 10.8699 10.8601 10.8704C10.8627 10.8709 10.8653 10.8708 10.8679 10.8702C11.4189 10.7402 11.9811 10.9152 12.356 11.3502C12.3542 11.3628 12.3616 11.3717 12.3783 11.3767L12.4046 11.4112C12.4071 11.4284 12.4159 11.4396 12.4311 11.4447C12.4369 11.4478 12.4407 11.4528 12.4423 11.4597C12.4503 11.4849 12.464 11.5045 12.4834 11.5184C12.7129 11.8699 12.7756 12.2939 12.6871 12.7053C12.6862 12.7098 12.6865 12.7145 12.688 12.7188C12.6896 12.7231 12.6923 12.727 12.6959 12.7298C12.7947 12.8087 12.9112 12.8956 12.9957 12.9917C13.0242 13.0321 13.0573 13.0677 13.0952 13.0983C13.131 13.1315 13.1613 13.1685 13.1864 13.2093C13.1877 13.2254 13.1947 13.2345 13.2073 13.2366C13.3444 13.4119 13.4252 13.6097 13.4498 13.83C13.4502 13.8331 13.4494 13.8356 13.4475 13.8375L13.4478 13.9604L13.4446 14.0334C13.4315 14.0551 13.4282 14.0777 13.4347 14.1011C13.4158 14.2128 13.3828 14.3193 13.3358 14.4205C13.3182 14.4392 13.3085 14.461 13.3064 14.486L13.1666 14.755C13.1516 14.7676 13.1438 14.7822 13.1433 14.7987C13.107 14.8591 13.0799 14.9243 13.0618 14.9943C13.0474 15.0504 13.0754 15.085 13.1088 15.1333C13.1129 15.1518 13.1215 15.1621 13.1347 15.1642C13.2016 15.2325 13.2747 15.2929 13.3541 15.3454C13.3529 15.3572 13.3641 15.3647 13.3876 15.3679C13.488 15.4354 13.5713 15.4852 13.6376 15.5173C13.75 15.5716 13.8787 15.6092 14.0236 15.63C14.0319 15.6424 14.0478 15.6448 14.0712 15.6374C14.2164 15.6582 14.3371 15.6526 14.4703 15.6503C14.5121 15.6496 14.5527 15.6398 14.5949 15.6378C14.6142 15.6429 14.6284 15.6405 14.6374 15.6307C14.8579 15.5963 15.0636 15.5194 15.2529 15.4001C15.2545 15.3991 15.2559 15.3977 15.2569 15.3961C15.2579 15.3945 15.2586 15.3927 15.2588 15.3907C15.259 15.3888 15.2588 15.3869 15.2582 15.3851C15.2576 15.3833 15.2566 15.3816 15.2552 15.3802C14.8539 14.9744 14.4536 14.5697 14.0544 14.1662C14.0251 14.1365 14.0003 14.0884 13.9802 14.0219C13.9847 14.009 13.9824 13.9929 13.9733 13.9735L13.9732 13.884C13.9838 13.868 13.9857 13.8516 13.979 13.835C14.0373 13.6438 14.2133 13.5271 14.4065 13.5696C14.4758 13.5848 14.5359 13.62 14.5869 13.675C15.0266 14.1204 15.4664 14.5649 15.9061 15.0083C15.9245 15.0269 15.9416 15.0395 15.9573 15.0462C16.2703 15.2961 16.7147 15.2723 16.9982 14.9883C17.144 14.8423 17.2209 14.6584 17.229 14.4367C17.2358 14.4047 17.2365 14.3728 17.2311 14.341C17.2309 14.3396 17.2302 14.3388 17.2288 14.3386C17.227 14.3384 17.2257 14.3378 17.2248 14.3369C17.2242 14.3363 17.224 14.3365 17.2241 14.3373C17.2242 14.3401 17.2234 14.342 17.2217 14.3429C17.2119 14.1898 17.1573 14.0529 17.0579 13.9321C17.0547 13.9178 17.0466 13.9041 17.0337 13.8911C16.3486 13.1982 15.6635 12.5052 14.9783 11.8123C14.9385 11.772 14.909 11.7436 14.8896 11.7272C14.8213 11.6603 14.7786 11.5805 14.7725 11.4819C14.7507 11.1282 15.1696 10.9613 15.4057 11.2189L16.1623 11.9885C16.1631 11.9894 16.1641 11.9898 16.1654 11.9897C16.1667 11.9896 16.1678 11.9891 16.1685 11.9881L16.1751 11.994C16.1736 11.9941 16.1726 11.9949 16.1723 11.9963C16.172 11.9975 16.1723 11.9985 16.1731 11.9993C16.2052 12.032 16.2374 12.0646 16.2698 12.0972C16.2708 12.0983 16.2719 12.0988 16.273 12.0987C16.2744 12.0986 16.2756 12.0979 16.2765 12.0967L16.2805 12.1003C16.2798 12.104 16.2802 12.1067 16.2816 12.1082C16.3493 12.1773 16.4171 12.2462 16.4851 12.315C16.4863 12.3161 16.4874 12.3167 16.4885 12.3166C16.4899 12.3165 16.4911 12.3158 16.4921 12.3144C16.4929 12.3158 16.4942 12.3171 16.4959 12.3184C16.4952 12.3227 16.4954 12.3255 16.4966 12.3267C16.5289 12.3593 16.5611 12.3919 16.5933 12.4245C16.5943 12.4254 16.5954 12.4257 16.5968 12.4256C16.5979 12.4253 16.5989 12.4246 16.5997 12.4235L16.6038 12.4272C16.603 12.431 16.6033 12.4337 16.6047 12.4352C16.6725 12.5042 16.7404 12.5731 16.8083 12.6418C16.8095 12.643 16.8107 12.6436 16.8119 12.6435C16.8132 12.6434 16.8144 12.6426 16.8154 12.6413C16.8161 12.6429 16.8174 12.6442 16.8193 12.6451C16.8191 12.6466 16.8189 12.6481 16.8187 12.6496C16.8185 12.6513 16.819 12.6528 16.8202 12.6539L18.115 13.9633C18.1161 13.9643 18.1173 13.9647 18.1188 13.9645C18.1201 13.9643 18.1212 13.9636 18.1219 13.9623C18.17 14.0066 18.2211 14.045 18.2753 14.0776C18.2986 14.1013 18.3272 14.1159 18.3609 14.1216C18.4231 14.1475 18.4877 14.1653 18.5549 14.1749C18.5763 14.1854 18.6048 14.1879 18.6403 14.1826L18.804 14.1696C18.8189 14.1759 18.8308 14.1742 18.8396 14.1645C19.1938 14.0723 19.4563 13.7658 19.4475 13.3864C19.4521 13.3925 19.4538 13.399 19.4527 13.406C19.4529 13.406 19.4528 13.406 19.4524 13.406C19.452 13.406 19.4519 13.4059 19.452 13.4056C19.4559 13.3715 19.4557 13.3381 19.4513 13.3056C19.4513 13.3054 19.4512 13.3051 19.451 13.305C19.4509 13.3048 19.4506 13.3047 19.4504 13.3047C19.4501 13.3047 19.4499 13.3048 19.4497 13.305C19.4495 13.3051 19.4494 13.3054 19.4494 13.3056L19.4463 13.3469C19.4426 13.2546 19.4243 13.1664 19.3912 13.082C19.3847 13.0508 19.371 13.0228 19.35 12.998C19.3486 13.0014 19.3467 12.9994 19.3444 12.9918C19.3464 12.9913 19.3477 12.9908 19.3484 12.9902C19.3489 12.9899 19.3487 12.989 19.348 12.9873C19.3417 12.9719 19.3344 12.9629 19.3261 12.9604C19.2826 12.8977 19.2426 12.848 19.2062 12.8111C18.132 11.725 17.0578 10.639 15.9836 9.55298C15.9807 9.55008 15.9798 9.54785 15.981 9.54631L15.929 9.48693C15.8998 9.44398 15.8816 9.39641 15.8745 9.3442L15.8729 9.23484C15.8905 9.12915 15.9531 9.04308 16.0225 8.99037C16.0372 8.97921 16.0677 8.9635 16.1141 8.94325C16.1279 8.94525 16.1424 8.94216 16.1574 8.93399C16.1666 8.93281 16.1731 8.9309 16.1768 8.92827L16.2913 8.928C16.3423 8.9368 16.3889 8.95533 16.431 8.98356C16.4356 8.99718 16.4442 9.00372 16.4568 9.00317L17.384 9.93814C17.3841 9.93814 17.3841 9.93818 17.3841 9.93827C17.3843 9.93945 17.3845 9.94059 17.3848 9.94168C17.3836 9.9424 17.3824 9.94286 17.3813 9.94304C17.3803 9.94331 17.3801 9.94386 17.3807 9.94467C17.3877 9.95457 17.3956 9.96006 17.4047 9.96115L17.4936 10.0497C17.4841 10.0495 17.4862 10.0549 17.4999 10.0659C17.5042 10.0692 17.5087 10.0702 17.5135 10.0692L17.9372 10.4998C17.9363 10.5005 17.9352 10.5011 17.9341 10.5014C17.9328 10.5018 17.9325 10.5025 17.9333 10.5036C17.9403 10.5138 17.9485 10.5189 17.9578 10.5189L18.2615 10.8258C18.2683 10.8475 18.2788 10.8584 18.2931 10.8585L18.3803 10.9468C18.3741 10.9561 18.3815 10.9635 18.4024 10.9688L18.4905 11.0574C18.4784 11.0613 18.485 11.0684 18.5104 11.0786L18.5993 11.1674C18.598 11.1681 18.5966 11.1686 18.5953 11.1689C18.5933 11.1693 18.5929 11.1703 18.5941 11.1719C18.6006 11.181 18.6083 11.1859 18.6171 11.1867L18.7072 11.2765C18.7059 11.2772 18.7045 11.2777 18.703 11.2779C18.7011 11.2782 18.7007 11.2792 18.7018 11.2809C18.7084 11.2899 18.716 11.2949 18.7248 11.2957L18.8145 11.3849C18.811 11.3958 18.8168 11.4025 18.8322 11.4051L19.2597 11.8343C19.2583 11.8353 19.2569 11.8359 19.2554 11.8363C19.2457 11.8385 19.2453 11.8397 19.2541 11.8398H19.2591C19.2614 11.8398 19.2626 11.8409 19.2628 11.8432C19.2636 11.8522 19.2686 11.8556 19.2777 11.8534L19.4746 12.0517C19.4753 12.0637 19.4804 12.0707 19.4898 12.0727C19.4907 12.0729 19.4915 12.0734 19.4921 12.0741C19.4927 12.0748 19.493 12.0757 19.4931 12.0766L19.4933 12.0814C19.4933 12.082 19.4935 12.0826 19.4939 12.0831C19.4942 12.0836 19.4947 12.084 19.4952 12.0843C19.4994 12.086 19.5029 12.0855 19.5055 12.0829L19.703 12.2828C19.6903 12.2869 19.6963 12.2937 19.7212 12.3031L19.8105 12.3922C19.7983 12.3962 19.8044 12.4028 19.8288 12.4119L19.9182 12.5011C19.9059 12.5051 19.9125 12.5121 19.9383 12.522C19.9926 12.5747 20.0447 12.6311 20.1022 12.6775C20.1319 12.7014 20.1609 12.724 20.1892 12.7455C20.2025 12.7639 20.2142 12.7695 20.2242 12.7622C20.5184 12.9326 20.8783 12.8859 21.1302 12.6632C21.1626 12.645 21.186 12.6205 21.2005 12.5899C21.4345 12.3023 21.4567 11.9199 21.2462 11.6115C21.2475 11.5969 21.2394 11.5857 21.222 11.5778C21.2105 11.5701 21.2021 11.5598 21.1968 11.5467C21.1991 11.5478 21.2006 11.5474 21.2012 11.5456C21.2013 11.5453 21.2014 11.5449 21.2013 11.5446C21.2012 11.5443 21.2011 11.544 21.2008 11.5437L20.513 10.8525C20.5005 10.8449 20.4889 10.8343 20.4781 10.8207C20.4796 10.8208 20.4807 10.8206 20.4815 10.82C20.4832 10.8185 20.4833 10.817 20.4818 10.8154C19.9988 10.3269 19.5158 9.8384 19.0329 9.34992C18.9591 9.27529 18.8819 9.20229 18.8108 9.12548C18.7809 9.09334 18.7465 9.06337 18.7157 9.03041C18.6407 8.95033 18.5587 8.87584 18.4844 8.79589C18.4451 8.75353 18.3978 8.71268 18.3585 8.66637C18.3367 8.64063 18.2986 8.61108 18.2704 8.57921C18.2439 8.54906 18.2159 8.52024 18.1867 8.49273C18.1704 8.47747 18.1545 8.46181 18.139 8.44574C18.0557 8.35894 17.9698 8.27504 17.8813 8.19406L17.8484 8.16028C17.7802 8.08165 17.7239 8.02164 17.6796 7.98023C17.6307 7.93461 17.5891 7.88885 17.5441 7.84595C17.4718 7.77676 17.4059 7.69927 17.3323 7.63158C17.3045 7.60607 17.2778 7.57946 17.252 7.55177C17.2302 7.52835 17.2083 7.50497 17.1863 7.48163C17.1552 7.44858 17.1236 7.41599 17.0916 7.38385C16.9062 7.19826 16.721 7.0124 16.5362 6.82628C16.3109 6.59938 16.1682 6.45724 16.1081 6.39986C16.0991 6.39405 16.0909 6.38633 16.0835 6.3767C16.0827 6.36862 16.0805 6.3629 16.0769 6.35954C16.0183 6.30343 15.9611 6.24587 15.9053 6.18685C15.9015 6.18277 15.8971 6.18149 15.8919 6.18304L15.869 6.15839C15.8441 6.12479 15.8162 6.09388 15.7853 6.06564C15.7296 6.01457 15.6774 5.95873 15.6232 5.90058C15.6024 5.87824 15.5798 5.85845 15.5554 5.8412C15.5464 5.83575 15.5386 5.82803 15.532 5.81804C15.5098 5.78517 15.4832 5.75562 15.4521 5.72938C15.4209 5.7031 15.3974 5.67055 15.3663 5.64222C15.3235 5.60327 15.285 5.55832 15.2446 5.51978C15.2105 5.48737 15.178 5.45336 15.1471 5.41777C15.1432 5.41341 15.1385 5.40983 15.1329 5.40701C15.1292 5.4052 15.1258 5.40279 15.1228 5.3998L14.861 5.13858L14.8539 5.13681C14.8527 5.13654 14.8516 5.13667 14.8506 5.13722L14.8473 5.13912C14.8261 5.13885 14.8056 5.14466 14.7859 5.15656C14.7892 5.15919 14.7877 5.16032 14.7815 5.15996C14.7714 5.15597 14.761 5.15964 14.7503 5.17099L14.7011 5.19592C14.6862 5.19088 14.6804 5.1985 14.6694 5.20272C14.6536 5.20863 14.6489 5.21358 14.6551 5.21757L14.6182 5.23568C14.604 5.23405 14.5921 5.24104 14.5825 5.25666C14.4263 5.3539 14.3234 5.43929 14.1794 5.57004C14.1532 5.58474 14.1308 5.60545 14.1123 5.63214L13.995 5.74995L13.8636 5.88941L13.8399 5.921C13.8076 5.94443 13.7824 5.97285 13.764 6.00626L13.4657 6.36254C13.447 6.3718 13.4365 6.38488 13.4343 6.40176L13.0484 6.87353C13.036 6.87417 13.0291 6.88225 13.0277 6.89778L12.93 7.01449C12.9085 7.02702 12.8919 7.04482 12.88 7.06788C12.8784 7.07487 12.8736 7.08086 12.8657 7.08586L12.7883 7.16716C12.7877 7.1678 12.7877 7.16825 12.7884 7.16853C12.7893 7.1688 12.79 7.16925 12.7904 7.16989L12.7729 7.1925L12.6653 7.30731L12.6035 7.37649L12.4339 7.54891L12.3807 7.5959L12.2885 7.68279L12.1324 7.81299C12.1141 7.81453 12.1022 7.82325 12.0968 7.83914C12.0872 7.84894 12.0721 7.8612 12.0516 7.87591C11.9147 7.97388 11.7752 8.05705 11.6333 8.12542C11.6225 8.1197 11.6138 8.12101 11.6073 8.12936C11.6065 8.13038 11.6055 8.1312 11.6043 8.13177C11.6032 8.13234 11.6019 8.13263 11.6007 8.13263C11.5971 8.13254 11.5936 8.13318 11.5902 8.13454C11.5862 8.13608 11.5859 8.13813 11.5894 8.14067L11.5926 8.14312C11.5829 8.14648 11.5765 8.14784 11.5733 8.14721C11.5456 8.15329 11.5189 8.1621 11.4932 8.17363C11.4919 8.17417 11.491 8.17494 11.4905 8.17594C11.4897 8.17749 11.4898 8.17885 11.4908 8.18003L11.4858 8.18112C11.4687 8.17803 11.4584 8.1818 11.4548 8.19242L11.4102 8.20672L11.381 8.20659C11.3783 8.20659 11.3778 8.20772 11.3794 8.20999C11.3802 8.21117 11.3819 8.21208 11.3844 8.21271C11.375 8.21834 11.3659 8.22107 11.3569 8.22089C11.3492 8.21517 11.3398 8.21535 11.3289 8.22143C11.3268 8.22261 11.327 8.22343 11.3293 8.22388C11.3311 8.22415 11.3327 8.22493 11.3341 8.2262C11.327 8.23037 11.3189 8.23305 11.31 8.23423C11.2876 8.22688 11.2753 8.22919 11.2733 8.24118L11.1341 8.26174C11.1197 8.25693 11.1063 8.2582 11.094 8.26556C11.0818 8.27064 11.07 8.27196 11.0586 8.26951L10.8857 8.27005C10.7885 8.26451 10.6933 8.25026 10.6 8.22729C10.6155 8.21902 10.6071 8.21635 10.5747 8.21925C10.5524 8.21744 10.5321 8.21117 10.5137 8.20046C10.4885 8.1912 10.4643 8.18175 10.4409 8.17213C10.4369 8.17049 10.4318 8.17077 10.4281 8.17254C10.4127 8.16972 10.3993 8.165 10.3879 8.15837C10.3704 8.14121 10.3523 8.13372 10.3337 8.1359C10.125 8.04029 9.96907 7.88631 9.86599 7.67394C9.81095 7.56035 9.77791 7.4593 9.76687 7.37077C9.76112 7.32392 9.75506 7.27707 9.74869 7.23022C9.74168 7.17874 9.74397 7.12413 9.73953 7.0702C9.73643 7.03043 9.74303 6.99229 9.7433 6.95225C9.74438 6.82859 9.76404 6.70329 9.78397 6.58208C9.79466 6.57327 9.79695 6.56038 9.79084 6.5434C9.80709 6.44879 9.82738 6.35464 9.85172 6.26094C9.92911 5.96304 10.0264 5.67245 10.1437 5.38917C10.1556 5.38836 10.1598 5.37769 10.1561 5.35717L10.2517 5.13436C10.2692 5.11375 10.2803 5.08937 10.2848 5.06122L10.3017 5.01873C10.3055 5.02654 10.3085 5.02313 10.3108 5.00851C10.3115 5.00407 10.3134 5.0003 10.3165 4.99721C10.3237 4.98995 10.3257 4.97991 10.3227 4.96711L10.3855 4.83705C10.402 4.81962 10.4129 4.79819 10.4183 4.77277C10.4191 4.76886 10.4215 4.76573 10.4255 4.76337C10.4273 4.76227 10.4288 4.76066 10.4297 4.75873C10.4307 4.75679 10.4311 4.75462 10.4308 4.75247C10.4302 4.74721 10.4314 4.74267 10.4343 4.73885C10.4395 4.73223 10.4422 4.72855 10.4427 4.72782C10.4704 4.67407 10.4976 4.62 10.524 4.56562C10.5257 4.56235 10.5264 4.55885 10.5262 4.55513C10.526 4.55123 10.5278 4.54859 10.5316 4.54723C10.5353 4.54596 10.5373 4.54337 10.5378 4.53947C10.5402 4.51441 10.5669 4.49112 10.574 4.45843L10.72 4.18155C10.7389 4.16321 10.7513 4.13992 10.757 4.11169C11.0716 3.53587 11.4263 2.9994 11.864 2.51143C11.8809 2.50507 11.893 2.4924 11.9001 2.47343C11.8995 2.47134 11.9012 2.46825 11.9052 2.46417C12.0127 2.35421 12.1208 2.24472 12.2292 2.13567C12.2505 2.11424 12.2756 2.09127 12.3045 2.06676C12.3305 2.04479 12.3562 2.02231 12.3814 1.99934C12.4465 1.93996 12.5124 1.88303 12.5791 1.82856C12.5801 1.82771 12.5809 1.82662 12.5815 1.82539C12.582 1.82416 12.5822 1.82283 12.5821 1.82151C12.582 1.82018 12.5816 1.81891 12.5809 1.81779C12.5803 1.81667 12.5793 1.81574 12.5782 1.81507L12.4881 1.76087C12.4849 1.74843 12.476 1.74298 12.4613 1.74453C12.4557 1.74362 12.451 1.74071 12.447 1.73581C12.447 1.73472 12.447 1.73359 12.4471 1.73241C12.4471 1.73222 12.447 1.73209 12.4469 1.732L12.3374 1.67698L12.2438 1.6274L12.1239 1.5702L12.0019 1.51872C11.9915 1.50601 11.9759 1.49947 11.9552 1.49911C11.9418 1.49775 11.9379 1.49584 11.9434 1.49339C11.9289 1.48168 11.91 1.47455 11.8867 1.47201C11.8839 1.47555 11.8823 1.47487 11.8822 1.46996C11.8782 1.46188 11.8704 1.45825 11.8589 1.45907C11.8573 1.45925 11.8568 1.45998 11.8572 1.46125C11.8575 1.46179 11.8578 1.46238 11.8582 1.46302L11.7378 1.4208C11.7378 1.41081 11.7275 1.40786 11.7071 1.41194L11.5867 1.37463C11.5764 1.36183 11.5669 1.35901 11.5581 1.36618L11.3807 1.32219C11.3979 1.31511 11.39 1.31311 11.3572 1.3162L11.3267 1.30857C11.3447 1.30058 11.3376 1.29927 11.3056 1.30462L11.2148 1.28692C11.2057 1.27793 11.1917 1.27548 11.1731 1.27957C11.1651 1.28075 11.1566 1.27961 11.1476 1.27616C11.1471 1.2748 11.1467 1.27357 11.1465 1.27248C11.1462 1.2704 11.145 1.26921 11.1429 1.26894C11.1286 1.26676 11.1145 1.26695 11.1005 1.26949L10.8378 1.2398C10.8434 1.23689 10.8496 1.23603 10.8564 1.23721C10.8568 1.23721 10.857 1.23707 10.857 1.2368C10.857 1.23662 10.857 1.23644 10.857 1.23626C10.857 1.23553 10.8566 1.23508 10.8559 1.23489C10.8341 1.2299 10.8127 1.22995 10.7916 1.23503C10.6982 1.23394 10.6027 1.22768 10.5129 1.23067C10.4597 1.23249 10.407 1.23458 10.3549 1.23694ZM15.4924 1.44409L15.2958 1.45525C15.2973 1.45171 15.3014 1.45058 15.308 1.45185C15.3081 1.45185 15.3081 1.4518 15.3081 1.45171C15.3081 1.45144 15.3081 1.45144 15.3081 1.45171C15.3081 1.4518 15.308 1.45185 15.308 1.45185C15.2691 1.44994 15.2607 1.45217 15.2828 1.45852C15.1739 1.4657 15.0664 1.47922 14.9603 1.49911C14.9442 1.49321 14.9288 1.4952 14.9141 1.5051L14.8291 1.52199C14.7952 1.51745 14.7891 1.51886 14.8106 1.52621L14.7776 1.5337C14.7384 1.53216 14.7291 1.53425 14.7496 1.53997L14.4206 1.6319C14.4086 1.62454 14.3994 1.62754 14.3931 1.64088L14.2832 1.68024C14.2634 1.67797 14.2449 1.68456 14.2279 1.69999C14.2252 1.70181 14.2207 1.70317 14.2144 1.70408C14.1753 1.71198 14.139 1.72714 14.1056 1.74957L13.9607 1.81249L13.7486 1.9149C13.7468 1.91581 13.7463 1.91717 13.7472 1.91899C13.7478 1.92008 13.749 1.9208 13.7506 1.92117C13.748 1.92126 13.746 1.92199 13.7448 1.92335C13.7449 1.92171 13.7443 1.92044 13.7432 1.91953C13.7416 1.91835 13.7401 1.91826 13.7385 1.91926L13.6816 1.9544C13.6692 1.96675 13.6556 1.97624 13.6408 1.98286C13.638 1.9815 13.6352 1.98073 13.6325 1.98055C13.6282 1.98018 13.6246 1.98141 13.6214 1.98423L13.6019 2.00179L13.3228 2.1813C13.3129 2.17957 13.3037 2.18574 13.2955 2.19982C13.2908 2.20636 13.2845 2.2108 13.2766 2.21316C13.2498 2.21997 13.2402 2.22724 13.2478 2.23496L12.9068 2.50434C12.8776 2.51896 12.8551 2.5388 12.8393 2.56386C12.8307 2.57448 12.8214 2.5812 12.8114 2.58402L12.6966 2.6946L12.4774 2.91687C12.4779 2.91796 12.4769 2.91841 12.4743 2.91823C12.4725 2.91805 12.4709 2.91869 12.4696 2.92014L12.3578 3.04353C12.3552 3.05088 12.3495 3.05842 12.3406 3.06614L12.283 3.13178C12.2782 3.14213 12.273 3.15058 12.2675 3.15711C12.0508 3.41125 11.8555 3.68091 11.6816 3.9661C11.6708 3.96337 11.6649 3.97191 11.6638 3.9917C11.6631 3.9957 11.66 4.00096 11.6544 4.0075C11.6537 4.0065 11.653 4.00555 11.6524 4.00464C11.6523 4.00456 11.6522 4.00449 11.6522 4.00444C11.6521 4.00439 11.652 4.00437 11.6519 4.00437C11.6517 4.00437 11.6516 4.00439 11.6516 4.00444C11.6515 4.00449 11.6514 4.00456 11.6513 4.00464L11.6225 4.05857L11.5455 4.18632C11.5309 4.19894 11.5218 4.2156 11.5181 4.2363C11.5079 4.26472 11.4923 4.2901 11.4715 4.31243C11.4536 4.33341 11.4412 4.35588 11.4342 4.37985C11.4302 4.39392 11.4236 4.40632 11.4145 4.41703C11.3971 4.43319 11.3904 4.44686 11.3945 4.45802C11.3701 4.49602 11.3525 4.53702 11.3301 4.5761C11.2929 4.64134 11.256 4.71842 11.2117 4.79674C11.1773 4.85748 11.1143 4.9874 11.0226 5.18652C11.0031 5.20268 10.9917 5.22597 10.9883 5.25638L10.9582 5.32148L10.9248 5.39353C10.924 5.40379 10.9195 5.41446 10.9115 5.42554C10.8972 5.44687 10.8866 5.47075 10.8795 5.49717C10.8801 5.50144 10.8785 5.50752 10.8747 5.51542C10.8598 5.52877 10.8532 5.54498 10.8549 5.56404L10.6966 5.97262C10.6774 5.99777 10.6673 6.02555 10.666 6.05597C10.5873 6.289 10.5157 6.53659 10.4818 6.78188C10.4801 6.79368 10.4775 6.80235 10.4738 6.80789C10.4668 6.81806 10.4659 6.83022 10.471 6.84439C10.4738 6.864 10.4723 6.88171 10.4665 6.8975C10.4527 6.98812 10.453 7.07996 10.4675 7.17302C10.4831 7.27816 10.5064 7.39365 10.603 7.45467C10.6329 7.4736 10.6773 7.48517 10.7135 7.49961C10.7221 7.5115 10.7345 7.51523 10.7508 7.51078L10.9059 7.53788C10.9287 7.54524 10.9544 7.54632 10.9832 7.54115C11.3712 7.51813 11.7006 7.25324 11.9689 6.98712C12.002 6.96596 12.0297 6.93827 12.0519 6.90404C12.5335 6.38951 12.9743 5.78944 13.36 5.36997C13.3917 5.34518 13.4183 5.31622 13.4399 5.28308C13.8139 4.87232 14.301 4.46797 14.8636 4.38966C14.8906 4.39601 14.9179 4.3942 14.9456 4.38421C15.0086 4.37776 15.067 4.3853 15.1207 4.40682C15.1276 4.41807 15.1385 4.42434 15.1533 4.42561C15.154 4.4257 15.1542 4.42538 15.1539 4.42466C15.1538 4.42439 15.1538 4.42407 15.1537 4.4237C15.1871 4.44032 15.2133 4.46102 15.2323 4.48581C16.9895 6.2643 18.7478 8.04161 20.5071 9.81774C20.5077 9.81838 20.5136 9.82537 20.5248 9.83872C20.5336 9.84916 20.5431 9.85501 20.5534 9.85628C20.5591 9.86491 20.5691 9.86423 20.5832 9.85424C21.7713 9.01548 22.9623 8.17667 24.1561 7.33781C24.1591 7.33569 24.1612 7.33251 24.1619 7.3289C24.1627 7.32529 24.1621 7.32152 24.1603 7.31834L23.9011 6.87122C23.8971 6.84798 23.8865 6.82941 23.8692 6.81552L23.7123 6.54368C23.714 6.52869 23.7074 6.51712 23.6925 6.50895L23.6039 6.35369C23.6023 6.33462 23.5958 6.32377 23.5845 6.32114L23.5285 6.22444C23.5306 6.20855 23.5255 6.20015 23.5133 6.19924L23.3942 5.99264C23.3966 5.98293 23.3943 5.97471 23.3873 5.96799C23.3862 5.9669 23.3852 5.96708 23.3845 5.96853C23.3841 5.96944 23.3836 5.97049 23.383 5.97167L23.2762 5.78876C23.2748 5.76906 23.2651 5.75203 23.2471 5.73769L23.0711 5.43398C23.0733 5.42445 23.0708 5.41628 23.0638 5.40947C23.063 5.40865 23.0625 5.40883 23.0622 5.41001C23.0619 5.4111 23.0612 5.41219 23.0602 5.41328L23.0124 5.33129C23.0139 5.32267 23.0116 5.31531 23.0055 5.30923C23.0024 5.30614 23 5.30251 22.9985 5.29833C22.9935 5.28462 22.9851 5.27309 22.9732 5.26374L22.9379 5.20245C22.9374 5.18112 22.9328 5.17381 22.9243 5.18053L22.6191 4.65128C22.6143 4.62649 22.6031 4.6062 22.5855 4.5904L22.5374 4.50855C22.5367 4.49348 22.5303 4.48222 22.5184 4.47478C22.505 4.45816 22.4945 4.43955 22.4867 4.41894L22.4237 4.31257L22.0483 3.66321C22.0457 3.63978 22.0414 3.63288 22.0356 3.6425L21.742 3.13342C21.739 3.11099 21.7293 3.09292 21.7129 3.07921C21.7034 3.06923 21.6963 3.05769 21.6913 3.04462C21.6917 3.02846 21.6853 3.01752 21.6721 3.0118L21.6086 2.90135C21.605 2.87937 21.5949 2.86167 21.5782 2.84823L21.5224 2.75249C21.5217 2.72779 21.5173 2.72044 21.5094 2.73042L21.3271 2.41037C21.3209 2.38077 21.3057 2.37483 21.2815 2.39253L20.8277 2.51783C20.8276 2.51474 20.8255 2.51329 20.8215 2.51347C20.8189 2.51356 20.8167 2.51361 20.8149 2.51361C20.8087 2.51342 20.8051 2.51647 20.8043 2.52273C20.7952 2.52772 20.7864 2.52968 20.778 2.52859C20.7423 2.52595 20.7352 2.52759 20.7568 2.53349C20.7422 2.53994 20.7292 2.54266 20.7177 2.54166C20.6808 2.53894 20.674 2.54075 20.6972 2.54711C20.6861 2.55201 20.6749 2.5546 20.6637 2.55487C20.6483 2.5497 20.6364 2.55138 20.6281 2.55991C20.6189 2.56563 20.6037 2.57035 20.5826 2.57407C20.4435 2.59913 20.3042 2.62124 20.165 2.6404C20.1584 2.63441 20.1497 2.63314 20.1389 2.63659C20.1354 2.63759 20.1319 2.63763 20.1283 2.63672C20.125 2.63591 20.1216 2.63591 20.118 2.63672C20.1107 2.63827 20.1108 2.63927 20.1181 2.63972C20.1223 2.64008 20.1258 2.6409 20.1286 2.64217C20.1074 2.64943 20.087 2.65257 20.0673 2.65157C20.0477 2.64612 20.0274 2.64676 20.0065 2.65347C20.0045 2.65411 20.0026 2.65379 20.0009 2.65252C20 2.6517 19.999 2.65107 19.9981 2.65061C19.9972 2.65252 20.0016 2.65434 20.0113 2.65606L19.8883 2.66464L19.8412 2.66383C19.8405 2.66383 19.8398 2.6641 19.8392 2.66464C19.8389 2.66492 19.8387 2.66519 19.8384 2.66546C19.8373 2.66646 19.8375 2.66696 19.8391 2.66696C19.8415 2.66696 19.8435 2.66782 19.8453 2.66955C19.8216 2.67354 19.798 2.67599 19.7744 2.6769C19.6458 2.6818 19.5174 2.6808 19.389 2.6739C19.3792 2.67336 19.3696 2.67182 19.3603 2.66927L19.3653 2.66791C19.3757 2.66482 19.3754 2.66342 19.3646 2.66369L19.3308 2.66423C19.3007 2.66478 19.2786 2.66151 19.2644 2.65443C19.2521 2.64762 19.2382 2.64662 19.2226 2.65143L19.1324 2.63291C19.1269 2.62211 19.1163 2.61979 19.1005 2.62596L19.0427 2.6103C19.0221 2.59932 19.0002 2.59192 18.977 2.5881C18.9755 2.58783 18.9748 2.58847 18.9747 2.59001C18.9747 2.59173 18.9752 2.5926 18.9763 2.5926C18.9689 2.59242 18.9633 2.59055 18.9593 2.58701C18.9609 2.58674 18.9622 2.58638 18.963 2.58592C18.965 2.58492 18.965 2.58393 18.963 2.58293C18.9494 2.57639 18.9368 2.57453 18.9251 2.57734L18.8038 2.53689C18.8052 2.52727 18.7961 2.52441 18.7766 2.52831C18.7736 2.52895 18.7719 2.52827 18.7713 2.52627C18.7683 2.51855 18.7624 2.51433 18.7538 2.51361C18.7493 2.51324 18.7452 2.51174 18.7414 2.50911C18.7344 2.5043 18.7281 2.50298 18.7224 2.50516C18.7196 2.50571 18.7157 2.50471 18.7107 2.50217C18.7107 2.49853 18.7094 2.49617 18.7069 2.49508C18.682 2.48373 18.6558 2.47506 18.6284 2.46907L18.525 2.42753C18.5261 2.42644 18.5268 2.42517 18.5271 2.42372C18.5273 2.42307 18.5273 2.42241 18.5272 2.42176C18.527 2.42111 18.5268 2.4205 18.5264 2.41995C18.5261 2.4194 18.5256 2.41894 18.525 2.41858C18.5245 2.41822 18.5239 2.41798 18.5232 2.41786C18.5164 2.41677 18.51 2.41736 18.504 2.41963L18.4501 2.39294C18.4269 2.37551 18.4009 2.36375 18.372 2.35766L18.2606 2.3085C18.2431 2.2917 18.2219 2.28085 18.1969 2.27595L18.1543 2.25811C18.1342 2.23777 18.1124 2.2276 18.0889 2.2276L17.9045 2.13649C17.866 2.10979 17.8246 2.09005 17.7802 2.07724L17.711 2.04224C17.7009 2.02717 17.6881 2.02086 17.6726 2.02331L17.628 2.0022C17.605 1.98368 17.58 1.97274 17.5529 1.96938L17.4737 1.93016C17.4553 1.91454 17.4325 1.90378 17.4054 1.89788C17.3934 1.89634 17.3784 1.89043 17.3601 1.88017C17.3661 1.87491 17.3635 1.87277 17.3525 1.87377C17.3504 1.87394 17.3483 1.8736 17.3464 1.87277C17.3445 1.87194 17.3428 1.87064 17.3415 1.86901C17.3335 1.85893 17.3248 1.85716 17.3156 1.86369L17.2583 1.834C17.2458 1.8193 17.2292 1.81249 17.2083 1.81358L17.0513 1.7497C17.0498 1.73962 17.0391 1.73504 17.0193 1.73595C17.0123 1.73722 17.006 1.73508 17.0003 1.72955C16.9909 1.71565 16.9797 1.71084 16.9665 1.71511C16.9628 1.71584 16.9591 1.71529 16.9556 1.71347C16.9572 1.70948 16.9564 1.70667 16.9531 1.70503C16.9318 1.69486 16.9068 1.68719 16.8782 1.68201L16.555 1.58041C16.5486 1.5667 16.5402 1.56384 16.5301 1.57183C16.523 1.57256 16.5156 1.57056 16.5079 1.56584C16.5095 1.56548 16.5108 1.56507 16.5116 1.56462C16.5142 1.56335 16.5141 1.56239 16.5114 1.56176C16.5017 1.55949 16.4916 1.55899 16.4812 1.56026L16.2493 1.50633C16.2498 1.49643 16.2394 1.49407 16.2179 1.49924C16.2053 1.49943 16.1946 1.49743 16.1859 1.49325C16.1809 1.48417 16.1666 1.4824 16.1429 1.48794L15.9087 1.45798C15.9164 1.45462 15.9248 1.45366 15.9337 1.45512C15.9342 1.45521 15.9344 1.45498 15.9344 1.45444C15.9344 1.45426 15.9344 1.45403 15.9344 1.45376C15.9344 1.45276 15.9339 1.45217 15.9328 1.45199C15.9015 1.44663 15.871 1.44695 15.8413 1.45294L15.6828 1.44395L15.7483 1.44204C15.7485 1.44206 15.7486 1.44205 15.7488 1.442C15.7489 1.44195 15.7491 1.44187 15.7492 1.44176C15.7493 1.44165 15.7494 1.44152 15.7495 1.44137C15.7495 1.44122 15.7496 1.44106 15.7496 1.44089C15.7496 1.44072 15.7495 1.44054 15.7495 1.44038C15.7494 1.44022 15.7493 1.44006 15.7492 1.43993C15.7491 1.4398 15.7489 1.43969 15.7488 1.43961C15.7486 1.43952 15.7485 1.43947 15.7483 1.43946C15.6619 1.43355 15.5741 1.43346 15.4847 1.43918C15.483 1.43927 15.4809 1.43896 15.4785 1.43823C15.476 1.43741 15.4738 1.43723 15.4718 1.43768C15.4618 1.44023 15.4622 1.44132 15.473 1.44095C15.4798 1.44077 15.4863 1.44182 15.4924 1.44409ZM6.69549 9.54345C6.69172 9.54036 6.68831 9.54082 6.68525 9.54481C6.69639 9.54499 6.70752 9.54499 6.71865 9.54481C6.72189 9.54481 6.72211 9.54399 6.71933 9.54236C6.71789 9.54145 6.71627 9.54095 6.71448 9.54086C6.71322 9.54086 6.71062 9.54173 6.70667 9.54345C6.70451 9.54445 6.70227 9.54495 6.69993 9.54495C6.69823 9.54504 6.69675 9.54454 6.69549 9.54345ZM6.16512 9.77974C6.1635 9.77929 6.16198 9.77915 6.16054 9.77934C6.15928 9.77943 6.15798 9.78015 6.15663 9.78152C5.93154 10.0083 5.70667 10.2353 5.48202 10.4623C5.4435 10.5013 5.41293 10.5373 5.3903 10.5703L5.29683 10.7577C5.28094 10.7785 5.27394 10.8013 5.27583 10.8261C5.18842 11.1793 5.32768 11.5376 5.63919 11.721C5.65517 11.7416 5.67591 11.7528 5.70141 11.7545C5.95542 11.8713 6.25091 11.8484 6.47892 11.6897C6.52121 11.6603 6.58783 11.5997 6.67879 11.508C6.86967 11.3157 7.06034 11.1233 7.25077 10.9307C7.46074 10.7184 7.55421 10.4248 7.4738 10.1319C7.3996 9.862 7.19071 9.65036 6.92175 9.58077C6.89616 9.57414 6.8725 9.56738 6.85077 9.56047C6.84117 9.55121 6.82788 9.54999 6.81091 9.5568C6.55915 9.53065 6.34388 9.60496 6.16512 9.77974ZM9.27798 10.1802L9.22343 10.186C9.20781 10.1803 9.19353 10.1827 9.18061 10.1932L9.01522 10.2477C8.99214 10.2495 8.9727 10.2594 8.9569 10.2773C8.8132 10.369 8.71677 10.4798 8.60444 10.592C8.59385 10.5919 8.5868 10.5957 8.5833 10.6034C8.58208 10.6061 8.58003 10.6082 8.57751 10.6094C8.56988 10.6131 8.56561 10.6204 8.56471 10.6314L8.48242 10.7136C8.46536 10.7196 8.45226 10.733 8.4431 10.7539L8.37455 10.8224C8.35776 10.8285 8.34469 10.842 8.33535 10.8627L8.2668 10.9314C8.25001 10.9375 8.23695 10.9509 8.22761 10.9717L8.15919 11.0406C8.1442 11.0429 8.13567 11.0517 8.1336 11.067L8.04512 11.1561C8.03273 11.157 8.02164 11.1683 8.01185 11.19L7.9367 11.2663C7.93356 11.263 7.92979 11.2629 7.92539 11.266C7.92132 11.2688 7.91696 11.2733 7.91273 11.2792C7.90689 11.2874 7.90433 11.2938 7.90505 11.2986L7.82276 11.3812C7.80669 11.3837 7.79825 11.3926 7.79744 11.4079L7.4998 11.7086C7.48337 11.7124 7.47003 11.7255 7.4598 11.7481L7.39138 11.8166C7.3745 11.8228 7.36139 11.8363 7.35205 11.857L7.27717 11.9323C7.26514 11.9334 7.2541 11.9447 7.24404 11.9659L7.21589 11.9989C7.19973 12.0108 7.18626 12.0249 7.17549 12.0409C7.17477 12.042 7.1745 12.043 7.17468 12.0439C7.17486 12.0457 7.17571 12.0465 7.17724 12.0465L7.16983 12.0578C7.15026 12.0687 7.14209 12.0814 7.14532 12.096C7.07466 12.2048 7.03434 12.324 7.02438 12.4536C7.01926 12.4507 7.01742 12.4447 7.01886 12.4356C7.01886 12.4355 7.0189 12.4355 7.01899 12.4355C7.02025 12.4355 7.01998 12.4355 7.01818 12.4355C7.01773 12.4355 7.01746 12.4357 7.01737 12.436C7.01531 12.4912 7.01535 12.5462 7.01751 12.6011C7.01751 12.6026 7.01823 12.6033 7.01966 12.6033H7.0198C7.02123 12.6032 7.02195 12.6025 7.02195 12.6011L7.02141 12.5571C7.03744 12.9517 7.34007 13.2915 7.74155 13.3143C7.73329 13.3129 7.72691 13.3133 7.72242 13.3156C7.7182 13.3178 7.71847 13.3192 7.72323 13.3198C7.77253 13.326 7.82738 13.3248 7.88781 13.3163C7.8985 13.3135 7.91295 13.311 7.93118 13.3086C8.0365 13.2949 8.14572 13.248 8.233 13.1905C8.27843 13.1605 8.3455 13.1005 8.43421 13.0106C8.92382 12.5144 9.41401 12.0189 9.90478 11.524C10.0027 11.4253 10.0701 11.3009 10.1069 11.1509C10.1142 11.1212 10.1161 11.0894 10.1208 11.0576L10.1228 11.0767C10.1229 11.077 10.1229 11.0771 10.1228 11.077C10.1227 11.077 10.1226 11.077 10.1224 11.077C10.1222 11.077 10.1222 11.0768 10.1222 11.0766C10.1345 11.0042 10.1335 10.9323 10.1189 10.8607C10.109 10.7975 10.0929 10.7366 10.0707 10.6781C10.0647 10.6367 10.0466 10.599 10.0163 10.565C9.90586 10.3807 9.74554 10.2596 9.53535 10.2015C9.55349 10.1955 9.54577 10.1936 9.51219 10.1958C9.50465 10.1975 9.50043 10.1966 9.49953 10.1931C9.4857 10.183 9.47156 10.1806 9.4571 10.186C9.44615 10.187 9.43578 10.1855 9.42599 10.1814C9.37652 10.169 9.32718 10.1686 9.27798 10.1802ZM11.1623 11.5629L11.0857 11.5711C11.0733 11.5655 11.0608 11.5672 11.0484 11.576L10.9529 11.6049C10.9305 11.6048 10.9121 11.612 10.8978 11.6266L10.7774 11.6946C10.7415 11.7146 10.7134 11.7348 10.6932 11.7552C10.181 12.2726 9.66905 12.7901 9.15744 13.3079C9.11093 13.355 9.07879 13.3927 9.06101 13.4211C9.02222 13.4737 8.99053 13.5291 8.96593 13.5873C8.90653 13.728 8.88013 13.8793 8.9068 14.0314C8.94873 14.2716 9.07322 14.4575 9.28027 14.5891C9.30433 14.6119 9.33248 14.6262 9.36471 14.632C9.64296 14.7535 9.93966 14.7096 10.1793 14.5233C10.1942 14.5162 10.2083 14.5058 10.2215 14.4924C10.7419 13.9668 11.2622 13.4411 11.7825 12.9153C11.8026 12.8949 11.8196 12.8731 11.8334 12.8499L11.925 12.7004C11.9386 12.6939 11.9434 12.6841 11.9394 12.6708C11.9764 12.5871 11.9979 12.4991 12.004 12.4068C12.0133 12.3717 12.0127 12.3354 12.0024 12.2977C12.0003 12.2377 11.9897 12.1787 11.9708 12.1205C11.8887 11.8677 11.7248 11.6951 11.4789 11.6025C11.47 11.5908 11.4608 11.5875 11.4513 11.5925L11.3907 11.5752C11.3813 11.5693 11.3711 11.5662 11.3603 11.566C11.3573 11.566 11.3585 11.5677 11.3638 11.5714L11.2754 11.5633L11.3119 11.5606C11.3133 11.5605 11.314 11.5598 11.3141 11.5586C11.3142 11.5566 11.3138 11.5556 11.3131 11.5556L11.1255 11.5572C11.1248 11.5572 11.1244 11.5568 11.1243 11.5561C11.124 11.5519 11.1237 11.5533 11.1236 11.5603C11.1236 11.5608 11.1239 11.561 11.1244 11.561C11.1374 11.5596 11.15 11.5602 11.1623 11.5629ZM12.3116 13.3985L10.6651 15.0599C10.6606 15.063 10.658 15.0662 10.6572 15.0695C10.6566 15.0721 10.658 15.0754 10.6614 15.0793C10.8158 15.2513 10.9925 15.394 11.1918 15.5073C11.2055 15.5276 11.2156 15.5337 11.222 15.5258C11.6535 15.7575 12.1387 15.8208 12.6194 15.7491C12.6378 15.7463 12.6553 15.7428 12.6719 15.7386C12.6727 15.7383 12.6735 15.7379 12.6741 15.7373C12.6747 15.7367 12.6751 15.7359 12.6753 15.7351C12.6755 15.7342 12.6754 15.7333 12.6752 15.7325C12.6749 15.7317 12.6744 15.731 12.6738 15.7304C12.4838 15.5568 12.3448 15.3194 12.3363 15.0553C12.3409 15.0419 12.3406 15.0282 12.3354 15.0144C12.3352 14.7369 12.4787 14.4822 12.6202 14.2471C12.6492 14.2058 12.6699 14.1622 12.6823 14.1164C12.7367 13.9798 12.7418 13.8729 12.6753 13.7413C12.6692 13.7116 12.6549 13.6872 12.6323 13.6679C12.5565 13.5648 12.467 13.4739 12.3636 13.3951C12.3597 13.3832 12.353 13.3767 12.3436 13.3755C12.3377 13.3749 12.3318 13.3774 12.3258 13.3833C12.3209 13.3882 12.3161 13.3932 12.3116 13.3985Z" fill="#374957"/>
<path d="M15.308 1.45185C15.3014 1.45058 15.2973 1.45171 15.2958 1.45525L15.4924 1.44409C15.4863 1.44182 15.4798 1.44077 15.473 1.44095C15.4622 1.44132 15.4618 1.44023 15.4718 1.43768C15.4738 1.43723 15.476 1.43741 15.4785 1.43823C15.4809 1.43896 15.483 1.43927 15.4847 1.43918C15.5741 1.43346 15.6619 1.43355 15.7483 1.43946C15.7485 1.43947 15.7486 1.43952 15.7488 1.43961C15.7489 1.43969 15.7491 1.4398 15.7492 1.43993C15.7493 1.44006 15.7494 1.44022 15.7495 1.44038C15.7495 1.44054 15.7496 1.44072 15.7496 1.44089C15.7496 1.44106 15.7495 1.44122 15.7495 1.44137C15.7494 1.44152 15.7493 1.44165 15.7492 1.44176C15.7491 1.44187 15.7489 1.44195 15.7488 1.442C15.7486 1.44205 15.7485 1.44206 15.7483 1.44204L15.6828 1.44395L15.8413 1.45294C15.871 1.44695 15.9015 1.44663 15.9328 1.45199C15.9339 1.45217 15.9344 1.45276 15.9344 1.45376C15.9344 1.45403 15.9344 1.45426 15.9344 1.45444C15.9344 1.45498 15.9342 1.45521 15.9337 1.45512C15.9248 1.45366 15.9164 1.45462 15.9087 1.45798L16.1429 1.48794C16.1666 1.4824 16.1809 1.48417 16.1859 1.49325C16.1946 1.49743 16.2053 1.49943 16.2179 1.49924C16.2394 1.49407 16.2498 1.49643 16.2493 1.50633L16.4812 1.56026C16.4916 1.55899 16.5017 1.55949 16.5114 1.56176C16.5141 1.56239 16.5142 1.56335 16.5116 1.56462C16.5108 1.56507 16.5095 1.56548 16.5079 1.56584C16.5156 1.57056 16.523 1.57256 16.5301 1.57183C16.5402 1.56384 16.5486 1.5667 16.555 1.58041L16.8782 1.68201C16.9068 1.68719 16.9318 1.69486 16.9531 1.70503C16.9564 1.70667 16.9572 1.70948 16.9556 1.71347C16.9591 1.71529 16.9628 1.71584 16.9665 1.71511C16.9797 1.71084 16.9909 1.71565 17.0003 1.72955C17.006 1.73508 17.0123 1.73722 17.0193 1.73595C17.0391 1.73504 17.0498 1.73962 17.0513 1.7497L17.2083 1.81358C17.2292 1.81249 17.2458 1.8193 17.2583 1.834L17.3156 1.86369C17.3248 1.85716 17.3335 1.85893 17.3415 1.86901C17.3428 1.87064 17.3445 1.87194 17.3464 1.87277C17.3483 1.8736 17.3504 1.87394 17.3525 1.87377C17.3635 1.87277 17.3661 1.87491 17.3601 1.88017C17.3784 1.89043 17.3934 1.89634 17.4054 1.89788C17.4325 1.90378 17.4553 1.91454 17.4737 1.93016L17.5529 1.96938C17.58 1.97274 17.605 1.98368 17.628 2.0022L17.6726 2.02331C17.6881 2.02086 17.7009 2.02717 17.711 2.04224L17.7802 2.07724C17.8246 2.09005 17.866 2.10979 17.9045 2.13649L18.0889 2.2276C18.1124 2.2276 18.1342 2.23777 18.1543 2.25811L18.1969 2.27595C18.2219 2.28085 18.2431 2.2917 18.2606 2.3085L18.372 2.35766C18.4009 2.36375 18.4269 2.37551 18.4501 2.39294L18.504 2.41963C18.51 2.41736 18.5164 2.41677 18.5232 2.41786C18.5239 2.41798 18.5245 2.41822 18.525 2.41858C18.5256 2.41894 18.5261 2.4194 18.5264 2.41995C18.5268 2.4205 18.527 2.42111 18.5272 2.42176C18.5273 2.42241 18.5273 2.42307 18.5271 2.42372C18.5268 2.42517 18.5261 2.42644 18.525 2.42753L18.6284 2.46907C18.6558 2.47506 18.682 2.48373 18.7069 2.49508C18.7094 2.49617 18.7107 2.49853 18.7107 2.50217C18.7157 2.50471 18.7196 2.50571 18.7224 2.50516C18.7281 2.50298 18.7344 2.5043 18.7414 2.50911C18.7452 2.51174 18.7493 2.51324 18.7538 2.51361C18.7624 2.51433 18.7683 2.51855 18.7713 2.52627C18.7719 2.52827 18.7736 2.52895 18.7766 2.52831C18.7961 2.52441 18.8052 2.52727 18.8038 2.53689L18.9251 2.57734C18.9368 2.57453 18.9494 2.57639 18.963 2.58293C18.965 2.58393 18.965 2.58492 18.963 2.58592C18.9622 2.58638 18.9609 2.58674 18.9593 2.58701C18.9633 2.59055 18.9689 2.59242 18.9763 2.5926C18.9752 2.5926 18.9747 2.59173 18.9747 2.59001C18.9748 2.58847 18.9755 2.58783 18.977 2.5881C19.0002 2.59192 19.0221 2.59932 19.0427 2.6103L19.1005 2.62596C19.1163 2.61979 19.1269 2.62211 19.1324 2.63291L19.2226 2.65143C19.2382 2.64662 19.2521 2.64762 19.2644 2.65443C19.2786 2.66151 19.3007 2.66478 19.3308 2.66423L19.3646 2.66369C19.3754 2.66342 19.3757 2.66482 19.3653 2.66791L19.3603 2.66927C19.3696 2.67182 19.3792 2.67336 19.389 2.6739C19.5174 2.6808 19.6458 2.6818 19.7744 2.6769C19.798 2.67599 19.8216 2.67354 19.8453 2.66955C19.8435 2.66782 19.8415 2.66696 19.8391 2.66696C19.8375 2.66696 19.8373 2.66646 19.8384 2.66546C19.8387 2.66519 19.8389 2.66492 19.8392 2.66464C19.8398 2.6641 19.8405 2.66383 19.8412 2.66383L19.8883 2.66464L20.0113 2.65606C20.0016 2.65434 19.9972 2.65252 19.9981 2.65061C19.999 2.65107 20 2.6517 20.0009 2.65252C20.0026 2.65379 20.0045 2.65411 20.0065 2.65347C20.0274 2.64676 20.0477 2.64612 20.0673 2.65157C20.087 2.65257 20.1074 2.64943 20.1286 2.64217C20.1258 2.6409 20.1223 2.64008 20.1181 2.63972C20.1108 2.63927 20.1107 2.63827 20.118 2.63672C20.1216 2.63591 20.125 2.63591 20.1284 2.63672C20.1319 2.63763 20.1354 2.63759 20.1389 2.63659C20.1497 2.63314 20.1584 2.63441 20.165 2.6404C20.3042 2.62124 20.4435 2.59913 20.5826 2.57407C20.6037 2.57035 20.6189 2.56563 20.6281 2.55991C20.6364 2.55138 20.6483 2.5497 20.6637 2.55487C20.6749 2.5546 20.6861 2.55201 20.6972 2.54711C20.674 2.54075 20.6808 2.53894 20.7177 2.54166C20.7292 2.54266 20.7422 2.53994 20.7568 2.53349C20.7352 2.52759 20.7423 2.52595 20.778 2.52859C20.7864 2.52968 20.7952 2.52772 20.8043 2.52273C20.8051 2.51647 20.8087 2.51342 20.8149 2.51361C20.8167 2.51361 20.8189 2.51356 20.8215 2.51347C20.8255 2.51329 20.8276 2.51474 20.8277 2.51783L21.2815 2.39253C21.3057 2.37483 21.3209 2.38077 21.3271 2.41037L21.5094 2.73042C21.5174 2.72044 21.5217 2.72779 21.5224 2.75249L21.5782 2.84823C21.5949 2.86167 21.605 2.87937 21.6086 2.90135L21.6721 3.0118C21.6853 3.01752 21.6917 3.02846 21.6913 3.04462C21.6963 3.05769 21.7034 3.06923 21.7129 3.07921C21.7293 3.09292 21.739 3.11099 21.742 3.13342L22.0356 3.6425C22.0414 3.63288 22.0457 3.63978 22.0483 3.66321L22.4237 4.31257L22.4867 4.41894C22.4945 4.43955 22.505 4.45816 22.5184 4.47478C22.5303 4.48222 22.5367 4.49348 22.5374 4.50855L22.5855 4.5904C22.6031 4.6062 22.6143 4.62649 22.6191 4.65128L22.9243 5.18053C22.9328 5.17381 22.9374 5.18112 22.9379 5.20245L22.9732 5.26374C22.9851 5.27309 22.9935 5.28462 22.9985 5.29833C23 5.30251 23.0024 5.30614 23.0055 5.30923C23.0116 5.31531 23.0139 5.32266 23.0124 5.33129L23.0602 5.41328C23.0612 5.41219 23.0619 5.4111 23.0622 5.41001C23.0625 5.40883 23.063 5.40865 23.0638 5.40947C23.0708 5.41627 23.0733 5.42445 23.0711 5.43398L23.2471 5.73769C23.2651 5.75203 23.2748 5.76906 23.2762 5.78876L23.383 5.97167C23.3836 5.97049 23.3841 5.96944 23.3845 5.96854C23.3852 5.96708 23.3862 5.9669 23.3873 5.96799C23.3943 5.97471 23.3966 5.98293 23.3942 5.99264L23.5133 6.19925C23.5255 6.20015 23.5305 6.20855 23.5285 6.22444L23.5845 6.32114C23.5958 6.32377 23.6023 6.33462 23.6039 6.35369L23.6925 6.50895C23.7074 6.51712 23.714 6.52869 23.7123 6.54368L23.8692 6.81552C23.8865 6.82941 23.8971 6.84798 23.9011 6.87122L24.1603 7.31834C24.1621 7.32152 24.1627 7.32529 24.1619 7.3289C24.1612 7.33251 24.1591 7.33569 24.1561 7.33781C22.9623 8.17667 21.7713 9.01548 20.5832 9.85424C20.5691 9.86423 20.5591 9.86491 20.5534 9.85628C20.5431 9.85501 20.5336 9.84916 20.5248 9.83872C20.5136 9.82537 20.5077 9.81838 20.5071 9.81774C18.7478 8.04161 16.9895 6.2643 15.2323 4.48581C15.2133 4.46102 15.1871 4.44032 15.1537 4.4237C15.1538 4.42407 15.1538 4.42439 15.1539 4.42466C15.1542 4.42538 15.154 4.4257 15.1533 4.42561C15.1385 4.42434 15.1276 4.41807 15.1207 4.40682C15.067 4.3853 15.0086 4.37776 14.9456 4.38421C14.9179 4.3942 14.8906 4.39601 14.8636 4.38966C14.301 4.46797 13.8139 4.87232 13.4399 5.28308C13.4183 5.31622 13.3917 5.34518 13.36 5.36997C12.9743 5.78944 12.5335 6.38951 12.0519 6.90404C12.0297 6.93827 12.002 6.96596 11.9689 6.98712C11.7006 7.25324 11.3712 7.51813 10.9832 7.54115C10.9544 7.54632 10.9287 7.54524 10.9059 7.53788L10.7508 7.51078C10.7345 7.51523 10.7221 7.5115 10.7135 7.49961C10.6773 7.48517 10.6329 7.4736 10.603 7.45467C10.5064 7.39365 10.4831 7.27816 10.4675 7.17302C10.453 7.07996 10.4527 6.98812 10.4665 6.8975C10.4723 6.88171 10.4738 6.864 10.471 6.84439C10.4659 6.83022 10.4668 6.81806 10.4738 6.80789C10.4775 6.80235 10.4801 6.79368 10.4818 6.78188C10.5157 6.53659 10.5873 6.289 10.666 6.05597C10.6673 6.02555 10.6774 5.99777 10.6966 5.97262L10.8549 5.56404C10.8532 5.54498 10.8598 5.52877 10.8747 5.51542C10.8785 5.50752 10.8801 5.50144 10.8795 5.49717C10.8866 5.47075 10.8972 5.44687 10.9115 5.42554C10.9195 5.41446 10.924 5.40379 10.9248 5.39353L10.9582 5.32148L10.9883 5.25638C10.9917 5.22597 11.0031 5.20268 11.0226 5.18652C11.1143 4.9874 11.1773 4.85748 11.2117 4.79674C11.256 4.71842 11.2929 4.64134 11.3301 4.5761C11.3525 4.53702 11.3701 4.49602 11.3945 4.45802C11.3904 4.44686 11.3971 4.43319 11.4145 4.41703C11.4236 4.40632 11.4302 4.39392 11.4342 4.37985C11.4412 4.35588 11.4536 4.33341 11.4715 4.31243C11.4923 4.2901 11.5079 4.26472 11.5181 4.2363C11.5218 4.2156 11.5309 4.19894 11.5455 4.18632L11.6225 4.05857L11.6513 4.00464C11.6514 4.00456 11.6515 4.00449 11.6516 4.00444C11.6516 4.00439 11.6517 4.00437 11.6519 4.00437C11.652 4.00437 11.6521 4.00439 11.6522 4.00444C11.6522 4.00449 11.6523 4.00456 11.6524 4.00464C11.653 4.00555 11.6537 4.0065 11.6544 4.0075C11.66 4.00096 11.6631 3.9957 11.6638 3.9917C11.6649 3.97191 11.6708 3.96337 11.6816 3.9661C11.8555 3.68091 12.0508 3.41125 12.2675 3.15711C12.273 3.15058 12.2782 3.14213 12.283 3.13178L12.3406 3.06614C12.3495 3.05842 12.3552 3.05088 12.3578 3.04353L12.4696 2.92014C12.4709 2.91869 12.4725 2.91805 12.4743 2.91823C12.4769 2.91841 12.4779 2.91796 12.4774 2.91687L12.6966 2.6946L12.8114 2.58402C12.8214 2.5812 12.8307 2.57448 12.8393 2.56386C12.8551 2.5388 12.8776 2.51896 12.9068 2.50434L13.2478 2.23496C13.2402 2.22724 13.2498 2.21997 13.2766 2.21316C13.2845 2.2108 13.2908 2.20636 13.2955 2.19982C13.3037 2.18574 13.3129 2.17957 13.3228 2.1813L13.6019 2.00179L13.6214 1.98423C13.6246 1.98141 13.6282 1.98018 13.6325 1.98055C13.6352 1.98073 13.638 1.9815 13.6408 1.98286C13.6556 1.97624 13.6692 1.96675 13.6816 1.9544L13.7385 1.91926C13.7401 1.91826 13.7416 1.91835 13.7432 1.91953C13.7443 1.92044 13.7449 1.92171 13.7448 1.92335C13.746 1.92199 13.748 1.92126 13.7506 1.92117C13.749 1.9208 13.7478 1.92008 13.7472 1.91899C13.7463 1.91717 13.7468 1.91581 13.7486 1.9149L13.9607 1.81249L14.1056 1.74957C14.139 1.72714 14.1753 1.71198 14.2144 1.70408C14.2207 1.70317 14.2252 1.70181 14.2279 1.69999C14.2449 1.68456 14.2634 1.67797 14.2832 1.68024L14.3931 1.64088C14.3994 1.62754 14.4086 1.62454 14.4206 1.6319L14.7496 1.53997C14.7291 1.53425 14.7384 1.53216 14.7776 1.5337L14.8106 1.52621C14.7891 1.51886 14.7952 1.51745 14.8291 1.52199L14.9141 1.5051C14.9288 1.4952 14.9442 1.49321 14.9603 1.49911C15.0664 1.47922 15.1739 1.4657 15.2828 1.45852C15.2607 1.45217 15.2691 1.44994 15.308 1.45185ZM15.308 1.45185C15.3081 1.45185 15.3081 1.4518 15.3081 1.45171M15.308 1.45185C15.308 1.45185 15.3081 1.4518 15.3081 1.45171M15.3081 1.45171C15.3081 1.45144 15.3081 1.45144 15.3081 1.45171ZM10.4855 0.5H10.705C11.627 0.543218 12.464 0.832491 13.2162 1.36782C13.226 1.37481 13.237 1.37472 13.249 1.36755C14.2972 0.744465 15.5838 0.535819 16.7628 0.881747C17.4136 1.07283 18.0051 1.38266 18.6145 1.67371C18.8379 1.78039 19.0348 1.85698 19.2051 1.90346C19.3299 1.9376 19.4434 1.95463 19.5455 1.95454C20.1271 1.95426 20.7504 1.81753 21.3055 1.61623C21.368 1.59353 21.4175 1.58128 21.4539 1.57946C21.5519 1.57438 21.6362 1.60329 21.7067 1.66622C21.7385 1.69463 21.7773 1.74866 21.8233 1.82828C22.8708 3.64201 23.9182 5.45577 24.9658 7.26958C24.9784 7.29137 24.9898 7.32315 25 7.36492V7.51377C24.9758 7.60929 24.9272 7.68274 24.8541 7.73413C23.6008 8.61539 22.3448 9.4986 21.0862 10.3838C21.0847 10.3848 21.0835 10.3862 21.0826 10.3878C21.0817 10.3894 21.0811 10.3911 21.081 10.393C21.0808 10.3948 21.0811 10.3966 21.0817 10.3983C21.0823 10.4 21.0833 10.4016 21.0846 10.4028C21.26 10.5791 21.4356 10.7567 21.6113 10.9353C21.6966 11.022 21.7574 11.0887 21.7935 11.1354C22.3313 11.8284 22.1679 12.8457 21.4443 13.336C21.0656 13.5926 20.6124 13.6541 20.1683 13.5298C20.165 13.5289 20.1632 13.5302 20.163 13.5336C20.1042 14.1451 19.684 14.674 19.0939 14.846C18.6946 14.9625 18.3064 14.9192 17.9292 14.7162C17.9253 14.714 17.9229 14.7151 17.922 14.7196C17.7358 15.6609 16.7616 16.1862 15.8816 15.8366C15.8786 15.8354 15.8753 15.8351 15.8722 15.8356C15.869 15.8362 15.866 15.8376 15.8636 15.8398C15.2384 16.3912 14.315 16.5067 13.5453 16.2595C13.5372 16.2569 13.5284 16.2572 13.5204 16.2603C12.9418 16.4883 12.296 16.5614 11.6828 16.446C11.0044 16.3182 10.4163 15.9487 9.98734 15.4059C9.98551 15.4035 9.98307 15.4017 9.98029 15.4007C9.97751 15.3997 9.9745 15.3994 9.97158 15.4C9.07569 15.57 8.24714 14.9286 8.18249 14.0078C8.18239 14.0065 8.18201 14.0053 8.18138 14.0041C8.18075 14.003 8.17987 14.002 8.17882 14.0012C8.17777 14.0005 8.17656 13.9999 8.17529 13.9997C8.17402 13.9994 8.1727 13.9995 8.17145 13.9998C7.22613 14.2379 6.31178 13.5303 6.29926 12.5431C6.29923 12.5419 6.29895 12.5407 6.29843 12.5395C6.29791 12.5384 6.29717 12.5375 6.29625 12.5367C6.29533 12.5359 6.29426 12.5353 6.2931 12.535C6.29195 12.5347 6.29074 12.5346 6.28956 12.5348C5.62397 12.6455 4.97239 12.3135 4.67582 11.695C4.39367 11.1069 4.52296 10.4203 4.96916 9.95707C4.97029 9.95589 4.97117 9.95449 4.97174 9.95296C4.97231 9.95142 4.97256 9.94978 4.97248 9.94814C4.97239 9.9465 4.97196 9.9449 4.97123 9.94344C4.9705 9.94197 4.96947 9.94068 4.96822 9.93963C3.70644 8.88205 2.44413 7.8242 1.18128 6.76608C1.0734 6.67551 1.01562 6.60809 1 6.47476V6.40966C1.00835 6.34411 1.03116 6.28455 1.06842 6.23098C2.26402 4.51205 3.45953 2.79298 4.65495 1.07378C4.74896 0.93854 4.85737 0.854917 5.02909 0.877798C5.06501 0.88261 5.11358 0.899135 5.17481 0.927372C5.64606 1.14501 6.15623 1.30857 6.66936 1.38593C6.89172 1.41957 7.07448 1.43128 7.2963 1.38185C7.45235 1.34707 7.61531 1.29854 7.78518 1.23626C8.3464 1.03074 8.89428 0.797172 9.47461 0.648586C9.80664 0.563511 10.1436 0.513982 10.4855 0.5ZM10.3549 1.23694C10.3278 1.22949 10.3151 1.23081 10.3168 1.24089C10.1892 1.24933 10.0602 1.26654 9.92983 1.2925C9.9231 1.28606 9.91529 1.2851 9.9064 1.28964C9.90442 1.29073 9.90442 1.29182 9.9064 1.29291C9.90765 1.29355 9.90869 1.29432 9.9095 1.29523L9.87515 1.30272C9.86168 1.29981 9.84961 1.29995 9.83892 1.30313C9.83686 1.30376 9.83708 1.30462 9.8396 1.30571C9.84049 1.30608 9.84139 1.30671 9.84229 1.30762C9.8308 1.31361 9.8193 1.31643 9.80781 1.31607C9.79623 1.31289 9.78519 1.31302 9.77468 1.31647C9.77154 1.31747 9.77163 1.31824 9.77495 1.31879C9.77782 1.31924 9.7802 1.32001 9.78209 1.3211C9.76979 1.32791 9.75838 1.3305 9.74788 1.32887C9.71538 1.32596 9.70747 1.32832 9.72418 1.33595L9.47852 1.39969C9.46299 1.39415 9.45167 1.39746 9.44458 1.40963C9.24426 1.46992 9.1138 1.5125 9.0532 1.53738C9.01701 1.55236 8.98923 1.56276 8.96983 1.56857C8.95838 1.57197 8.953 1.58123 8.93791 1.57933C8.93351 1.57871 8.92903 1.57983 8.92539 1.58246C8.91345 1.59081 8.9002 1.59481 8.88566 1.59444C8.86545 1.59535 8.84898 1.60225 8.83623 1.61514C8.82366 1.62395 8.8088 1.62963 8.79165 1.63217C8.78581 1.6289 8.77966 1.63003 8.7732 1.63557C8.76988 1.63848 8.76602 1.64002 8.76162 1.6402C8.74788 1.64057 8.74191 1.64429 8.7437 1.65137L8.527 1.73527C8.50976 1.73182 8.49625 1.73663 8.48646 1.7497C8.49006 1.75052 8.48844 1.75129 8.48162 1.75202C8.47246 1.74784 8.46442 1.74839 8.45751 1.75365C8.45643 1.75447 8.45594 1.75551 8.45603 1.75678C8.45612 1.75815 8.45666 1.75933 8.45764 1.76032C8.45252 1.76405 8.44696 1.76618 8.44094 1.76673C8.43322 1.76255 8.42595 1.76364 8.41912 1.76999C8.41589 1.77299 8.41212 1.77463 8.40781 1.7749C8.39919 1.77544 8.39493 1.77862 8.39502 1.78443L8.34007 1.80581C8.33971 1.80418 8.33912 1.80282 8.33832 1.80173C8.33625 1.79891 8.33369 1.79841 8.33064 1.80023L8.29764 1.82039L8.24687 1.84027C8.22397 1.84036 8.20786 1.84653 8.19852 1.85879L8.05778 1.91055C8.04314 1.90528 8.03407 1.90837 8.03057 1.91981C8.02887 1.92235 8.02559 1.92353 8.02074 1.92335C8.00602 1.91863 7.9969 1.92203 7.9934 1.93356L7.72108 2.02222C7.71129 2.01741 7.70114 2.0185 7.69064 2.02549C7.68947 2.02622 7.68956 2.02681 7.69091 2.02726C7.69226 2.02763 7.69324 2.02853 7.69387 2.02999L7.54694 2.06853C7.53401 2.06172 7.52189 2.06435 7.51057 2.07643C7.50653 2.08069 7.50155 2.08188 7.49562 2.07997C7.46168 2.07616 7.45553 2.0777 7.47717 2.0846L7.43434 2.09318C7.42312 2.09027 7.41311 2.09005 7.40431 2.0925C7.40045 2.09368 7.40049 2.09454 7.40444 2.09509C7.40696 2.09545 7.40907 2.09618 7.41077 2.09726C7.39695 2.10335 7.38334 2.10616 7.36997 2.10571C7.36009 2.10153 7.34824 2.10167 7.33441 2.10612C7.33127 2.10712 7.33118 2.10839 7.33414 2.10993C7.33504 2.11038 7.33621 2.11079 7.33764 2.11116C7.32373 2.11642 7.31039 2.11874 7.29764 2.1181C7.28058 2.11356 7.26438 2.1157 7.24902 2.1245L7.16795 2.13336C7.14873 2.13 7.1358 2.13145 7.12916 2.13771C7.11318 2.14198 7.10043 2.14402 7.09091 2.14384C7.01127 2.14175 6.93158 2.13998 6.85185 2.13853C6.84664 2.13844 6.84224 2.13771 6.83865 2.13635C6.82824 2.1309 6.81486 2.12991 6.79852 2.13336L6.6101 2.11088C6.59933 2.10044 6.5846 2.09904 6.56593 2.10666L6.51448 2.09781C6.51591 2.09745 6.51704 2.09704 6.51785 2.09658C6.5209 2.09513 6.5209 2.09368 6.51785 2.09223C6.50465 2.08623 6.4936 2.08696 6.48471 2.0944L6.15663 2.03026C6.15313 2.02272 6.14366 2.01832 6.12822 2.01705C6.12651 2.01696 6.12539 2.01732 6.12485 2.01814C6.12422 2.01905 6.12386 2.02032 6.12377 2.02195C6.11488 2.0215 6.10703 2.01932 6.1002 2.01541C6.10155 2.01451 6.1024 2.01373 6.10276 2.0131C6.10321 2.01237 6.10272 2.01169 6.10128 2.01106C6.08988 2.00579 6.0809 2.00552 6.07434 2.01024L5.91003 1.96802C5.90384 1.95594 5.89185 1.95272 5.87407 1.95835C5.8774 1.96016 5.87573 1.95998 5.86909 1.9578C5.86792 1.95199 5.8633 1.94809 5.85522 1.94609C5.83376 1.94073 5.81235 1.93506 5.79098 1.92907C5.79008 1.92879 5.78958 1.92911 5.78949 1.93002C5.7894 1.93102 5.789 1.93211 5.78828 1.93329C5.78469 1.93356 5.7811 1.93284 5.77751 1.93111C5.77903 1.93102 5.78011 1.93047 5.78074 1.92948C5.78173 1.92793 5.7815 1.92662 5.78007 1.92553C5.7727 1.91999 5.76413 1.91899 5.75434 1.92253C5.7503 1.9238 5.74604 1.92262 5.74155 1.91899C5.73167 1.90691 5.72238 1.90414 5.71367 1.91068C5.54622 1.85902 5.38137 1.80136 5.21912 1.73772C5.22119 1.72846 5.21051 1.72396 5.18707 1.72423L5.13293 1.70176C5.11488 1.68551 5.10299 1.68592 5.09724 1.70299L4.9666 1.8923C4.94945 1.90283 4.93787 1.91935 4.93185 1.94187L4.32687 2.81228C4.31268 2.81745 4.30622 2.8268 4.30747 2.84033L2.87313 4.90201C2.86595 4.89266 2.86079 4.90001 2.85764 4.92408L1.85481 6.36513C1.84961 6.37266 1.85051 6.37938 1.85751 6.38528L2.24337 6.70969C2.24453 6.7106 2.24485 6.71119 2.24431 6.71146C2.24332 6.7121 2.24233 6.71269 2.24135 6.71324C2.24655 6.7235 2.25526 6.72953 2.26747 6.73135L2.31003 6.76662C2.32 6.78778 2.33374 6.79858 2.35125 6.79904L3.01926 7.35879C3.01773 7.37141 3.02761 7.3804 3.04889 7.38575L3.08983 7.42062C3.10052 7.44114 3.11385 7.45172 3.12983 7.45235L4.20741 8.35408C4.21253 8.37333 4.22792 8.38636 4.2536 8.39317L4.62343 8.70178C4.629 8.72112 4.63843 8.72947 4.65172 8.72684L4.8967 8.93236C4.9046 8.95169 4.91708 8.96273 4.93414 8.96545C4.95021 8.97507 4.964 8.98665 4.97549 9.00018C4.98635 9.02142 5.00018 9.03241 5.01697 9.03314C5.1547 9.14836 5.2927 9.26403 5.43098 9.38016C5.43951 9.38733 5.45742 9.40503 5.48471 9.43327C5.54451 9.38215 5.59789 9.32799 5.64485 9.27079C5.86429 9.04889 6.12633 8.90743 6.43098 8.84642C6.43726 8.84515 6.4426 8.84478 6.447 8.84533C6.4681 8.84896 6.48355 8.8461 6.49333 8.83675C6.62712 8.82031 6.76238 8.81818 6.89912 8.83035C6.938 8.83389 6.9758 8.83974 7.01253 8.84792C7.02339 8.86017 7.03551 8.8624 7.04889 8.85459C7.5969 8.97839 8.04364 9.41448 8.17805 9.96946C8.17853 9.97144 8.17952 9.97325 8.18092 9.97471C8.18233 9.97616 8.18409 9.97721 8.18602 9.97774C8.18795 9.97827 8.18998 9.97826 8.1919 9.97772C8.19381 9.97717 8.19554 9.97611 8.1969 9.97464C8.27798 9.88829 8.36458 9.80235 8.45832 9.73507C8.81576 9.4784 9.21517 9.39314 9.65657 9.4793C9.79699 9.50663 9.93463 9.55925 10.0695 9.63715C10.0807 9.65268 10.0936 9.6603 10.1081 9.66003C10.1189 9.6633 10.1285 9.66875 10.1368 9.67637C10.1497 9.69299 10.1622 9.70084 10.1744 9.69994C10.4931 9.9203 10.702 10.2162 10.8012 10.5875C10.8236 10.6711 10.8339 10.7646 10.8451 10.8542C10.8454 10.8568 10.8463 10.8593 10.8477 10.8616C10.849 10.8638 10.8508 10.8658 10.853 10.8673C10.8551 10.8688 10.8576 10.8699 10.8601 10.8704C10.8627 10.8709 10.8653 10.8708 10.8679 10.8702C11.4189 10.7402 11.9811 10.9152 12.356 11.3502C12.3542 11.3628 12.3616 11.3717 12.3783 11.3767L12.4046 11.4112C12.4071 11.4284 12.4159 11.4396 12.4311 11.4447C12.4369 11.4478 12.4407 11.4528 12.4423 11.4597C12.4503 11.4849 12.464 11.5045 12.4834 11.5184C12.7129 11.8699 12.7756 12.2939 12.6871 12.7053C12.6862 12.7098 12.6865 12.7145 12.688 12.7188C12.6896 12.7231 12.6923 12.727 12.6959 12.7298C12.7947 12.8087 12.9112 12.8956 12.9957 12.9917C13.0242 13.0321 13.0573 13.0677 13.0952 13.0983C13.131 13.1315 13.1613 13.1685 13.1864 13.2093C13.1877 13.2254 13.1947 13.2345 13.2073 13.2366C13.3444 13.4119 13.4252 13.6097 13.4498 13.83C13.4502 13.8331 13.4494 13.8356 13.4475 13.8375L13.4478 13.9604L13.4446 14.0334C13.4315 14.0551 13.4282 14.0777 13.4347 14.1011C13.4158 14.2128 13.3828 14.3193 13.3358 14.4205C13.3182 14.4392 13.3085 14.461 13.3064 14.486L13.1666 14.755C13.1516 14.7676 13.1438 14.7822 13.1433 14.7987C13.107 14.8591 13.0799 14.9243 13.0618 14.9943C13.0474 15.0504 13.0754 15.085 13.1088 15.1333C13.1129 15.1518 13.1215 15.1621 13.1347 15.1642C13.2016 15.2325 13.2747 15.2929 13.3541 15.3454C13.3529 15.3572 13.3641 15.3647 13.3876 15.3679C13.488 15.4354 13.5713 15.4852 13.6376 15.5173C13.75 15.5716 13.8787 15.6092 14.0236 15.63C14.0319 15.6424 14.0478 15.6448 14.0712 15.6374C14.2164 15.6582 14.3371 15.6526 14.4703 15.6503C14.5121 15.6496 14.5527 15.6398 14.5949 15.6378C14.6142 15.6429 14.6284 15.6405 14.6374 15.6307C14.8579 15.5963 15.0636 15.5194 15.2529 15.4001C15.2545 15.3991 15.2559 15.3977 15.2569 15.3961C15.2579 15.3945 15.2586 15.3927 15.2588 15.3907C15.259 15.3888 15.2588 15.3869 15.2582 15.3851C15.2576 15.3833 15.2566 15.3816 15.2552 15.3802C14.8539 14.9744 14.4536 14.5697 14.0544 14.1662C14.025 14.1365 14.0003 14.0884 13.9802 14.0219C13.9847 14.009 13.9824 13.9929 13.9733 13.9735L13.9732 13.884C13.9838 13.868 13.9857 13.8516 13.979 13.835C14.0373 13.6438 14.2133 13.5271 14.4065 13.5696C14.4758 13.5848 14.5359 13.62 14.5869 13.675C15.0266 14.1204 15.4664 14.5649 15.9061 15.0083C15.9245 15.0269 15.9416 15.0395 15.9573 15.0462C16.2703 15.2961 16.7147 15.2723 16.9982 14.9883C17.144 14.8423 17.2209 14.6584 17.229 14.4367C17.2358 14.4047 17.2365 14.3728 17.2311 14.341C17.2309 14.3396 17.2302 14.3388 17.2288 14.3386C17.227 14.3384 17.2257 14.3378 17.2248 14.3369C17.2242 14.3363 17.224 14.3365 17.2241 14.3373C17.2242 14.3401 17.2234 14.342 17.2217 14.3429C17.2119 14.1898 17.1573 14.0529 17.0579 13.9321C17.0547 13.9178 17.0466 13.9041 17.0337 13.8911C16.3486 13.1982 15.6635 12.5052 14.9783 11.8123C14.9385 11.772 14.909 11.7436 14.8896 11.7272C14.8213 11.6603 14.7786 11.5805 14.7725 11.4819C14.7507 11.1282 15.1696 10.9613 15.4057 11.2189L16.1623 11.9885C16.1631 11.9894 16.1641 11.9898 16.1654 11.9897C16.1667 11.9896 16.1678 11.9891 16.1685 11.9881L16.1751 11.994C16.1736 11.9941 16.1726 11.9949 16.1723 11.9963C16.172 11.9975 16.1723 11.9985 16.1731 11.9993C16.2052 12.032 16.2374 12.0646 16.2698 12.0972C16.2708 12.0983 16.2719 12.0988 16.273 12.0987C16.2744 12.0986 16.2756 12.0979 16.2765 12.0967L16.2805 12.1003C16.2798 12.1041 16.2802 12.1067 16.2816 12.1082C16.3493 12.1773 16.4171 12.2462 16.4851 12.315C16.4863 12.3161 16.4874 12.3167 16.4885 12.3166C16.4899 12.3165 16.4911 12.3158 16.4921 12.3144C16.4929 12.3158 16.4942 12.3171 16.4959 12.3184C16.4952 12.3227 16.4954 12.3255 16.4966 12.3267C16.5289 12.3593 16.5611 12.3919 16.5933 12.4245C16.5943 12.4254 16.5954 12.4257 16.5968 12.4256C16.5979 12.4253 16.5989 12.4246 16.5997 12.4235L16.6038 12.4272C16.603 12.431 16.6033 12.4337 16.6047 12.4352C16.6725 12.5042 16.7404 12.5731 16.8084 12.6418C16.8095 12.643 16.8107 12.6436 16.8119 12.6435C16.8132 12.6434 16.8144 12.6426 16.8154 12.6413C16.8161 12.6429 16.8174 12.6442 16.8193 12.6451C16.8191 12.6466 16.8189 12.6481 16.8187 12.6496C16.8185 12.6513 16.819 12.6528 16.8202 12.6539L18.115 13.9633C18.1161 13.9643 18.1174 13.9647 18.1188 13.9645C18.1201 13.9643 18.1212 13.9636 18.1219 13.9624C18.17 14.0066 18.2211 14.045 18.2753 14.0776C18.2986 14.1013 18.3272 14.1159 18.3609 14.1216C18.4231 14.1475 18.4877 14.1653 18.5549 14.1749C18.5763 14.1854 18.6048 14.1879 18.6403 14.1826L18.804 14.1696C18.8189 14.1759 18.8308 14.1742 18.8396 14.1645C19.1938 14.0723 19.4563 13.7658 19.4475 13.3864C19.4521 13.3925 19.4538 13.399 19.4527 13.406C19.4529 13.406 19.4528 13.406 19.4524 13.406C19.452 13.406 19.4519 13.4059 19.452 13.4056C19.4559 13.3715 19.4557 13.3381 19.4513 13.3056C19.4513 13.3054 19.4512 13.3051 19.451 13.305C19.4509 13.3048 19.4506 13.3047 19.4504 13.3047C19.4501 13.3047 19.4499 13.3048 19.4497 13.305C19.4495 13.3051 19.4494 13.3054 19.4494 13.3056L19.4463 13.3469C19.4426 13.2546 19.4243 13.1664 19.3912 13.082C19.3847 13.0508 19.371 13.0228 19.35 12.998C19.3486 13.0014 19.3467 12.9994 19.3444 12.9918C19.3464 12.9913 19.3477 12.9908 19.3484 12.9902C19.3489 12.9899 19.3487 12.989 19.348 12.9873C19.3417 12.9719 19.3344 12.9629 19.3261 12.9604C19.2826 12.8977 19.2426 12.848 19.2062 12.8111C18.132 11.725 17.0578 10.639 15.9836 9.55298C15.9807 9.55008 15.9798 9.54785 15.981 9.54631L15.929 9.48693C15.8998 9.44398 15.8816 9.39641 15.8745 9.3442L15.8729 9.23484C15.8905 9.12915 15.9531 9.04308 16.0225 8.99037C16.0372 8.9792 16.0677 8.9635 16.1141 8.94325C16.1279 8.94525 16.1424 8.94216 16.1574 8.93399C16.1666 8.93281 16.1731 8.9309 16.1768 8.92827L16.2913 8.928C16.3423 8.9368 16.3889 8.95533 16.431 8.98356C16.4356 8.99718 16.4442 9.00372 16.4568 9.00317L17.384 9.93814C17.3841 9.93814 17.3841 9.93818 17.3841 9.93827C17.3843 9.93945 17.3845 9.94059 17.3848 9.94168C17.3836 9.9424 17.3824 9.94286 17.3813 9.94304C17.3803 9.94331 17.3801 9.94386 17.3807 9.94467C17.3877 9.95457 17.3956 9.96006 17.4047 9.96115L17.4936 10.0497C17.4841 10.0495 17.4862 10.0549 17.4999 10.0659C17.5042 10.0692 17.5087 10.0702 17.5135 10.0692L17.9372 10.4998C17.9363 10.5005 17.9352 10.5011 17.9341 10.5014C17.9328 10.5018 17.9325 10.5025 17.9333 10.5036C17.9403 10.5138 17.9485 10.5189 17.9578 10.5189L18.2615 10.8258C18.2683 10.8475 18.2788 10.8584 18.2931 10.8585L18.3803 10.9468C18.3741 10.9561 18.3815 10.9635 18.4024 10.9688L18.4905 11.0574C18.4784 11.0613 18.485 11.0684 18.5104 11.0786L18.5993 11.1674C18.598 11.1681 18.5966 11.1686 18.5953 11.1689C18.5933 11.1693 18.5929 11.1703 18.5941 11.1719C18.6006 11.181 18.6083 11.1859 18.6171 11.1867L18.7072 11.2765C18.7059 11.2772 18.7045 11.2777 18.703 11.2779C18.7011 11.2782 18.7007 11.2792 18.7018 11.2809C18.7084 11.2899 18.716 11.2949 18.7248 11.2957L18.8145 11.3849C18.811 11.3958 18.8168 11.4025 18.8322 11.4051L19.2597 11.8343C19.2583 11.8353 19.2569 11.8359 19.2554 11.8363C19.2457 11.8385 19.2453 11.8397 19.2541 11.8398H19.2591C19.2614 11.8398 19.2626 11.8409 19.2628 11.8432C19.2636 11.8522 19.2686 11.8556 19.2777 11.8534L19.4746 12.0517C19.4753 12.0637 19.4804 12.0707 19.4898 12.0727C19.4907 12.0729 19.4915 12.0734 19.4921 12.0741C19.4927 12.0748 19.493 12.0757 19.4931 12.0766L19.4933 12.0814C19.4933 12.082 19.4935 12.0826 19.4939 12.0831C19.4942 12.0836 19.4947 12.084 19.4952 12.0843C19.4994 12.086 19.5029 12.0855 19.5055 12.0829L19.703 12.2828C19.6903 12.2869 19.6963 12.2937 19.7212 12.3031L19.8105 12.3922C19.7983 12.3962 19.8044 12.4028 19.8288 12.4119L19.9182 12.5011C19.9059 12.5051 19.9125 12.5121 19.9383 12.522C19.9926 12.5747 20.0447 12.6311 20.1022 12.6775C20.1319 12.7014 20.1609 12.724 20.1892 12.7455C20.2025 12.7639 20.2142 12.7695 20.2242 12.7622C20.5184 12.9326 20.8782 12.8859 21.1302 12.6632C21.1626 12.645 21.186 12.6205 21.2005 12.5899C21.4345 12.3023 21.4567 11.9199 21.2462 11.6115C21.2475 11.5969 21.2394 11.5857 21.222 11.5778C21.2105 11.5701 21.2021 11.5598 21.1968 11.5467C21.1991 11.5478 21.2006 11.5474 21.2012 11.5456C21.2013 11.5453 21.2014 11.5449 21.2013 11.5446C21.2012 11.5443 21.2011 11.544 21.2008 11.5437L20.513 10.8525C20.5005 10.8449 20.4889 10.8343 20.4781 10.8207C20.4796 10.8208 20.4807 10.8206 20.4815 10.82C20.4832 10.8185 20.4833 10.817 20.4818 10.8154C19.9988 10.3269 19.5158 9.8384 19.0329 9.34992C18.9591 9.27529 18.8819 9.20229 18.8108 9.12548C18.7809 9.09333 18.7465 9.06337 18.7157 9.03041C18.6407 8.95033 18.5587 8.87584 18.4844 8.79589C18.4451 8.75353 18.3978 8.71268 18.3585 8.66637C18.3367 8.64063 18.2986 8.61108 18.2704 8.57921C18.2439 8.54906 18.2159 8.52024 18.1867 8.49273C18.1704 8.47747 18.1545 8.46181 18.139 8.44574C18.0557 8.35894 17.9698 8.27504 17.8813 8.19406L17.8483 8.16028C17.7802 8.08165 17.7239 8.02164 17.6796 7.98023C17.6307 7.93461 17.5891 7.88885 17.5441 7.84595C17.4718 7.77676 17.4059 7.69927 17.3323 7.63158C17.3045 7.60607 17.2778 7.57947 17.252 7.55177C17.2302 7.52835 17.2083 7.50497 17.1863 7.48163C17.1552 7.44858 17.1236 7.41599 17.0916 7.38385C16.9062 7.19826 16.721 7.0124 16.5362 6.82628C16.3109 6.59938 16.1682 6.45724 16.1081 6.39986C16.0991 6.39405 16.0909 6.38633 16.0835 6.3767C16.0827 6.36862 16.0805 6.3629 16.0769 6.35954C16.0183 6.30343 15.9611 6.24587 15.9053 6.18685C15.9015 6.18277 15.8971 6.18149 15.8919 6.18304L15.869 6.15839C15.8441 6.12479 15.8162 6.09388 15.7853 6.06564C15.7296 6.01457 15.6774 5.95873 15.6232 5.90058C15.6024 5.87824 15.5798 5.85845 15.5554 5.8412C15.5464 5.83575 15.5386 5.82803 15.532 5.81804C15.5098 5.78517 15.4832 5.75562 15.4521 5.72938C15.4209 5.7031 15.3974 5.67055 15.3663 5.64222C15.3235 5.60327 15.285 5.55832 15.2446 5.51978C15.2105 5.48737 15.178 5.45336 15.1471 5.41777C15.1432 5.41341 15.1385 5.40983 15.1329 5.40701C15.1292 5.4052 15.1258 5.40279 15.1228 5.3998L14.861 5.13858L14.8539 5.13681C14.8527 5.13654 14.8516 5.13667 14.8506 5.13722L14.8473 5.13912C14.8261 5.13885 14.8056 5.14466 14.7859 5.15656C14.7892 5.15919 14.7877 5.16032 14.7815 5.15996C14.7714 5.15597 14.761 5.15964 14.7503 5.17099L14.7011 5.19592C14.6862 5.19088 14.6804 5.1985 14.6694 5.20272C14.6536 5.20863 14.6489 5.21358 14.6551 5.21757L14.6182 5.23568C14.604 5.23405 14.5921 5.24104 14.5825 5.25666C14.4263 5.3539 14.3234 5.43929 14.1794 5.57004C14.1532 5.58474 14.1308 5.60545 14.1123 5.63214L13.995 5.74995L13.8636 5.88941L13.8399 5.921C13.8076 5.94443 13.7824 5.97285 13.764 6.00626L13.4657 6.36254C13.447 6.3718 13.4365 6.38488 13.4343 6.40176L13.0484 6.87353C13.036 6.87417 13.0291 6.88225 13.0277 6.89778L12.93 7.01449C12.9085 7.02702 12.8919 7.04482 12.88 7.06788C12.8784 7.07487 12.8736 7.08086 12.8657 7.08586L12.7883 7.16716C12.7877 7.1678 12.7877 7.16825 12.7884 7.16853C12.7893 7.1688 12.79 7.16925 12.7904 7.16989L12.7729 7.1925L12.6653 7.30731L12.6035 7.37649L12.4339 7.54891L12.3807 7.5959L12.2885 7.68279L12.1324 7.81299C12.1141 7.81453 12.1022 7.82325 12.0968 7.83914C12.0872 7.84894 12.0721 7.8612 12.0516 7.87591C11.9147 7.97388 11.7752 8.05705 11.6333 8.12542C11.6225 8.1197 11.6138 8.12101 11.6073 8.12936C11.6065 8.13038 11.6055 8.1312 11.6043 8.13177C11.6032 8.13234 11.6019 8.13263 11.6007 8.13263C11.5971 8.13254 11.5936 8.13318 11.5902 8.13454C11.5862 8.13608 11.5859 8.13813 11.5894 8.14067L11.5926 8.14312C11.5829 8.14648 11.5765 8.14784 11.5733 8.14721C11.5456 8.15329 11.5189 8.1621 11.4932 8.17363C11.4919 8.17417 11.491 8.17494 11.4905 8.17594C11.4897 8.17749 11.4898 8.17885 11.4908 8.18003L11.4858 8.18112C11.4687 8.17803 11.4584 8.1818 11.4548 8.19242L11.4102 8.20672L11.381 8.20659C11.3783 8.20659 11.3778 8.20772 11.3794 8.20999C11.3802 8.21117 11.3819 8.21208 11.3844 8.21271C11.375 8.21834 11.3659 8.22107 11.3569 8.22089C11.3492 8.21517 11.3398 8.21535 11.3289 8.22143C11.3268 8.22261 11.327 8.22343 11.3293 8.22388C11.3311 8.22415 11.3327 8.22493 11.3341 8.2262C11.327 8.23037 11.3189 8.23305 11.31 8.23423C11.2876 8.22688 11.2753 8.22919 11.2733 8.24118L11.1341 8.26174C11.1197 8.25693 11.1063 8.2582 11.094 8.26556C11.0818 8.27064 11.07 8.27196 11.0586 8.26951L10.8857 8.27005C10.7885 8.26451 10.6933 8.25026 10.6 8.22729C10.6155 8.21902 10.6071 8.21635 10.5747 8.21925C10.5524 8.21744 10.5321 8.21117 10.5137 8.20046C10.4885 8.1912 10.4643 8.18175 10.4409 8.17213C10.4369 8.17049 10.4318 8.17077 10.4281 8.17254C10.4127 8.16972 10.3993 8.165 10.3879 8.15837C10.3704 8.14121 10.3523 8.13372 10.3337 8.1359C10.125 8.04029 9.96907 7.88631 9.86599 7.67394C9.81095 7.56035 9.77791 7.4593 9.76687 7.37077C9.76112 7.32392 9.75506 7.27707 9.74869 7.23022C9.74168 7.17874 9.74397 7.12413 9.73953 7.0702C9.73643 7.03043 9.74303 6.99229 9.7433 6.95225C9.74438 6.82859 9.76404 6.70329 9.78397 6.58208C9.79466 6.57327 9.79695 6.56038 9.79084 6.5434C9.80709 6.44879 9.82738 6.35464 9.85172 6.26094C9.92911 5.96304 10.0264 5.67245 10.1437 5.38917C10.1556 5.38836 10.1598 5.37769 10.1561 5.35717L10.2517 5.13436C10.2692 5.11375 10.2803 5.08937 10.2848 5.06122L10.3017 5.01873C10.3055 5.02654 10.3085 5.02313 10.3108 5.00851C10.3115 5.00407 10.3134 5.0003 10.3165 4.99721C10.3237 4.98995 10.3257 4.97991 10.3227 4.96711L10.3855 4.83705C10.402 4.81962 10.4129 4.79819 10.4183 4.77277C10.4191 4.76886 10.4215 4.76573 10.4255 4.76337C10.4273 4.76227 10.4288 4.76066 10.4297 4.75873C10.4307 4.75679 10.4311 4.75462 10.4308 4.75247C10.4302 4.74721 10.4314 4.74267 10.4343 4.73885C10.4395 4.73223 10.4422 4.72855 10.4427 4.72782C10.4704 4.67407 10.4976 4.62 10.524 4.56562C10.5257 4.56235 10.5264 4.55885 10.5262 4.55513C10.526 4.55123 10.5278 4.54859 10.5316 4.54723C10.5353 4.54596 10.5373 4.54337 10.5378 4.53947C10.5402 4.51441 10.5669 4.49112 10.574 4.45843L10.72 4.18155C10.7389 4.16321 10.7513 4.13992 10.757 4.11169C11.0716 3.53587 11.4263 2.9994 11.864 2.51143C11.8809 2.50507 11.893 2.4924 11.9001 2.47343C11.8995 2.47134 11.9012 2.46825 11.9052 2.46417C12.0127 2.35421 12.1208 2.24472 12.2292 2.13567C12.2505 2.11424 12.2756 2.09127 12.3045 2.06676C12.3305 2.04479 12.3562 2.02231 12.3814 1.99934C12.4465 1.93996 12.5124 1.88303 12.5791 1.82856C12.5801 1.82771 12.5809 1.82662 12.5815 1.82539C12.582 1.82417 12.5822 1.82283 12.5821 1.82151C12.582 1.82018 12.5816 1.81891 12.5809 1.81779C12.5803 1.81667 12.5793 1.81574 12.5782 1.81507L12.4881 1.76087C12.4849 1.74843 12.476 1.74298 12.4613 1.74453C12.4557 1.74362 12.451 1.74071 12.447 1.73581C12.447 1.73472 12.447 1.73359 12.4471 1.73241C12.4471 1.73222 12.447 1.73209 12.4469 1.732L12.3374 1.67698L12.2438 1.6274L12.1239 1.5702L12.0019 1.51872C11.9915 1.50601 11.9759 1.49947 11.9552 1.49911C11.9418 1.49775 11.9379 1.49584 11.9434 1.49339C11.9289 1.48168 11.91 1.47455 11.8867 1.47201C11.8839 1.47555 11.8823 1.47487 11.8822 1.46996C11.8782 1.46188 11.8704 1.45825 11.8589 1.45907C11.8573 1.45925 11.8568 1.45998 11.8572 1.46125C11.8575 1.46179 11.8578 1.46238 11.8582 1.46302L11.7378 1.4208C11.7378 1.41081 11.7275 1.40786 11.7071 1.41194L11.5867 1.37463C11.5764 1.36183 11.5669 1.35901 11.5581 1.36618L11.3807 1.32219C11.3979 1.31511 11.39 1.31311 11.3572 1.3162L11.3267 1.30857C11.3447 1.30058 11.3376 1.29927 11.3056 1.30462L11.2148 1.28692C11.2057 1.27793 11.1917 1.27548 11.1731 1.27957C11.1651 1.28075 11.1566 1.27961 11.1476 1.27616C11.1471 1.2748 11.1467 1.27357 11.1465 1.27248C11.1462 1.2704 11.145 1.26921 11.1429 1.26894C11.1286 1.26676 11.1145 1.26695 11.1005 1.26949L10.8378 1.2398C10.8434 1.23689 10.8496 1.23603 10.8564 1.23721C10.8568 1.23721 10.857 1.23707 10.857 1.2368C10.857 1.23662 10.857 1.23644 10.857 1.23626C10.857 1.23553 10.8566 1.23508 10.8559 1.23489C10.8341 1.2299 10.8127 1.22995 10.7916 1.23503C10.6982 1.23394 10.6027 1.22768 10.5129 1.23067C10.4597 1.23249 10.407 1.23458 10.3549 1.23694ZM6.69549 9.54345C6.69172 9.54036 6.68831 9.54082 6.68525 9.54481C6.69639 9.54499 6.70752 9.54499 6.71865 9.54481C6.72189 9.54481 6.72211 9.544 6.71933 9.54236C6.71789 9.54145 6.71627 9.54095 6.71448 9.54086C6.71322 9.54086 6.71062 9.54173 6.70667 9.54345C6.70451 9.54445 6.70227 9.54495 6.69993 9.54495C6.69823 9.54504 6.69675 9.54454 6.69549 9.54345ZM6.16512 9.77974C6.1635 9.77929 6.16198 9.77915 6.16054 9.77934C6.15928 9.77943 6.15798 9.78015 6.15663 9.78151C5.93154 10.0083 5.70667 10.2353 5.48202 10.4623C5.4435 10.5013 5.41293 10.5373 5.3903 10.5703L5.29684 10.7577C5.28094 10.7785 5.27394 10.8013 5.27582 10.8261C5.18842 11.1793 5.32768 11.5376 5.63919 11.721C5.65517 11.7416 5.67591 11.7528 5.70141 11.7545C5.95542 11.8713 6.25091 11.8484 6.47892 11.6897C6.52121 11.6603 6.58783 11.5997 6.67879 11.508C6.86967 11.3157 7.06034 11.1233 7.25077 10.9307C7.46074 10.7184 7.55421 10.4248 7.4738 10.1319C7.3996 9.862 7.19071 9.65036 6.92175 9.58077C6.89616 9.57414 6.8725 9.56738 6.85077 9.56047C6.84117 9.55121 6.82788 9.54999 6.81091 9.5568C6.55915 9.53065 6.34388 9.60496 6.16512 9.77974ZM9.27798 10.1802L9.22343 10.186C9.20781 10.1803 9.19353 10.1827 9.18061 10.1932L9.01522 10.2477C8.99214 10.2495 8.9727 10.2594 8.9569 10.2773C8.8132 10.369 8.71677 10.4798 8.60444 10.592C8.59385 10.5919 8.5868 10.5957 8.5833 10.6034C8.58208 10.6061 8.58003 10.6082 8.57751 10.6094C8.56988 10.6131 8.56561 10.6204 8.56471 10.6314L8.48242 10.7136C8.46536 10.7196 8.45226 10.733 8.4431 10.7539L8.37455 10.8224C8.35776 10.8285 8.34469 10.842 8.33535 10.8627L8.2668 10.9314C8.25001 10.9375 8.23695 10.9509 8.22761 10.9717L8.15919 11.0406C8.1442 11.0429 8.13567 11.0517 8.1336 11.067L8.04512 11.1561C8.03273 11.157 8.02164 11.1683 8.01185 11.19L7.9367 11.2663C7.93356 11.263 7.92979 11.2629 7.92539 11.266C7.92132 11.2688 7.91696 11.2733 7.91273 11.2792C7.90689 11.2874 7.90433 11.2938 7.90505 11.2986L7.82276 11.3812C7.80669 11.3837 7.79825 11.3926 7.79744 11.4079L7.4998 11.7086C7.48337 11.7124 7.47003 11.7255 7.4598 11.7481L7.39138 11.8166C7.3745 11.8228 7.36139 11.8363 7.35205 11.857L7.27717 11.9323C7.26514 11.9334 7.2541 11.9447 7.24404 11.9659L7.21589 11.9989C7.19973 12.0108 7.18626 12.0249 7.17549 12.0409C7.17477 12.042 7.1745 12.043 7.17468 12.0439C7.17486 12.0457 7.17571 12.0465 7.17724 12.0465L7.16983 12.0578C7.15026 12.0687 7.14209 12.0814 7.14532 12.096C7.07466 12.2048 7.03434 12.324 7.02438 12.4536C7.01926 12.4507 7.01742 12.4447 7.01885 12.4356C7.01885 12.4355 7.0189 12.4355 7.01899 12.4355C7.02025 12.4355 7.01998 12.4355 7.01818 12.4355C7.01773 12.4355 7.01746 12.4357 7.01737 12.436C7.01531 12.4912 7.01535 12.5462 7.01751 12.6011C7.01751 12.6026 7.01823 12.6033 7.01966 12.6033H7.0198C7.02123 12.6032 7.02195 12.6025 7.02195 12.6011L7.02141 12.5571C7.03744 12.9517 7.34007 13.2915 7.74155 13.3143C7.73329 13.3129 7.72691 13.3133 7.72242 13.3156C7.7182 13.3178 7.71847 13.3192 7.72323 13.3198C7.77253 13.326 7.82738 13.3248 7.88781 13.3163C7.8985 13.3135 7.91295 13.311 7.93118 13.3086C8.0365 13.2949 8.14572 13.248 8.233 13.1905C8.27843 13.1605 8.3455 13.1005 8.43421 13.0106C8.92382 12.5144 9.41401 12.0189 9.90478 11.524C10.0027 11.4253 10.0701 11.3009 10.1069 11.1509C10.1142 11.1212 10.1161 11.0894 10.1208 11.0576L10.1228 11.0767C10.1229 11.077 10.1229 11.0771 10.1228 11.077C10.1227 11.077 10.1226 11.077 10.1224 11.077C10.1222 11.077 10.1222 11.0768 10.1222 11.0766C10.1345 11.0042 10.1335 10.9323 10.1189 10.8607C10.109 10.7975 10.0929 10.7366 10.0707 10.6781C10.0647 10.6367 10.0466 10.599 10.0163 10.565C9.90586 10.3807 9.74554 10.2596 9.53535 10.2015C9.55349 10.1955 9.54577 10.1936 9.51219 10.1958C9.50465 10.1975 9.50043 10.1966 9.49953 10.1931C9.4857 10.183 9.47156 10.1806 9.4571 10.186C9.44615 10.187 9.43578 10.1855 9.42599 10.1814C9.37652 10.169 9.32718 10.1686 9.27798 10.1802ZM11.1623 11.5629L11.0857 11.5711C11.0733 11.5655 11.0608 11.5672 11.0484 11.576L10.9529 11.6049C10.9305 11.6048 10.9121 11.612 10.8978 11.6266L10.7774 11.6946C10.7415 11.7146 10.7134 11.7348 10.6932 11.7552C10.181 12.2726 9.66905 12.7901 9.15744 13.3079C9.11093 13.355 9.07879 13.3927 9.06101 13.4211C9.02222 13.4737 8.99053 13.5291 8.96593 13.5873C8.90653 13.728 8.88013 13.8793 8.9068 14.0314C8.94873 14.2716 9.07322 14.4575 9.28027 14.5891C9.30433 14.6119 9.33248 14.6262 9.36471 14.632C9.64296 14.7535 9.93966 14.7096 10.1793 14.5233C10.1942 14.5162 10.2083 14.5058 10.2215 14.4924C10.7419 13.9668 11.2622 13.4411 11.7825 12.9153C11.8026 12.8949 11.8196 12.8731 11.8334 12.8499L11.925 12.7004C11.9386 12.6939 11.9434 12.6841 11.9394 12.6708C11.9764 12.5871 11.9979 12.4991 12.004 12.4068C12.0133 12.3717 12.0127 12.3354 12.0024 12.2977C12.0003 12.2377 11.9897 12.1787 11.9708 12.1205C11.8887 11.8677 11.7248 11.6951 11.4789 11.6025C11.47 11.5908 11.4608 11.5875 11.4513 11.5925L11.3907 11.5752C11.3813 11.5693 11.3711 11.5662 11.3603 11.566C11.3573 11.566 11.3585 11.5677 11.3638 11.5714L11.2754 11.5633L11.3119 11.5606C11.3133 11.5605 11.314 11.5598 11.3141 11.5586C11.3142 11.5566 11.3138 11.5556 11.3131 11.5556L11.1255 11.5572C11.1248 11.5572 11.1244 11.5568 11.1243 11.5561C11.124 11.5519 11.1237 11.5533 11.1236 11.5603C11.1236 11.5608 11.1239 11.561 11.1244 11.561C11.1374 11.5596 11.15 11.5602 11.1623 11.5629ZM12.3116 13.3985L10.6651 15.0599C10.6606 15.063 10.658 15.0662 10.6572 15.0695C10.6566 15.0721 10.658 15.0754 10.6614 15.0793C10.8158 15.2513 10.9925 15.394 11.1918 15.5073C11.2055 15.5276 11.2156 15.5337 11.222 15.5258C11.6535 15.7575 12.1387 15.8208 12.6194 15.7491C12.6378 15.7463 12.6553 15.7428 12.6719 15.7386C12.6727 15.7383 12.6735 15.7379 12.6741 15.7373C12.6747 15.7367 12.6751 15.7359 12.6753 15.7351C12.6755 15.7342 12.6754 15.7333 12.6752 15.7325C12.6749 15.7317 12.6744 15.731 12.6738 15.7304C12.4838 15.5568 12.3448 15.3194 12.3363 15.0553C12.3409 15.0419 12.3406 15.0282 12.3354 15.0144C12.3352 14.7369 12.4787 14.4822 12.6202 14.2471C12.6492 14.2058 12.6699 14.1622 12.6823 14.1164C12.7367 13.9798 12.7418 13.8729 12.6753 13.7413C12.6692 13.7116 12.6549 13.6872 12.6323 13.6679C12.5565 13.5648 12.467 13.4739 12.3636 13.3951C12.3597 13.3832 12.353 13.3767 12.3436 13.3755C12.3377 13.3749 12.3318 13.3774 12.3258 13.3833C12.3209 13.3882 12.3161 13.3932 12.3116 13.3985Z" stroke="#374957" stroke-width="0.25"/>
</svg>
