<svg width="18" height="18" viewBox="0 0 18 18" fill="none" xmlns="http://www.w3.org/2000/svg">
<path d="M9.41406 4.79308L1.41406 12.7931V16.7931L5.41406 16.7931L13.4141 8.79307M9.41406 4.79308L12.2827 1.92443L12.2844 1.92273C12.6793 1.52785 12.8771 1.33006 13.1051 1.25597C13.3059 1.19072 13.5223 1.19072 13.7231 1.25597C13.951 1.33 14.1486 1.52757 14.5429 1.92189L16.2827 3.66169C16.6787 4.05771 16.8768 4.25581 16.951 4.48413C17.0162 4.68498 17.0162 4.90132 16.951 5.10217C16.8768 5.33033 16.679 5.52813 16.2836 5.92358L16.2827 5.92443L13.4141 8.79307M9.41406 4.79308L13.4141 8.79307" stroke="#111111" stroke-width="2" stroke-linecap="round" stroke-linejoin="round"/>
</svg>
