<svg width="30" height="30" viewBox="0 0 30 30" fill="none" xmlns="http://www.w3.org/2000/svg">
<path d="M30 15C30 23.2843 23.2843 30 15 30C6.71573 30 0 23.2843 0 15C0 6.71573 6.71573 0 15 0C23.2843 0 30 6.71573 30 15Z" fill="#FEA804"/>
<path d="M9.85587 12.2724C9.90638 9.78718 11.6642 8.04957 14.7656 8.04957C17.6549 8.04957 19.5643 9.65585 19.5643 11.9592C19.5643 13.4846 18.8268 14.5454 17.4023 15.3839C16.0587 16.1618 15.6849 16.6568 15.6849 17.6468V18.1822H13.0078L12.9876 17.5963C12.8563 16.0102 13.4119 15.101 14.806 14.2827C16.1092 13.5048 16.5032 13.0098 16.5032 12.0501C16.5032 11.0904 15.7355 10.3933 14.5838 10.3933C13.422 10.3933 12.6542 11.1308 12.5936 12.2724H9.85587ZM14.3817 23.0112C13.4725 23.0112 12.735 22.3141 12.735 21.4251C12.735 20.5361 13.4725 19.839 14.3817 19.839C15.3011 19.839 16.0385 20.5361 16.0385 21.4251C16.0385 22.3141 15.3011 23.0112 14.3817 23.0112Z" fill="#111111"/>
</svg>
