<svg width="18" height="18" viewBox="0 0 18 18" fill="none" xmlns="http://www.w3.org/2000/svg">
<path d="M15.6002 6.38898L15.2888 6.2161C15.2404 6.18926 15.2167 6.17579 15.1933 6.16183C14.9611 6.02301 14.7654 5.83122 14.6225 5.60176C14.6082 5.57867 14.5946 5.55446 14.5669 5.50661C14.5393 5.45882 14.5252 5.4346 14.5124 5.41063C14.3842 5.17191 14.3149 4.90587 14.3108 4.6351C14.3104 4.60788 14.3105 4.58007 14.3114 4.52477L14.3175 4.16391C14.3272 3.58643 14.3321 3.2968 14.2508 3.03687C14.1786 2.80598 14.0577 2.59333 13.8963 2.41286C13.7139 2.20886 13.4614 2.06332 12.9559 1.77262L12.536 1.53115C12.0319 1.24126 11.7798 1.09626 11.5121 1.04099C11.2754 0.992085 11.031 0.994351 10.7951 1.0472C10.5288 1.10685 10.2798 1.25563 9.78217 1.55301L9.77935 1.55436L9.47848 1.73413C9.43091 1.76256 9.40682 1.77689 9.38298 1.79012C9.14636 1.92141 8.88219 1.994 8.61159 2.00267C8.58431 2.00355 8.55657 2.00355 8.5011 2.00355C8.44597 2.00355 8.41704 2.00355 8.38982 2.00267C8.11863 1.99397 7.85392 1.92098 7.61693 1.78914C7.59304 1.77586 7.56941 1.76141 7.52174 1.73285L7.21896 1.55146C6.71788 1.25126 6.46697 1.10094 6.19922 1.04099C5.96235 0.987951 5.71717 0.986483 5.47953 1.03602C5.21121 1.09194 4.95901 1.23802 4.45461 1.53016L4.45236 1.53115L4.03769 1.77133L4.0331 1.77413C3.53324 2.06364 3.28271 2.20875 3.10183 2.41191C2.94132 2.5922 2.82135 2.80452 2.74954 3.0348C2.66837 3.29508 2.67269 3.58533 2.68248 4.16553L2.68855 4.52589C2.68947 4.58045 2.69107 4.60757 2.69067 4.63441C2.68664 4.90573 2.61643 5.17231 2.48793 5.41145C2.47522 5.4351 2.46153 5.45876 2.43419 5.506C2.40682 5.55327 2.39357 5.57678 2.37938 5.5996C2.23591 5.83028 2.03929 6.02319 1.80561 6.16224C1.7825 6.17599 1.75814 6.18922 1.71028 6.21569L1.40283 6.38572C0.891297 6.6686 0.635591 6.81017 0.449527 7.01163C0.284926 7.18986 0.160581 7.40126 0.0846792 7.63149C-0.00112038 7.89175 -0.00104819 8.18358 0.000280201 8.7672L0.00136593 9.2442C0.00268544 9.82392 0.00449536 10.1136 0.0904866 10.3721C0.166563 10.6008 0.29 10.8109 0.453679 10.9881C0.638691 11.1883 0.891854 11.329 1.39951 11.6108L1.70421 11.78C1.75607 11.8088 1.78217 11.823 1.80717 11.838C2.03873 11.9772 2.23381 12.1695 2.37606 12.3989C2.39143 12.4237 2.40618 12.4494 2.43568 12.5008C2.46481 12.5516 2.47972 12.577 2.4932 12.6025C2.61792 12.8381 2.68469 13.0999 2.68924 13.3664C2.68974 13.3952 2.68932 13.4243 2.68833 13.4828L2.68248 13.8286C2.67263 14.4108 2.66834 14.7022 2.74998 14.9632C2.82221 15.1941 2.94294 15.4068 3.10432 15.5872C3.28674 15.7913 3.53962 15.9367 4.04516 16.2274L4.46498 16.4688C4.9691 16.7587 5.22107 16.9035 5.4887 16.9588C5.72547 17.0077 5.96995 17.0058 6.20587 16.953C6.47251 16.8932 6.72235 16.7439 7.22145 16.4457L7.52232 16.2659C7.56991 16.2375 7.59402 16.2232 7.61786 16.21C7.85449 16.0787 8.11839 16.0057 8.38899 15.9971C8.41626 15.9962 8.444 15.9962 8.49948 15.9962C8.55508 15.9962 8.58279 15.9962 8.61012 15.9971C8.88131 16.0058 9.14682 16.079 9.38381 16.2108C9.40466 16.2224 9.42556 16.235 9.46225 16.257L9.78209 16.4486C10.2832 16.7488 10.5336 16.8987 10.8014 16.9586C11.0383 17.0117 11.2836 17.0138 11.5213 16.9643C11.7895 16.9084 12.0422 16.762 12.5463 16.4701L12.9673 16.2263C13.4674 15.9366 13.7182 15.7913 13.8992 15.5881C14.0597 15.4078 14.1798 15.1956 14.2516 14.9653C14.3322 14.7069 14.3273 14.4189 14.3177 13.8471L14.3114 13.4741C14.3105 13.4195 14.3104 13.3924 14.3108 13.3656C14.3148 13.0942 14.3839 12.8275 14.5124 12.5883C14.5251 12.5647 14.5389 12.5409 14.5661 12.4938C14.5935 12.4465 14.6076 12.423 14.6218 12.4001C14.7653 12.1695 14.9621 11.9764 15.1958 11.8373C15.2186 11.8237 15.2421 11.8107 15.2889 11.7849L15.2905 11.7842L15.5979 11.6141C16.1094 11.3312 16.3656 11.1895 16.5517 10.9881C16.7163 10.8098 16.8405 10.5987 16.9164 10.3685C17.0017 10.1098 17.001 9.81964 16.9997 9.24284L16.9986 8.7556C16.9973 8.17588 16.9966 7.88626 16.9106 7.62776C16.8345 7.39908 16.7104 7.18891 16.5467 7.01176C16.3619 6.81172 16.1083 6.67098 15.6017 6.3897L15.6002 6.38898Z" stroke="currentColor" stroke-width="1.5" stroke-linecap="round" stroke-linejoin="round"/>
<path d="M5.09894 9.00006C5.09894 10.8747 6.62177 12.3943 8.50027 12.3943C10.3788 12.3943 11.9016 10.8747 11.9016 9.00006C11.9016 7.12545 10.3788 5.60578 8.50027 5.60578C6.62177 5.60578 5.09894 7.12545 5.09894 9.00006Z" stroke="currentColor" stroke-width="1.5" stroke-linecap="round" stroke-linejoin="round"/>
</svg>
