<svg width="16" height="16" viewBox="0 0 16 16" fill="none" xmlns="http://www.w3.org/2000/svg">
<path d="M8 0C6.03057 0.00595759 4.13219 0.73636 2.66667 2.052V0H1.33333V3.42867C1.33369 3.7569 1.46423 4.07158 1.69632 4.30367C1.92842 4.53577 2.2431 4.66631 2.57133 4.66667H6V3.33333H3.25267C4.33617 2.23571 5.7672 1.5484 7.30125 1.38882C8.83529 1.22924 10.3771 1.6073 11.6634 2.45841C12.9496 3.30952 13.9004 4.58085 14.3532 6.05519C14.8061 7.52952 14.733 9.11537 14.1463 10.5418C13.5596 11.9682 12.4959 13.1466 11.1368 13.8757C9.77767 14.6048 8.20756 14.8393 6.69472 14.5392C5.18188 14.2391 3.82019 13.423 2.84232 12.2303C1.86444 11.0376 1.33107 9.54232 1.33333 8H0C0 9.58225 0.469192 11.129 1.34824 12.4446C2.22729 13.7602 3.47672 14.7855 4.93853 15.391C6.40034 15.9965 8.00887 16.155 9.56072 15.8463C11.1126 15.5376 12.538 14.7757 13.6569 13.6569C14.7757 12.538 15.5376 11.1126 15.8463 9.56072C16.155 8.00887 15.9965 6.40034 15.391 4.93853C14.7855 3.47672 13.7602 2.22729 12.4446 1.34824C11.129 0.469192 9.58225 0 8 0Z" fill="currentColor"/>
<path d="M7.33344 4.66625V8.27558L9.52876 10.4709L10.4714 9.52825L8.66677 7.72358V4.66625H7.33344Z" fill="currentColor"/>
</svg>
