<svg width="40" height="40" viewBox="0 0 40 40" fill="none" xmlns="http://www.w3.org/2000/svg">
<rect width="40" height="40" rx="20" fill="#179B3C"/>
<path d="M19.9825 28C12.466 28 8.17864 22.7447 8 14H11.7651C11.8888 20.4184 14.6646 23.1371 16.8632 23.6977V14H20.4085V19.5355C22.5796 19.2973 24.8607 16.7748 25.6302 14H29.1755C28.8855 15.4391 28.3075 16.8017 27.4776 18.0025C26.6477 19.2033 25.5837 20.2166 24.3523 20.979C25.7269 21.6756 26.941 22.6615 27.9145 23.8717C28.888 25.082 29.5988 26.489 30 28H26.0974C25.7373 26.6876 25.0054 25.5128 23.9934 24.6228C22.9814 23.7328 21.7343 23.1673 20.4085 22.997V28H19.9825Z" fill="white"/>
</svg>
