<svg width="45" height="35" viewBox="0 0 45 35" fill="none" xmlns="http://www.w3.org/2000/svg">
<path d="M22.3844 3.08717C22.2679 3.18788 22.1511 3.28802 22.0339 3.3876C19.0692 5.90045 17.3238 9.47142 17.1376 13.3469C16.9367 17.5306 18.7193 21.7434 21.9241 24.455C22.079 24.586 22.2351 24.7165 22.3922 24.8466C21.4928 25.5513 20.5375 26.1311 19.5261 26.5858C14.7446 28.7363 9.12583 27.9996 5.06984 24.6725C3.84711 23.6692 2.76529 22.4347 1.95443 21.0643C0.484904 18.5807 -0.155926 15.8865 0.0319427 12.9818C0.178602 10.7131 0.920366 8.50272 2.12548 6.58667C4.03747 3.54713 7.09225 1.34894 10.5768 0.50658C14.687 -0.48718 19.0052 0.449 22.3475 3.0428C22.3556 3.04912 22.3679 3.06391 22.3844 3.08717Z" fill="#FF0016"/>
<path d="M22.4427 24.8523C22.4506 24.835 22.4627 24.8197 22.4789 24.8066C24.0884 23.5229 25.3514 21.9644 26.2677 20.1311C27.9663 16.7319 28.1519 12.7128 26.8469 9.15845C26.0336 6.944 24.6382 4.97647 22.8566 3.43197C22.7859 3.37078 22.6425 3.25494 22.4264 3.08446C23.6498 2.12548 24.9877 1.39286 26.4401 0.886607C33.141 -1.4491 40.4984 1.70119 43.5081 8.0807C44.2144 9.578 44.6357 11.1527 44.7721 12.805C44.8243 13.44 44.8487 13.9183 44.8223 14.5154C44.7218 16.7816 44.117 18.8866 43.0078 20.8306C40.1221 25.8878 34.3719 28.571 28.6433 27.6077C26.3788 27.2267 24.2514 26.2647 22.4427 24.8523Z" fill="#FEA000"/>
<path d="M22.4264 3.08446C22.6425 3.25494 22.7859 3.37078 22.8566 3.43197C24.6382 4.97647 26.0336 6.944 26.8469 9.15845C28.1519 12.7128 27.9663 16.7319 26.2677 20.1311C25.3514 21.9644 24.0884 23.5229 22.4789 24.8066C22.4627 24.8197 22.4506 24.835 22.4427 24.8523L22.3922 24.8466C22.2351 24.7165 22.079 24.586 21.9241 24.455C18.7193 21.7434 16.9367 17.5306 17.1376 13.3469C17.3238 9.47142 19.0692 5.90045 22.0339 3.3876C22.1511 3.28802 22.2679 3.18788 22.3844 3.08717C22.4072 3.07791 22.4212 3.07701 22.4264 3.08446Z" fill="#FE5E00"/>
<path d="M41.861 34.3798C41.8609 34.377 41.86 34.3744 41.8584 34.3722C41.8568 34.37 41.8545 34.3684 41.852 34.3675C41.8494 34.3667 41.8467 34.3667 41.8441 34.3676C41.8416 34.3684 41.8394 34.3701 41.8379 34.3723C41.4935 34.8523 40.8357 34.9562 40.2972 34.8343C38.3757 34.3981 38.3767 31.5065 40.308 31.0689C40.8594 30.9439 41.4749 31.0815 41.8413 31.5414C41.8533 31.5561 41.8593 31.554 41.8593 31.535L41.8589 29.6626C41.8589 29.6513 41.8647 29.6457 41.8762 29.6457L42.6539 29.6454C42.6661 29.6454 42.6722 29.6513 42.6722 29.6633V34.7781C42.6722 34.7901 42.6662 34.796 42.6542 34.796L41.8779 34.7971C41.8725 34.7971 41.8674 34.7949 41.8635 34.7911C41.8597 34.7873 41.8576 34.7821 41.8576 34.7767L41.861 34.3798ZM40.8329 34.1443C40.9803 34.143 41.1259 34.1108 41.2616 34.0495C41.3972 33.9882 41.5201 33.8989 41.6233 33.7869C41.7266 33.6749 41.8081 33.5423 41.8632 33.3966C41.9183 33.2509 41.946 33.0951 41.9446 32.9379C41.9432 32.7808 41.9128 32.6254 41.8552 32.4808C41.7975 32.3361 41.7137 32.2049 41.6086 32.0947C41.5034 31.9845 41.3789 31.8974 41.2423 31.8385C41.1056 31.7795 40.9594 31.7498 40.8121 31.7511C40.6647 31.7524 40.5191 31.7846 40.3835 31.846C40.2478 31.9073 40.1249 31.9965 40.0217 32.1085C39.9185 32.2205 39.837 32.3532 39.7818 32.4989C39.7267 32.6445 39.699 32.8004 39.7004 32.9575C39.7018 33.1147 39.7322 33.27 39.7898 33.4147C39.8475 33.5594 39.9313 33.6906 40.0365 33.8008C40.1416 33.911 40.2661 33.998 40.4027 34.057C40.5394 34.1159 40.6856 34.1456 40.8329 34.1443Z" fill="#111111"/>
<path d="M18.8189 31.8554C18.8155 32.3583 18.8154 32.8611 18.8185 33.364C18.8197 33.5451 18.8332 33.6798 18.8592 33.7681C19.0089 34.2805 19.7121 34.1122 20.0338 33.9239C20.0356 33.9228 20.0376 33.9221 20.0397 33.9219C20.0417 33.9217 20.0438 33.922 20.0458 33.9227C20.0477 33.9234 20.0495 33.9246 20.0509 33.9261C20.0524 33.9276 20.0535 33.9294 20.0541 33.9313L20.2716 34.5854C20.2738 34.5919 20.2736 34.599 20.271 34.6053C20.2685 34.6117 20.2638 34.617 20.2577 34.6203C19.7825 34.8699 19.1857 34.9715 18.6844 34.7835C18.0067 34.5298 18.0087 33.8541 18.007 33.2532C18.0057 32.7883 18.0062 32.3232 18.0087 31.8578C18.0087 31.8551 18.0082 31.8524 18.0071 31.8499C18.0061 31.8474 18.0046 31.8452 18.0027 31.8433C18.0008 31.8414 17.9986 31.8399 17.9961 31.8389C17.9937 31.8379 17.991 31.8374 17.9884 31.8375L17.2846 31.8391C17.2824 31.8391 17.2803 31.8383 17.2788 31.8367C17.2773 31.8351 17.2764 31.8329 17.2764 31.8307L17.2768 31.1116C17.2768 31.1094 17.2777 31.1072 17.2792 31.1056C17.2808 31.104 17.283 31.1031 17.2852 31.1031H17.9891C17.9938 31.1031 17.9984 31.1013 18.0018 31.0979C18.0051 31.0945 18.007 31.09 18.007 31.0852L18.006 30.0034C18.006 29.9937 18.011 29.9888 18.0209 29.9888L18.8026 29.9898C18.8123 29.9898 18.8172 29.9946 18.8172 30.004V31.0862C18.8172 31.0979 18.8231 31.1038 18.8348 31.1038L20.1056 31.1028C20.1174 31.1028 20.1232 31.1088 20.1232 31.1208L20.1249 31.8195C20.1249 31.8321 20.1186 31.8385 20.106 31.8385L18.8365 31.8381C18.825 31.8381 18.8191 31.8439 18.8189 31.8554Z" fill="#111111"/>
<path d="M3.09282 31.5404C3.23914 31.3805 3.35362 31.2525 3.5687 31.1472C3.85254 31.008 4.24205 31.0022 4.54993 31.0713C4.89947 31.1497 5.17518 31.3479 5.37705 31.6661C5.37822 31.6679 5.37984 31.6694 5.38174 31.6705C5.38365 31.6715 5.38578 31.6721 5.38796 31.6721C5.39014 31.6722 5.3923 31.6717 5.39423 31.6707C5.39617 31.6697 5.39783 31.6682 5.39906 31.6664C5.73878 31.1777 6.28748 30.9893 6.86972 31.0367C7.33578 31.0747 7.74595 31.284 7.97728 31.6982C8.13207 31.9763 8.15544 32.2598 8.15612 32.6171C8.1577 33.3397 8.15793 34.0624 8.1568 34.7852C8.1568 34.7882 8.15562 34.791 8.15352 34.7931C8.15143 34.7952 8.14858 34.7964 8.14562 34.7964L7.28463 34.7954C7.28068 34.7954 7.27689 34.7938 7.27409 34.7911C7.2713 34.7884 7.26973 34.7847 7.26973 34.7808C7.27153 34.1153 7.2712 33.4486 7.26871 32.7804C7.26702 32.3553 7.16033 31.9242 6.67801 31.8229C6.01889 31.6844 5.58264 32.1138 5.5823 32.7543C5.58162 33.429 5.58162 34.1037 5.5823 34.7784C5.5823 34.7897 5.57666 34.7954 5.56537 34.7954L4.79481 34.796C4.78239 34.796 4.77618 34.7898 4.77618 34.7774C4.77505 34.1226 4.77551 33.468 4.77754 32.8136C4.77889 32.4041 4.6783 31.9858 4.25831 31.8459C4.03476 31.7714 3.74042 31.7894 3.52501 31.8883C3.11585 32.0766 3.08266 32.5179 3.08029 32.9105C3.07668 33.5337 3.0769 34.1584 3.08097 34.7845C3.08097 34.7879 3.07961 34.7912 3.0772 34.7936C3.07478 34.796 3.07151 34.7974 3.0681 34.7974L2.28027 34.7957C2.27763 34.7956 2.27514 34.7945 2.27331 34.7927C2.27147 34.7909 2.27045 34.7884 2.27045 34.7859V31.1211C2.27045 31.1091 2.27632 31.1031 2.28806 31.1031H3.06742C3.07826 31.1031 3.08356 31.1086 3.08334 31.1194L3.07758 31.5343C3.07735 31.5494 3.08243 31.5515 3.09282 31.5404Z" fill="#111111"/>
<path d="M11.8903 34.3713C11.8903 34.3514 11.8846 34.3495 11.8731 34.3655C11.5279 34.8441 10.8871 34.9539 10.3479 34.8394C8.91752 34.5356 8.43724 32.7381 9.3365 31.6671C9.92856 30.9619 11.2268 30.7221 11.869 31.5428C11.8706 31.5449 11.8729 31.5464 11.8755 31.5472C11.878 31.548 11.8808 31.5479 11.8833 31.5471C11.8858 31.5462 11.888 31.5446 11.8896 31.5424C11.8912 31.5403 11.892 31.5377 11.892 31.535L11.8903 31.1204C11.8903 31.1089 11.8962 31.1031 11.9079 31.1031H12.6927C12.6963 31.1031 12.6981 31.1049 12.6981 31.1086L12.6995 34.7808C12.6995 34.7907 12.6945 34.7957 12.6846 34.7957L11.9029 34.7977C11.8996 34.7977 11.8965 34.7964 11.8942 34.7942C11.892 34.7919 11.8907 34.7888 11.8907 34.7855L11.8903 34.3713ZM10.8272 34.1436C10.9746 34.1418 11.1202 34.1091 11.2556 34.0473C11.391 33.9855 11.5137 33.8959 11.6166 33.7835C11.7194 33.6712 11.8005 33.5383 11.8551 33.3925C11.9097 33.2467 11.9369 33.0908 11.935 32.9337C11.9311 32.6164 11.8091 32.3136 11.5959 32.0918C11.3827 31.8701 11.0956 31.7475 10.798 31.7512C10.6506 31.753 10.505 31.7857 10.3696 31.8475C10.2341 31.9093 10.1115 31.9989 10.0086 32.1112C9.90573 32.2236 9.82467 32.3565 9.77004 32.5023C9.71541 32.6481 9.68828 32.804 9.6902 32.9611C9.69407 33.2784 9.81604 33.5812 10.0293 33.8029C10.2425 34.0247 10.5295 34.1472 10.8272 34.1436Z" fill="#111111"/>
<path d="M14.432 32.1755C14.4255 32.504 15.0122 32.5321 15.2953 32.5541C15.9097 32.6019 16.6366 32.8624 16.6969 33.5882C16.7501 34.228 16.2833 34.648 15.7004 34.7913C14.9603 34.9728 14.078 34.876 13.4446 34.4245C13.4334 34.4163 13.4314 34.4064 13.4389 34.3947L13.803 33.8114C13.8098 33.8008 13.8183 33.799 13.8287 33.806C14.3141 34.1376 14.92 34.2653 15.4958 34.1213C15.6767 34.0759 15.8688 33.9496 15.8898 33.7545C15.9277 33.405 15.2367 33.3393 15.0105 33.3172C14.3185 33.2498 13.5212 32.9968 13.5859 32.1186C13.635 31.4486 14.2375 31.0984 14.8635 31.0428C15.441 30.9917 16.1062 31.0777 16.6068 31.4005C16.6188 31.4084 16.6215 31.4187 16.6149 31.4313L16.2843 32.0583C16.2792 32.068 16.2717 32.0704 16.262 32.0654C15.8257 31.8412 15.2686 31.6884 14.7788 31.8032C14.5983 31.8456 14.4357 31.9838 14.432 32.1755Z" fill="#111111"/>
<path d="M21.5952 33.3108C21.6445 33.6324 21.7978 33.8696 22.0552 34.0224C22.5717 34.3293 23.285 34.1593 23.7525 33.8138C23.7559 33.8112 23.7597 33.8094 23.7639 33.8084C23.768 33.8074 23.7723 33.8073 23.7765 33.808C23.7807 33.8088 23.7847 33.8103 23.7882 33.8127C23.7918 33.815 23.7948 33.818 23.7972 33.8216L24.1589 34.3649C24.1652 34.3743 24.1638 34.3826 24.1545 34.3896C23.1987 35.1066 21.6237 35.1009 21.01 33.9462C20.6486 33.2664 20.6977 32.3062 21.1783 31.6928C21.8161 30.8789 23.2139 30.7685 23.8998 31.5912C24.2981 32.0688 24.3452 32.6859 24.3198 33.2773C24.3191 33.2917 24.3114 33.299 24.2968 33.299L21.6051 33.2993C21.5974 33.2993 21.5941 33.3031 21.5952 33.3108ZM22.4339 31.7419C21.9776 31.8246 21.7101 32.1403 21.6274 32.589L21.6277 32.5949L21.6303 32.6001L21.6349 32.6036L21.6406 32.605L23.5343 32.6036L23.5383 32.6028L23.5416 32.6004L23.5435 32.5968L23.5438 32.5928C23.4663 32.0058 23.0463 31.6308 22.4339 31.7419Z" fill="#111111"/>
<path d="M26.0089 31.5184C26.0089 31.5218 26.01 31.5251 26.0121 31.5278C26.0141 31.5306 26.017 31.5326 26.0202 31.5336C26.0235 31.5345 26.027 31.5345 26.0302 31.5333C26.0334 31.5322 26.0361 31.53 26.038 31.5272C26.3828 31.0039 26.9315 30.9754 27.4989 31.0625L27.5041 31.0645L27.508 31.0686L27.5098 31.0738L27.5094 31.0794L27.2862 31.8225C27.2853 31.8254 27.284 31.828 27.2821 31.8303C27.2803 31.8326 27.278 31.8345 27.2754 31.8359C27.2729 31.8374 27.27 31.8382 27.2671 31.8386C27.2642 31.8389 27.2612 31.8386 27.2584 31.8378C26.4895 31.6088 26.016 31.9035 26.0133 32.7188C26.0108 33.4048 26.0109 34.0921 26.0136 34.7808C26.0136 34.7905 26.0088 34.7954 25.9991 34.7954L25.2116 34.7964C25.2092 34.7964 25.2068 34.7954 25.2051 34.7937C25.2034 34.792 25.2024 34.7897 25.2024 34.7872V31.1201C25.2024 31.1156 25.2042 31.1113 25.2074 31.1081C25.2106 31.1049 25.2149 31.1031 25.2194 31.1031H25.9889C25.9921 31.1031 25.9952 31.1038 25.9981 31.105C26.001 31.1062 26.0036 31.108 26.0058 31.1103C26.008 31.1126 26.0098 31.1153 26.0109 31.1182C26.0121 31.1212 26.0127 31.1243 26.0126 31.1275L26.0089 31.5184Z" fill="#111111"/>
<path d="M29.0474 33.9486C29.4352 34.2138 29.9734 34.1918 30.3799 33.9767C30.4237 33.9535 30.514 33.8986 30.6509 33.8121C30.6628 33.8047 30.6724 33.8069 30.6796 33.8189L31.0366 34.4235C31.0412 34.4312 31.0428 34.4403 31.0411 34.4492C31.0395 34.458 31.0346 34.466 31.0275 34.4716C30.5448 34.8509 29.9077 34.9532 29.3184 34.8377C28.4388 34.6656 27.8654 34.0495 27.7895 33.1669C27.7048 32.1772 28.2162 31.3064 29.2253 31.0879C29.8563 30.9514 30.5313 31.0324 31.036 31.4405C31.0403 31.4441 31.0433 31.4491 31.0443 31.4546C31.0453 31.4602 31.0442 31.4658 31.0414 31.4706L30.6776 32.0922C30.6722 32.1014 30.6651 32.1032 30.6563 32.0976C30.5797 32.0488 30.5021 32.0016 30.4232 31.956C29.6652 31.5204 28.7318 31.8561 28.599 32.7696C28.539 33.1845 28.6833 33.6997 29.0474 33.9486Z" fill="#111111"/>
<path d="M34.4335 31.5346L34.4332 31.1367C34.4332 31.1145 34.4442 31.1035 34.4664 31.1035L35.2281 31.1031C35.2394 31.1031 35.245 31.1088 35.245 31.1201V34.7879C35.245 34.7901 35.2441 34.7923 35.2425 34.7939C35.2408 34.7955 35.2386 34.7964 35.2362 34.7964L34.4498 34.7954C34.4385 34.7954 34.4328 34.7898 34.4328 34.7788L34.4338 34.3798C34.4338 34.3522 34.4261 34.3497 34.4105 34.3723C33.9915 34.9772 33.0401 34.9901 32.4389 34.6805C31.4803 34.1867 31.1779 32.9586 31.6507 32.0217C31.9606 31.4076 32.5429 31.0547 33.2379 31.0307C33.6894 31.0154 34.1307 31.1783 34.4128 31.5418C34.4266 31.5594 34.4335 31.557 34.4335 31.5346ZM33.4096 34.1443C33.7072 34.1412 33.9913 34.0121 34.1994 33.7855C34.4074 33.5589 34.5225 33.2533 34.5191 32.936C34.5175 32.7788 34.4868 32.6235 34.4289 32.479C34.371 32.3344 34.287 32.2033 34.1816 32.0933C34.0763 31.9833 33.9516 31.8964 33.8149 31.8377C33.6781 31.779 33.5319 31.7496 33.3845 31.7511C33.0869 31.7543 32.8029 31.8833 32.5948 32.1099C32.3867 32.3365 32.2717 32.6421 32.275 32.9595C32.2766 33.1166 32.3073 33.2719 32.3652 33.4165C32.4231 33.5611 32.5071 33.6921 32.6125 33.8021C32.7179 33.9122 32.8425 33.999 32.9793 34.0577C33.116 34.1164 33.2622 34.1458 33.4096 34.1443Z" fill="#111111"/>
<path d="M37.1306 31.5191C37.1305 31.5225 37.1315 31.5259 37.1335 31.5287C37.1355 31.5315 37.1384 31.5335 37.1416 31.5345C37.1449 31.5355 37.1484 31.5354 37.1516 31.5342C37.1549 31.533 37.1576 31.5308 37.1594 31.5279C37.4978 31.0093 38.0424 30.9731 38.6097 31.0615C38.6251 31.0637 38.6305 31.0723 38.626 31.0872L38.4075 31.8192C38.4057 31.8254 38.4014 31.8306 38.3957 31.8338C38.39 31.837 38.3833 31.8378 38.3771 31.8361C37.9892 31.7287 37.5191 31.6942 37.278 32.0776C37.1818 32.2309 37.1337 32.4226 37.1337 32.6527C37.1334 33.3624 37.133 34.0721 37.1323 34.7818C37.1323 34.7922 37.1271 34.7974 37.1167 34.7974L36.3292 34.7957C36.3268 34.7957 36.3245 34.7948 36.3228 34.7931C36.3211 34.7915 36.3201 34.7892 36.3201 34.7869L36.3204 31.1201C36.3204 31.1088 36.3261 31.1031 36.3374 31.1031H37.1167C37.1283 31.1031 37.1339 31.1089 37.1337 31.1204L37.1306 31.5191Z" fill="#111111"/>
</svg>
