<svg width="67" height="18" viewBox="0 0 67 18" fill="none" xmlns="http://www.w3.org/2000/svg">
<g clip-path="url(#clip0_20_2300)">
<path d="M0.0810547 -0.260733H6.28835C6.85265 -0.260733 8.54555 -0.448833 9.29795 2.18457C9.86225 3.87747 10.6147 6.51087 11.7433 10.461H12.1195C13.2481 6.32277 14.1886 3.50127 14.5648 2.18457C15.3172 -0.448833 17.1982 -0.260733 17.9506 -0.260733H23.7817V17.7969H17.7625V7.07517H17.3863L14.1886 17.7969H9.67415L6.47645 7.07517H5.91215V17.7969H0.0810547M26.227 -0.260733H32.2462V10.461H32.8105L36.7606 1.62027C37.513 -0.0726328 39.2059 -0.260733 39.2059 -0.260733H44.8489V17.7969H38.8297V7.07517H38.4535L34.5034 15.9159C33.751 17.6088 31.87 17.7969 31.87 17.7969H26.227M52.9372 12.342V17.7969H47.2942V8.39187H65.728C64.9756 10.6491 62.3422 12.342 59.3326 12.342" fill="#0F754E"/>
<path d="M66.1042 7.26327C66.8566 3.87747 64.5993 -0.260733 59.7088 -0.260733H46.918C47.2942 3.68937 50.68 7.26327 54.2539 7.26327" fill="url(#paint0_linear_20_2300)"/>
</g>
<defs>
<linearGradient id="paint0_linear_20_2300" x1="63.847" y1="-2.70603" x2="48.799" y2="-2.70603" gradientUnits="userSpaceOnUse">
<stop stop-color="#1F5CD7"/>
<stop offset="1" stop-color="#02AEFF"/>
</linearGradient>
<clipPath id="clip0_20_2300">
<rect width="66" height="17.82" fill="white" transform="translate(0.19043)"/>
</clipPath>
</defs>
</svg>
