<svg width="115" height="19" viewBox="0 0 115 19" fill="none" xmlns="http://www.w3.org/2000/svg">
<g clip-path="url(#clip0_20_2280)">
<path d="M51.1637 6.51144L53.5392 4.73608H45.584V15.372H53.5392V13.5951H47.8563V10.8805H52.7134V9.10516H47.8563V6.51144H51.1637Z" fill="#21A038"/>
<path d="M39.5741 8.87808H36.8182V6.51144H41.2271L43.604 4.73608H34.5459V15.372H39.2807C41.9334 15.372 43.4654 14.1525 43.4654 12.0292C43.4654 9.99284 42.0882 8.87808 39.5741 8.87808ZM39.1951 13.5951H36.8182V10.6534H39.1951C40.6417 10.6534 41.3126 11.1415 41.3126 12.1339C41.3126 13.1262 40.5901 13.5951 39.1951 13.5951Z" fill="#21A038"/>
<path d="M59.5123 4.5H55.1904V15.1359H57.4627V12.1234H59.53C62.2845 12.1234 64.0067 10.6621 64.0067 8.3117C64.0067 5.96127 62.2845 4.5 59.5123 4.5ZM59.4607 10.348H57.4465V6.27535H59.4607C60.9249 6.27535 61.7168 7.00673 61.7168 8.3117C61.7168 9.61667 60.9249 10.348 59.4607 10.348Z" fill="#21A038"/>
<path d="M30.6528 13.0731C30.0512 13.4049 29.3788 13.5789 28.6902 13.5789C26.6405 13.5789 25.1601 12.0984 25.1601 10.0621C25.1601 8.02574 26.6405 6.5453 28.6902 6.5453C29.4304 6.52908 30.1544 6.77238 30.756 7.20737L32.3927 5.98939L32.2895 5.8847C31.3429 5.03094 30.0674 4.59595 28.6208 4.59595C27.0549 4.59595 25.6246 5.13563 24.5924 6.1103C23.5587 7.12037 22.9733 8.53003 23.0073 9.99278C22.9896 11.4717 23.5587 12.8991 24.5924 13.9431C25.6762 14.9708 27.1227 15.5459 28.6046 15.5105C30.2399 15.5105 31.6687 14.9355 32.6331 13.8915L31.1703 12.7944L30.6528 13.0731Z" fill="#21A038"/>
<path d="M91.8033 4.75378V15.3882H94.0756V11.0368H98.915V15.3882H101.189V4.75378H98.915V9.12285H94.0756V4.75378H91.8033ZM87.8943 15.3882H90.2875L85.8447 4.75378H83.537L79.0087 15.3882H81.2987L82.2114 13.2472H87.0332L87.8943 15.3882ZM82.9 11.4718L84.6562 7.20742L86.3092 11.4718H82.9ZM106.286 11.0899H107.697L111.176 15.372H114.103L109.454 9.87045L113.517 4.73608H110.918L107.543 9.29685H106.286V4.73608H104.013V15.372H106.286V11.0899ZM71.5003 8.89577V6.52913H77.4413V4.75378H69.2266V15.3882H73.9628C76.614 15.3882 78.1476 14.1702 78.1476 12.0469C78.1476 10.0105 76.7703 8.89577 74.2548 8.89577H71.5003ZM71.5003 13.6128V10.6711H73.8773C75.3223 10.6711 75.9947 11.1592 75.9947 12.1516C75.9947 13.1439 75.2884 13.6305 73.8773 13.6305H71.5003V13.6128Z" fill="#21A038"/>
<path d="M15.896 4.66675C16.3089 5.20643 16.6539 5.79772 16.9459 6.42441L8.99073 12.3594L5.64941 10.2361V7.69546L8.97304 9.80111L15.896 4.66675Z" fill="#21A038"/>
<path d="M2.25642 10.0621C2.25642 9.93967 2.25642 9.83645 2.27411 9.71407L0.259882 9.60938C0.259882 9.74946 0.242188 9.90576 0.242188 10.0444C0.242188 12.4818 1.22423 14.6921 2.8079 16.2935L4.23673 14.8484C3.01433 13.6305 2.25642 11.9421 2.25642 10.0621Z" fill="url(#paint0_linear_20_2280)"/>
<path d="M8.97269 3.27316C9.0936 3.27316 9.19682 3.27316 9.31773 3.29086L9.42095 1.25451C9.28234 1.25451 9.12752 1.23682 8.99038 1.23682C6.5795 1.23682 4.39275 2.22918 2.80762 3.83054L4.23645 5.27559C5.44263 4.03993 7.12951 3.27316 8.97269 3.27316Z" fill="url(#paint1_linear_20_2280)"/>
<path d="M8.97268 16.8508C8.85176 16.8508 8.74855 16.8508 8.62763 16.8331L8.52441 18.8695C8.66302 18.8695 8.81785 18.8872 8.95498 18.8872C11.3659 18.8872 13.5541 17.8948 15.1377 16.2934L13.7089 14.8484C12.5027 16.1018 10.8321 16.8508 8.97268 16.8508Z" fill="url(#paint2_linear_20_2280)"/>
<path d="M12.7608 4.45734L14.4653 3.18628C12.9672 1.96831 11.0562 1.21924 8.97266 1.21924V3.25558C10.3853 3.27328 11.6932 3.70827 12.7608 4.45734Z" fill="url(#paint3_linear_20_2280)"/>
<path d="M17.7207 10.0622C17.7207 9.52249 17.6691 9.0005 17.5821 8.47852L15.705 9.88818C15.705 9.93979 15.705 10.0106 15.705 10.0622C15.705 12.0646 14.8439 13.8577 13.4844 15.0933L14.8439 16.6077C16.6016 15.0063 17.7207 12.6559 17.7207 10.0622Z" fill="#21A038"/>
<path d="M8.97277 16.851C6.99246 16.851 5.21858 15.981 3.99618 14.6052L2.49805 15.981C4.0994 17.774 6.40706 18.8873 8.97277 18.8873V16.851Z" fill="url(#paint4_linear_20_2280)"/>
<path d="M4.47855 5.03096L3.11755 3.5166C1.34367 5.13565 0.242188 7.46838 0.242188 10.0621H2.25642C2.25642 8.07737 3.11755 6.2681 4.47855 5.03096Z" fill="url(#paint5_linear_20_2280)"/>
</g>
<defs>
<linearGradient id="paint0_linear_20_2280" x1="2.5931" y1="16.0459" x2="0.524406" y2="10.0391" gradientUnits="userSpaceOnUse">
<stop offset="0.1444" stop-color="#F2E913"/>
<stop offset="0.3037" stop-color="#E7E518"/>
<stop offset="0.5823" stop-color="#CADB26"/>
<stop offset="0.891" stop-color="#A3CD39"/>
</linearGradient>
<linearGradient id="paint1_linear_20_2280" x1="3.38215" y1="3.60066" x2="8.60902" y2="1.59976" gradientUnits="userSpaceOnUse">
<stop offset="0.0592" stop-color="#0FA8E0"/>
<stop offset="0.5385" stop-color="#0099F9"/>
<stop offset="0.9234" stop-color="#0291EB"/>
</linearGradient>
<linearGradient id="paint2_linear_20_2280" x1="8.40673" y1="17.1552" x2="14.6349" y2="15.7413" gradientUnits="userSpaceOnUse">
<stop offset="0.1226" stop-color="#A3CD39"/>
<stop offset="0.2846" stop-color="#86C339"/>
<stop offset="0.8693" stop-color="#21A038"/>
</linearGradient>
<linearGradient id="paint3_linear_20_2280" x1="8.55878" y1="2.51675" x2="13.7383" y2="4.12212" gradientUnits="userSpaceOnUse">
<stop offset="0.0566" stop-color="#0291EB"/>
<stop offset="0.79" stop-color="#0C8ACB"/>
</linearGradient>
<linearGradient id="paint4_linear_20_2280" x1="3.01024" y1="16.3031" x2="8.57486" y2="18.3917" gradientUnits="userSpaceOnUse">
<stop offset="0.1324" stop-color="#F2E913"/>
<stop offset="0.2977" stop-color="#EBE716"/>
<stop offset="0.5306" stop-color="#D9E01F"/>
<stop offset="0.8023" stop-color="#BBD62D"/>
<stop offset="0.9829" stop-color="#A3CD39"/>
</linearGradient>
<linearGradient id="paint5_linear_20_2280" x1="1.78602" y1="10.3082" x2="4.02217" y2="4.46475" gradientUnits="userSpaceOnUse">
<stop offset="0.0698" stop-color="#A3CD39"/>
<stop offset="0.2599" stop-color="#81C55F"/>
<stop offset="0.9216" stop-color="#0FA8E0"/>
</linearGradient>
<clipPath id="clip0_20_2280">
<rect width="114" height="19" fill="white" transform="translate(0.19043)"/>
</clipPath>
</defs>
</svg>
