<svg width="114" height="25" viewBox="0 0 114 25" fill="none" xmlns="http://www.w3.org/2000/svg">
<g clip-path="url(#clip0_20_2295)">
<path d="M11.2419 19.0999C11.2419 19.0999 11.5744 18.9643 11.6046 18.8664L11.5593 18.7565C11.5283 18.6842 11.5321 18.6059 11.5932 18.5637L11.9513 18.3159L12.5504 18.4312C12.5504 18.4312 12.4417 18.2956 12.4522 18.1149L11.8811 17.9944L11.3417 18.322C11.2476 18.3915 11.1795 18.4905 11.1484 18.6031C11.1174 18.7157 11.125 18.8355 11.1702 18.9432L11.2419 19.1006L11.2419 19.0999ZM15.4778 20.6602C15.5843 20.6557 15.7037 20.6542 15.8329 20.6542C15.8329 20.6542 16.1411 19.7543 16.1585 19.7257C15.9295 19.6192 15.7061 19.5013 15.4891 19.3725C15.5805 19.5095 15.8026 19.6654 15.7588 19.7859L15.4778 20.6602ZM15.6614 10.1616C15.2035 10.6149 14.7646 10.7828 14.3725 10.822C14.3007 10.8298 14.2286 10.8338 14.1564 10.8341H14.1466C14.0024 10.834 13.8585 10.8189 13.7175 10.7889C13.6918 10.8905 13.6593 11.1037 13.7522 11.3055C13.8353 11.4885 14.0038 11.6248 14.2501 11.7159L14.3332 11.7483L14.334 11.8371C14.334 11.8635 14.3536 12.4403 14.9837 12.6007C15.0864 12.4953 15.1801 12.3997 15.2481 12.3191C15.1197 12.0171 15.1877 11.7084 15.3743 11.557C15.3667 11.5894 15.2836 12.3462 15.8918 12.6279L15.9923 12.6753L15.9621 12.7815C15.9522 12.8139 15.7498 13.5466 16.4863 13.8192L16.6163 13.8689L16.5581 13.9947C16.5453 14.0225 16.2567 14.6875 16.9366 15.0655H18.4106V13.896C17.8863 13.832 17.6649 13.411 17.6075 13.1128C17.3634 13.0714 17.1753 12.9667 17.0461 12.7958C16.7364 12.3891 17.0023 12.0163 17.0061 11.996C17.0053 11.999 17.0061 12.3951 17.2509 12.6406C17.3725 12.7581 17.5161 12.85 17.7344 12.8703L17.8409 12.8801L17.85 12.9893C17.8523 13.0127 17.9104 13.5496 18.4106 13.6339L18.4098 11.2467C18.4098 10.8762 18.5179 10.5042 18.6478 10.1608H15.6612L15.6614 10.1616ZM11.6929 11.2558L11.6536 12.7755L11.8274 12.8026L12.2504 11.3439L12.0351 10.895L11.6936 11.2558H11.6929ZM12.61 16.8842C12.5984 16.8838 12.587 16.8811 12.5765 16.8762C12.5659 16.8713 12.5565 16.8642 12.5488 16.8556C12.5411 16.8469 12.5353 16.8367 12.5316 16.8257C12.528 16.8147 12.5267 16.8031 12.5277 16.7916C12.5284 16.7801 12.5313 16.769 12.5364 16.7587C12.5414 16.7484 12.5485 16.7393 12.5571 16.7318C12.5658 16.7243 12.5759 16.7186 12.5868 16.715C12.5977 16.7114 12.6092 16.7101 12.6206 16.711C12.6705 16.7132 12.7052 16.7562 12.7037 16.8028C12.702 16.826 12.6912 16.8475 12.6736 16.8627C12.6561 16.8779 12.6332 16.8856 12.61 16.8842ZM16.3586 18.2299C16.3714 18.2299 16.3865 18.2314 16.4001 18.2352C16.6646 18.3105 16.7303 19.2578 17.1919 19.3422C17.2372 19.352 17.2795 19.3542 17.3158 19.3542C17.4495 19.3542 17.5288 19.2978 17.615 19.1961C17.615 19.1961 17.3823 18.8324 17.2085 18.5861C16.9781 18.2638 16.799 17.8745 16.3692 17.8745C16.3586 17.8745 16.3465 17.8745 16.3352 17.876C16.2533 17.8793 16.1741 17.9059 16.107 17.9528C15.9635 17.8582 15.7955 17.8071 15.6235 17.8059C15.3553 17.8059 15.1453 17.9294 15.0402 17.9294H15.0365L14.077 17.8346C13.9267 17.8195 13.808 17.6689 13.765 17.6101L13.7484 17.5845C13.7484 17.5582 13.7484 17.5318 13.7468 17.5085C13.7144 16.7245 13.1069 16.3894 12.8901 16.3834C12.8901 16.3834 12.9158 16.2343 12.8576 16.1778L12.6461 16.4339L11.951 16.0859L12.4466 16.6643L12.0273 17.135C11.9745 17.1884 11.9813 17.2607 12.0032 17.2916L12.1845 17.4512L12.4142 17.3119C12.4255 17.3036 12.4466 17.3006 12.4723 17.3006C12.5358 17.3006 12.631 17.3172 12.7164 17.3172C12.8108 17.3172 12.8916 17.2976 12.9015 17.2095C12.8727 17.5002 12.6023 18.0055 12.7798 18.4024L12.9113 18.7021L12.0629 18.5801L11.6655 19.2496C11.5431 19.4725 11.5234 19.7135 11.6413 19.8445L11.7901 20.0305C11.7901 20.0305 11.9986 19.8099 12.0447 19.6645L11.9775 19.5907C11.9208 19.5282 11.9238 19.4725 11.9586 19.4055L12.2079 18.9928L13.2089 19.2285L13.2618 19.1381C13.3298 19.0252 13.428 18.992 13.5353 18.992C13.5799 18.992 13.6252 18.9973 13.6721 19.0048C13.8579 19.0417 14.1639 19.0907 14.4699 19.0907C14.8061 19.0907 15.1392 19.0304 15.3168 18.8324C15.6794 19.3693 16.4152 19.4544 16.3571 19.7278L16.1637 20.648C16.2921 20.642 16.4153 20.6337 16.5324 20.6179L16.7167 19.6607C16.7316 19.5795 16.7447 19.4979 16.756 19.416C16.685 19.3437 16.5135 19.1923 16.416 19.0078C16.2868 18.7586 16.3571 18.6283 16.2362 18.3045C16.2362 18.3045 16.274 18.2292 16.3586 18.2292L16.3586 18.2299ZM25.2439 15.0971C24.4657 14.7131 23.9747 13.6964 23.8553 13.3304C23.7269 15.3471 22.741 16.7462 21.5888 18.0926C20.9905 18.7915 20.782 19.4708 20.782 19.4708C20.782 19.4708 20.8976 18.7011 21.4143 18.0746C22.4894 16.7854 23.5108 15.1797 23.5871 13.3226C23.6393 12.0273 23.3061 10.9768 22.7848 10.111C23.0764 11.0124 23.0349 12.1171 22.0459 13.1479C22.0459 13.1479 24.0155 10.7923 21.2625 8.37648C20.161 7.45775 18.9552 6.88991 18.3349 6.48778C20.5765 7.21826 21.6718 6.41397 21.6718 6.41397C20.9556 7.03373 20.0286 7.0232 19.4536 6.93359C19.61 7.00965 19.7725 7.08947 19.9462 7.18211C21.8372 8.20778 23.5358 9.89534 23.8259 12.2314V12.2133C24.2648 14.5079 25.2439 15.0966 25.2439 15.0966L25.2439 15.0971ZM25.8196 12.4236C25.837 12.4251 25.8521 12.4251 25.8695 12.4251C26.9234 12.4251 27.28 11.2978 27.28 11.2978H27.2596C27.0661 11.2978 25.4993 11.2526 24.3916 9.8466C23.6633 8.92261 23.0657 8.11002 21.8855 7.79072L21.7692 7.76963L21.7442 7.6514C21.7118 7.47142 21.8349 7.30272 22.1159 7.12125C23.744 6.05643 22.6372 4.6979 22.6372 4.6979C22.6372 4.6979 22.1734 5.78381 21.133 5.78381L21.0552 5.7823C20.9374 5.77627 20.8233 5.77251 20.7085 5.74766L20.5166 5.71C20.5166 5.71 20.8135 4.90421 20.0973 4.16547C19.5586 3.60667 18.9021 3.5118 18.5236 3.5118C18.3324 3.5118 18.2115 3.53665 18.2115 3.53665C18.5711 4.0058 18.831 4.78523 18.4155 5.2657C18.0567 5.67839 17.1803 5.69873 17.1803 6.31473C17.1803 6.5753 17.4243 6.87954 17.8625 7.15289C19.1801 7.98128 20.4878 9.08075 21.0317 10.5544C21.7116 12.3918 20.9456 13.6118 19.8531 14.3114C19.8531 14.3114 20.1961 14.6262 20.6925 14.6669C20.7937 14.6766 20.8927 14.6812 20.9849 14.6812C22.0342 14.6812 22.5767 14.1894 22.5767 14.1894C22.5767 14.1894 22.4868 14.8687 21.942 15.499C21.4374 16.0804 20.7763 16.4237 19.7677 16.4381C19.7677 16.4381 19.736 16.905 20.1825 17.3101C20.4688 17.5654 21.1284 17.649 21.1284 17.649C21.1284 17.649 19.8924 17.8982 19.7556 19.7214C19.6816 20.7094 19.4293 21.0521 19.4293 21.0521H19.4512C22.3191 21.0521 22.2457 18.5956 22.2457 18.5956C22.2457 18.5956 22.4452 19.3231 23.2452 19.5128C23.3419 19.5384 23.4454 19.5482 23.5437 19.5482C23.8005 19.5482 24.0249 19.488 24.0249 19.488C24.0249 19.488 23.6056 18.6054 24.0211 17.3711C24.3664 16.3462 24.3105 15.5871 24.3105 15.5871C24.3105 15.5871 24.6965 16.1707 25.6553 16.176H25.6651C25.8916 16.1795 26.1152 16.126 26.3154 16.0204C26.5156 15.9148 26.6859 15.7606 26.8104 15.572C24.8983 14.7791 25.0872 12.2208 25.0872 12.2208C25.0872 12.2208 25.335 12.4061 25.8192 12.4241L25.8196 12.4236ZM6.71387 18.0928C5.56176 16.7463 4.57583 15.3472 4.44589 13.3305C4.32728 13.6973 3.83698 14.7139 3.05959 15.0973C3.05959 15.0973 4.0372 14.5083 4.47612 12.2139V12.232C4.76698 9.896 6.46533 8.20847 8.35631 7.18355C8.53008 7.08942 8.69327 7.01035 8.84816 6.93503C8.27397 7.0239 7.34624 7.03444 6.6308 6.41542C6.6308 6.41542 7.72625 7.21894 9.96682 6.48847C9.34731 6.89061 8.14154 7.45842 7.04062 8.37717C4.28697 10.793 6.25643 13.1486 6.25643 13.1486C5.26673 12.1169 5.22594 11.0137 5.51756 10.1117C4.99627 10.9777 4.66234 12.0282 4.71673 13.3244C4.79153 15.1807 5.81218 16.7861 6.88501 18.0764C7.40478 18.7014 7.52188 19.4711 7.52188 19.4711C7.52188 19.4711 7.31034 18.7926 6.7135 18.0937L6.71387 18.0928ZM7.17473 17.6485C7.17473 17.6485 7.8343 17.5657 8.1206 17.3096C8.56635 16.9052 8.53539 16.4383 8.53539 16.4383C7.52605 16.424 6.86575 16.0806 6.35879 15.4993C5.81635 14.869 5.72569 14.1897 5.72569 14.1897C5.72569 14.1897 6.26813 14.6814 7.31602 14.6814C7.41045 14.6814 7.50867 14.6769 7.60915 14.6671C7.9192 14.6358 8.21254 14.5119 8.45077 14.3117C7.35681 13.6121 6.59076 12.3921 7.26994 10.5538C7.8139 9.08159 9.1209 7.98142 10.4402 7.15236C10.8776 6.87974 11.1209 6.5755 11.1209 6.31495C11.1209 5.69895 10.246 5.67862 9.88718 5.26592C9.47167 4.78546 9.73231 4.00605 10.0912 3.53687C10.0912 3.53687 9.97104 3.51202 9.77915 3.51202C9.4014 3.51202 8.74489 3.6069 8.20546 4.16569C7.48774 4.90522 7.78615 5.71098 7.78615 5.71098L7.59426 5.74863C7.48018 5.77198 7.36459 5.77649 7.24674 5.78327L7.17119 5.78403C6.12861 5.78403 5.66548 4.69887 5.66548 4.69887C5.66548 4.69887 4.5602 6.05665 6.18826 7.12148C6.46777 7.30296 6.59093 7.47242 6.55843 7.65162L6.5335 7.7691L6.41488 7.79018C5.23707 8.11024 4.63948 8.9228 3.90978 9.84683C2.80223 11.2528 1.23696 11.298 1.04264 11.298H1.02148C1.02148 11.298 1.37881 12.4254 2.4335 12.4254C2.45012 12.4254 2.46523 12.4254 2.48336 12.4238C2.96762 12.4065 3.21619 12.2213 3.21619 12.2213C3.21619 12.2213 3.40355 14.7793 1.49217 15.5725C1.49217 15.5725 1.84045 16.1772 2.63827 16.1772H2.64734C3.60681 16.1712 3.99212 15.5875 3.99212 15.5875C3.99212 15.5875 3.93621 16.3474 4.27994 17.3715C4.69545 18.6066 4.27843 19.4877 4.27843 19.4877C4.27843 19.4877 4.5013 19.5479 4.75892 19.5479C4.85864 19.5479 4.96064 19.5389 5.05658 19.5133C5.85588 19.3235 6.05608 18.5961 6.05608 18.5961C6.05608 18.5961 5.9828 21.0525 8.85118 21.0525H8.87233C8.87233 21.0525 8.62075 20.7099 8.54748 19.7219C8.41149 17.8995 7.17398 17.6487 7.17398 17.6487L7.17473 17.6485ZM13.5036 8.59648H14.8559V9.05961C14.6973 8.86532 14.3875 8.90523 14.3875 8.90523V9.57321C14.3875 9.57321 14.3981 9.90156 14.5144 10.0439H13.8451C13.9622 9.90154 13.972 9.57321 13.972 9.57321V8.90523C13.972 8.90523 13.6637 8.86532 13.5036 9.05961L13.5036 8.59648ZM12.0304 8.66576C12.0772 8.71622 12.1233 8.77119 12.1679 8.82616C12.1785 8.83896 12.1883 8.85026 12.1989 8.86532C12.2404 8.91955 12.282 8.97828 12.322 9.03702L12.3492 9.07693C12.3968 9.14923 12.4421 9.22378 12.4874 9.30135C12.9015 10.0145 13.5633 10.4407 14.1503 10.4415C14.7388 10.4407 15.3999 10.0145 15.8146 9.30135C15.8607 9.22228 15.9068 9.14546 15.9552 9.07317C16.0103 8.98894 16.0693 8.90727 16.1319 8.82842C16.178 8.77119 16.2256 8.71546 16.274 8.66425C16.2823 8.65672 16.2891 8.64844 16.2974 8.64166C16.5089 8.42628 16.759 8.26212 17.0884 8.171L16.9418 8.0859H16.9343L16.351 7.74851L15.7534 7.40585L14.1548 8.2749L14.1503 8.27114L14.148 8.2749L12.5494 7.40585L11.9511 7.74851L11.3678 8.0859H11.361L11.2137 8.171C11.5423 8.26136 11.7932 8.42403 12.0047 8.64015C12.0138 8.64768 12.0198 8.65823 12.0304 8.66576ZM14.1503 3.23471C13.1606 3.23547 12.4179 3.55928 12.2563 3.94108L14.1503 4.68663L16.0451 3.94108C15.8849 3.55928 15.1422 3.23547 14.1503 3.23471ZM14.1707 22.9944H14.1329C13.5331 22.9982 12.7058 22.8754 12.3084 22.7587L11.8294 24.0532C12.1452 24.1654 13.215 24.3808 14.1525 24.3808C15.0886 24.3808 16.1591 24.1654 16.4742 24.0532L15.996 22.7594C15.5963 22.8754 14.7705 22.9982 14.1707 22.9944ZM17.7946 21.7066C17.438 21.9084 16.6425 22.2112 16.1794 22.3512L16.5677 23.4206C17.2839 23.2248 17.8755 22.9966 18.3635 22.7518L17.5566 22.4845L17.7946 21.7066ZM10.508 21.7066L10.7467 22.4845L9.9391 22.7519C10.4264 22.9966 11.0202 23.2248 11.7341 23.4199L12.1232 22.3505C11.6609 22.2105 10.8638 21.9084 10.508 21.7066ZM14.1501 1.99743C14.8973 1.99743 15.6286 2.17591 16.1922 2.48843C16.2435 2.31673 16.3153 2.10738 16.4128 1.88825L16.1997 1.91385L15.9768 1.93644L15.8824 1.73387L15.5968 1.13368L15.0786 1.40329L14.8761 1.50571L14.7144 1.34756L14.1501 0.790283L13.5872 1.34756L13.4263 1.50571L13.2246 1.40329L12.7033 1.13368L12.4215 1.73387L12.3256 1.93719L12.102 1.91385L11.8904 1.88825C11.9879 2.10739 12.0589 2.31676 12.111 2.48843C12.6761 2.1759 13.4075 1.99743 14.1509 1.99743H14.1501ZM25.5466 8.93859C25.6441 8.97173 25.7423 8.98679 25.8397 8.98679C26.2628 8.98679 26.6708 8.71342 26.8106 8.40165C26.8106 8.40165 26.0362 8.35496 25.2036 7.51076C24.9392 7.23814 24.6582 7.15606 24.4179 7.15606C24.044 7.15606 23.7629 7.35261 23.7629 7.35261C24.7692 7.88729 24.974 8.74581 25.5466 8.93859ZM2.46265 8.98604C2.56086 8.98604 2.65907 8.97173 2.7535 8.93784C3.32769 8.74505 3.53469 7.8873 4.53872 7.35337C4.53872 7.35337 4.25769 7.15607 3.88598 7.15607C3.64422 7.15607 3.36393 7.2374 3.098 7.51152C2.26621 8.35495 1.49256 8.40241 1.49256 8.40241C1.63157 8.71343 2.04028 8.9868 2.46262 8.9868L2.46265 8.98604ZM13.6417 5.65235V6.08913L13.5578 6.04997C13.554 6.04695 13.4301 6.01985 13.2163 5.84965C12.862 5.57552 12.8552 5.3225 12.8552 5.3225L13.6409 5.65236L13.6417 5.65235ZM14.0118 7.69843V4.98575L12.2833 4.39985L12.7396 7.02813L14.0126 7.69838L14.0118 7.69843ZM14.6616 5.65235L15.4473 5.32249C15.4473 5.32249 15.4412 5.57553 15.0854 5.84964C14.8716 6.01908 14.7484 6.04694 14.7447 6.04996L14.6616 6.08836L14.6616 5.65235ZM15.5629 7.02897L16.0169 4.40068L14.2891 4.98583V7.69852L15.5629 7.02827L15.5629 7.02897ZM11.567 13.9866C11.7355 14.0468 11.9395 14.0596 12.0445 14.0596C12.0483 14.0468 12.0543 14.031 12.0596 14.0115C12.0679 13.9813 12.077 13.9497 12.0838 13.9166C12.1132 13.766 12.1231 13.5965 12.1261 13.4866C12.0295 13.4293 11.9507 13.3464 11.8987 13.2471C11.8345 13.1123 11.743 13.049 11.6093 13.049C11.4356 13.049 11.249 13.1545 11.1681 13.2027C11.1047 13.5777 11.382 13.9181 11.5671 13.9858L11.567 13.9866ZM15.3912 12.5475C15.0708 12.8962 14.4415 13.5039 14.4113 13.534L14.3735 13.5716L12.3866 13.5408C12.3849 13.7046 12.3636 13.8677 12.3231 14.0265L12.3072 14.089L14.6696 14.5137C14.9152 14.342 15.5913 13.8488 15.8543 13.6552C15.6631 13.3766 15.645 13.046 15.688 12.8141C15.5746 12.7426 15.4742 12.6525 15.3912 12.5475Z" fill="#FFFFFE"/>
<path d="M18.4108 15.3232H9.89251V18.5229C9.89251 19.8317 10.8407 20.6503 12.2406 20.6503C13.4093 20.6503 13.7175 20.6955 14.1519 21.127C14.4519 20.828 14.6997 20.7173 15.2096 20.6752L15.221 20.6262L15.4892 19.7971C15.4741 19.7783 15.0359 19.2805 15.0359 19.2805C14.8621 19.3385 14.7155 19.3483 14.4692 19.3483C14.2177 19.3483 13.9328 19.3182 13.6239 19.2609C13.5949 19.2541 13.5652 19.2506 13.5355 19.2504C13.4977 19.2504 13.4954 19.2534 13.4849 19.2722L13.432 19.3603L13.3338 19.5215L13.1502 19.4786L12.3327 19.2865L12.2201 19.471L12.2375 19.4914L12.3365 19.6006L12.2927 19.7437C12.2322 19.9297 12.0373 20.1473 11.9776 20.2075L11.7736 20.4259L11.587 20.1917L11.4473 20.0163C11.3 19.8521 11.266 19.6006 11.3491 19.337C11.3466 19.3388 11.3438 19.3398 11.3407 19.34L11.1103 19.4356L11.0068 19.2097L10.9335 19.0508C10.8632 18.8883 10.8505 18.7066 10.8976 18.5359C10.9448 18.3652 11.0488 18.2156 11.1927 18.1118L11.85 17.7405L12.477 17.8633C12.4921 17.803 12.5148 17.5891 12.5322 17.5342C12.5201 17.5327 12.5088 17.5304 12.4967 17.5304L12.1356 17.6644L11.788 17.425C11.788 17.425 11.652 17.2939 11.7752 17.1629L12.1114 16.6531L11.2577 15.5837L12.57 16.1214L12.6576 16.0137L12.8344 15.8013L13.0354 15.9926C13.0882 16.0441 13.1249 16.1098 13.1411 16.1816C13.5022 16.3225 14.1505 16.7374 14.2079 17.4121L14.0054 17.4927V17.498C14.0515 17.553 14.09 17.5756 14.1021 17.5778L15.0389 17.6697C15.0631 17.6652 15.0918 17.6546 15.125 17.6456C15.2421 17.6057 15.4167 17.5477 15.6237 17.5477C15.7929 17.5477 15.9561 17.5869 16.1125 17.6606C16.1707 17.6381 16.2409 17.6222 16.324 17.617L16.3694 17.6155C16.8702 17.6155 17.1196 17.9897 17.3198 18.2887C17.353 18.3406 17.3862 18.3888 17.421 18.437C17.5963 18.684 17.8252 19.0447 17.8343 19.0606L17.9378 19.221L17.8108 19.3686C17.7141 19.4815 17.5668 19.6133 17.316 19.6133C17.2592 19.6129 17.2025 19.6071 17.1468 19.596C17.0954 19.5862 17.0452 19.5708 16.9972 19.5501C16.9895 19.6032 16.9807 19.6562 16.9707 19.709L16.8068 20.5652C17.7889 20.3242 18.413 19.5832 18.413 18.5229L18.4108 15.3232ZM9.89251 15.0656H16.5182C16.1873 14.7237 16.1926 14.2922 16.2765 14.0113C16.1871 13.9685 16.104 13.9138 16.0294 13.8486C15.7703 14.0392 14.98 14.6137 14.7738 14.7583L14.7292 14.7884L12.1288 14.3185H12.0759C12.014 14.3185 11.9226 14.3163 11.8228 14.3035C11.8122 14.3511 11.7879 14.3946 11.7529 14.4287C11.718 14.4628 11.6738 14.4861 11.6259 14.4958C11.5779 14.5054 11.5282 14.501 11.4827 14.483C11.4372 14.4651 11.3979 14.4344 11.3695 14.3946C11.3496 14.3675 11.3354 14.3366 11.3276 14.3039C11.3198 14.2712 11.3186 14.2372 11.3242 14.2041L11.334 14.1476C11.0666 13.9593 10.818 13.5376 10.9283 13.0933L10.9389 13.0466L10.9767 13.0195C11.0148 12.9936 11.0541 12.9694 11.0945 12.9472L10.9057 12.9171C10.8721 12.9113 10.8421 12.8928 10.8221 12.8654C10.8021 12.8379 10.7936 12.8038 10.7984 12.7702C10.8105 12.6994 10.8762 12.6497 10.9465 12.6625L11.396 12.7333L11.4375 11.1511L12.1069 10.4432L12.5254 11.3221L12.0842 12.8448L12.4816 12.9073C12.5156 12.9128 12.5459 12.9316 12.566 12.9594C12.5861 12.9872 12.5944 13.0218 12.5889 13.0556C12.584 13.0856 12.5686 13.1129 12.5453 13.1325C12.522 13.1521 12.4925 13.1628 12.462 13.1626L12.4416 13.1618L12.1175 13.1091C12.122 13.1196 12.128 13.1249 12.1326 13.1355C12.1686 13.1978 12.2229 13.2477 12.2882 13.2785L14.2699 13.3109C14.3537 13.2288 14.5615 13.0255 14.7761 12.8101C14.5893 12.7418 14.4253 12.623 14.3026 12.4669C14.1798 12.3109 14.1031 12.1238 14.081 11.9268C13.809 11.8108 13.6201 11.6376 13.5159 11.4117C13.389 11.1316 13.4343 10.8514 13.4683 10.7151C13.2039 10.6195 12.9259 10.4433 12.6418 10.1616H9.65625C9.78469 10.505 9.89272 10.877 9.89272 11.2468V15.0648L9.89251 15.0656Z" fill="#FFE52B"/>
<path d="M14.1517 4.68777L12.2577 3.94071C12.4186 3.55966 13.1612 3.23585 14.1517 3.23509C15.1429 3.23585 15.8855 3.55966 16.0465 3.94071L14.1517 4.68777ZM15.5637 7.02905L14.2907 7.6993V4.98526L16.0185 4.39936L15.5637 7.02764L15.5637 7.02905ZM16.3524 7.74898L16.9342 8.08637H16.9425L17.0891 8.17146C16.7604 8.26183 16.5088 8.42676 16.2981 8.64213L16.2754 8.66472C16.2257 8.71758 16.1781 8.77235 16.1326 8.82889L16.1062 8.86353C16.0608 8.92152 16.0178 8.981 15.9777 9.04276L15.9558 9.07363C15.9068 9.1482 15.8602 9.2243 15.8161 9.30181C15.4005 10.015 14.7395 10.4412 14.1517 10.4427C13.5639 10.4412 12.9021 10.015 12.4881 9.30181C12.4441 9.22576 12.398 9.15092 12.3499 9.0774L12.3227 9.03749C12.2832 8.97933 12.2424 8.92208 12.2003 8.86579C12.1897 8.85073 12.1799 8.83943 12.1693 8.82663C12.1249 8.7717 12.0788 8.71821 12.031 8.66622C12.0212 8.65869 12.0144 8.6489 12.0054 8.64062C11.7895 8.41531 11.516 8.25308 11.2144 8.17147L11.3624 8.08637H11.3685L11.9525 7.74898L12.5501 7.40632L14.1487 8.27537L14.1517 8.27236L14.1562 8.27537L15.7541 7.40632L16.3524 7.74898ZM18.6491 10.1618C18.5184 10.5052 18.4104 10.8772 18.4104 11.247L18.4119 13.6342C17.9125 13.5514 17.8528 13.0137 17.8513 12.9903L17.8423 12.8811L17.7342 12.8713C17.551 12.8552 17.3798 12.7737 17.2522 12.6417C17.0067 12.3969 17.0067 12.0008 17.0067 11.997C17.0036 12.0174 16.7377 12.3886 17.046 12.7953C17.1759 12.967 17.3648 13.0732 17.608 13.1146C17.6655 13.412 17.8875 13.833 18.4119 13.8978V15.065H16.9379C16.258 14.6878 16.5458 14.0235 16.5594 13.9949L16.6169 13.8684L16.4869 13.8195C15.7503 13.5469 15.9536 12.8134 15.9634 12.7818L15.9936 12.6748L15.8924 12.6281C15.285 12.3465 15.3673 11.5889 15.3756 11.5573C15.1883 11.7087 15.121 12.0167 15.2495 12.3201C15.18 12.4 15.0863 12.4956 14.9843 12.601C14.8068 12.5624 14.647 12.4666 14.5296 12.3285C14.4122 12.1903 14.3436 12.0175 14.3345 11.8367L14.3338 11.7478L14.2507 11.7162C14.0051 11.6258 13.8367 11.4887 13.7528 11.3057C13.6599 11.1032 13.6924 10.8916 13.718 10.7884C13.8592 10.8176 14.003 10.8327 14.1472 10.8336H14.157C14.2303 10.8336 14.3021 10.8291 14.3731 10.8223C14.7659 10.7831 15.2041 10.6152 15.662 10.1618L18.6491 10.1618ZM16.8072 20.5654L16.9719 19.7092L16.9984 19.5511C17.1 19.5908 17.208 19.6119 17.3172 19.6136C17.568 19.6136 17.7146 19.481 17.812 19.3688L17.9374 19.222L17.8347 19.0608C17.8256 19.045 17.5967 18.6843 17.4214 18.4373C17.3866 18.3885 17.3531 18.3388 17.3209 18.2882C17.1207 17.99 16.8707 17.6157 16.369 17.6157L16.3245 17.6172C16.2522 17.6211 16.1809 17.6355 16.1129 17.6601C15.9603 17.5874 15.7933 17.5493 15.6241 17.5487C15.4539 17.5528 15.2856 17.5853 15.1262 17.6451C15.093 17.6549 15.0628 17.6654 15.0393 17.6699L14.1025 17.578C14.0905 17.575 14.0527 17.5524 14.0058 17.4982V17.4929L14.2083 17.4124C14.1516 16.7376 13.5027 16.3227 13.1416 16.1819C13.1255 16.1097 13.0888 16.0438 13.0358 15.9921L12.8348 15.8016L12.658 16.0132L12.5712 16.1216L11.2581 15.5832L12.1118 16.6533L11.7756 17.1631C11.6517 17.2934 11.7885 17.4252 11.7885 17.4252L12.136 17.6647L12.4971 17.5299C12.5092 17.5299 12.5198 17.5329 12.5326 17.5344C12.5152 17.5894 12.4926 17.804 12.4775 17.8635L11.8512 17.7407L11.1939 18.112C10.8546 18.3605 10.8086 18.7702 10.9347 19.0511L11.0073 19.2107L11.1108 19.4359L11.3412 19.341C11.345 19.3395 11.348 19.3387 11.3502 19.3365C11.2671 19.6008 11.3011 19.8516 11.4485 20.0165L11.5882 20.192L11.7741 20.4269L11.9781 20.2078C12.0385 20.1475 12.2334 19.9299 12.2931 19.7431L12.3369 19.6008L12.238 19.4916L12.2213 19.4713L12.3331 19.2868L13.1506 19.4796L13.3349 19.5217L13.4332 19.3598L13.486 19.2725C13.4959 19.2536 13.4981 19.2506 13.5359 19.2506C13.5654 19.2506 13.5941 19.2536 13.625 19.2612C13.9038 19.316 14.1871 19.345 14.4712 19.3478C14.7152 19.3478 14.8625 19.3387 15.0363 19.2808C15.0363 19.2808 15.4752 19.7778 15.4903 19.7973L15.2214 20.6257L15.2093 20.6754C14.7008 20.7169 14.453 20.8283 14.1531 21.1273C13.718 20.6965 13.4104 20.6506 12.2417 20.6506C10.8418 20.6506 9.89291 19.832 9.89291 18.5224V15.3235H18.4117L18.4132 18.5224C18.4132 19.5835 17.7894 20.3237 16.8072 20.5654ZM11.5602 18.7566L11.6048 18.8673C11.5746 18.9637 11.2422 19.1007 11.2422 19.1007L11.1711 18.9433C11.1258 18.8355 11.118 18.7156 11.1491 18.6028C11.1802 18.49 11.2483 18.3909 11.3426 18.3213L11.8813 17.9937L12.4532 18.1142C12.4419 18.2957 12.5507 18.4312 12.5507 18.4312L11.9523 18.3168L11.5935 18.5638C11.533 18.606 11.5285 18.6843 11.5602 18.7566ZM16.7165 19.6603L16.5329 20.6174C16.415 20.634 16.2911 20.643 16.1642 20.6475L16.3576 19.7288C16.415 19.4547 15.6807 19.3696 15.3173 18.8327C15.1398 19.0315 14.8066 19.091 14.4712 19.091C14.1644 19.091 13.8592 19.042 13.6726 19.0051C13.6277 18.9973 13.5822 18.993 13.5366 18.9923C13.4286 18.9923 13.3311 19.0254 13.2631 19.1392L13.2102 19.2295L12.2085 18.9938L11.9591 19.4058C11.9244 19.4728 11.9214 19.5285 11.978 19.591L12.046 19.6648C11.9992 19.8102 11.7907 20.0308 11.7907 20.0308L11.6418 19.8448C11.524 19.7138 11.5436 19.4728 11.666 19.2499L12.0634 18.5796L12.9118 18.7024L12.7804 18.4019C12.6028 18.005 12.8733 17.5005 12.902 17.2098C12.8922 17.2979 12.8113 17.3175 12.7177 17.3175C12.6315 17.3175 12.5363 17.3017 12.4729 17.3017C12.4479 17.3017 12.426 17.304 12.4147 17.3122L12.185 17.4515L12.0037 17.2919C11.9818 17.2618 11.975 17.1887 12.0279 17.1345L12.4479 16.6646L11.9523 16.0862L12.6459 16.4349L12.8582 16.1781C12.9163 16.2353 12.8906 16.3837 12.8906 16.3837C13.1075 16.3897 13.7157 16.7248 13.7474 17.508C13.7497 17.5321 13.7497 17.5585 13.7497 17.5848L13.7655 17.6104C13.8086 17.6699 13.9272 17.8213 14.0775 17.8349L15.037 17.9297H15.0408C15.1465 17.9297 15.3558 17.8062 15.624 17.8062C15.7713 17.8062 15.9338 17.8439 16.1075 17.9531C16.1075 17.9531 16.1952 17.8838 16.3365 17.8763C16.347 17.8748 16.3591 17.8748 16.3689 17.8748C16.7996 17.8748 16.9786 18.2633 17.2098 18.5864C17.3836 18.8319 17.6155 19.1964 17.6155 19.1964C17.5301 19.2981 17.4501 19.3545 17.3163 19.3545C17.2747 19.3547 17.2332 19.3507 17.1924 19.3425C16.7316 19.2574 16.6643 18.3108 16.4014 18.2355C16.3876 18.2319 16.3734 18.2301 16.3591 18.2302C16.2745 18.2302 16.2375 18.3055 16.2375 18.3055C16.3584 18.6286 16.2874 18.7589 16.4173 19.0081C16.514 19.1926 16.6855 19.344 16.7565 19.4163C16.7565 19.4163 16.7376 19.5564 16.7165 19.6611L16.7165 19.6603ZM15.8333 20.6543C15.7049 20.6543 15.5855 20.6558 15.4782 20.6603L15.7593 19.786C15.8031 19.6648 15.581 19.5089 15.4895 19.3718C15.6278 19.4592 15.9867 19.6504 16.1597 19.7258C16.0475 20.0341 15.9388 20.3436 15.8333 20.6543ZM11.6538 12.7757L11.6938 11.256L12.0353 10.8953L12.2499 11.3441L11.8268 12.8028L11.653 12.7765L11.6538 12.7757ZM11.8993 13.2471C11.9512 13.3461 12.0297 13.4288 12.126 13.4858C12.1234 13.6303 12.1095 13.7743 12.0844 13.9166C12.0769 13.9497 12.0693 13.9806 12.0595 14.0115C12.055 14.0311 12.0489 14.0469 12.0452 14.0597C11.9401 14.0597 11.7354 14.0469 11.5684 13.9859C11.3826 13.9181 11.1053 13.5777 11.1695 13.2027C11.2496 13.1537 11.4355 13.0491 11.6099 13.0491C11.7437 13.0491 11.8351 13.1123 11.8993 13.2471ZM15.8551 13.6553C15.5929 13.8488 14.916 14.3421 14.6705 14.5138L12.3073 14.089L12.3239 14.0265C12.3542 13.9038 12.3867 13.7366 12.3882 13.54L14.3744 13.5717L14.4121 13.534C14.4424 13.5039 15.0717 12.8962 15.392 12.5475C15.4683 12.6432 15.5635 12.7335 15.6889 12.8134C15.6466 13.0468 15.664 13.3767 15.8551 13.6553ZM12.6421 10.162C12.9269 10.4437 13.2041 10.6191 13.4686 10.7155C13.4346 10.8511 13.3893 11.1327 13.5162 11.4121C13.6204 11.638 13.8093 11.8112 14.0821 11.9272C14.1123 12.2058 14.2883 12.6253 14.7771 12.8105C14.5626 13.0259 14.354 13.2292 14.2709 13.3106L12.2885 13.2797C12.223 13.2485 12.1687 13.198 12.1329 13.1351C12.1291 13.1253 12.1223 13.12 12.1178 13.1095L12.4419 13.1622L12.4623 13.163C12.4928 13.1632 12.5223 13.1525 12.5456 13.1329C12.5689 13.1133 12.5843 13.086 12.5892 13.056C12.5947 13.0223 12.5865 12.9878 12.5666 12.96C12.5466 12.9322 12.5165 12.9134 12.4827 12.9077L12.0845 12.8444L12.5257 11.3225L12.1079 10.4436L11.4378 11.1515L11.397 12.7337L10.9467 12.6622C10.8772 12.6486 10.8108 12.6998 10.7979 12.7699C10.7929 12.8038 10.8014 12.8383 10.8216 12.866C10.8418 12.8937 10.8721 12.9125 10.9059 12.9182L11.0948 12.9468C11.0268 12.9852 10.9823 13.0161 10.977 13.0199L10.9392 13.047L10.9286 13.0937C10.8191 13.538 11.0669 13.9597 11.3343 14.148L11.3245 14.2045C11.3139 14.2722 11.329 14.34 11.3698 14.395C11.393 14.4284 11.4241 14.4556 11.4604 14.4742C11.4966 14.4929 11.5368 14.5024 11.5776 14.5019C11.6348 14.5015 11.6903 14.4817 11.7348 14.4459C11.7794 14.4101 11.8105 14.3603 11.8231 14.3046C11.9228 14.3159 12.0143 14.3189 12.0762 14.3189H12.1299L14.7295 14.7881L14.7741 14.7587C14.9811 14.6141 15.7714 14.0395 16.0297 13.849C16.1015 13.91 16.1808 13.9658 16.2768 14.0117C16.1929 14.2926 16.1876 14.7241 16.5185 15.066H9.89282V11.2479C9.89282 10.8774 9.78479 10.5054 9.65636 10.162L12.6421 10.162ZM12.284 4.40103L14.0133 4.98617V7.69886L12.7403 7.02862L12.284 4.40033V4.40103ZM16.5025 4.07344C16.5025 3.41148 15.3866 2.81581 14.1552 2.81581H14.1476C12.9162 2.81581 11.8011 3.41148 11.8011 4.07344L11.8253 4.2361L12.3171 7.0549L11.823 7.34105L10.5455 8.0866H10.55C10.55 8.0866 10.263 8.2342 10.1292 8.32457C9.64268 8.66196 9.53915 9.15444 9.82172 9.35778C9.89123 8.95639 10.2093 8.53692 10.8039 8.53692C11.233 8.53692 11.5593 8.75832 11.8238 9.08891C11.8918 9.1725 11.956 9.26212 12.0157 9.35777C12.0897 9.47901 12.1645 9.58595 12.2378 9.68835H8.94537C9.18712 10.1741 9.41755 10.6884 9.41755 11.2472V18.5234C9.41755 20.2841 10.7737 21.1245 12.2408 21.1245C13.3748 21.1245 13.5274 21.0733 14.153 21.6953C14.7755 21.0733 14.9288 21.1245 16.0636 21.1245C17.5315 21.1245 18.8855 20.2841 18.8855 18.5234V11.2472C18.8855 10.6884 19.1159 10.1741 19.3592 9.68835H16.0652C16.1392 9.58594 16.2133 9.479 16.2873 9.35777C16.3477 9.26213 16.412 9.17251 16.4784 9.08891C16.7444 8.75681 17.0707 8.53692 17.4999 8.53692C18.0944 8.53692 18.4117 8.95639 18.482 9.35778C18.7645 9.15445 18.6626 8.66193 18.1723 8.32457C18.0423 8.2342 17.7537 8.0866 17.7537 8.0866H17.759L16.4784 7.34105L15.9874 7.0549L16.4784 4.2361L16.5025 4.07344ZM3.09855 7.51189C3.36449 7.23851 3.64476 7.1557 3.88653 7.1557C4.25822 7.1557 4.54003 7.35376 4.54003 7.35376C3.53524 7.88844 3.32822 8.74542 2.75406 8.93899C2.66055 8.9713 2.56216 8.98735 2.4632 8.98643C2.04086 8.98643 1.63215 8.71381 1.49314 8.4028C1.49314 8.4028 2.26674 8.35534 3.09855 7.51189ZM2.46317 9.3298C2.60143 9.3298 2.73667 9.30871 2.86509 9.26503C3.22469 9.14605 3.45439 8.86063 3.69614 8.56241C3.94319 8.25893 4.22119 7.91476 4.7032 7.65872L5.19881 7.39288L4.73796 7.06907C4.70018 7.04573 4.35492 6.81302 3.88653 6.81302C3.50274 6.81302 3.14614 6.96891 2.85228 7.26862C2.13683 7.99835 1.49541 8.05707 1.47198 8.05783L0.973341 8.0872L1.17732 8.54431C1.38433 8.9999 1.92528 9.3298 2.46317 9.3298ZM4.7168 13.3239C4.66392 12.0279 4.99631 10.9774 5.51762 10.1112C5.22752 11.0134 5.2668 12.1174 6.25802 13.1492C6.25802 13.1492 4.28769 10.7921 7.04145 8.37778C8.14296 7.45829 9.34798 6.89048 9.96764 6.48832C7.72686 7.2188 6.63217 6.41452 6.63217 6.41452C7.34761 7.03428 8.27461 7.0245 8.84952 6.93413C8.69389 7.01019 8.53071 7.08926 8.35695 7.1834C6.46596 8.20832 4.76848 9.89609 4.47676 12.2319V12.2145C4.03784 14.5084 3.06022 15.0973 3.06022 15.0973C3.83837 14.7133 4.32794 13.6966 4.44729 13.3306C4.57723 15.3473 5.5624 16.7464 6.71375 18.0937C7.3121 18.7918 7.52213 19.4703 7.52213 19.4703C7.52213 19.4703 7.40579 18.7014 6.88676 18.0756C5.81398 16.7856 4.79254 15.1801 4.71699 13.3236L4.7168 13.3239ZM13.5038 8.59675V9.06064C13.6639 8.86559 13.9722 8.90551 13.9722 8.90551V9.57348C13.9722 9.57348 13.9624 9.90183 13.8453 10.0441H14.5146C14.3983 9.90182 14.387 9.57348 14.387 9.57348V8.90551C14.387 8.90551 14.6967 8.86559 14.8554 9.06064V8.59675H13.503H13.5038ZM13.2167 5.84977C13.4305 6.01921 13.5544 6.04783 13.5582 6.05009L13.6413 6.08849V5.65247L12.8556 5.32261C12.8556 5.32261 12.8624 5.57566 13.2167 5.84977ZM15.0858 5.84977C15.4409 5.57564 15.4484 5.32262 15.4484 5.32262L14.662 5.65248V6.08926L14.7451 6.0501C14.7488 6.04783 14.872 6.01921 15.0858 5.84977ZM24.4186 7.15633C24.6588 7.15633 24.9399 7.23841 25.2043 7.51178C26.0368 8.35521 26.8112 8.40267 26.8112 8.40267C26.6707 8.71369 26.2627 8.98706 25.8404 8.98706C25.7429 8.98706 25.644 8.972 25.548 8.93811C24.9746 8.74532 24.7699 7.88757 23.7643 7.35364C23.7643 7.35364 24.0438 7.15633 24.4186 7.15633ZM23.6004 7.65788C24.0816 7.91393 24.3626 8.25806 24.6089 8.56232C24.8507 8.85978 25.0796 9.14596 25.44 9.26495C25.5669 9.30862 25.7022 9.32971 25.8404 9.32971C26.379 9.32971 26.9207 8.99985 27.1262 8.5435L27.3325 8.08714L26.8331 8.05702C26.8097 8.05702 26.1667 7.99753 25.4521 7.26857C25.1574 6.96884 24.8016 6.81221 24.4185 6.81221C23.9501 6.81221 23.6026 7.04566 23.5648 7.06977L23.1055 7.39285L23.6004 7.65788ZM23.8262 12.2147V12.232C23.5361 9.89598 21.8378 8.20899 19.9466 7.18353C19.7728 7.09015 19.6104 7.01032 19.454 6.93501C20.029 7.02388 20.9559 7.03442 21.6721 6.4154C21.6721 6.4154 20.5767 7.21892 18.3353 6.48845C18.9548 6.89058 20.1613 7.45839 21.2629 8.37715C24.0152 10.793 22.0463 13.1486 22.0463 13.1486C23.036 12.1176 23.0768 11.0136 22.7852 10.1116C23.3065 10.9777 23.6389 12.0282 23.5875 13.3244C23.512 15.1807 22.4898 16.786 21.4147 18.0764C20.898 18.7014 20.7831 19.471 20.7831 19.471C20.7831 19.471 20.9916 18.7925 21.5892 18.0944C22.7413 16.7464 23.7273 15.348 23.8557 13.3314C23.9751 13.6981 24.4661 14.7147 25.2443 15.0981C25.2443 15.0981 24.2659 14.5091 23.8262 12.2153L23.8262 12.2147ZM8.85236 21.0526C5.98386 21.0526 6.05726 18.5968 6.05726 18.5968C6.05726 18.5968 5.8563 19.3243 5.05776 19.5133C4.96021 19.5378 4.85992 19.5497 4.75934 19.5487C4.50247 19.5487 4.27885 19.4885 4.27885 19.4885C4.27885 19.4885 4.69664 18.6059 4.28037 17.3716C3.93737 16.3474 3.9933 15.5876 3.9933 15.5876C3.9933 15.5876 3.60726 16.1712 2.64852 16.1772H2.6387C1.84164 16.1772 1.49335 15.5725 1.49335 15.5725C3.40474 14.7795 3.21738 12.2213 3.21738 12.2213C3.21738 12.2213 2.96806 12.4066 2.48454 12.4246H2.43392C1.37924 12.4246 1.02191 11.298 1.02191 11.298H1.04382C1.23874 11.298 2.80336 11.2528 3.91015 9.84686C4.6392 8.92286 5.23755 8.11027 6.41526 7.79097L6.53387 7.76989L6.5588 7.65165C6.59204 7.47242 6.46814 7.30297 6.18863 7.12151C4.56055 6.05668 5.66586 4.69891 5.66586 4.69891C5.66586 4.69891 6.1282 5.78406 7.17156 5.78406L7.24711 5.78331C7.36496 5.77728 7.48055 5.77201 7.59463 5.74791L7.78653 5.71101C7.78653 5.71101 7.48887 4.90523 8.20659 4.16572C8.746 3.60693 9.40101 3.51205 9.77952 3.51205C9.97217 3.51205 10.0908 3.5369 10.0908 3.5369C9.73269 4.00606 9.47279 4.78549 9.8868 5.26596C10.2464 5.67941 11.122 5.69898 11.122 6.31423C11.122 6.57555 10.878 6.8798 10.4406 7.15315C9.12224 7.98153 7.81454 9.081 7.27031 10.5546C6.5919 12.3921 7.35795 13.6121 8.45114 14.3125C8.45114 14.3125 8.10738 14.6273 7.61028 14.6671C7.51285 14.6765 7.41503 14.6813 7.31715 14.6814C6.26851 14.6814 5.72609 14.1905 5.72609 14.1905C5.72609 14.1905 5.81675 14.869 6.35919 15.5C6.86539 16.0814 7.52642 16.424 8.53503 16.4384C8.53503 16.4384 8.56751 16.9053 8.121 17.3104C7.83469 17.5665 7.17513 17.6493 7.17513 17.6493C7.17513 17.6493 8.41186 17.8993 8.54786 19.7217C8.6219 20.7097 8.87272 21.0524 8.87272 21.0524L8.85236 21.0526ZM9.15681 20.8568C9.15606 20.853 8.95585 20.5405 8.89163 19.6971C8.81608 18.6865 8.43381 18.0961 8.05532 17.7572C8.16487 17.706 8.26686 17.642 8.35146 17.5651C8.90674 17.0666 8.88331 16.4807 8.87955 16.416L8.8584 16.0997L8.54034 16.0952C7.69269 16.0816 7.10114 15.8286 6.6214 15.2728C6.51798 15.1525 6.42592 15.0229 6.34639 14.8857C6.61082 14.9663 6.93417 15.0258 7.31721 15.0258C7.4192 15.0258 7.52648 15.0198 7.63905 15.0123C8.02465 14.9739 8.38925 14.8188 8.6839 14.5679L9.01406 14.2645L8.63783 14.0235C7.79472 13.485 6.93271 12.4646 7.59525 10.6747C8.02363 9.51119 9.01406 8.45765 10.6246 7.44682C11.1686 7.10417 11.4663 6.69976 11.4663 6.3142C11.4663 5.71852 10.9676 5.48357 10.602 5.31563C10.4237 5.23054 10.2378 5.14619 10.1479 5.0415C9.86465 4.71391 10.1026 4.08662 10.3663 3.7462L10.7032 3.30567L10.157 3.19798C10.1419 3.19572 9.99838 3.16937 9.77928 3.16937C9.37206 3.16937 8.59315 3.26802 7.95856 3.92545C7.42896 4.47217 7.35945 5.05432 7.38665 5.43008C7.33527 5.4346 7.2839 5.43686 7.22951 5.43912H7.17133C6.37354 5.43912 5.9973 4.59569 5.98295 4.56329L5.75857 4.03614L5.39593 4.48045C5.37553 4.50756 4.84441 5.16725 4.97435 5.99488C5.05972 6.54463 5.40573 7.01905 5.99956 7.40914C6.06453 7.45056 6.1091 7.48596 6.14159 7.51533C5.02044 7.87904 4.39565 8.67654 3.73536 9.51473L3.64017 9.63371C2.63083 10.9162 1.2021 10.9546 1.03146 10.9546L0.544922 10.9395L0.692998 11.4019C0.710374 11.4576 1.14099 12.7702 2.43365 12.7702L2.4956 12.768C2.63235 12.7642 2.7555 12.7454 2.86428 12.7243C2.8114 13.4397 2.54699 14.7628 1.35934 15.2546L0.996698 15.4053L1.19313 15.7464C1.21126 15.7773 1.65247 16.5205 2.65124 16.5205C3.00871 16.5241 3.36174 16.4414 3.68022 16.2796C3.71874 16.6034 3.79883 17.0183 3.95447 17.483C4.31559 18.5568 3.9794 19.3107 3.96656 19.3408L3.78826 19.7158L4.19094 19.822C4.21813 19.8295 4.46595 19.8913 4.75906 19.8913C5.16237 19.8923 5.55268 19.7491 5.85905 19.4876C5.9686 19.8243 6.15671 20.2046 6.48232 20.5412C7.03684 21.1097 7.8339 21.3966 8.87496 21.3966L9.50579 21.3884L9.15681 20.8568ZM12.6207 16.7112C12.6092 16.7103 12.5976 16.7117 12.5867 16.7153C12.5757 16.7189 12.5656 16.7247 12.557 16.7323C12.5483 16.7398 12.5412 16.7491 12.5362 16.7594C12.5312 16.7698 12.5283 16.781 12.5278 16.7925C12.5268 16.804 12.5283 16.8156 12.5319 16.8265C12.5356 16.8374 12.5415 16.8475 12.5492 16.856C12.5569 16.8646 12.5663 16.8716 12.5767 16.8765C12.5872 16.8813 12.5986 16.884 12.6101 16.8844C12.6332 16.8859 12.6559 16.8782 12.6735 16.8632C12.691 16.8481 12.7019 16.8268 12.7038 16.8038C12.705 16.7806 12.697 16.7578 12.6814 16.7404C12.6658 16.7231 12.644 16.7126 12.6207 16.7112ZM16.5689 23.421L16.1798 22.3516C16.6429 22.2108 17.4384 21.9081 17.7958 21.707L17.5578 22.4849L18.3639 22.7523C17.8759 22.9963 17.2851 23.2245 16.5689 23.4203L16.5689 23.421ZM14.1528 24.3811C13.2153 24.3811 12.1455 24.1658 11.8297 24.0536L12.3087 22.7598C12.7061 22.8757 13.5326 22.9985 14.1332 22.9947H14.171C14.7708 22.9985 15.5966 22.875 15.9962 22.7598L16.4745 24.0536C16.1587 24.1665 15.0889 24.3811 14.1528 24.3811ZM9.94028 22.7523L10.7471 22.4849L10.5084 21.707C10.8642 21.9081 11.662 22.2116 12.1236 22.3516L11.7346 23.4209C11.0206 23.2251 10.4276 22.9963 9.94028 22.7523ZM18.4003 22.515L17.9092 22.3268L18.0452 21.8207L18.1941 21.2687C18.1941 21.2687 17.3252 21.7401 16.0991 22.0934C15.7515 22.1928 15.4886 22.2387 15.4886 22.2387V22.6145C15.4886 22.6145 14.8329 22.7275 14.1711 22.7275H14.1333C13.47 22.7275 12.8157 22.6145 12.8157 22.6145V22.238C12.8157 22.238 12.5521 22.1928 12.2046 22.0934C10.9799 21.7394 10.1111 21.2687 10.1111 21.2687L10.2576 21.8207L10.3966 22.3268L9.90407 22.515L9.35787 22.7184C9.98341 23.0203 10.8507 23.4594 11.644 23.6763L11.4574 24.1869C11.4574 24.1869 12.4637 24.6447 14.1402 24.6492V24.65H14.1628V24.6492C15.8416 24.6447 16.8479 24.1869 16.8479 24.1869L16.659 23.6763C17.453 23.4594 18.3218 23.0211 18.9443 22.7184L18.4003 22.515ZM12.1032 1.91323L12.326 1.93733L12.422 1.734L12.703 1.13382L13.2243 1.40343L13.4268 1.5066L14.1505 0.789667L14.7149 1.34695L14.8766 1.5066L15.079 1.40343L15.5973 1.13382L15.8829 1.734L15.9773 1.93733L16.2002 1.91323L16.4132 1.88838C16.3158 2.10753 16.244 2.31614 16.1919 2.48932C15.629 2.17529 14.8977 1.99757 14.1513 1.99757C13.4079 1.99757 12.6766 2.17529 12.1115 2.48932C12.0505 2.28464 11.9768 2.08394 11.8909 1.88838L12.1024 1.91323H12.1032ZM14.1505 2.31011C15.1501 2.31011 15.9486 2.64145 16.3906 2.99313C16.3906 2.99313 16.522 2.20467 16.9693 1.50958L16.1647 1.59995L15.7439 0.707549L14.9355 1.124L14.1505 0.349854L13.3686 1.124L12.5587 0.707549L12.1386 1.60071L11.3341 1.50884C11.782 2.20468 11.9128 2.99238 11.9128 2.99238C12.357 2.64068 13.1533 2.31011 14.1505 2.31011ZM26.8112 15.5722C26.8112 15.5722 26.4637 16.1769 25.6659 16.1769H25.6561C24.6981 16.1709 24.3113 15.5873 24.3113 15.5873C24.3113 15.5873 24.3672 16.3464 24.0227 17.3713C23.6072 18.6063 24.0257 19.4874 24.0257 19.4874C24.0257 19.4874 23.8021 19.5484 23.5445 19.5484C23.4462 19.5484 23.3435 19.5386 23.246 19.513C22.446 19.324 22.2465 18.5965 22.2465 18.5965C22.2465 18.5965 22.3206 21.0523 19.452 21.0523H19.4293C19.4293 21.0523 19.6824 20.7096 19.7572 19.7216C19.8932 17.8992 21.1292 17.6484 21.1292 17.6484C21.1292 17.6484 20.4696 17.5656 20.1833 17.3103C19.7368 16.9059 19.7678 16.4382 19.7678 16.4382C20.7771 16.4239 21.439 16.0813 21.9429 15.4992C22.2676 15.1267 22.4867 14.6746 22.5775 14.1896C22.5775 14.1896 22.0351 14.6813 20.9857 14.6813C20.8935 14.6813 20.7953 14.6768 20.6941 14.667C20.1969 14.6271 19.854 14.3116 19.854 14.3116C20.9464 13.612 21.7125 12.3912 21.0333 10.5537C20.4893 9.08147 19.1808 7.98131 17.8641 7.15278C17.4259 6.87941 17.1811 6.57517 17.1811 6.31387C17.1811 5.69862 18.0575 5.67904 18.4171 5.26559C18.8326 4.78513 18.572 4.00572 18.2124 3.53654C18.2124 3.53654 18.3333 3.51169 18.5244 3.51169C18.9036 3.51169 19.5594 3.60657 20.0988 4.16536C20.8143 4.90489 20.5174 5.71065 20.5174 5.71065L20.7093 5.7483C20.8241 5.77165 20.9382 5.77692 21.0568 5.78294L21.1339 5.7837C22.1742 5.7837 22.6388 4.69779 22.6388 4.69779C22.6388 4.69779 23.7449 6.05632 22.1168 7.12115C21.8365 7.30263 21.7126 7.47209 21.7451 7.65129L21.7708 7.76952L21.8864 7.78985C23.0664 8.10991 23.664 8.92323 24.3932 9.8465C25.5007 11.2525 27.0677 11.2977 27.2603 11.2977H27.2815C27.2815 11.2977 26.9241 12.425 25.8702 12.425C25.8528 12.425 25.8377 12.425 25.8204 12.4235C25.3368 12.4062 25.0875 12.2209 25.0875 12.2209C25.0875 12.2209 24.8994 14.779 26.8115 15.5722L26.8112 15.5722ZM25.8699 12.7699C27.1618 12.7699 27.5939 11.4573 27.612 11.4016L27.7556 10.9384L27.2721 10.9535H27.2707C27.0992 10.9535 25.6743 10.9158 24.6642 9.63339L24.5682 9.51441C23.9079 8.67625 23.2816 7.87875 22.162 7.51501C22.2068 7.47595 22.2545 7.44045 22.3048 7.40882C22.8986 7.01873 23.2446 6.54507 23.3307 5.99456C23.4584 5.16693 22.9288 4.50727 22.9062 4.48013L22.5465 4.03582L22.3214 4.56297C22.3063 4.59535 21.9285 5.43879 21.1338 5.43879H21.0749C21.0205 5.43653 20.9683 5.43428 20.917 5.42976C20.9449 5.05322 20.8762 4.47185 20.3473 3.92513C19.7119 3.26768 18.9323 3.16905 18.5243 3.16905C18.3067 3.16905 18.1617 3.19616 18.1458 3.19766L17.6026 3.30535L17.9373 3.74588C18.2002 4.08627 18.439 4.71359 18.1564 5.04118C18.0658 5.14661 17.8799 5.2302 17.7024 5.31531C17.3367 5.48324 16.8366 5.7182 16.8366 6.31388C16.8366 6.69944 17.1365 7.10384 17.6804 7.4465C19.2881 8.45635 20.2809 9.51065 20.7093 10.6744C21.3726 12.4636 20.5076 13.4848 19.6667 14.0223L19.2905 14.2641L19.6206 14.5668C19.6652 14.606 20.0679 14.9607 20.664 15.0119C20.7773 15.0194 20.8853 15.0254 20.9866 15.0254C21.3681 15.0254 21.6937 14.9652 21.9582 14.8854C21.8791 15.0229 21.787 15.1525 21.6832 15.2724C21.2034 15.8282 20.6126 16.0812 19.7626 16.0948L19.4468 16.0993L19.4227 16.4156C19.4196 16.4796 19.3962 17.0662 19.9515 17.5648C20.0369 17.6416 20.1396 17.7056 20.2476 17.7568C19.8699 18.0957 19.4876 18.6861 19.4136 19.6967C19.3509 20.5401 19.1492 20.8526 19.1469 20.8564L18.7978 21.3881L19.4287 21.3963C20.4705 21.3963 21.2683 21.1102 21.8206 20.5409C22.1066 20.2418 22.3201 19.8814 22.4446 19.4873C22.7514 19.7481 23.1414 19.8912 23.5446 19.891C23.8392 19.891 24.0855 19.8285 24.1127 19.8225L24.5154 19.7155L24.3378 19.3405C24.3242 19.3104 23.9888 18.5573 24.3499 17.4827C24.5055 17.018 24.5849 16.6023 24.6234 16.2778C24.8773 16.4103 25.2165 16.5188 25.6554 16.5203C26.6526 16.5203 27.0916 15.777 27.1113 15.7461L27.3077 15.4042L26.9436 15.2551C25.7559 14.7626 25.493 13.4402 25.4401 12.7247C25.5482 12.7451 25.6706 12.7639 25.8088 12.7677L25.8699 12.7699Z" fill="black"/>
<path d="M37.6596 16.2006H39.9261V10.9443H43.0386V9.03147H34.5469V10.9443H37.6594L37.6596 16.2006ZM49.9137 9.03131L46.1362 13.2033V9.03131H43.9452V16.2006H45.8793L49.6568 12.0286V16.2006H51.8477V9.03131H49.9137ZM55.6984 13.5346H59.2188V16.2005H61.4098V9.0312H59.2188V11.6519H55.6984V9.0312H53.5074V16.2005H55.6984V13.5346ZM67.5112 16.2005C68.0098 16.2005 68.4631 16.1553 68.8862 16.0348C70.0194 15.7186 70.7598 14.7998 70.7598 13.5497C70.7598 12.3599 70.1252 11.5315 69.1129 11.1549C68.6293 10.9742 68.0552 10.9591 67.5112 10.9591H65.2599V9.03128H63.0689V16.2006L67.5112 16.2005ZM65.2599 12.646H67.1335C67.4357 12.646 67.7228 12.646 67.9796 12.7363C68.3423 12.8568 68.5538 13.158 68.5538 13.5195C68.5538 13.8961 68.3423 14.2123 67.9947 14.3629C67.753 14.4684 67.5112 14.4684 67.1335 14.4684H65.2599V12.646ZM74.084 13.4894H74.6883L77.3023 16.2005H80.2185L76.577 12.4653L80.0825 9.03142H77.3327L74.6884 11.7274H74.0841V9.03142H71.8931V16.2007H74.0841L74.084 13.4894ZM84.7267 8.8354C81.7801 8.8354 80.0125 10.4921 80.0125 12.6308C80.0125 14.7694 81.7803 16.4262 84.7267 16.4262C87.658 16.4262 89.4257 14.7694 89.4257 12.6308C89.4257 10.4921 87.6578 8.8354 84.7267 8.8354ZM84.7267 14.6793C83.261 14.6793 82.3242 13.8057 82.3242 12.6309C82.3242 11.4561 83.261 10.5976 84.7267 10.5976C86.1772 10.5976 87.1291 11.4561 87.1291 12.6309C87.1291 13.8057 86.1772 14.6793 84.7267 14.6793ZM96.7223 9.34759V8.62463H94.5314V9.34759C91.7816 9.40783 90.1344 10.5676 90.1344 12.6159C90.1344 14.6643 91.7814 15.7336 94.5314 15.7938V16.5168H96.7223V15.7938C99.4874 15.7336 101.135 14.6642 101.135 12.6159C101.135 10.5676 99.4876 9.4078 96.7223 9.34759ZM94.5314 14.2575C93.0204 14.1973 92.3556 13.5798 92.3556 12.6159C92.3556 11.6519 93.0204 10.9591 94.5314 10.8989V14.2575ZM96.7223 14.2575V10.8987C98.2484 10.959 98.8982 11.6518 98.8982 12.6157C98.8982 13.5796 98.2484 14.1973 96.7223 14.2575ZM108.423 9.34759V8.62463H106.232V9.34759C103.483 9.40783 101.835 10.5676 101.835 12.6159C101.835 14.6643 103.482 15.7336 106.232 15.7938V16.5168H108.423V15.7938C111.188 15.7336 112.836 14.6642 112.836 12.6159C112.836 10.5676 111.189 9.4078 108.423 9.34759ZM106.232 14.2575C104.721 14.1973 104.057 13.5798 104.057 12.6159C104.057 11.6519 104.721 10.9591 106.232 10.8989V14.2575ZM108.423 14.2575V10.8987C109.949 10.959 110.599 11.6518 110.599 12.6157C110.599 13.5796 109.949 14.1973 108.423 14.2575Z" fill="black"/>
</g>
<defs>
<clipPath id="clip0_20_2295">
<rect width="113" height="25" fill="white" transform="translate(0.19043)"/>
</clipPath>
</defs>
</svg>
