<svg width="52" height="35" viewBox="0 0 52 35" fill="none" xmlns="http://www.w3.org/2000/svg">
<path d="M45.4455 34.8135L45.373 34.8301C44.7933 34.943 44.3319 34.9994 43.989 34.9994C32.3127 35.0002 20.6362 35.0002 8.9595 34.9994C8.41774 34.9994 8.03774 34.9905 7.81951 34.9726C3.9724 34.6561 1.02519 31.543 0.833008 27.7061V7.26157C0.947064 5.33288 1.64395 3.70264 2.92366 2.37085C4.20336 1.03867 5.90223 0.191234 7.74138 0.0304147C7.97025 0.0102648 8.32649 0.000189949 8.81009 0.000189949C20.5552 -0.000190238 32.3005 4.12576e-07 44.046 0.000760786C44.3657 0.000760786 44.7419 0.0423905 45.1746 0.125651C48.4371 0.755811 50.9538 3.41161 51.3347 6.72608C51.3652 6.99145 51.3804 7.37106 51.3804 7.86492C51.3811 14.4471 51.3811 21.0291 51.3804 27.6109C51.3804 27.907 51.3486 28.245 51.2851 28.6248C50.7702 31.6867 48.4674 34.1178 45.4455 34.8135ZM35.0852 10.2761C34.3647 10.0213 33.6262 9.83961 32.8696 9.73088C32.475 9.67423 32.0232 9.65503 31.5141 9.67328C30.2059 9.72062 28.8851 9.98922 27.8398 10.7334C26.7775 11.4896 26.239 12.5388 26.2242 13.8808C26.2065 15.4377 27.0191 16.617 28.3524 17.3567C28.6372 17.5144 29.1552 17.7868 29.9065 18.1739C30.1391 18.2936 30.3587 18.4339 30.5651 18.5947C31.0436 18.9671 31.363 19.611 30.9866 20.1835C30.6222 20.7379 29.8392 20.9112 29.2193 20.9466C27.8962 21.0224 26.5988 20.7789 25.4115 20.1904C25.3895 20.179 25.3758 20.1854 25.3705 20.2098L24.7808 22.9272C24.7755 22.9511 24.7836 22.9688 24.8053 22.9802C25.0851 23.1319 25.3916 23.2553 25.7246 23.3503C26.6914 23.6259 27.6662 23.7621 28.649 23.7586C30.9067 23.7507 33.846 22.2788 34.5674 19.9828C34.9939 18.6267 34.5776 17.3196 33.469 16.4448C33.004 16.0775 32.4876 15.7527 31.9196 15.4702C31.3907 15.2071 31.0485 15.0318 30.893 14.9444C30.4414 14.69 29.8483 14.3427 29.8204 13.8375C29.7417 12.3987 31.8477 12.2755 32.7613 12.4637C33.4262 12.6 34.0878 12.9307 34.6546 13.2906C34.6672 13.2986 34.6748 13.2953 34.6774 13.2809L35.2095 10.3622C35.2141 10.3379 35.2049 10.3211 35.1821 10.312C35.1578 10.3025 35.1255 10.2905 35.0852 10.2761ZM17.9089 9.90653L17.1236 9.90596L15.9494 9.90881C15.9351 9.90878 15.9212 9.91323 15.9096 9.92153C15.8981 9.92982 15.8894 9.94154 15.885 9.955L12.7068 19.4256C12.687 19.4846 12.6696 19.4838 12.6543 19.4234C12.5692 19.0907 12.4893 18.7544 12.4148 18.4145C12.3726 18.2218 12.3152 18.0469 12.2426 17.8899C11.2497 15.7416 9.61361 13.7097 7.5606 12.4762C7.53133 12.4591 7.52106 12.4669 7.52981 12.4996L10.3652 23.3036C10.3698 23.3199 10.3804 23.3281 10.3972 23.3281L14.3059 23.3264C14.3102 23.3264 14.3145 23.325 14.3182 23.3225C14.3218 23.32 14.3247 23.3163 14.3264 23.3121L19.7207 9.91793C19.7222 9.9143 19.7227 9.91031 19.722 9.90642C19.7214 9.90253 19.7196 9.8989 19.7169 9.89593C19.7143 9.89296 19.7108 9.89078 19.7069 9.88963C19.7031 9.88848 19.6989 9.88841 19.695 9.88942C19.6399 9.90425 19.5829 9.91166 19.5239 9.91166C18.9871 9.91242 18.4488 9.91071 17.9089 9.90653ZM19.0038 23.307C19.0034 23.3094 19.0036 23.312 19.0042 23.3144C19.0049 23.3168 19.0061 23.3191 19.0077 23.321C19.0094 23.3229 19.0114 23.3244 19.0137 23.3254C19.016 23.3265 19.0184 23.327 19.021 23.3269H22.5675C22.5716 23.327 22.5756 23.3256 22.5787 23.323C22.5819 23.3204 22.584 23.3167 22.5846 23.3127L24.7637 9.92934C24.7641 9.92691 24.764 9.92443 24.7633 9.92205C24.7627 9.91967 24.7616 9.91746 24.76 9.91557C24.7584 9.91367 24.7565 9.91214 24.7542 9.91107C24.752 9.91001 24.7496 9.90943 24.7471 9.90938L21.1413 9.90254C21.1372 9.90248 21.1332 9.90388 21.1301 9.9065C21.1269 9.90911 21.1248 9.91277 21.1241 9.91679L19.0038 23.307ZM38.9209 21.4655C38.9262 21.4519 38.9363 21.445 38.9511 21.445H43.3383C43.3569 21.445 43.3679 21.4541 43.3713 21.4724L43.7164 23.295C43.7205 23.317 43.7339 23.3281 43.7563 23.3281L46.9675 23.3275C46.9919 23.3275 47.0016 23.3155 46.9966 23.2916L44.2194 9.95044C44.2167 9.93786 44.2099 9.92657 44.1999 9.91847C44.1899 9.91037 44.1775 9.90595 44.1646 9.90596H40.5639C40.5251 9.90596 40.4979 9.92364 40.4823 9.95899C38.5605 14.3439 36.6323 18.743 34.7002 23.1313C34.6837 23.169 34.6734 23.242 34.6324 23.2705C34.6268 23.274 34.6226 23.2793 34.6204 23.2855C34.6182 23.2916 34.6181 23.2984 34.6201 23.3047C34.6221 23.311 34.6261 23.3165 34.6315 23.3204C34.6369 23.3243 34.6434 23.3264 34.6501 23.3264L38.1596 23.3275C38.1831 23.3275 38.1993 23.3165 38.208 23.2944L38.9209 21.4655ZM9.3165 9.9818L8.55802 9.96413L7.59197 9.96299L6.87456 9.96413H5.89253L5.18311 9.96527C4.58887 9.95994 4.13683 9.96051 3.82698 9.96698C3.78174 9.96774 3.72072 9.97629 3.64392 9.99264C3.63175 9.9953 3.63137 9.9991 3.64278 10.004C3.70779 10.0331 3.78364 10.0308 3.8401 10.0508C7.05305 11.2068 10.5323 13.3459 11.9723 16.6022C12.0635 16.8086 12.1365 17.0215 12.1913 17.2409C12.192 17.2432 12.1936 17.2441 12.1958 17.2438L12.2135 17.2392C12.2207 17.2377 12.2238 17.2331 12.2226 17.2255C11.8451 15.3261 11.4685 13.4265 11.0929 11.5267C10.9355 10.7323 10.112 10.0474 9.3165 9.9818Z" fill="#179B3C"/>
<path d="M39.9035 18.8759L41.8213 13.8477C41.8227 13.8442 41.8252 13.8413 41.8285 13.8393C41.8317 13.8373 41.8354 13.8365 41.8392 13.8368C41.843 13.8371 41.8465 13.8386 41.8494 13.8411C41.8522 13.8436 41.8542 13.8469 41.855 13.8506L42.8735 18.8765C42.874 18.879 42.8739 18.8816 42.8733 18.8841C42.8727 18.8867 42.8715 18.889 42.8699 18.891C42.8682 18.893 42.8662 18.8947 42.8639 18.8958C42.8615 18.8969 42.859 18.8975 42.8564 18.8976L39.92 18.8998C39.9171 18.8998 39.9143 18.8992 39.9118 18.8978C39.9093 18.8965 39.9071 18.8946 39.9055 18.8922C39.9038 18.8899 39.9028 18.8871 39.9025 18.8843C39.9021 18.8815 39.9025 18.8786 39.9035 18.8759Z" fill="#179B3C"/>
</svg>
