<?xml version="1.0" encoding="utf-8"?><svg width="210" height="208" fill="none" xmlns="http://www.w3.org/2000/svg" viewBox="0 0 210 208"><ellipse cx="165.025" cy="167.481" rx="106.275" ry="16.35" fill="#111"/><path d="M121.766 122.625c-10.426 7.008-26.54-8.795-16.786 28.376" stroke="#111" stroke-width="8.605" stroke-linecap="round"/><path d="M94.84 141.883c.602-9.011-3.994-15.059-3.994-15.059-9.035-11.62-17.41-8.549-22.373-8.605 15.92 5.163 13.338 22.804 13.338 22.804-2.211 8.603 18.442 17.207 26.186 35.709 1.721-2.582.49-9.033.49-9.033 6.024-.86 5.163-8.175 5.163-8.175-5.163-17.641-18.81-17.641-18.81-17.641z" fill="#fff"/><path d="M62.449 119.327s8.976-1.274 15.43 26.532c0 0 6.454 15.813 30.118 30.873-7.744-18.502-28.397-27.106-26.186-35.709 0 0 2.581-17.641-13.338-22.804-4.68-.054-6.024 1.108-6.024 1.108z" fill="#fff"/><path d="M77.879 145.859c-6.454-27.806-15.43-26.532-15.43-26.532-12.273-.263-10.757 9.217-10.757 9.217s2.264 17.878 13.339 32.7c11.69 15.647 32.35 28.235 37.432 26.246 9.896-3.872 5.534-10.758 5.534-10.758-23.664-15.06-30.118-30.873-30.118-30.873z" fill="#111"/><path d="M62.449 119.327s8.976-1.274 15.43 26.532c0 0 6.454 15.813 30.118 30.873m-45.548-57.405c-12.273-.263-10.757 9.217-10.757 9.217s2.264 17.878 13.339 32.7c11.69 15.647 32.35 28.235 37.432 26.246 9.896-3.872 5.534-10.758 5.534-10.758m-45.548-57.405c.8.018-.922-.105 0 0zm0 0s1.344-1.162 6.024-1.108m39.524 58.513c1.721-2.582.49-9.033.49-9.033m-.49 9.033c-7.744-18.502-28.397-27.106-26.186-35.709 0 0 2.581-17.641-13.338-22.804m23.664 33.559a28.494 28.494 0 001.808-4.732m0 0s3.785.861 5.507 4.732m-5.507-4.732a25.29 25.29 0 00.895-5.163m0 0c.602-9.011-3.994-15.059-3.994-15.059-9.035-11.62-17.41-8.549-22.373-8.605m26.367 23.664s13.647 0 18.81 17.641c0 0 .861 7.315-5.163 8.175m0 0s-1.291-.86-3.442-8.175" stroke="#111" stroke-width="1.721" stroke-linecap="round"/><path d="M55.38 76.966L53.18 73.27l-7.394 4.402 2.202 3.697 7.393-4.403zm39.664 29.668a4.303 4.303 0 00-2.151-8.332l2.151 8.332zM47.987 81.369c3.215 5.4 9.557 12.89 17.613 18.461 8.034 5.557 18.45 9.643 29.444 6.804l-2.151-8.332c-7.586 1.959-15.395-.706-22.4-5.55-6.982-4.828-12.492-11.385-15.113-15.785l-7.393 4.402z" fill="#111"/><path d="M58.38 72.266c-2.319 1.814-11.59 9.073-21.545 4.715 0 0-5.897-7.533-4.864-7.408 0 0 15.246 3.954 24.644-4.337 0 0 4.082 5.215 1.764 7.03z" fill="#fff"/><path d="M56.615 65.236c-9.398 8.291-24.644 4.337-24.644 4.337s-8.341-4.686-10.509-12.23c0 0-2.117-.317-6.074-6.566-3.957-6.248 5.315-13.507 5.315-13.507 3.4-6.4 9.6-5.646 9.6-5.646 2.87-10.66 12.307-6.83 16.832-4.765 4.525 2.066 7.712 9.852 7.712 9.852 1.765 7.03-.046 9.382-.046 9.382 6.234 6.223 7.587 6.698 7.532 10.927-.054 4.23-5.718 8.216-5.718 8.216z" fill="#fff"/><path d="M31.97 69.573c-1.032-.125 4.865 7.408 4.865 7.408 9.954 4.358 19.227-2.9 21.544-4.715 2.319-1.815-1.764-7.03-1.764-7.03M31.97 69.573s15.246 3.954 24.644-4.337M31.97 69.573s-8.341-4.686-10.509-12.23m35.153 7.893s5.664-3.987 5.718-8.216c.055-4.23-1.298-4.704-7.532-10.927M44.518 56.947c.328 1.613-1.159.907-1.159.907-9.702-6.424-8.493-12.044-8.493-12.044 1.712-9.752 9.851-7.712 9.851-7.712l.512.333m9.572 7.662s1.81-2.352.046-9.382c0 0-3.188-7.786-7.712-9.852-4.525-2.065-13.961-5.894-16.832 4.765M54.8 46.093c-2.394-2.39-5.516-5.005-9.572-7.662m-14.926-6.807s-2.242 5.494 4.235 12.574m-4.235-12.574s-6.2-.755-9.6 5.646m24.526 1.16s.773-2.272-4.078-5.208M20.703 37.27s-2.67 13.305 11.215 15.52c0 0 3.1.378 4.385-1.562m-15.6-13.958s-9.272 7.258-5.315 13.507 6.074 6.567 6.074 6.567m6.777-4.477c1.866 5.233-4.214 4.851-6.777 4.477" stroke="#111" stroke-width="2.582" stroke-linecap="round" stroke-linejoin="round"/><path d="M172.105 125.637l21.083 37.433" stroke="#111" stroke-width="8.605" stroke-linecap="round"/><path d="M222.875 194.479c0 3.945-2.438 6.915-6.967 8.969-4.559 2.068-11.019 3.078-18.419 3.078-7.284 0-13.817-1.83-18.487-4.721-4.691-2.904-7.328-6.746-7.328-10.768s2.637-7.865 7.328-10.768c4.67-2.891 11.203-4.722 18.487-4.722 7.326 0 13.706 1.583 18.216 4.717 4.452 3.095 7.17 7.755 7.17 14.215z" fill="#fff" stroke="#111" stroke-width="2.582"/><path d="M212.979 171.565c0 2.62-1.643 4.654-4.917 6.102-3.296 1.459-8 2.183-13.426 2.183-5.314 0-10.063-1.303-13.44-3.343-3.402-2.054-5.22-4.714-5.22-7.414 0-2.699 1.818-5.359 5.22-7.413 3.377-2.04 8.126-3.343 13.44-3.343 5.355 0 9.979 1.13 13.224 3.33 3.186 2.16 5.119 5.393 5.119 9.898z" fill="#fff" stroke="#111" stroke-width="2.582"/><path d="M222.016 186.734c0 3.945-2.438 6.915-6.967 8.969-4.559 2.068-11.019 3.078-18.419 3.078-7.284 0-13.817-1.83-18.488-4.721-4.69-2.904-7.328-6.746-7.328-10.768s2.638-7.864 7.328-10.768c4.671-2.891 11.204-4.721 18.488-4.721 7.325 0 13.706 1.582 18.215 4.717 4.452 3.094 7.171 7.754 7.171 14.214z" fill="#fff" stroke="#111" stroke-width="2.582" stroke-linecap="round"/><path d="M249.258 111.264l.81 4.557 9.113-1.621-.81-4.556-9.113 1.62zm-42.146-38.947a4.627 4.627 0 10.605 9.236l-.605-9.236zm51.259 37.327c-3.237-18.204-11.761-28.221-22.208-33.224-10.069-4.823-21.217-4.617-29.051-4.103l.605 9.236c7.664-.502 16.7-.496 24.448 3.215 7.371 3.53 14.298 10.78 17.093 26.496l9.113-1.62z" fill="#111"/><mask id="aba" style="mask-type:alpha" maskUnits="userSpaceOnUse" x="82" y="0" width="134" height="134"><circle cx="149.302" cy="66.691" r="64.539" fill="url(#abpaint0_linear_2031_332)" stroke="#111" stroke-width="4.303"/></mask><g mask="url(#aba)"><circle cx="149.302" cy="66.691" r="64.539" fill="#FEA804" stroke="#111" stroke-width="4.303"/><g opacity=".46"><path d="M100.793 83.817l-19.168-1.346-1.243 15.788 9.56 20.312 17.68 12.315 13.038-14.627-19.867-32.442zM112.183 20.93l5.358 30.44 39.804 1.014 14.453-30.445-27.38-19.07-32.235 18.061zM204.826 23.636L221.349 54.2l6.539.952-7.265-22.314-15.164-19.864-.633 10.662zM207.115 87.348l-29.997.414-16.518 31.257 19.6 13.652 14.797-8.75 13.932-11.603-1.814-24.97z" fill="#111"/><path d="M120.66 116.259l-13.038 14.627 10.262 5.947 2.776-20.574z" fill="#111"/><path d="M81.625 82.47l-5.862-30.79 11.233-26.686 25.187-4.064M81.625 82.47l19.168 1.347m-19.168-1.346l-1.243 15.788 9.56 20.312 17.68 12.315m4.561-109.956l5.358 30.44m-5.358-30.44l32.235-18.06m-26.877 48.5l-16.748 32.447m16.748-32.448l39.804 1.015m-56.552 31.433l19.867 32.442m0 0l-13.038 14.627m13.038-14.627c15.296 2.39 24.052 2.96 39.94 2.76m-39.94-2.76l-2.776 20.574-10.262-5.947m49.723-78.502l14.453-30.445m-14.453 30.445C167.35 66.254 171.643 74 177.118 87.762m-5.32-65.823l-27.38-19.07m27.38 19.07l33.028 1.697M144.418 2.869l3.883-12.9m56.525 33.667L221.349 54.2m-16.523-30.564l.633-10.662 15.164 19.864 7.265 22.314-6.539-.952m0 0c-3.014 13.297-6 20.573-14.234 33.148m-29.997.414l29.997-.414m-29.997.414L160.6 119.019m46.515-31.671l1.814 24.97-13.932 11.603-14.797 8.75m0 0l-19.6-13.652m19.6 13.652c-8.117 5.657-13.559 8.598-24.933 13.393" stroke="#000" stroke-width="4.432"/></g><path fill-rule="evenodd" clip-rule="evenodd" d="M119.869 70.133c-1.477 4.681-3.932 7.745-6.71 7.745-4.515 0-8.175-8.091-8.175-18.072V49.05l16.35 10.757c0 1.637-.098 3.224-.283 4.732l-4.45 2.152 3.268 3.442zM130.801 60.275c0 12.811 4.623 23.196 10.326 23.196 4.5 0 8.328-6.467 9.743-15.49l-4.15-3.011 4.691-2.582c.028-.696.042-1.4.042-2.113V46.468l-20.652 13.807z" fill="#111"/><path d="M104.125 43.887s1.291-3.442 3.442-3.442c2.151 0 15.059 12.048 15.059 12.048s-.43 3.012-1.721 2.15c-1.291-.86-16.78-10.756-16.78-10.756zM152.314 41.336s-2.461-6.485-5.163-6.485c-2.701 0-18.071 17.32-18.071 17.32s.541 3.792 2.162 2.708c1.621-1.084 21.072-13.543 21.072-13.543z" fill="#111" stroke="#111" stroke-width=".861"/></g><defs><linearGradient id="abpaint0_linear_2031_332" x1="74.006" y1="12.478" x2="211.26" y2="117.032" gradientUnits="userSpaceOnUse"><stop stop-color="#179B3C"/><stop offset=".286" stop-color="#74C722"/><stop offset=".536" stop-color="#B5B911"/><stop offset=".792" stop-color="#F6AA00"/><stop offset="1" stop-color="#FF6B00"/></linearGradient></defs></svg>