<?xml version="1.0" encoding="utf-8"?><svg width="862" height="710" fill="none" xmlns="http://www.w3.org/2000/svg" viewBox="0 0 862 710"><ellipse cx="433.157" cy="662.89" rx="304.195" ry="46.799" fill="#111"/><path d="M665.865 534.304l12.316 59.115M690.498 556.473l12.316 59.115M225.021 524.955l-12.315 59.115M200.389 547.124l-12.316 59.115" stroke="#111" stroke-width="4.926" stroke-linecap="round"/><path d="M588.316 24.981l72.851 119.983M644.614 53.567l72.85 119.983" stroke="#111" stroke-width="7.389" stroke-linecap="round"/><path d="M349.409 351.305c-29.842 20.059-75.965-25.174-48.046 81.221" stroke="#111" stroke-width="24.631" stroke-linecap="round"/><path d="M272.339 406.429c1.724-25.793-11.432-43.104-11.432-43.104-25.862-33.261-49.836-24.47-64.041-24.632 45.568 14.779 38.179 65.272 38.179 65.272-6.329 24.627 52.786 49.254 74.954 102.212 4.927-7.389 1.402-25.854 1.402-25.854 17.242-2.463 14.779-23.4 14.779-23.4-14.779-50.494-53.841-50.494-53.841-50.494z" fill="#fff"/><path d="M179.624 341.867s25.693-3.65 44.166 75.942c0 0 18.474 45.264 86.209 88.368-22.168-52.958-81.283-77.585-74.954-102.212 0 0 7.389-50.493-38.179-65.272-13.394-.153-17.242 3.174-17.242 3.174z" fill="#fff"/><path d="M223.79 417.809c-18.473-79.592-44.166-75.942-44.166-75.942-35.13-.753-30.788 26.381-30.788 26.381s6.48 51.172 38.178 93.598c33.462 44.789 92.6 80.817 107.146 75.125 28.325-11.083 15.839-30.794 15.839-30.794-67.735-43.104-86.209-88.368-86.209-88.368z" fill="#111"/><path d="M179.624 341.867s25.693-3.65 44.166 75.942c0 0 18.474 45.264 86.209 88.368m-130.375-164.31c-35.13-.753-30.788 26.381-30.788 26.381s6.48 51.172 38.178 93.598c33.462 44.788 92.6 80.817 107.146 75.125 28.325-11.083 15.839-30.794 15.839-30.794m-130.375-164.31c2.292.049-2.639-.302 0 0zm0 0s3.848-3.327 17.242-3.174m113.133 167.484c4.927-7.389 1.402-25.854 1.402-25.854m-1.402 25.854c-22.168-52.958-81.283-77.585-74.954-102.212 0 0 7.389-50.493-38.179-65.272m67.736 96.059c2.257-4.654 3.948-9.179 5.174-13.544m0 0s10.836 2.463 15.762 13.544m-15.762-13.544a72.409 72.409 0 002.563-14.779m0 0c1.724-25.793-11.432-43.104-11.432-43.104-25.862-33.261-49.836-24.47-64.041-24.632m75.473 67.736s39.062 0 53.841 50.494c0 0 2.463 20.937-14.779 23.4m0 0s-3.694-2.463-9.852-23.4" stroke="#111" stroke-width="4.926" stroke-linecap="round"/><path d="M159.389 220.615l-6.301-10.582-21.163 12.603 6.301 10.581 21.163-12.602zm113.531 84.919c6.586-1.701 10.547-8.418 8.846-15.004-1.7-6.585-8.417-10.546-15.003-8.845l6.157 23.849zm-134.694-72.317c9.202 15.454 27.355 36.897 50.414 52.842 22.997 15.904 52.81 27.6 84.28 19.475l-6.157-23.849c-21.713 5.605-44.066-2.021-64.114-15.885-19.987-13.822-35.76-32.59-43.26-45.185l-21.163 12.602z" fill="#111"/><path d="M167.976 207.16c-6.635 5.194-33.175 25.971-61.667 13.497 0 0-16.88-21.564-13.923-21.204 0 0 43.638 11.318 70.538-12.415 0 0 11.687 14.928 5.052 20.122z" fill="#fff"/><path d="M162.924 187.038c-26.9 23.733-70.538 12.415-70.538 12.415S68.51 186.04 62.307 164.448c0 0-6.061-.909-17.388-18.795-11.326-17.886 15.214-38.663 15.214-38.663C69.867 88.669 87.61 90.83 87.61 90.83c8.218-30.511 35.227-19.551 48.179-13.638 12.951 5.912 22.075 28.198 22.075 28.198 5.051 20.123-.13 26.854-.13 26.854 17.841 17.812 21.716 19.172 21.559 31.278-.157 12.106-16.37 23.516-16.37 23.516z" fill="#fff"/><path d="M92.386 199.453c-2.957-.36 13.923 21.204 13.923 21.204 28.492 12.474 55.032-8.303 61.667-13.497 6.635-5.194-5.052-20.122-5.052-20.122m-70.538 12.415s43.638 11.318 70.538-12.415m-70.538 12.415S68.51 186.04 62.307 164.448m100.617 22.59s16.213-11.41 16.37-23.516c.157-12.106-3.718-13.466-21.559-31.278m-29.434 31.068c.938 4.616-3.318 2.597-3.318 2.597-27.772-18.388-24.312-34.473-24.312-34.473 4.901-27.914 28.199-22.075 28.199-22.075.492.318.981.635 1.464.952m27.401 21.931s5.181-6.731.13-26.854c0 0-9.124-22.286-22.075-28.198-12.952-5.913-39.96-16.873-48.179 13.638m70.124 41.414c-6.853-6.841-15.79-14.324-27.401-21.931M87.611 90.83s-6.417 15.725 12.122 35.99M87.611 90.83s-17.744-2.161-27.478 16.16m70.201 3.323s2.214-6.506-11.67-14.908M60.133 106.99s-7.64 38.085 32.103 44.426c0 0 8.871 1.081 12.549-4.474M60.133 106.99s-26.54 20.777-15.214 38.663c11.327 17.886 17.388 18.795 17.388 18.795m19.398-12.814c5.34 14.977-12.063 13.886-19.398 12.814" stroke="#111" stroke-width="7.389" stroke-linecap="round" stroke-linejoin="round"/><path d="M493.503 359.927l60.346 107.145" stroke="#111" stroke-width="24.631" stroke-linecap="round"/><path d="M638.823 556.976c0 11.292-6.977 19.792-19.94 25.672-13.051 5.919-31.542 8.811-52.722 8.811-20.85 0-39.55-5.239-52.918-13.514-13.425-8.311-20.975-19.309-20.975-30.822 0-11.512 7.55-22.51 20.975-30.821 13.368-8.276 32.068-13.515 52.918-13.515 20.969 0 39.231 4.531 52.139 13.502 12.743 8.857 20.523 22.197 20.523 40.687z" fill="#fff" stroke="#111" stroke-width="7.389"/><path d="M610.498 491.387c0 7.5-4.701 13.322-14.072 17.468-9.436 4.175-22.9 6.248-38.431 6.248-15.211 0-28.803-3.731-38.47-9.568-9.737-5.88-14.941-13.495-14.941-21.221 0-7.727 5.204-15.341 14.941-21.221 9.667-5.838 23.259-9.568 38.47-9.568 15.327 0 28.564 3.234 37.852 9.531 9.118 6.182 14.651 15.439 14.651 28.331z" fill="#fff" stroke="#111" stroke-width="7.389"/><path d="M636.363 534.808c0 11.292-6.978 19.792-19.941 25.672-13.051 5.919-31.541 8.811-52.721 8.811-20.851 0-39.551-5.239-52.919-13.514-13.425-8.311-20.975-19.309-20.975-30.822 0-11.512 7.55-22.51 20.975-30.821 13.368-8.276 32.068-13.515 52.919-13.515 20.968 0 39.23 4.531 52.138 13.502 12.743 8.857 20.524 22.197 20.524 40.687z" fill="#fff" stroke="#111" stroke-width="7.389" stroke-linecap="round"/><path d="M714.336 318.787l2.319 13.042 26.084-4.637-2.319-13.043-26.084 4.638zM593.7 207.305c-7.301.479-12.831 6.785-12.353 14.085.479 7.3 6.784 12.831 14.085 12.352l-1.732-26.437zm146.72 106.844c-9.264-52.104-33.664-80.779-63.566-95.099-28.822-13.804-60.732-13.214-83.154-11.745l1.732 26.437c21.935-1.437 47.8-1.42 69.978 9.202 21.1 10.105 40.927 30.856 48.926 75.843l26.084-4.638z" fill="#111"/><path d="M703.977 312.817s30.592-14.988 56.714-.388l9.159 18.695s-46.413-17.303-71.108 1.119l5.235-19.426z" fill="#fff"/><path fill-rule="evenodd" clip-rule="evenodd" d="M769.85 331.124s-46.413-17.303-71.108 1.119l-11.133 15.992s-14.154 17.473 4.792 35.589l11.828 2.634-12.358-.267c-1.489 8.241 9.765 57.483 30.507 58.817 0 0 16.891 4.37 32.255-11.588 0 0 6.73 5.132 20.395-9.993 0 0 14.429-4.962 18.695-9.16 4.266-4.197 7.67-5.077 6.105-21.959-1.565-16.881-3.362-49.622-29.978-61.184z" fill="#fff"/><path d="M769.85 331.124l-9.159-18.695c-26.122-14.6-56.714.388-56.714.388l-5.235 19.426m71.108-1.119s-46.413-17.303-71.108 1.119m71.108-1.119c26.616 11.562 28.413 44.303 29.978 61.184 1.565 16.882-1.839 17.762-6.105 21.959-4.266 4.198-18.695 9.16-18.695 9.16m-76.286-91.184l-11.133 15.992s-14.154 17.473 4.792 35.589m0 0l11.828 2.634-12.358-.267m.53-2.367s-.255.843-.53 2.367m62.762 47.229c-15.364 15.958-32.255 11.588-32.255 11.588-20.742-1.334-31.996-50.576-30.507-58.817m62.762 47.229s5.167-10.962 1.004-19.46m-1.004 19.46s6.73 5.132 20.395-9.993m0 0s9.399-10.927 5.27-23.657m-57.273-35.166s15.022 26.361 9.924 28.859m8.771-38.019s16.722 25.528 13.323 27.194" stroke="#111" stroke-width="7.389" stroke-linecap="round" stroke-linejoin="round"/><mask id="aaa" style="mask-type:alpha" maskUnits="userSpaceOnUse" x="237" y="0" width="383" height="383"><circle cx="428.23" cy="191.203" r="184.734" fill="url(#aapaint0_linear_23_1509)" stroke="#111" stroke-width="12.316"/></mask><g mask="url(#aaa)"><circle cx="428.23" cy="191.203" r="184.734" fill="#FEA804" stroke="#111" stroke-width="12.316"/><g opacity=".46"><path d="M289.382 240.225l-54.865-3.855-3.56 45.193 27.364 58.14 50.608 35.247 37.319-41.865-56.866-92.86zM321.984 60.22l15.335 87.127 113.934 2.906 41.369-87.146L414.25 8.524 321.984 60.22zM587.158 67.965l47.297 87.484 18.715 2.727-20.794-63.872-43.405-56.858-1.813 30.519zM593.711 250.33l-85.861 1.185-47.281 89.47 56.103 39.074 42.353-25.045 39.879-33.21-5.193-71.474z" fill="#111"/><path d="M346.248 333.085l-37.319 41.865 29.374 17.023 7.945-58.888z" fill="#111"/><path d="M234.517 236.37l-16.781-88.133 32.155-76.384 72.093-11.633m-87.467 176.15l54.865 3.855m-54.865-3.855l-3.56 45.193 27.364 58.14 50.608 35.247m13.055-314.73l15.335 87.127M321.984 60.22L414.25 8.524m-76.931 138.823l-47.937 92.878m47.937-92.878l113.934 2.906m-161.871 89.972l56.866 92.86m0 0l-37.319 41.865m37.319-41.865c43.781 6.839 68.844 8.471 114.321 7.9m-114.321-7.9l-7.945 58.888-29.374-17.023m142.324-224.697l41.369-87.146m-41.369 87.146c28.638 39.7 40.926 61.869 56.597 101.262M492.622 63.107L414.25 8.524m78.372 54.583l94.536 4.858M414.25 8.524l11.115-36.925m161.793 96.366l47.297 87.484m-47.297-87.484l1.813-30.519 43.405 56.858 20.794 63.872-18.715-2.727m0 0c-8.628 38.062-17.174 58.888-40.744 94.881m-85.861 1.185l85.861-1.185m-85.861 1.185l-47.281 89.47m133.142-90.655l5.193 71.474-39.879 33.21-42.353 25.045m0 0l-56.103-39.074m56.103 39.074c-23.235 16.194-38.812 24.611-71.366 38.338" stroke="#000" stroke-width="12.687"/></g><path fill-rule="evenodd" clip-rule="evenodd" d="M343.983 201.055c-4.228 13.401-11.254 22.168-19.205 22.168-12.924 0-23.4-23.158-23.4-51.725v-30.789l46.799 30.789c0 4.687-.282 9.229-.811 13.547l-12.736 6.158 9.353 9.852zM375.271 172.84c0 36.668 13.233 66.393 29.557 66.393 12.882 0 23.839-18.51 27.887-44.336l-11.876-8.621 13.426-7.389c.08-1.992.121-4.009.121-6.047v-39.521l-59.115 39.521z" fill="#111"/><path d="M298.916 125.931s3.695-9.853 9.852-9.852c6.158.001 43.105 34.484 43.105 34.484s-1.231 8.622-4.926 6.157c-3.695-2.464-48.031-30.789-48.031-30.789zM436.851 118.629s-7.046-18.562-14.779-18.562c-7.733.001-51.726 49.573-51.726 49.573s1.547 10.856 6.187 7.753c4.64-3.103 60.318-38.764 60.318-38.764z" fill="#111" stroke="#111" stroke-width="2.463"/></g><defs><linearGradient id="aapaint0_linear_23_1509" x1="212.707" y1="36.026" x2="605.574" y2="335.295" gradientUnits="userSpaceOnUse"><stop stop-color="#179B3C"/><stop offset=".286" stop-color="#74C722"/><stop offset=".536" stop-color="#B5B911"/><stop offset=".792" stop-color="#F6AA00"/><stop offset="1" stop-color="#FF6B00"/></linearGradient></defs></svg>