<?xml version="1.0" encoding="utf-8"?><svg width="17" height="17" fill="none" xmlns="http://www.w3.org/2000/svg" viewBox="0 0 17 17"><path d="M7.25 11.91a.75.75 0 001.5 0h-1.5zM8 1l.553-.507a.75.75 0 00-1.106 0L8 1zM3.447 4.857A.75.75 0 004.553 5.87L3.447 4.857zm8 1.013a.75.75 0 001.106-1.013L11.447 5.87zM2.133 8.568h11.734v-1.5H2.133v1.5zm13.117 1.978v2.727h1.5v-2.727h-1.5zm-1.383 4.704H2.133v1.5h11.734v-1.5zM.75 13.273v-2.727h-1.5v2.727h1.5zm1.383 1.977c-.603 0-1.383-.703-1.383-1.977h-1.5c0 1.738 1.13 3.477 2.883 3.477v-1.5zm13.117-1.977c0 1.274-.78 1.977-1.383 1.977v1.5c1.753 0 2.883-1.739 2.883-3.477h-1.5zm-1.383-4.705c.603 0 1.383.703 1.383 1.978h1.5c0-1.739-1.13-3.478-2.883-3.478v1.5zm-11.734-1.5C.38 7.068-.75 8.807-.75 10.546h1.5c0-1.275.78-1.978 1.383-1.978v-1.5zM8.75 11.91V1h-1.5v10.91h1.5zM4.553 5.87l4-4.363L7.447.493l-4 4.364L4.553 5.87zm2.894-4.363l4 4.363 1.106-1.013-4-4.364-1.106 1.014z" fill="currentColor"/></svg>