<?xml version="1.0" encoding="utf-8"?><svg width="18" height="18" fill="none" xmlns="http://www.w3.org/2000/svg" viewBox="0 0 18 18"><path d="M9 12l3-3m0 0L9 6m3 3H1m0-4.752V4.2c0-1.12 0-1.68.218-2.108.192-.377.497-.682.874-.874C2.52 1 3.08 1 4.2 1h9.6c1.12 0 1.68 0 2.107.218.377.192.683.497.875.874.218.427.218.987.218 2.105v9.607c0 1.117 0 1.676-.218 2.104a2.002 2.002 0 01-.875.874c-.427.218-.986.218-2.104.218H4.197c-1.118 0-1.678 0-2.105-.218a2 2 0 01-.874-.874C1 15.48 1 14.92 1 13.8v-.05" stroke="currentColor" stroke-width="2" stroke-linecap="round" stroke-linejoin="round"/></svg>