<?xml version="1.0" encoding="utf-8"?><svg width="17" height="18" fill="none" xmlns="http://www.w3.org/2000/svg" viewBox="0 0 17 18"><path d="M6 17H0V8.631c0-.523 0-.785.065-1.028.058-.216.153-.42.28-.604.145-.209.346-.381.748-.726L5.894 2.16c.746-.639 1.119-.958 1.538-1.08.37-.107.765-.107 1.135 0 .42.122.794.442 1.54 1.081l4.8 4.112c.402.345.603.517.748.726.128.184.222.388.28.604.064.243.065.505.065 1.028V17h-6m-4 0h4m-4 0v-5.333c0-1.082.895-1.958 2-1.958s2 .876 2 1.958V17" stroke="currentColor" stroke-width="1.5" stroke-miterlimit="16" stroke-linecap="square"/></svg>