<?xml version="1.0" encoding="utf-8"?><svg width="87" height="97" fill="none" xmlns="http://www.w3.org/2000/svg" viewBox="0 0 87 97"><g filter="url(#akfilter0_f_0_648)"><path d="M21.427 21.188l-6.5 25.212 33.006 45.174 33.022-24.127-33.006-45.174-26.522-1.085z" fill="#111" fill-opacity=".75"/><path d="M37.552 30.78a7.361 7.361 0 11-11.888 8.687 7.361 7.361 0 0111.888-8.686z" fill="#111" fill-opacity=".75"/><path d="M14.927 46.4l-1.101-.284c-.085.33-.018.68.183.955l.918-.671zm6.5-25.212l.046-1.136a1.137 1.137 0 00-1.148.853l1.102.283zm26.522 1.085l.918-.671a1.137 1.137 0 00-.872-.465l-.046 1.136zm33.006 45.174l.67.918a1.137 1.137 0 00.248-1.59l-.918.672zM47.933 91.574l-.918.67c.37.508 1.082.619 1.589.248l-.671-.918zM36.27 49.546l-.704-.893a1.137 1.137 0 00-.214 1.564l.918-.67zm5.43 15.196a1.137 1.137 0 001.342 1.836L41.7 64.742zm11.12 9.383a1.137 1.137 0 101.837-1.342l-1.837 1.342zm2.995-10.879a1.137 1.137 0 00-1.277-1.882l1.277 1.882zm-11.416 5.19a1.137 1.137 0 001.342 1.836l-1.342-1.837zM10.198 32.803l.839-.768-.839.769zM7.138 22C7.137 13.791 13.79 7.137 22 7.137V4.863C12.535 4.863 4.863 12.535 4.863 22h2.274zM22 7.137c8.209 0 14.863 6.654 14.863 14.863h2.274c0-9.465-7.672-17.137-17.137-17.137v2.274zm-5.972 39.547l6.5-25.212-2.203-.567-6.5 25.211 2.203.568zm5.352-24.36l26.523 1.085.092-2.272-26.522-1.085-.093 2.273zm25.65.62l33.007 45.174 1.836-1.342-33.006-45.174-1.836 1.342zm33.254 43.584L47.262 90.656l1.342 1.836 33.022-24.127-1.342-1.837zM48.851 90.903L15.845 45.729l-1.836 1.342 33.006 45.174 1.836-1.342zm-12.58-41.357l.703.893.004-.002a1.762 1.762 0 01.095-.073 23.186 23.186 0 011.507-1.027c1.015-.636 2.402-1.4 3.923-1.954 1.53-.556 3.118-.869 4.566-.685 1.402.177 2.724.823 3.808 2.306l1.836-1.341c-1.474-2.017-3.371-2.97-5.359-3.222-1.943-.246-3.917.183-5.628.805-1.72.625-3.256 1.476-4.352 2.162a25.412 25.412 0 00-1.67 1.14 9.671 9.671 0 00-.099.075l-.027.02-.008.007a.065.065 0 01-.002.002h-.001c0 .001-.001.001.703.894zm9.799 13.412l.654.93.001-.001.003-.002.008-.006a3.158 3.158 0 00.128-.093c.086-.062.207-.153.358-.27.302-.235.724-.575 1.213-1.005.972-.856 2.23-2.086 3.327-3.561 1.093-1.467 2.077-3.242 2.416-5.182.347-1.983.008-4.09-1.465-6.105l-1.836 1.341c1.084 1.484 1.308 2.956 1.06 4.372-.254 1.458-1.02 2.902-1.999 4.216-.972 1.306-2.105 2.42-3.006 3.212a23.242 23.242 0 01-1.416 1.151 9.088 9.088 0 01-.08.058l-.018.013-.003.002.655.93zm-3.028 3.62l3.698-2.702L45.4 62.04 41.7 64.742l1.342 1.836zm-7.69-16.361l9.8 13.412 1.836-1.342-9.8-13.412-1.836 1.342zm9.8 13.412l2.698 3.693 1.836-1.341-2.698-3.694-1.837 1.342zm2.698 3.693l4.97 6.803 1.837-1.342-4.97-6.802-1.837 1.341zm1.556.27l6.409-4.346-1.277-1.882-6.408 4.346 1.276 1.883zm-1.309-1.859L44.4 68.436l1.342 1.836 3.698-2.702-1.342-1.837zM36.634 31.452a6.224 6.224 0 01-1.354 8.697l1.342 1.837A8.499 8.499 0 0038.47 30.11l-1.836 1.342zm-1.354 8.697a6.224 6.224 0 01-8.698-1.353l-1.836 1.342a8.499 8.499 0 0011.876 1.848l-1.342-1.837zm-8.698-1.353a6.224 6.224 0 011.354-8.698l-1.342-1.836a8.499 8.499 0 00-1.848 11.876l1.836-1.342zm1.354-8.698a6.224 6.224 0 018.698 1.354l1.836-1.342a8.499 8.499 0 00-11.876-1.848l1.342 1.836zm-16.9 1.937A14.805 14.805 0 017.138 22H4.863a17.08 17.08 0 004.496 11.572l1.678-1.537zM36.864 22c0 7.036-4.89 12.932-11.458 14.471l.519 2.215C33.497 36.91 39.137 30.116 39.137 22h-2.274zM11.5 34l.753-.852-.003-.003-.008-.007a8.45 8.45 0 00-.158-.14 74.672 74.672 0 01-.815-.738 11.966 11.966 0 01-.232-.225l-1.678 1.537c.156.17.532.513.81.763.151.137.296.266.402.36l.127.114.036.032.01.008.002.002v.001L11.5 34z" fill="#9CFFB8"/></g><path d="M21.427 21.188l-6.5 25.212 33.006 45.174 33.022-24.127-33.006-45.174-26.522-1.085z" fill="#111" fill-opacity=".75"/><path d="M37.552 30.78a7.361 7.361 0 11-11.888 8.687 7.361 7.361 0 0111.888-8.686z" fill="#111" fill-opacity=".75"/><path d="M14.927 46.4l-1.101-.284c-.085.33-.018.68.183.955l.918-.671zm6.5-25.212l.046-1.136a1.137 1.137 0 00-1.148.853l1.102.283zm26.522 1.085l.918-.671a1.137 1.137 0 00-.872-.465l-.046 1.136zm33.006 45.174l.67.918a1.137 1.137 0 00.248-1.59l-.918.672zM47.933 91.574l-.918.67c.37.508 1.082.619 1.589.248l-.671-.918zM36.27 49.546l-.704-.893a1.137 1.137 0 00-.214 1.564l.918-.67zm5.43 15.196a1.137 1.137 0 001.342 1.836L41.7 64.742zm11.12 9.383a1.137 1.137 0 101.837-1.342l-1.837 1.342zm2.995-10.879a1.137 1.137 0 00-1.277-1.882l1.277 1.882zm-11.416 5.19a1.137 1.137 0 001.342 1.836l-1.342-1.837zM10.198 32.803l.839-.768-.839.769zM7.138 22C7.137 13.791 13.79 7.137 22 7.137V4.863C12.535 4.863 4.863 12.535 4.863 22h2.274zM22 7.137c8.209 0 14.863 6.654 14.863 14.863h2.274c0-9.465-7.672-17.137-17.137-17.137v2.274zm-5.972 39.547l6.5-25.212-2.203-.567-6.5 25.211 2.203.568zm5.352-24.36l26.523 1.085.092-2.272-26.522-1.085-.093 2.273zm25.65.62l33.007 45.174 1.836-1.342-33.006-45.174-1.836 1.342zm33.254 43.584L47.262 90.656l1.342 1.836 33.022-24.127-1.342-1.837zM48.851 90.903L15.845 45.729l-1.836 1.342 33.006 45.174 1.836-1.342zm-12.58-41.357l.703.893.004-.002a1.762 1.762 0 01.095-.073 23.186 23.186 0 011.507-1.027c1.015-.636 2.402-1.4 3.923-1.954 1.53-.556 3.118-.869 4.566-.685 1.402.177 2.724.823 3.808 2.306l1.836-1.341c-1.474-2.017-3.371-2.97-5.359-3.222-1.943-.246-3.917.183-5.628.805-1.72.625-3.256 1.476-4.352 2.162a25.412 25.412 0 00-1.67 1.14 9.671 9.671 0 00-.099.075l-.027.02-.008.007a.065.065 0 01-.002.002h-.001c0 .001-.001.001.703.894zm9.799 13.412l.654.93.001-.001.003-.002.008-.006a3.158 3.158 0 00.128-.093c.086-.062.207-.153.358-.27.302-.235.724-.575 1.213-1.005.972-.856 2.23-2.086 3.327-3.561 1.093-1.467 2.077-3.242 2.416-5.182.347-1.983.008-4.09-1.465-6.105l-1.836 1.341c1.084 1.484 1.308 2.956 1.06 4.372-.254 1.458-1.02 2.902-1.999 4.216-.972 1.306-2.105 2.42-3.006 3.212a23.242 23.242 0 01-1.416 1.151 9.088 9.088 0 01-.08.058l-.018.013-.003.002.655.93zm-3.028 3.62l3.698-2.702L45.4 62.04 41.7 64.742l1.342 1.836zm-7.69-16.361l9.8 13.412 1.836-1.342-9.8-13.412-1.836 1.342zm9.8 13.412l2.698 3.693 1.836-1.341-2.698-3.694-1.837 1.342zm2.698 3.693l4.97 6.803 1.837-1.342-4.97-6.802-1.837 1.341zm1.556.27l6.409-4.346-1.277-1.882-6.408 4.346 1.276 1.883zm-1.309-1.859L44.4 68.436l1.342 1.836 3.698-2.702-1.342-1.837zM36.634 31.452a6.224 6.224 0 01-1.354 8.697l1.342 1.837A8.499 8.499 0 0038.47 30.11l-1.836 1.342zm-1.354 8.697a6.224 6.224 0 01-8.698-1.353l-1.836 1.342a8.499 8.499 0 0011.876 1.848l-1.342-1.837zm-8.698-1.353a6.224 6.224 0 011.354-8.698l-1.342-1.836a8.499 8.499 0 00-1.848 11.876l1.836-1.342zm1.354-8.698a6.224 6.224 0 018.698 1.354l1.836-1.342a8.499 8.499 0 00-11.876-1.848l1.342 1.836zm-16.9 1.937A14.805 14.805 0 017.138 22H4.863a17.08 17.08 0 004.496 11.572l1.678-1.537zM36.864 22c0 7.036-4.89 12.932-11.458 14.471l.519 2.215C33.497 36.91 39.137 30.116 39.137 22h-2.274zM11.5 34l.753-.852-.003-.003-.008-.007a8.45 8.45 0 00-.158-.14 74.672 74.672 0 01-.815-.738 11.966 11.966 0 01-.232-.225l-1.678 1.537c.156.17.532.513.81.763.151.137.296.266.402.36l.127.114.036.032.01.008.002.002v.001L11.5 34z" fill="#9CFFB8"/><defs><filter id="akfilter0_f_0_648" x=".863" y=".863" width="85.228" height="95.848" filterUnits="userSpaceOnUse" color-interpolation-filters="sRGB"><feFlood flood-opacity="0" result="BackgroundImageFix"/><feBlend in="SourceGraphic" in2="BackgroundImageFix" result="shape"/><feGaussianBlur stdDeviation="2" result="effect1_foregroundBlur_0_648"/></filter></defs></svg>