<?xml version="1.0" encoding="utf-8"?><svg width="24" height="25" fill="none" xmlns="http://www.w3.org/2000/svg" viewBox="0 0 24 25"><path d="M12 19.5c.946 0 1.81-.103 2.598-.281l-1.757-1.757c-.273.021-.55.038-.841.038-5.351 0-7.424-3.846-7.926-5a8.641 8.641 0 011.508-2.297L4.184 8.805c-1.538 1.667-2.121 3.346-2.132 3.379a.994.994 0 000 .633c.02.066 2.315 6.683 9.948 6.683zm0-14c-1.837 0-3.346.396-4.604.981l-3.69-3.688-1.413 1.414 18 18 1.414-1.414-3.32-3.319c2.615-1.951 3.548-4.615 3.562-4.657a.994.994 0 000-.633c-.022-.067-2.316-6.684-9.95-6.684zm4.972 10.558l-2.28-2.28c.19-.39.308-.819.308-1.278 0-1.641-1.36-3-3-3-.46 0-.888.118-1.277.309L8.915 8.001A9.26 9.26 0 0112 7.5c5.35 0 7.424 3.846 7.926 5-.302.692-1.166 2.342-2.954 3.558z" fill="#000"/></svg>