<?xml version="1.0" encoding="utf-8"?><svg width="584" height="153" fill="none" xmlns="http://www.w3.org/2000/svg" viewBox="0 0 584 153"><g filter="url(#amfilter0_f_0_513)" fill="#fff"><path d="M21.688 57.723H10.555l9.265-43.396H4L5.94 4.88h42.774l-1.94 9.448h-15.82l-9.266 43.396zM69.552 57.723H44.1L55.343 4.88h21.606c9.485 0 15.125 4.76 15.125 11.426 0 6.921-5.017 12.158-11.975 13.696l-.037.256c5.713 1.099 9.448 5.274 9.448 10.657 0 9.778-8.203 16.81-19.958 16.81zM64.644 12.79l-2.93 13.55h8.717c6.262 0 10.473-3.296 10.473-7.874 0-3.625-2.746-5.676-7.91-5.676h-8.35zm-7.836 36.438h10.656c6.519 0 10.804-3.552 10.804-8.606 0-4.102-2.93-6.445-8.68-6.445h-9.521l-3.26 15.051zM125.655 13.521c-9.704 0-16.955 9.742-16.955 21.717 0 8.423 4.724 13.843 12.011 13.843 9.705 0 16.956-9.742 16.956-21.753 0-8.423-4.724-13.806-12.012-13.806zm-5.163 45.081c-14.173 0-23.035-9.412-23.035-22.742C97.457 17.44 109.725 4 125.838 4c14.356 0 23.108 9.448 23.108 22.742 0 18.457-12.378 31.86-28.454 31.86zM186.08 57.723l7.617-35.12h-.659l-31.421 35.12h-10.73L162.13 4.88h10.913l-7.617 35.193h.659l31.421-35.193h10.73l-11.243 52.844H186.08zM268.404 57.723h-11.059l9.265-43.36h-23.181l-9.265 43.36h-11.133L234.273 4.88h45.374l-11.243 52.844zM289.132 4.879h19.299c10.474 0 17.322 6.116 17.322 15.454 0 12.964-9.375 20.984-22.998 20.984h-10.144l-3.552 16.406h-11.133L289.132 4.88zm9.265 9.082l-3.992 18.384h8.203c7.251 0 11.939-4.322 11.939-10.95 0-4.87-3.259-7.434-8.716-7.434h-7.434zM351.241 15.609l-11.242 20.984h13.696l-2.197-20.984h-.257zm4.431 42.114l-1.318-12.597H335.75l-6.884 12.597h-11.829L346.92 4.88h13.037l6.812 52.844h-11.097zM397.823 57.723h-25.451L383.614 4.88h21.607c9.485 0 15.124 4.76 15.124 11.426 0 6.921-5.017 12.158-11.975 13.696l-.037.256c5.713 1.099 9.449 5.274 9.449 10.657 0 9.778-8.203 16.81-19.959 16.81zm-4.907-44.934l-2.93 13.55h8.716c6.262 0 10.474-3.296 10.474-7.874 0-3.625-2.747-5.676-7.91-5.676h-8.35zm-7.837 36.438h10.657c6.518 0 10.803-3.552 10.803-8.606 0-4.102-2.93-6.445-8.679-6.445h-9.522l-3.259 15.051zM457.149 57.723l7.618-35.12h-.66l-31.42 35.12h-10.73L433.199 4.88h10.913l-7.617 35.193h.659l31.421-35.193h10.73l-11.243 52.844h-10.913zM520.833 57.723h-11.132l9.265-43.396h-15.454l-6.116 22.412c-3.552 13.513-8.459 21.46-20.251 21.46-1.795 0-3.223-.256-3.882-.476l2.05-9.96c.513.11 1.465.292 2.417.292 5.018 0 7.691-4.98 9.595-12.085l8.203-31.091h36.548l-11.243 52.844zM560.567 15.609l-11.242 20.984h13.696l-2.197-20.984h-.257zm4.432 42.114l-1.319-12.597h-18.603l-6.885 12.597h-11.829L556.246 4.88h13.037l6.812 52.844h-11.096zM12.972 131.207l1.941-9.521h75l-1.94 9.521h-75zM113.241 147.723h-11.133l9.265-43.396h-15.82l1.94-9.448h42.774l-1.941 9.448h-15.82l-9.265 43.396zM161.104 147.723h-25.451l11.243-52.844h21.606c9.485 0 15.124 4.76 15.124 11.426 0 6.921-5.017 12.158-11.975 13.696l-.036.256c5.713 1.099 9.448 5.274 9.448 10.657 0 9.778-8.203 16.809-19.959 16.809zm-4.907-44.934l-2.929 13.55h8.715c6.263 0 10.474-3.296 10.474-7.874 0-3.625-2.747-5.676-7.91-5.676h-8.35zm-7.837 36.438h10.657c6.519 0 10.803-3.552 10.803-8.606 0-4.101-2.929-6.445-8.679-6.445h-9.521l-3.26 15.051zM217.208 103.521c-9.705 0-16.956 9.742-16.956 21.717 0 8.423 4.725 13.843 12.012 13.843 9.705 0 16.956-9.742 16.956-21.753 0-8.423-4.724-13.807-12.012-13.807zm-5.164 45.081c-14.172 0-23.034-9.412-23.034-22.742 0-18.42 12.268-31.86 28.381-31.86 14.356 0 23.108 9.448 23.108 22.742 0 18.457-12.378 31.86-28.455 31.86zM277.633 147.723l7.617-35.119h-.659l-31.421 35.119h-10.73l11.243-52.844h10.913l-7.617 35.193h.659l31.421-35.193h10.73l-11.243 52.844h-10.913zm-11.17-68.115h7.068c-.696 3.589 1.428 5.676 5.017 5.676 3.736 0 6.665-2.087 7.471-5.676h7.068c-1.502 6.995-6.738 11.352-14.905 11.352-8.166 0-13-4.174-11.719-11.352zM357.577 114.251c0-.219 0-.476-.037-1.208-.366-5.64-4.98-9.448-11.06-9.448-9.887 0-16.735 9.118-16.735 21.863 0 8.349 4.467 13.476 11.755 13.476 6.079 0 11.023-3.516 13.037-9.265h10.877c-2.381 11.426-12.122 18.933-24.5 18.933-13.733 0-22.559-8.826-22.559-22.522 0-18.97 11.683-32.08 28.968-32.08 12.121 0 20.837 7.471 21.167 18.494.036.769 0 1.281-.073 1.757h-10.84zM414.229 147.723H403.17l9.265-43.359h-23.181l-9.265 43.359h-11.133l11.243-52.844h45.373l-11.243 52.844zM455.685 103.521c-9.705 0-16.956 9.742-16.956 21.717 0 8.423 4.724 13.843 12.012 13.843 9.704 0 16.955-9.742 16.955-21.753 0-8.423-4.724-13.807-12.011-13.807zm-5.164 45.081c-14.172 0-23.035-9.412-23.035-22.742 0-18.42 12.268-31.86 28.382-31.86 14.355 0 23.108 9.448 23.108 22.742 0 18.457-12.378 31.86-28.455 31.86zM492.159 94.879h19.299c10.474 0 17.322 6.116 17.322 15.454 0 12.964-9.375 20.984-22.998 20.984h-10.144l-3.552 16.406h-11.133l11.206-52.844zm9.265 9.082l-3.991 18.384h8.203c7.251 0 11.938-4.322 11.938-10.95 0-4.871-3.259-7.434-8.716-7.434h-7.434zM552.694 147.723h-11.133l9.265-43.396h-15.82l1.941-9.448h42.773l-1.941 9.448h-15.82l-9.265 43.396z"/></g><path d="M21.688 57.723H10.555l9.265-43.396H4L5.94 4.88h42.774l-1.94 9.448h-15.82l-9.266 43.396zM69.552 57.723H44.1L55.343 4.88h21.606c9.485 0 15.125 4.76 15.125 11.426 0 6.921-5.017 12.158-11.975 13.696l-.037.256c5.713 1.099 9.448 5.274 9.448 10.657 0 9.778-8.203 16.81-19.958 16.81zM64.644 12.79l-2.93 13.55h8.717c6.262 0 10.473-3.296 10.473-7.874 0-3.625-2.746-5.676-7.91-5.676h-8.35zm-7.836 36.438h10.656c6.519 0 10.804-3.552 10.804-8.606 0-4.102-2.93-6.445-8.68-6.445h-9.521l-3.26 15.051zM125.655 13.521c-9.704 0-16.955 9.742-16.955 21.717 0 8.423 4.724 13.843 12.011 13.843 9.705 0 16.956-9.742 16.956-21.753 0-8.423-4.724-13.806-12.012-13.806zm-5.163 45.081c-14.173 0-23.035-9.412-23.035-22.742C97.457 17.44 109.725 4 125.838 4c14.356 0 23.108 9.448 23.108 22.742 0 18.457-12.378 31.86-28.454 31.86zM186.08 57.723l7.617-35.12h-.659l-31.421 35.12h-10.73L162.13 4.88h10.913l-7.617 35.193h.659l31.421-35.193h10.73l-11.243 52.844H186.08zM268.404 57.723h-11.059l9.265-43.36h-23.181l-9.265 43.36h-11.133L234.273 4.88h45.374l-11.243 52.844zM289.132 4.879h19.299c10.474 0 17.322 6.116 17.322 15.454 0 12.964-9.375 20.984-22.998 20.984h-10.144l-3.552 16.406h-11.133L289.132 4.88zm9.265 9.082l-3.992 18.384h8.203c7.251 0 11.939-4.322 11.939-10.95 0-4.87-3.259-7.434-8.716-7.434h-7.434zM351.241 15.609l-11.242 20.984h13.696l-2.197-20.984h-.257zm4.431 42.114l-1.318-12.597H335.75l-6.884 12.597h-11.829L346.92 4.88h13.037l6.812 52.844h-11.097zM397.823 57.723h-25.451L383.614 4.88h21.607c9.485 0 15.124 4.76 15.124 11.426 0 6.921-5.017 12.158-11.975 13.696l-.037.256c5.713 1.099 9.449 5.274 9.449 10.657 0 9.778-8.203 16.81-19.959 16.81zm-4.907-44.934l-2.93 13.55h8.716c6.262 0 10.474-3.296 10.474-7.874 0-3.625-2.747-5.676-7.91-5.676h-8.35zm-7.837 36.438h10.657c6.518 0 10.803-3.552 10.803-8.606 0-4.102-2.93-6.445-8.679-6.445h-9.522l-3.259 15.051zM457.149 57.723l7.618-35.12h-.66l-31.42 35.12h-10.73L433.199 4.88h10.913l-7.617 35.193h.659l31.421-35.193h10.73l-11.243 52.844h-10.913zM520.833 57.723h-11.132l9.265-43.396h-15.454l-6.116 22.412c-3.552 13.513-8.459 21.46-20.251 21.46-1.795 0-3.223-.256-3.882-.476l2.05-9.96c.513.11 1.465.292 2.417.292 5.018 0 7.691-4.98 9.595-12.085l8.203-31.091h36.548l-11.243 52.844zM560.567 15.609l-11.242 20.984h13.696l-2.197-20.984h-.257zm4.432 42.114l-1.319-12.597h-18.603l-6.885 12.597h-11.829L556.246 4.88h13.037l6.812 52.844h-11.096zM12.972 131.207l1.941-9.521h75l-1.94 9.521h-75zM113.241 147.723h-11.133l9.265-43.396h-15.82l1.94-9.448h42.774l-1.941 9.448h-15.82l-9.265 43.396zM161.104 147.723h-25.451l11.243-52.844h21.606c9.485 0 15.124 4.76 15.124 11.426 0 6.921-5.017 12.158-11.975 13.696l-.036.256c5.713 1.099 9.448 5.274 9.448 10.657 0 9.778-8.203 16.809-19.959 16.809zm-4.907-44.934l-2.929 13.55h8.715c6.263 0 10.474-3.296 10.474-7.874 0-3.625-2.747-5.676-7.91-5.676h-8.35zm-7.837 36.438h10.657c6.519 0 10.803-3.552 10.803-8.606 0-4.101-2.929-6.445-8.679-6.445h-9.521l-3.26 15.051zM217.208 103.521c-9.705 0-16.956 9.742-16.956 21.717 0 8.423 4.725 13.843 12.012 13.843 9.705 0 16.956-9.742 16.956-21.753 0-8.423-4.724-13.807-12.012-13.807zm-5.164 45.081c-14.172 0-23.034-9.412-23.034-22.742 0-18.42 12.268-31.86 28.381-31.86 14.356 0 23.108 9.448 23.108 22.742 0 18.457-12.378 31.86-28.455 31.86zM277.633 147.723l7.617-35.119h-.659l-31.421 35.119h-10.73l11.243-52.844h10.913l-7.617 35.193h.659l31.421-35.193h10.73l-11.243 52.844h-10.913zm-11.17-68.115h7.068c-.696 3.589 1.428 5.676 5.017 5.676 3.736 0 6.665-2.087 7.471-5.676h7.068c-1.502 6.995-6.738 11.352-14.905 11.352-8.166 0-13-4.174-11.719-11.352zM357.577 114.251c0-.219 0-.476-.037-1.208-.366-5.64-4.98-9.448-11.06-9.448-9.887 0-16.735 9.118-16.735 21.863 0 8.349 4.467 13.476 11.755 13.476 6.079 0 11.023-3.516 13.037-9.265h10.877c-2.381 11.426-12.122 18.933-24.5 18.933-13.733 0-22.559-8.826-22.559-22.522 0-18.97 11.683-32.08 28.968-32.08 12.121 0 20.837 7.471 21.167 18.494.036.769 0 1.281-.073 1.757h-10.84zM414.229 147.723H403.17l9.265-43.359h-23.181l-9.265 43.359h-11.133l11.243-52.844h45.373l-11.243 52.844zM455.685 103.521c-9.705 0-16.956 9.742-16.956 21.717 0 8.423 4.724 13.843 12.012 13.843 9.704 0 16.955-9.742 16.955-21.753 0-8.423-4.724-13.807-12.011-13.807zm-5.164 45.081c-14.172 0-23.035-9.412-23.035-22.742 0-18.42 12.268-31.86 28.382-31.86 14.355 0 23.108 9.448 23.108 22.742 0 18.457-12.378 31.86-28.455 31.86zM492.159 94.879h19.299c10.474 0 17.322 6.116 17.322 15.454 0 12.964-9.375 20.984-22.998 20.984h-10.144l-3.552 16.406h-11.133l11.206-52.844zm9.265 9.082l-3.991 18.384h8.203c7.251 0 11.938-4.322 11.938-10.95 0-4.871-3.259-7.434-8.716-7.434h-7.434zM552.694 147.723h-11.133l9.265-43.396h-15.82l1.941-9.448h42.773l-1.941 9.448h-15.82l-9.265 43.396z" fill="#fff"/><defs><filter id="amfilter0_f_0_513" x="0" y="0" width="583.721" height="152.602" filterUnits="userSpaceOnUse" color-interpolation-filters="sRGB"><feFlood flood-opacity="0" result="BackgroundImageFix"/><feBlend in="SourceGraphic" in2="BackgroundImageFix" result="shape"/><feGaussianBlur stdDeviation="2" result="effect1_foregroundBlur_0_513"/></filter></defs></svg>