<?xml version="1.0" encoding="utf-8"?><svg width="10" height="16" fill="none" xmlns="http://www.w3.org/2000/svg" viewBox="0 0 10 16"><path d="M10 5.333v-.621c0-.896-.383-1.755-1.061-2.388a3.759 3.759 0 00-2.559-.99h-.666V0H4.286v1.333H3.62c-.86.001-1.69.287-2.344.807A3.33 3.33 0 00.05 4.172 3.192 3.192 0 00.526 6.46a3.586 3.586 0 001.951 1.457l1.809.563v4.853H3.62a2.276 2.276 0 01-1.549-.6 1.98 1.98 0 01-.642-1.445v-.621H0v.621c0 .896.383 1.755 1.061 2.388a3.76 3.76 0 002.559.99h.666V16h1.428v-1.333h.666c.86-.001 1.69-.287 2.344-.807a3.33 3.33 0 001.226-2.032 3.192 3.192 0 00-.476-2.288 3.586 3.586 0 00-1.951-1.457L5.714 7.52V2.667h.666c.581 0 1.138.216 1.549.6.41.383.642.903.642 1.445v.621H10zM7.071 9.347c.494.154.913.466 1.183.882.27.415.372.906.289 1.386-.084.48-.347.915-.743 1.23-.396.315-.9.488-1.42.488h-.666V8.925l1.357.422zM4.286 7.075l-1.357-.422a2.17 2.17 0 01-1.183-.882 1.932 1.932 0 01-.289-1.386c.084-.48.347-.916.743-1.23.396-.315.9-.488 1.42-.488h.666v4.408z" fill="currentColor"/></svg>