<?xml version="1.0" encoding="utf-8"?><svg width="18" height="20" fill="none" xmlns="http://www.w3.org/2000/svg" viewBox="0 0 18 20"><path d="M6.23 7H4.2c-1.12 0-1.68 0-2.108.218a1.999 1.999 0 00-.874.874C1 8.52 1 9.08 1 10.2v5.6c0 1.12 0 1.68.218 2.108a2 2 0 00.874.874c.427.218.987.218 2.105.218h9.606c1.118 0 1.677 0 2.104-.218.377-.192.683-.498.875-.874.218-.428.218-.986.218-2.104v-5.607c0-1.118 0-1.678-.218-2.105a2.001 2.001 0 00-.875-.874C15.48 7 14.92 7 13.8 7H11.77M6.23 7h5.539M6.23 7A.23.23 0 016 6.77V4a3 3 0 016 0v2.77c0 .127-.104.23-.231.23M9 13c1 0 1-1 1-1s0-1-1-1-1 1-1 1 0 1 1 1zm0 0v3H8h2" stroke="#111" stroke-width="2" stroke-linecap="round" stroke-linejoin="round"/></svg>