<?xml version="1.0" encoding="utf-8"?><svg width="26" height="17" fill="none" xmlns="http://www.w3.org/2000/svg" viewBox="0 0 26 17"><path d="M10.486.5h.219a4.618 4.618 0 012.511.868c.01.007.021.007.033 0 1.048-.624 2.335-.832 3.514-.486.65.19 1.242.5 1.851.792.224.106.42.183.591.23.125.034.238.05.34.05.582 0 1.205-.136 1.76-.338a.547.547 0 01.149-.037.339.339 0 01.253.087c.031.029.07.083.116.162l3.143 5.442a.375.375 0 01.034.095v.149a.37.37 0 01-.146.22 40607.492 40607.492 0 00-3.771 2.654.012.012 0 00-.002.005.012.012 0 00.004.01l.526.532a1.535 1.535 0 01-.167 2.4 1.51 1.51 0 01-1.276.195c-.003-.001-.005 0-.005.004a1.515 1.515 0 01-1.07 1.312 1.49 1.49 0 01-1.164-.13c-.004-.002-.006 0-.007.004a1.506 1.506 0 01-2.04 1.117.017.017 0 00-.018.003c-.626.551-1.549.667-2.319.42a.037.037 0 00-.025 0 3.36 3.36 0 01-1.837.186 2.815 2.815 0 01-1.703-1.045 1.506 1.506 0 01-1.799-1.397.01.01 0 00-.002-.003A.01.01 0 008.17 14a1.507 1.507 0 01-1.873-1.46.008.008 0 00-.008-.005 1.503 1.503 0 01-1.614-.84 1.54 1.54 0 01.296-1.742.012.012 0 000-.01 29765.79 29765.79 0 00-3.79-3.177c-.109-.09-.166-.158-.182-.291V6.41a.396.396 0 01.068-.179l3.587-5.157c.094-.135.202-.22.374-.196a.553.553 0 01.146.05c.471.217.981.38 1.494.458.223.034.405.045.627-.004a3.87 3.87 0 00.49-.146c.56-.205 1.108-.439 1.689-.587A4.862 4.862 0 0110.485.5zm-.131.737c-.027-.008-.04-.006-.038.004a2.991 2.991 0 00-.387.051c-.007-.006-.015-.007-.024-.002-.002 0-.002.002 0 .003a.01.01 0 01.003.002l-.034.008a.072.072 0 00-.036 0c-.002 0-.002.002 0 .003.001 0 .002 0 .003.002a.07.07 0 01-.034.008.056.056 0 00-.033 0c-.003.001-.003.002 0 .003a.02.02 0 01.007.002.054.054 0 01-.034.008c-.033-.003-.04 0-.024.007L9.48 1.4c-.016-.006-.027-.003-.034.01a5.431 5.431 0 00-.475.159c-.012.003-.017.012-.032.01-.004 0-.009 0-.013.003a.065.065 0 01-.04.012.071.071 0 00-.049.021.103.103 0 01-.044.017c-.006-.003-.012-.002-.019.004a.018.018 0 01-.011.004c-.014 0-.02.004-.018.011l-.217.084c-.017-.003-.03.002-.04.015.003 0 .001.001-.005.002-.01-.004-.018-.004-.024.002a.003.003 0 00-.002.003c0 .001 0 .002.002.003a.033.033 0 01-.017.007c-.008-.004-.015-.003-.022.003a.018.018 0 01-.011.005c-.009 0-.013.004-.013.01l-.055.02a.01.01 0 00-.002-.003c-.002-.003-.004-.004-.007-.002l-.033.02-.051.02c-.023 0-.04.007-.048.019l-.141.052c-.015-.006-.024-.003-.027.009-.002.002-.005.004-.01.003-.015-.004-.024-.001-.028.01l-.272.09c-.01-.006-.02-.005-.03.002-.002.001-.001.002 0 .002l.003.003-.147.039c-.013-.007-.025-.005-.036.007-.004.005-.01.006-.015.004-.034-.004-.04-.002-.019.005l-.043.008a.057.057 0 00-.03 0c-.004 0-.004.002 0 .002l.007.002a.093.093 0 01-.041.009.05.05 0 00-.036 0c-.003.001-.003.002 0 .004l.004.001a.099.099 0 01-.04.007.062.062 0 00-.049.006l-.081.01c-.02-.004-.032-.003-.039.004a.146.146 0 01-.038.006 29.695 29.695 0 00-.252-.008.06.06 0 00-.04-.003l-.189-.022c-.01-.01-.025-.012-.044-.004l-.052-.01h.004c.003-.002.003-.003 0-.005-.013-.006-.024-.005-.033.002l-.328-.064c-.004-.007-.013-.012-.029-.013l-.003.001-.001.004a.052.052 0 01-.024-.007.008.008 0 00.003-.002L6.1 2.011c-.011-.005-.02-.005-.027 0l-.164-.043c-.006-.012-.018-.015-.036-.01.003.002.002.002-.005 0-.001-.006-.006-.01-.014-.012a2.33 2.33 0 01-.066-.016v.003a.02.02 0 01-.011-.002c.001 0 .002 0 .003-.002v-.003c-.008-.006-.017-.007-.027-.003-.004 0-.008 0-.012-.004-.01-.012-.02-.015-.028-.008a7.027 7.027 0 01-.495-.173c.002-.01-.008-.014-.032-.014l-.054-.022c-.018-.016-.03-.016-.036.001l-.13.19a.08.08 0 00-.035.049l-.605.87c-.014.005-.02.015-.02.028L2.873 4.902c-.007-.01-.012-.002-.015.022L1.855 6.365c-.005.008-.004.014.003.02l.385.325c.002 0 .002.001.001.001a.055.055 0 01-.003.002c.006.01.014.017.026.018l.043.036c.01.02.024.032.041.032l.668.56c-.001.012.009.021.03.027l.04.035c.012.02.025.03.04.031l1.078.902c.006.02.02.032.047.04l.37.308c.005.02.014.027.028.025l.245.205c.008.02.02.03.037.033.016.01.03.022.041.035.011.021.025.032.042.033l.414.347a.977.977 0 01.054.053c.06-.05.113-.105.16-.162a1.495 1.495 0 01.802-.426c.021.004.037.001.046-.008.134-.017.27-.019.406-.007.039.004.077.01.114.018.01.012.023.014.036.007a1.517 1.517 0 011.132 1.12.011.011 0 00.016 0c.081-.087.168-.173.261-.24a1.484 1.484 0 011.611-.098c.012.016.025.023.04.023.01.003.02.009.028.016.013.017.025.025.037.024.32.22.528.516.627.888.023.083.033.177.044.266 0 .003.001.005.003.008a.019.019 0 00.012.009h.008a1.488 1.488 0 011.488.48c-.002.012.006.02.022.026l.027.034c.002.017.01.029.026.034.006.003.01.008.011.015a.111.111 0 00.041.058c.23.352.293.776.204 1.187l.001.014a.025.025 0 00.008.01c.099.08.215.167.3.263.028.04.061.076.1.106.035.034.065.07.09.111.002.016.009.026.021.028.137.175.218.373.243.593 0 .003 0 .006-.002.008v.122l-.003.073a.083.083 0 00-.01.068 1.25 1.25 0 01-.1.32.106.106 0 00-.029.065l-.14.269a.058.058 0 00-.023.044.734.734 0 00-.081.195c-.015.056.013.091.047.14.004.018.012.028.026.03.067.069.14.129.22.181-.002.012.01.02.033.023.1.067.183.117.25.15.112.054.24.091.386.112.008.012.024.015.047.007.145.021.266.016.4.013.041 0 .082-.01.124-.012.02.005.033.002.042-.007a1.61 1.61 0 00.62-.235.012.012 0 00.002-.005.013.013 0 00-.004-.01l-1.2-1.215a.35.35 0 01-.075-.144c.005-.013.002-.03-.007-.049v-.089a.05.05 0 00.006-.049c.058-.191.234-.308.428-.265.069.015.129.05.18.105l1.32 1.333a.17.17 0 00.05.038.778.778 0 001.041-.058.792.792 0 00.231-.551.253.253 0 00.002-.096c0-.001 0-.002-.002-.002l-.004-.002s-.001 0 0 0c0 .003-.002.005-.003.006a.703.703 0 00-.164-.41.085.085 0 00-.024-.042l-2.056-2.079-.088-.085a.366.366 0 01-.117-.245.36.36 0 01.633-.263l.756.77h.007l.006.005c-.001 0-.002 0-.003.002l.001.003a22.247 22.247 0 00.1.1l.003-.002.005.003v.008a66.14 66.14 0 00.207.209c.002 0 .003-.001.004-.003 0 .002.002.003.004.004v.009l.097.098h.004a.005.005 0 00.003-.002l.004.004v.008a99.522 99.522 0 00.208.208c.001 0 .002 0 .003-.002l.004.004v.005l.001.004 1.295 1.31a.004.004 0 00.004 0c.001 0 .002 0 .003-.002.048.045.1.083.153.116a.153.153 0 00.086.044.795.795 0 00.194.053c.021.01.05.013.085.008l.164-.013c.015.006.027.004.036-.005a.789.789 0 00.608-.779.025.025 0 01.005.02h-.001a.403.403 0 00-.003-.1l-.003.04a.809.809 0 00-.055-.264.187.187 0 00-.041-.084c-.001.003-.003.001-.006-.006a.01.01 0 00.004-.002v-.003c-.006-.015-.014-.024-.022-.027a1.142 1.142 0 00-.12-.149l-3.222-3.258c-.003-.003-.004-.005-.003-.007l-.052-.06a.33.33 0 01-.055-.142l-.001-.11a.394.394 0 01.15-.244.522.522 0 01.091-.047.069.069 0 00.043-.009.045.045 0 00.02-.006h.114a.357.357 0 01.14.056c.005.013.013.02.026.02l.927.934v.004a.01.01 0 01-.003.001v.002c.007.01.015.015.024.016l.089.089c-.01 0-.008.005.006.016a.016.016 0 00.014.003l.423.43c0 .002-.002.002-.003.002s-.002.002 0 .003c.006.01.014.015.024.015l.304.307c.006.021.017.032.031.032l.087.089c-.006.01.002.017.022.022l.088.088c-.012.004-.005.011.02.022l.09.088a.016.016 0 01-.005.002c-.002 0-.002.001 0 .003.006.009.013.014.022.015l.09.09a.012.012 0 01-.004 0c-.002.001-.002.002-.001.004.006.009.014.014.023.015l.09.089c-.004.01.002.018.017.02l.428.43a.013.013 0 01-.005.001c-.01.002-.01.004 0 .004h.004c.002 0 .004 0 .004.003 0 .01.006.013.015.01l.197.199c0 .012.005.019.015.02a.004.004 0 01.003.005v.006l.002.001c.004.002.008.002.01-.001l.198.2c-.013.004-.007.01.018.02l.09.09c-.013.003-.007.01.018.019l.09.09c-.013.003-.006.01.02.02.054.053.106.11.163.155l.087.069c.014.018.025.024.035.016.294.17.654.124.906-.099a.164.164 0 00.07-.073.802.802 0 00.046-.979c.002-.014-.007-.025-.024-.033a.067.067 0 01-.025-.031l.004-.001v-.001-.001l-.688-.692a.134.134 0 01-.035-.031l.003-.001c.002-.002.002-.003 0-.005L19.034 9.35c-.074-.075-.151-.148-.222-.225-.03-.032-.064-.062-.095-.095-.075-.08-.157-.154-.232-.234-.039-.042-.086-.083-.126-.13-.021-.025-.06-.055-.088-.087a1.28 1.28 0 00-.083-.086 5.549 5.549 0 00-.305-.299l-.034-.034a2.489 2.489 0 00-.168-.18c-.05-.045-.09-.091-.136-.134-.072-.07-.138-.147-.212-.214a1.446 1.446 0 01-.08-.08 15.343 15.343 0 00-.16-.168l-.556-.558a31.591 31.591 0 00-.453-.45c0-.007-.002-.013-.006-.016a4.894 4.894 0 01-.172-.173.012.012 0 00-.013-.004l-.023-.025a.648.648 0 00-.084-.092 2.959 2.959 0 01-.162-.165.438.438 0 00-.068-.06.074.074 0 01-.023-.023.432.432 0 00-.08-.089c-.031-.026-.055-.058-.086-.087-.043-.039-.081-.084-.121-.122a1.472 1.472 0 01-.098-.102.047.047 0 00-.014-.011.038.038 0 01-.01-.007l-.262-.261-.007-.002h-.003l-.004.002a.114.114 0 00-.061.018c.003.002.002.003-.005.003-.01-.004-.02 0-.03.011l-.05.025c-.015-.005-.02.003-.032.007-.015.006-.02.01-.014.015l-.037.018c-.014-.002-.026.005-.036.02-.156.098-.259.183-.403.314a.201.201 0 00-.067.062l-.117.118-.131.14-.024.031a.258.258 0 00-.076.085l-.298.357c-.019.009-.03.022-.032.039l-.386.472c-.012 0-.019.008-.02.024l-.098.116a.128.128 0 00-.05.054c-.002.007-.006.013-.014.018l-.078.081v.002h.002l-.017.024-.108.114-.061.07-.17.172-.053.047-.092.087-.157.13c-.018.002-.03.01-.035.026a.361.361 0 01-.045.037 2.83 2.83 0 01-.419.25c-.01-.006-.02-.005-.026.003a.008.008 0 01-.003.003h-.003c-.004 0-.007.001-.01.003-.005.001-.005.003-.002.006l.004.002a.41.41 0 00-.102.033v.004l-.005.001c-.017-.003-.028 0-.031.011l-.045.015h-.029c-.003 0-.003 0-.002.003l.005.003a.051.051 0 01-.027.008c-.008-.006-.017-.006-.028 0-.002.002-.002.002 0 .003.002 0 .004 0 .005.002a.064.064 0 01-.024.008c-.022-.007-.035-.005-.037.007l-.139.02a.046.046 0 00-.04.005.059.059 0 01-.035.004h-.173a1.565 1.565 0 01-.286-.043c.016-.008.007-.01-.025-.008a2.058 2.058 0 01-.134-.047.017.017 0 00-.013 0 .124.124 0 01-.04-.014c-.018-.017-.036-.024-.054-.022a.945.945 0 01-.468-.462.995.995 0 01-.1-.303 10.888 10.888 0 00-.017-.14c-.007-.052-.005-.107-.01-.16-.003-.04.004-.079.004-.119.001-.123.021-.249.041-.37.01-.009.013-.022.007-.039.016-.094.036-.188.06-.282a6.64 6.64 0 01.293-.872c.012 0 .016-.011.012-.032l.096-.223a.146.146 0 00.033-.073l.017-.042c.004.008.007.004.009-.01a.02.02 0 01.005-.012c.008-.007.01-.017.007-.03l.063-.13a.13.13 0 00.032-.064c.001-.004.004-.007.008-.01a.01.01 0 00.004-.004.01.01 0 000-.007c0-.005.001-.01.004-.013a7.597 7.597 0 00.09-.173.02.02 0 00.002-.01c0-.005.002-.007.006-.009a.009.009 0 00.006-.008c.002-.025.029-.048.036-.08l.146-.277a.13.13 0 00.037-.07 8.375 8.375 0 011.107-1.6.06.06 0 00.036-.039c0-.002.001-.005.005-.009l.324-.328c.022-.022.047-.045.076-.07.026-.021.051-.044.076-.067a4.779 4.779 0 01.2-.174.009.009 0 000-.007.007.007 0 00-.003-.003l-.09-.054c-.003-.013-.012-.018-.027-.016a.023.023 0 01-.014-.01v-.003l-.11-.055-.093-.05-.12-.057-.122-.051c-.01-.013-.026-.02-.047-.02-.013-.001-.017-.003-.012-.006a.107.107 0 00-.056-.021c-.003.004-.005.003-.005-.002-.004-.008-.012-.012-.023-.01l-.002.001.001.002-.12-.042c0-.01-.01-.013-.03-.01l-.121-.036c-.01-.013-.02-.016-.029-.009l-.177-.044c.017-.007.009-.009-.024-.006l-.03-.007c.018-.008.01-.01-.021-.004l-.091-.018c-.01-.01-.023-.012-.042-.007a.05.05 0 01-.025-.004l-.002-.004c0-.002-.001-.003-.003-.003a.128.128 0 00-.043 0l-.262-.03a.029.029 0 01.018-.002h.001l-.001-.002a.139.139 0 00-.064 0c-.094-.001-.19-.007-.28-.004a14.29 14.29 0 00-.157.006zm5.137.207l-.196.011c.001-.003.005-.004.012-.003-.039-.002-.047 0-.025.007a2.72 2.72 0 00-.323.04.049.049 0 00-.046.006l-.085.017c-.034-.005-.04-.003-.018.004l-.033.008c-.04-.002-.049 0-.028.006l-.33.092c-.011-.007-.02-.004-.027.009l-.11.04a.068.068 0 00-.055.019.034.034 0 01-.014.004.3.3 0 00-.108.046l-.145.062-.212.103c-.002 0-.003.002-.002.004l.004.002-.006.002c0-.001 0-.003-.002-.003-.001-.002-.003-.002-.005 0l-.056.034a.137.137 0 01-.041.029.022.022 0 00-.008-.002c-.005 0-.008 0-.012.003l-.02.018-.278.18c-.01-.002-.02.004-.027.018a.035.035 0 01-.02.013c-.026.007-.036.014-.028.022l-.341.27a.165.165 0 00-.068.059.056.056 0 01-.028.02l-.114.11-.22.223-.003.001c-.002 0-.003 0-.004.002l-.112.124a.056.056 0 01-.017.022l-.058.066a.113.113 0 01-.015.025 6.3 6.3 0 00-.586.81c-.011-.004-.017.005-.018.025 0 .004-.004.009-.01.016 0-.002-.001-.002-.002-.003l-.03.054-.076.127a.083.083 0 00-.028.05.22.22 0 01-.046.076.182.182 0 00-.038.068.098.098 0 01-.02.037c-.017.016-.024.03-.02.041-.024.038-.042.079-.064.118-.037.065-.074.142-.118.22-.035.061-.098.191-.19.39a.101.101 0 00-.034.07l-.03.065-.033.073c-.001.01-.006.02-.014.032a.239.239 0 00-.036.09.056.056 0 00-.02.048l-.158.409a.145.145 0 00-.031.083c-.079.233-.15.48-.184.726a.065.065 0 01-.008.026c-.007.01-.008.022-.003.036a.108.108 0 01-.005.053.9.9 0 00.002.276c.015.105.038.22.135.282.03.019.074.03.11.045.01.011.022.015.038.01l.155.028a.158.158 0 00.077.003c.388-.023.718-.288.986-.554a.274.274 0 00.083-.083c.482-.514.922-1.115 1.308-1.534a.357.357 0 00.08-.087c.374-.41.861-.815 1.424-.893a.141.141 0 00.082-.006.364.364 0 01.175.023.04.04 0 00.032.019v-.001-.001a.22.22 0 01.08.062 5947.675 5947.675 0 005.292 5.353c.009.01.018.016.028.017.006.009.016.008.03-.002 1.188-.839 2.38-1.677 3.573-2.516a.015.015 0 00.004-.02l-.259-.447a.088.088 0 00-.032-.055l-.157-.272c.002-.015-.005-.027-.02-.035l-.088-.155c-.002-.02-.008-.03-.02-.033l-.055-.097c.002-.015-.003-.024-.016-.025l-.119-.206a.024.024 0 00-.007-.025h-.003l-.001.004-.107-.183a.07.07 0 00-.029-.051l-.176-.304a.025.025 0 00-.007-.025l-.002.001a.008.008 0 01-.002.003l-.048-.082a.024.024 0 00-.006-.022.03.03 0 01-.008-.01.077.077 0 00-.025-.035l-.035-.062c0-.02-.005-.028-.014-.021l-.305-.53a.107.107 0 00-.034-.06l-.048-.082a.04.04 0 00-.019-.034.202.202 0 01-.031-.056l-.063-.106-.376-.65c-.002-.023-.007-.03-.012-.02l-.294-.51a.082.082 0 00-.03-.054.103.103 0 01-.02-.034c0-.017-.007-.027-.02-.033l-.063-.11a.083.083 0 00-.03-.054l-.057-.096c0-.024-.005-.032-.013-.022l-.182-.32c-.006-.03-.021-.035-.046-.017l-.453.125c0-.003-.002-.005-.006-.005h-.007c-.006 0-.01.003-.01.01a.043.043 0 01-.027.006c-.036-.003-.043-.001-.021.004a.08.08 0 01-.04.009c-.036-.003-.043-.001-.02.005a.088.088 0 01-.033.008c-.016-.005-.028-.004-.036.005a.136.136 0 01-.045.014c-.14.025-.279.047-.418.066-.007-.006-.015-.007-.026-.003a.02.02 0 01-.01 0h-.011c-.007.001-.007.002 0 .003.004 0 .008 0 .01.002a.163.163 0 01-.06.01.104.104 0 00-.062.001h-.005l-.003-.002c0 .002.004.003.013.005l-.123.009-.047-.001h-.002v.001c-.002.001-.002.002 0 .002.003 0 .005 0 .006.003a.555.555 0 01-.07.007 4.198 4.198 0 01-.386-.003.137.137 0 01-.029-.005l.005-.001c.01-.003.01-.005 0-.004h-.034a.15.15 0 01-.067-.01.052.052 0 00-.041-.003l-.09-.018c-.006-.01-.017-.013-.032-.007l-.058-.016a.212.212 0 00-.066-.022c-.002 0-.002 0-.002.002l.001.003a.026.026 0 01-.017-.006l.004-.001c.002-.001.002-.002 0-.003a.056.056 0 00-.038-.006l-.121-.04c.001-.01-.008-.013-.027-.009-.003.001-.005 0-.006-.002a.019.019 0 00-.017-.012.025.025 0 01-.013-.005c-.007-.005-.013-.006-.019-.004-.002 0-.006 0-.011-.003 0-.003-.002-.006-.004-.007a.39.39 0 00-.079-.026l-.103-.041a.007.007 0 00.002-.004v-.002-.002l-.002-.001-.002-.001a.037.037 0 00-.019.002l-.054-.027a.195.195 0 00-.078-.035l-.111-.05a.124.124 0 00-.064-.032l-.043-.018a.09.09 0 00-.065-.03l-.184-.092a.422.422 0 00-.125-.059l-.069-.035c-.01-.015-.023-.021-.038-.019l-.045-.02a.147.147 0 00-.075-.034l-.08-.039a.154.154 0 00-.068-.032.134.134 0 01-.045-.018c.006-.005.003-.007-.008-.006a.013.013 0 01-.01-.005c-.008-.01-.017-.012-.026-.005l-.058-.03a.058.058 0 00-.05-.02l-.157-.064c-.001-.01-.012-.015-.032-.014A.02.02 0 0117 1.73c-.01-.014-.02-.02-.034-.015-.003 0-.007 0-.01-.002.001-.004 0-.006-.003-.008a.296.296 0 00-.075-.023l-.323-.102c-.006-.013-.015-.016-.025-.008a.035.035 0 01-.022-.006l.004-.001c.002-.002.002-.003 0-.003a.086.086 0 00-.03-.002l-.233-.054c0-.01-.01-.012-.031-.007a.071.071 0 01-.032-.006c-.005-.009-.02-.01-.043-.005l-.234-.03a.044.044 0 01.025-.003v-.001l-.001-.002a.248.248 0 00-.092 0l-.158-.008.065-.002h.001V1.44 1.44a1.993 1.993 0 00-.276.001c.007 0 .013 0 .02.003zm-8.797 8.1c-.003-.004-.007-.003-.01 0a1.033 1.033 0 00.034-.002.01.01 0 00-.005-.001l-.007.002a.016.016 0 01-.007.002c-.002 0-.003 0-.005-.002zm-.53.236h-.004c-.002 0-.003 0-.004.002l-.675.68a.81.81 0 00-.092.108l-.093.188a.097.097 0 00-.021.068.799.799 0 00.363.895c.016.02.037.032.062.034.254.116.55.093.778-.065.042-.03.109-.09.2-.182l.572-.577a.817.817 0 00.223-.8.778.778 0 00-.552-.55 1.364 1.364 0 01-.071-.02c-.01-.01-.023-.011-.04-.004a.768.768 0 00-.646.223zm3.113.4l-.055.006a.041.041 0 00-.042.007l-.166.055a.084.084 0 00-.058.03c-.144.091-.24.202-.353.314-.01 0-.017.004-.02.011a.012.012 0 01-.006.006c-.008.004-.012.011-.013.022l-.083.083c-.017.006-.03.019-.039.04l-.068.068a.07.07 0 00-.04.04l-.068.07a.07.07 0 00-.04.04l-.068.069c-.015.002-.023.01-.025.026l-.089.09c-.012 0-.023.011-.033.033l-.075.076c-.003-.003-.007-.003-.012 0a.055.055 0 00-.012.013c-.006.008-.009.015-.008.02l-.082.082c-.016.003-.025.012-.026.027l-.297.3c-.017.004-.03.018-.04.04l-.069.069a.07.07 0 00-.039.04l-.075.075c-.012.001-.023.013-.033.034l-.028.033a.17.17 0 00-.04.042c-.001.001-.002.002-.001.003 0 .002 0 .002.002.002l-.007.012c-.02.01-.028.023-.025.038a.752.752 0 00-.12.358c-.006-.003-.008-.01-.006-.018.001 0 .001 0 0 0h-.002a2.154 2.154 0 00.003.167c.001 0 .002 0 .002-.002v-.044c.015.395.318.734.72.757-.009-.001-.015 0-.02.002-.004.002-.004.003.001.004a.626.626 0 00.208-.011.748.748 0 00.302-.118c.045-.03.112-.09.201-.18l1.47-1.487a.782.782 0 00.203-.373c.007-.03.01-.062.014-.093l.002.019a.583.583 0 00-.004-.216.91.91 0 00-.048-.183.214.214 0 00-.055-.113.783.783 0 00-.48-.364c.017-.006.01-.007-.024-.005-.007.002-.012 0-.012-.003-.014-.01-.028-.012-.043-.007a.064.064 0 01-.031-.005.309.309 0 00-.148 0zm1.884 1.383l-.076.008c-.013-.005-.025-.004-.038.005l-.095.029a.073.073 0 00-.055.022l-.12.068a.376.376 0 00-.085.06l-1.536 1.553a.738.738 0 00-.096.113.812.812 0 00-.095.166.797.797 0 00.314 1.002.162.162 0 00.085.043.784.784 0 00.814-.109.15.15 0 00.043-.03l1.56-1.578a.343.343 0 00.051-.065l.092-.15c.014-.006.018-.016.014-.03a.774.774 0 00.065-.263.206.206 0 00-.002-.11.785.785 0 00-.524-.695c-.008-.011-.017-.014-.027-.01l-.06-.017a.058.058 0 00-.03-.009c-.004 0-.003.002.003.005l-.089-.008.037-.002.002-.002v-.003l-.188.001h-.002v.004a.117.117 0 01.038.002zm1.15 1.835l-1.647 1.662c-.004.003-.007.006-.008.01l.004.01c.155.171.332.314.53.427.014.02.025.027.031.019a2.23 2.23 0 001.452.211.005.005 0 00.001-.005l-.001-.002c-.19-.173-.33-.41-.338-.675a.059.059 0 000-.04c0-.278.143-.533.284-.768a.415.415 0 00.062-.13c.055-.137.06-.244-.007-.376a.127.127 0 00-.043-.073 1.338 1.338 0 00-.268-.273c-.004-.012-.011-.018-.02-.02-.006 0-.012.002-.018.008a.255.255 0 00-.014.016z" fill="#374957"/><path d="M15.308 1.452c-.007-.001-.01 0-.012.003l.196-.01a.051.051 0 00-.019-.004c-.01 0-.011 0-.001-.003h.007l.006.001c.09-.006.177-.005.263 0 0 0 0 0 0 0h.001v.001s0 0 0 0v.001s0 0 0 0v.001s0 0 0 0l-.066.002.158.009a.248.248 0 01.092-.001l.001.002s0 0 0 0v.001a.044.044 0 00-.025.003l.234.03c.024-.006.038-.004.043.005.009.004.02.006.032.006.021-.005.032-.003.031.007l.232.054c.01-.001.02 0 .03.002.003 0 .003.001 0 .003h-.003a.035.035 0 00.022.007c.01-.008.019-.005.025.008l.323.102a.296.296 0 01.075.023c.003.002.004.004.003.008a.016.016 0 00.01.002c.014-.004.025 0 .034.015a.02.02 0 00.02.006c.02-.001.03.004.031.014l.157.064a.058.058 0 01.05.02l.058.03c.009-.007.018-.005.026.005a.013.013 0 00.01.005c.011-.001.014 0 .008.006.018.01.033.016.045.018.027.006.05.017.069.032l.079.04a.147.147 0 01.075.032l.045.021c.015-.002.028.004.038.02l.07.034a.422.422 0 01.123.06l.185.09a.09.09 0 01.065.031l.043.018a.124.124 0 01.064.033l.111.049a.195.195 0 01.078.035l.054.027a.037.037 0 01.02-.002h.001l.001.002.001.002v.002a.007.007 0 01-.002.004l.103.041a.39.39 0 01.079.026c.002.001.004.004.004.007.005.003.009.004.011.003.006-.002.012 0 .02.004a.025.025 0 00.012.005c.008 0 .014.005.017.012 0 .002.003.003.006.002.02-.004.028 0 .027.009l.121.04a.056.056 0 01.038.006c.002 0 .002.002 0 .003l-.004.001c.004.004.01.005.017.006l-.001-.003c0-.002 0-.002.002-.002a.212.212 0 01.066.022l.058.016c.015-.006.026-.004.031.007l.09.018a.052.052 0 01.042.003.15.15 0 00.067.01h.034c.01 0 .01 0 0 .004l-.005.001c.01.003.02.004.029.005.128.007.257.008.385.003a.555.555 0 00.071-.007.009.009 0 00-.006-.003c-.002 0-.002 0 0-.002 0 0 0 0 0 0l.002-.001h.047l.123-.008c-.01-.002-.014-.003-.013-.005.001 0 .002 0 .003.002a.006.006 0 00.005 0 .104.104 0 01.061-.001c.02 0 .04-.003.062-.01a.032.032 0 00-.01-.002c-.008 0-.008-.002-.001-.003h.01a.02.02 0 00.01 0c.012-.004.02-.003.027.003.14-.019.279-.04.418-.066a.136.136 0 00.045-.014c.008-.009.02-.01.036-.005a.088.088 0 00.033-.008c-.023-.006-.016-.008.02-.005a.08.08 0 00.04-.009c-.022-.005-.015-.007.021-.004.008 0 .017-.001.026-.006.001-.007.005-.01.01-.01h.008c.004 0 .006.002.006.005l.454-.125c.024-.018.039-.012.045.017l.182.32c.008-.01.013-.002.013.022l.056.096a.083.083 0 01.03.053l.064.11c.013.007.02.017.02.034a.103.103 0 00.02.034.082.082 0 01.03.054l.294.51c.005-.01.01-.003.012.02l.376.65.063.106c.008.02.018.04.031.056a.04.04 0 01.02.034l.047.081a.107.107 0 01.034.061l.305.53c.009-.007.013 0 .014.021l.035.062c.012.01.02.02.026.034a.03.03 0 00.007.011.024.024 0 01.006.022l.048.082a.008.008 0 00.002-.003h.002c.007.006.01.014.007.024l.176.304a.07.07 0 01.03.05l.106.184c0-.002.001-.003.002-.003 0-.002.001-.002.002-.001.007.007.01.015.007.025l.12.206c.012.001.017.01.015.025l.055.097c.012.003.018.014.02.033l.088.155c.015.008.022.02.02.035l.157.272a.088.088 0 01.032.055l.26.447a.015.015 0 01-.005.02c-1.194.839-2.385 1.677-3.573 2.516-.014.01-.024.01-.03.002a.045.045 0 01-.028-.017 5947.675 5947.675 0 01-5.292-5.353.22.22 0 00-.08-.062s0 0 0 0v.002a.04.04 0 01-.032-.02.364.364 0 00-.175-.022.141.141 0 01-.082.006c-.563.078-1.05.482-1.424.893a.357.357 0 01-.08.087c-.386.42-.826 1.02-1.308 1.534a.274.274 0 01-.083.083c-.268.266-.598.531-.986.554a.158.158 0 01-.077-.003l-.155-.027c-.016.004-.029 0-.037-.011-.037-.015-.081-.026-.111-.045-.097-.061-.12-.177-.136-.282a.9.9 0 010-.276.108.108 0 00.004-.053c-.005-.014-.004-.026.003-.036a.065.065 0 00.008-.026c.034-.245.105-.493.184-.726a.145.145 0 01.03-.083l.159-.409a.056.056 0 01.02-.049.239.239 0 01.037-.09.064.064 0 00.013-.031l.033-.073.03-.065a.101.101 0 01.035-.07c.091-.199.154-.329.189-.39.044-.078.08-.155.118-.22.022-.039.04-.08.065-.118-.005-.011.002-.025.02-.041a.098.098 0 00.02-.037.182.182 0 01.037-.068.22.22 0 00.046-.076.083.083 0 01.027-.05l.078-.127.028-.054s0 0 0 0 0 0 0 0h.001s0 0 0 0l.002.003a.038.038 0 00.01-.016c0-.02.007-.029.018-.026a6.3 6.3 0 01.585-.809.113.113 0 00.016-.025l.058-.066a.056.056 0 00.017-.022l.112-.124a.005.005 0 01.004-.002c.003 0 .004 0 .003-.001l.22-.222.114-.111c.01-.003.02-.01.028-.02a.165.165 0 01.068-.06l.34-.269c-.007-.008.003-.015.03-.022a.035.035 0 00.019-.013c.008-.014.017-.02.027-.019l.279-.18.02-.017a.014.014 0 01.01-.003c.003 0 .006 0 .009.002a.137.137 0 00.04-.029l.058-.035h.004l.002.004.006-.002c-.002 0-.003 0-.004-.002 0-.002 0-.003.002-.004l.212-.103.145-.062a.3.3 0 01.108-.046c.007 0 .011-.002.014-.004a.068.068 0 01.055-.02l.11-.04c.006-.012.016-.015.028-.008l.329-.092c-.02-.006-.012-.008.028-.006l.033-.008c-.022-.007-.016-.009.018-.004l.085-.017a.049.049 0 01.046-.006 2.72 2.72 0 01.323-.04c-.022-.007-.014-.01.025-.007zm0 0s0 0 0 0m0 0s0 0 0 0m0 0s0 0 0 0zM10.486.5h.219a4.618 4.618 0 012.511.868c.01.007.021.007.033 0 1.048-.624 2.335-.832 3.514-.486.65.19 1.242.5 1.851.792.224.106.42.183.591.23.125.034.238.05.34.05.582 0 1.205-.136 1.76-.338a.547.547 0 01.149-.037.339.339 0 01.253.087c.031.029.07.083.116.162l3.143 5.442a.375.375 0 01.034.095v.149a.37.37 0 01-.146.22 40607.492 40607.492 0 00-3.771 2.654.012.012 0 00-.002.005.012.012 0 00.004.01l.526.532a1.535 1.535 0 01-.167 2.4 1.51 1.51 0 01-1.276.195c-.003-.001-.005 0-.005.004a1.515 1.515 0 01-1.07 1.312 1.49 1.49 0 01-1.164-.13c-.004-.002-.006 0-.007.004a1.506 1.506 0 01-2.04 1.117.017.017 0 00-.018.003c-.626.551-1.549.667-2.319.42a.037.037 0 00-.025 0 3.36 3.36 0 01-1.837.186 2.815 2.815 0 01-1.703-1.045 1.506 1.506 0 01-1.799-1.397.01.01 0 00-.002-.003A.01.01 0 008.17 14a1.507 1.507 0 01-1.873-1.46.008.008 0 00-.008-.005 1.503 1.503 0 01-1.614-.84 1.54 1.54 0 01.296-1.742.012.012 0 000-.01 29765.79 29765.79 0 00-3.79-3.177c-.109-.09-.166-.158-.182-.291V6.41a.396.396 0 01.068-.179l3.587-5.157c.094-.135.202-.22.374-.196a.553.553 0 01.146.05c.471.217.981.38 1.494.458.223.034.405.045.627-.004a3.87 3.87 0 00.49-.146c.56-.205 1.108-.439 1.689-.587A4.862 4.862 0 0110.485.5zm-.131.737c-.027-.008-.04-.006-.038.004a2.991 2.991 0 00-.387.051c-.007-.006-.015-.007-.024-.002-.002 0-.002.002 0 .003a.01.01 0 01.003.002l-.034.008a.072.072 0 00-.036 0c-.002 0-.002.002 0 .003.001 0 .002 0 .003.002a.07.07 0 01-.034.008.056.056 0 00-.033 0c-.003.001-.003.002 0 .003a.02.02 0 01.007.002.054.054 0 01-.034.008c-.033-.003-.04 0-.024.007L9.48 1.4c-.016-.006-.027-.003-.034.01a5.431 5.431 0 00-.475.159c-.012.003-.017.012-.032.01-.004 0-.009 0-.013.003a.065.065 0 01-.04.012.071.071 0 00-.049.021.103.103 0 01-.044.017c-.006-.003-.012-.002-.019.004a.018.018 0 01-.011.004c-.014 0-.02.004-.018.011l-.217.084c-.017-.003-.03.002-.04.015.003 0 .001.001-.005.002-.01-.004-.018-.004-.024.002a.003.003 0 00-.002.003c0 .001 0 .002.002.003a.033.033 0 01-.017.007c-.008-.004-.015-.003-.022.003a.018.018 0 01-.011.005c-.009 0-.013.004-.013.01l-.055.02a.01.01 0 00-.002-.003c-.002-.003-.004-.004-.007-.002l-.033.02-.051.02c-.023 0-.04.007-.048.019l-.141.052c-.015-.006-.024-.003-.027.009-.002.002-.005.004-.01.003-.015-.004-.024-.001-.028.01l-.272.09c-.01-.006-.02-.005-.03.002-.002.001-.001.002 0 .002l.003.003-.147.039c-.013-.007-.025-.005-.036.007-.004.005-.01.006-.015.004-.034-.004-.04-.002-.019.005l-.043.008a.057.057 0 00-.03 0c-.004 0-.004.002 0 .002l.007.002a.093.093 0 01-.041.009.05.05 0 00-.036 0c-.003.001-.003.002 0 .004l.004.001a.099.099 0 01-.04.007.062.062 0 00-.049.006l-.081.01c-.02-.004-.032-.003-.039.004a.146.146 0 01-.038.006 29.695 29.695 0 00-.252-.008.06.06 0 00-.04-.003l-.189-.022c-.01-.01-.025-.012-.044-.004l-.052-.01h.004c.003-.002.003-.003 0-.005-.013-.006-.024-.005-.033.002l-.328-.064c-.004-.007-.013-.012-.029-.013l-.003.001-.001.004a.052.052 0 01-.024-.007.008.008 0 00.003-.002L6.1 2.011c-.011-.005-.02-.005-.027 0l-.164-.043c-.006-.012-.018-.015-.036-.01.003.002.002.002-.005 0-.001-.006-.006-.01-.014-.012a2.33 2.33 0 01-.066-.016v.003a.02.02 0 01-.011-.002c.001 0 .002 0 .003-.002v-.003c-.008-.006-.017-.007-.027-.003-.004 0-.008 0-.012-.004-.01-.012-.02-.015-.028-.008a7.027 7.027 0 01-.495-.173c.002-.01-.008-.014-.032-.014l-.054-.022c-.018-.016-.03-.016-.036.001l-.13.19a.08.08 0 00-.035.049l-.605.87c-.014.005-.02.015-.02.028L2.873 4.902c-.007-.01-.012-.002-.015.022L1.855 6.365c-.005.008-.004.014.003.02l.385.325c.002 0 .002.001.001.001a.055.055 0 01-.003.002c.006.01.014.017.026.018l.043.036c.01.02.024.032.041.032l.668.56c-.001.012.009.021.03.027l.04.035c.012.02.025.03.04.031l1.078.902c.006.02.02.032.047.04l.37.308c.005.02.014.027.028.025l.245.205c.008.02.02.03.037.033.016.01.03.022.041.035.011.021.025.032.042.033l.414.347a.977.977 0 01.054.053c.06-.05.113-.105.16-.162a1.495 1.495 0 01.802-.426c.021.004.037.001.046-.008.134-.017.27-.019.406-.007.039.004.077.01.114.018.01.012.023.014.036.007a1.517 1.517 0 011.132 1.12.011.011 0 00.016 0c.081-.087.168-.173.261-.24a1.484 1.484 0 011.611-.098c.012.016.025.023.04.023.01.003.02.009.028.016.013.017.025.025.037.024.32.22.528.516.627.888.023.083.033.177.044.266 0 .003.001.005.003.008a.019.019 0 00.012.009h.008a1.488 1.488 0 011.488.48c-.002.012.006.02.022.026l.027.034c.002.017.01.029.026.034.006.003.01.008.011.015a.111.111 0 00.041.058c.23.352.293.776.204 1.187l.001.014a.025.025 0 00.008.01c.099.08.215.167.3.263.028.04.061.076.1.106.035.034.065.07.09.111.002.016.009.026.021.028.137.175.218.373.243.593 0 .003 0 .006-.002.008v.122l-.003.073a.083.083 0 00-.01.068 1.25 1.25 0 01-.1.32.106.106 0 00-.029.065l-.14.269a.058.058 0 00-.023.044.734.734 0 00-.081.195c-.015.056.013.091.047.14.004.018.012.028.026.03.067.069.14.129.22.181-.002.012.01.02.033.023.1.067.183.117.25.15.112.054.24.091.386.112.008.012.024.015.047.007.145.021.266.016.4.013.041 0 .082-.01.124-.012.02.005.033.002.042-.007a1.61 1.61 0 00.62-.235.012.012 0 00.002-.005.013.013 0 00-.004-.01l-1.2-1.215a.348.348 0 01-.075-.144c.005-.013.002-.03-.007-.049v-.089a.05.05 0 00.006-.049c.058-.191.234-.308.428-.265.069.015.129.05.18.105l1.32 1.333a.17.17 0 00.05.038.778.778 0 001.041-.058.792.792 0 00.231-.551.253.253 0 00.002-.096c0-.001 0-.002-.002-.002l-.004-.002s-.001 0 0 0c0 .003-.002.005-.003.006a.703.703 0 00-.164-.41.085.085 0 00-.024-.042l-2.056-2.079-.088-.085a.366.366 0 01-.117-.245.36.36 0 01.633-.263l.756.77h.007l.006.005c-.001 0-.002 0-.003.002l.001.003a22.247 22.247 0 00.1.1l.003-.002.005.003v.008a66.14 66.14 0 00.207.209c.002 0 .003-.001.004-.003 0 .002.002.003.004.004v.009l.097.098h.004a.005.005 0 00.003-.002l.004.004v.008a79.477 79.477 0 00.208.208c.001 0 .002 0 .003-.002l.004.004v.005l.001.004 1.295 1.31a.005.005 0 00.004 0c.001 0 .002 0 .003-.002a.95.95 0 00.153.116.153.153 0 00.086.044.795.795 0 00.194.053c.021.01.05.013.085.008l.164-.013c.015.006.027.004.036-.005a.789.789 0 00.608-.779.025.025 0 01.005.02s0 0 0 0h-.001a.403.403 0 00-.003-.1l-.003.04a.809.809 0 00-.055-.264.187.187 0 00-.041-.084c-.001.003-.003.001-.006-.006a.01.01 0 00.004-.002v-.003c-.006-.015-.014-.024-.022-.027a1.142 1.142 0 00-.12-.149l-3.222-3.258c-.003-.003-.004-.005-.003-.007l-.052-.06a.33.33 0 01-.055-.142l-.001-.11a.394.394 0 01.15-.244.521.521 0 01.091-.047.069.069 0 00.043-.009.045.045 0 00.02-.006h.114a.357.357 0 01.14.056c.005.013.013.02.026.02l.927.934s0 0 0 0v.004a.01.01 0 01-.003.001v.002c.007.01.015.015.024.016l.089.089c-.01 0-.008.005.006.016a.016.016 0 00.014.003l.423.43c0 .002-.002.002-.003.002s-.002.002 0 .003c.006.01.014.015.024.015l.304.307c.006.021.017.032.031.032l.087.089c-.006.01.002.017.022.022l.088.088c-.012.004-.005.011.02.022l.09.088a.016.016 0 01-.005.002c-.002 0-.002.001 0 .003.006.009.013.014.022.015l.09.09a.012.012 0 01-.004 0c-.002.001-.002.002-.001.004.006.009.014.014.023.015l.09.089c-.004.01.002.018.017.02l.428.43a.013.013 0 01-.005.001c-.01.002-.01.004 0 .004h.004c.002 0 .004 0 .004.003 0 .01.006.013.015.01l.197.199c0 .012.005.019.015.02a.004.004 0 01.003.005v.006l.002.001c.004.002.008.002.01-.001l.198.2c-.013.004-.007.01.018.02l.09.09c-.013.003-.007.01.018.019l.09.09c-.013.003-.006.01.02.02.054.053.106.11.163.155l.087.069c.014.018.025.024.035.016.294.17.654.124.906-.099a.164.164 0 00.07-.073.802.802 0 00.046-.979c.002-.014-.007-.025-.024-.033a.067.067 0 01-.025-.031l.004-.001v-.001-.001l-.688-.692a.134.134 0 01-.035-.031l.003-.001c.002-.002.002-.003 0-.005L19.034 9.35c-.074-.075-.151-.148-.222-.225-.03-.032-.064-.062-.095-.095-.075-.08-.157-.154-.232-.234-.039-.042-.086-.083-.126-.13-.021-.025-.06-.055-.088-.087a1.28 1.28 0 00-.083-.086 5.549 5.549 0 00-.305-.299l-.034-.034a2.469 2.469 0 00-.168-.18c-.05-.045-.09-.091-.136-.134-.072-.07-.138-.147-.212-.214a1.442 1.442 0 01-.08-.08 15.343 15.343 0 00-.16-.168l-.556-.558a31.591 31.591 0 00-.453-.45c0-.007-.002-.013-.006-.016a4.894 4.894 0 01-.172-.173.012.012 0 00-.013-.004l-.023-.025a.648.648 0 00-.084-.092 2.959 2.959 0 01-.162-.165.438.438 0 00-.068-.06.074.074 0 01-.023-.023.432.432 0 00-.08-.089c-.031-.026-.055-.058-.086-.087-.043-.039-.081-.084-.121-.122a1.472 1.472 0 01-.098-.102.047.047 0 00-.014-.011.038.038 0 01-.01-.007l-.262-.261-.007-.002h-.003l-.004.002a.114.114 0 00-.061.018c.003.002.002.003-.005.003-.01-.004-.02 0-.03.011l-.05.025c-.015-.005-.02.003-.032.007-.015.006-.02.01-.014.015l-.037.018c-.014-.002-.026.005-.036.02-.156.098-.259.183-.403.314a.201.201 0 00-.067.062l-.117.118-.131.14-.024.031a.258.258 0 00-.076.085l-.298.357c-.019.009-.03.022-.032.039l-.386.472c-.012 0-.019.008-.02.024l-.098.116a.128.128 0 00-.05.054c-.002.007-.006.013-.014.018l-.078.081v.002h.002l-.017.024-.108.114-.061.07-.17.172-.053.047-.092.087-.157.13c-.018.002-.03.01-.035.026a.361.361 0 01-.045.037 2.83 2.83 0 01-.419.25c-.01-.006-.02-.005-.026.003a.008.008 0 01-.003.003h-.003c-.004 0-.007.001-.01.003-.005.001-.005.003-.002.006l.004.002a.41.41 0 00-.102.033v.004l-.005.001c-.017-.003-.028 0-.031.011l-.045.015h-.029c-.003 0-.003 0-.002.003l.005.003a.051.051 0 01-.027.008c-.008-.006-.017-.006-.028 0-.002.002-.002.002 0 .003.002 0 .004 0 .005.002a.064.064 0 01-.024.008c-.022-.007-.035-.005-.037.007l-.139.02a.046.046 0 00-.04.005.059.059 0 01-.035.004h-.173a1.565 1.565 0 01-.286-.043c.016-.008.007-.01-.025-.008a2.058 2.058 0 01-.134-.047.017.017 0 00-.013 0 .124.124 0 01-.04-.014c-.018-.017-.036-.024-.054-.022a.945.945 0 01-.468-.462.995.995 0 01-.1-.303 10.888 10.888 0 00-.017-.14c-.007-.052-.005-.107-.01-.16-.003-.04.004-.079.004-.119.001-.123.021-.249.041-.37.01-.009.013-.022.007-.039.016-.094.036-.188.06-.282a6.64 6.64 0 01.293-.872c.012 0 .016-.011.012-.032l.096-.223a.146.146 0 00.033-.073l.017-.042c.004.008.007.004.009-.01a.02.02 0 01.005-.012c.008-.007.01-.017.007-.03l.063-.13a.13.13 0 00.032-.064c.001-.004.004-.007.008-.01a.01.01 0 00.004-.004.01.01 0 000-.007c0-.005.001-.01.004-.013a7.597 7.597 0 00.09-.173.02.02 0 00.002-.01c0-.005.002-.007.006-.009a.009.009 0 00.006-.008c.002-.025.029-.048.036-.08l.146-.277a.13.13 0 00.037-.07 8.375 8.375 0 011.107-1.6.06.06 0 00.036-.039c0-.002.001-.005.005-.009l.324-.328c.022-.022.047-.045.076-.07.026-.021.051-.044.076-.067a4.779 4.779 0 01.2-.174.009.009 0 000-.007.007.007 0 00-.003-.003l-.09-.054c-.003-.013-.012-.018-.027-.016a.023.023 0 01-.014-.01v-.003s0 0 0 0l-.11-.055-.093-.05-.12-.057-.122-.051c-.01-.013-.026-.02-.047-.02-.013-.001-.017-.003-.012-.006a.107.107 0 00-.056-.021c-.003.004-.005.003-.005-.002-.004-.008-.012-.012-.023-.01l-.002.001.001.002-.12-.042c0-.01-.01-.013-.03-.01l-.121-.036c-.01-.013-.02-.016-.029-.009l-.177-.044c.017-.007.009-.009-.024-.006l-.03-.007c.018-.008.01-.01-.021-.004l-.091-.018c-.01-.01-.023-.012-.042-.007a.05.05 0 01-.025-.004l-.002-.004c0-.002-.001-.003-.003-.003a.128.128 0 00-.043 0l-.262-.03a.029.029 0 01.018-.002h.001s0 0 0 0l-.001-.002a.139.139 0 00-.064 0c-.094-.001-.19-.007-.28-.004a14.29 14.29 0 00-.157.006zm-3.66 8.306c-.003-.003-.007-.002-.01.002a1.033 1.033 0 00.034-.003.01.01 0 00-.005-.001l-.007.002a.016.016 0 01-.007.002c-.002 0-.003 0-.005-.002zm-.53.237h-.004c-.002 0-.003 0-.004.002l-.675.68a.81.81 0 00-.092.108l-.093.188a.097.097 0 00-.021.068.799.799 0 00.363.895c.016.02.037.032.062.034.254.116.55.093.778-.065.042-.03.109-.09.2-.182l.572-.577a.817.817 0 00.223-.8.778.778 0 00-.552-.55 1.364 1.364 0 01-.071-.02c-.01-.01-.023-.011-.04-.004a.768.768 0 00-.646.223zm3.113.4l-.055.006a.041.041 0 00-.042.007l-.166.055a.084.084 0 00-.058.03c-.144.091-.24.202-.353.314-.01 0-.017.004-.02.011a.012.012 0 01-.006.006c-.008.004-.012.011-.013.022l-.083.083c-.017.006-.03.019-.039.04l-.068.068a.07.07 0 00-.04.04l-.068.07a.07.07 0 00-.04.04l-.068.069c-.015.002-.023.01-.025.026l-.089.09c-.012 0-.023.011-.033.033l-.075.076c-.003-.003-.007-.003-.012 0a.055.055 0 00-.012.013c-.006.008-.009.015-.008.02l-.082.082c-.016.003-.025.012-.026.027l-.297.3c-.017.004-.03.018-.04.04l-.069.069a.07.07 0 00-.039.04l-.075.075c-.012.001-.023.013-.033.034l-.028.033a.17.17 0 00-.04.042c-.001.001-.002.002-.001.003 0 .002 0 .002.002.002l-.007.012c-.02.01-.028.023-.025.038a.752.752 0 00-.12.358c-.006-.003-.008-.01-.006-.018 0 0 0 0 0 0 .001 0 .001 0 0 0h-.002a2.154 2.154 0 00.003.167h0c.001 0 .002 0 .002-.002v-.044c.015.395.318.734.72.757-.009-.001-.015 0-.02.002-.004.002-.004.003.001.004a.626.626 0 00.208-.011.748.748 0 00.302-.118c.045-.03.112-.09.201-.18l1.47-1.487a.782.782 0 00.203-.373c.007-.03.01-.062.014-.093l.002.019s0 0 0 0 0 0 0 0 0 0 0 0a.583.583 0 00-.004-.216.91.91 0 00-.048-.183.214.214 0 00-.055-.113.783.783 0 00-.48-.364c.017-.006.01-.007-.024-.005-.007.002-.012 0-.012-.003-.014-.01-.028-.012-.043-.007a.064.064 0 01-.031-.005.309.309 0 00-.148 0zm1.884 1.383l-.076.008c-.013-.005-.025-.004-.038.005l-.095.029a.073.073 0 00-.055.022l-.12.068a.376.376 0 00-.085.06l-1.536 1.553a.738.738 0 00-.096.113.812.812 0 00-.095.166.797.797 0 00.314 1.002.162.162 0 00.085.043.784.784 0 00.814-.109.15.15 0 00.043-.03l1.56-1.578a.343.343 0 00.051-.065l.092-.15c.014-.006.018-.016.014-.03a.774.774 0 00.065-.263.206.206 0 00-.002-.11.785.785 0 00-.524-.695c-.008-.011-.017-.014-.027-.01l-.06-.017a.058.058 0 00-.03-.009c-.004 0-.003.002.003.005l-.089-.008.037-.002.002-.002v-.003l-.188.001h-.002v.004a.117.117 0 01.038.002zm1.15 1.835l-1.647 1.662c-.004.003-.007.006-.008.01l.004.01c.155.171.332.314.53.427.014.02.025.027.031.019a2.23 2.23 0 001.452.211.005.005 0 00.001-.005l-.001-.002c-.19-.173-.33-.41-.338-.675a.059.059 0 000-.04c0-.278.143-.533.284-.768a.415.415 0 00.062-.13c.055-.137.06-.244-.007-.376a.127.127 0 00-.043-.073 1.338 1.338 0 00-.268-.273c-.004-.012-.011-.018-.02-.02-.006 0-.012.002-.018.008a.255.255 0 00-.014.016z" stroke="#374957" stroke-width=".25"/></svg>