<?xml version="1.0" encoding="utf-8"?><svg width="30" height="30" fill="none" xmlns="http://www.w3.org/2000/svg" viewBox="0 0 30 30"><path d="M30 15c0 8.284-6.716 15-15 15-8.284 0-15-6.716-15-15C0 6.716 6.716 0 15 0c8.284 0 15 6.716 15 15z" fill="#FEA804"/><path d="M9.856 12.272c.05-2.485 1.808-4.222 4.91-4.222 2.889 0 4.798 1.606 4.798 3.91 0 1.525-.737 2.585-2.162 3.424-1.343.778-1.717 1.273-1.717 2.263v.535h-2.677l-.02-.586c-.132-1.586.424-2.495 1.818-3.313 1.303-.778 1.697-1.273 1.697-2.233 0-.96-.768-1.657-1.92-1.657-1.161 0-1.929.738-1.99 1.88H9.857zm4.526 10.74c-.91 0-1.647-.698-1.647-1.587s.738-1.586 1.647-1.586c.92 0 1.656.697 1.656 1.586 0 .89-.737 1.586-1.656 1.586z" fill="#111"/></svg>