<?xml version="1.0" encoding="utf-8"?><svg width="18" height="18" fill="none" xmlns="http://www.w3.org/2000/svg" viewBox="0 0 18 18"><path d="M15.6 6.389l-.311-.173a1.7 1.7 0 01-.666-.614c-.015-.023-.028-.048-.056-.095l-.055-.096a1.694 1.694 0 01-.2-.886l.006-.361c.01-.578.014-.867-.067-1.127a1.695 1.695 0 00-.355-.624c-.182-.204-.435-.35-.94-.64l-.42-.242c-.504-.29-.756-.435-1.024-.49a1.703 1.703 0 00-.717.006c-.266.06-.515.209-1.013.506l-.003.001-.3.18a1.701 1.701 0 01-.867.269H8.39a1.7 1.7 0 01-.773-.214l-.095-.056-.303-.182c-.501-.3-.752-.45-1.02-.51a1.702 1.702 0 00-.72-.005c-.268.056-.52.202-1.024.494l-.003.001-.414.24-.005.003c-.5.29-.75.435-.931.638-.16.18-.28.393-.352.623-.082.26-.077.55-.068 1.13l.007.36.002.11a1.696 1.696 0 01-.257.871L2.38 5.6c-.143.23-.34.423-.573.562l-.096.054-.307.17c-.512.283-.767.424-.953.626-.165.178-.29.39-.365.62-.086.26-.086.552-.085 1.135l.001.477c.002.58.003.87.09 1.128.076.229.199.439.363.616.185.2.438.341.946.623l.304.169.103.058a1.7 1.7 0 01.57.56l.059.103.057.101a1.694 1.694 0 01.195.88l-.006.347c-.01.582-.014.873.068 1.134.072.231.193.444.354.624.183.204.436.35.941.64l.42.242c.504.29.756.434 1.024.49.236.049.481.047.717-.006.267-.06.516-.21 1.015-.507l.301-.18.096-.056a1.7 1.7 0 01.771-.213h.221c.271.009.537.082.774.214l.078.046.32.192c.501.3.752.45 1.02.51.236.053.482.055.72.005.268-.056.52-.202 1.024-.494l.421-.244c.5-.29.751-.435.932-.638.16-.18.28-.392.353-.623.08-.258.075-.546.066-1.118l-.007-.373v-.108c.004-.272.073-.538.201-.778l.054-.094.056-.094a1.7 1.7 0 01.667-.615h.002l.307-.17c.511-.284.768-.425.954-.627.164-.178.288-.39.364-.62.086-.258.085-.548.084-1.125l-.001-.487c-.002-.58-.002-.87-.088-1.128a1.698 1.698 0 00-.364-.616c-.185-.2-.439-.341-.945-.622l-.002-.001z" stroke="currentColor" stroke-width="1.5" stroke-linecap="round" stroke-linejoin="round"/><path d="M5.099 9A3.398 3.398 0 008.5 12.394 3.398 3.398 0 0011.902 9 3.398 3.398 0 008.5 5.606 3.398 3.398 0 005.1 9z" stroke="currentColor" stroke-width="1.5" stroke-linecap="round" stroke-linejoin="round"/></svg>